<?xml version="1.0" encoding="UTF-8" standalone="no"?>
<!-- Created with Inkscape (http://www.inkscape.org/) -->

<svg
   width="127.94566mm"
   height="127.99999mm"
   viewBox="0 0 127.94566 127.99999"
   version="1.1"
   id="svg5"
   inkscape:version="1.1.2 (0a00cf5339, 2022-02-04, custom)"
   sodipodi:docname="application-x-deb.svg"
   xmlns:inkscape="http://www.inkscape.org/namespaces/inkscape"
   xmlns:sodipodi="http://sodipodi.sourceforge.net/DTD/sodipodi-0.dtd"
   xmlns="http://www.w3.org/2000/svg"
   xmlns:svg="http://www.w3.org/2000/svg">
  <sodipodi:namedview
     id="namedview7"
     pagecolor="#505050"
     bordercolor="#ffffff"
     borderopacity="1"
     inkscape:pageshadow="0"
     inkscape:pageopacity="0"
     inkscape:pagecheckerboard="1"
     inkscape:document-units="mm"
     showgrid="false"
     inkscape:snap-object-midpoints="true"
     inkscape:zoom="0.81386721"
     inkscape:cx="316.39068"
     inkscape:cy="264.78521"
     inkscape:window-width="1440"
     inkscape:window-height="881"
     inkscape:window-x="-4"
     inkscape:window-y="-4"
     inkscape:window-maximized="1"
     inkscape:current-layer="layer1" />
  <defs
     id="defs2" />
  <g
     inkscape:label="Layer 1"
     inkscape:groupmode="layer"
     id="layer1"
     transform="translate(-64.902585,-223.50993)">
    <rect
       style="fill:#f9548f;fill-opacity:1;stroke:#f9548f;stroke-width:16.1713;stroke-linecap:round;stroke-linejoin:round;stroke-miterlimit:4;stroke-dasharray:none;stroke-opacity:1"
       id="rect1002"
       width="111.77436"
       height="111.8146"
       x="72.988235"
       y="231.60968"
       ry="10.369776" />
    <rect
       style="fill:#000000;fill-opacity:0.11;stroke:none;stroke-width:18.7712;stroke-linecap:round;stroke-linejoin:round;stroke-miterlimit:4;stroke-dasharray:none;stroke-opacity:1"
       id="rect37344"
       width="32.754593"
       height="32.258499"
       x="82.114029"
       y="223.52533" />
    <rect
       style="fill:#2f2f2f;fill-opacity:1;stroke:none;stroke-width:127.946;stroke-linecap:round;stroke-linejoin:round;stroke-miterlimit:4;stroke-dasharray:none;stroke-opacity:1"
       id="rect44223"
       width="32.776299"
       height="13.730531"
       x="82.092323"
       y="255.7838" />
    <path
       style="fill:#b6b6b6;fill-opacity:1;stroke:none;stroke-width:0.0624736;stroke-linecap:round;stroke-linejoin:round;stroke-miterlimit:4;stroke-dasharray:none;stroke-opacity:1"
       d="m 89.155635,274.82114 c -1.126407,0.2569 -1.915071,1.35952 -1.874761,2.50178 -0.106197,2.64942 -0.160599,5.30261 -0.16551,7.954 0.06876,1.2775 1.256839,2.32301 2.529689,2.25734 5.952284,0.0888 11.922407,0.14054 17.862517,0.1957 1.3001,-7.2e-4 2.39713,-1.20841 2.32885,-2.49675 -0.0694,-2.76877 -0.0786,-5.53893 -0.17643,-8.30297 -0.0805,-1.2695 -1.30865,-2.2629 -2.56153,-2.17038 -5.8424,0.0113 -11.686937,-0.0189 -17.528006,0.0151 -0.138272,0.0151 -0.276506,0.0302 -0.414808,0.0472 z"
       id="path57473" />
    <path
       style="fill:none;stroke:#ffffff;stroke-width:7.68524;stroke-linecap:butt;stroke-linejoin:miter;stroke-miterlimit:4;stroke-dasharray:none;stroke-opacity:1"
       d="m 85.874044,273.28866 -0.687937,18.34843 c -0.787119,20.99392 26.488483,23.31877 26.184003,0.60976 l -0.25467,-18.99313 z"
       id="path47194"
       sodipodi:nodetypes="csscc" />
    <path
       style="fill:#ffffff;stroke:#ffffff;stroke-width:7.99662px;stroke-linecap:butt;stroke-linejoin:miter;stroke-opacity:1"
       d="M 110.76709,289.38012 85.926017,289.14967"
       id="path48548" />
    <rect
       style="fill:#ffffff;fill-opacity:1;stroke:none;stroke-width:7.99662;stroke-linecap:round;stroke-linejoin:round;stroke-miterlimit:4;stroke-dasharray:none;stroke-opacity:1"
       id="rect57720"
       width="8.2272644"
       height="8.2272644"
       x="98.414101"
       y="231.10197" />
    <rect
       style="fill:#ffffff;fill-opacity:1;stroke:none;stroke-width:7.68169;stroke-linecap:round;stroke-linejoin:round;stroke-miterlimit:4;stroke-dasharray:none;stroke-opacity:1"
       id="rect57720-1"
       width="8.2272644"
       height="7.5920753"
       x="90.186821"
       y="223.50993" />
    <rect
       style="fill:#ffffff;fill-opacity:1;stroke:none;stroke-width:7.99662;stroke-linecap:round;stroke-linejoin:round;stroke-miterlimit:4;stroke-dasharray:none;stroke-opacity:1"
       id="rect57720-26"
       width="8.2272644"
       height="8.2272644"
       x="90.186821"
       y="239.32924" />
    <rect
       style="fill:#ffffff;fill-opacity:1;stroke:none;stroke-width:7.99662;stroke-linecap:round;stroke-linejoin:round;stroke-miterlimit:4;stroke-dasharray:none;stroke-opacity:1"
       id="rect57720-2"
       width="8.2272644"
       height="8.2272644"
       x="98.414101"
       y="247.55655" />
    <g
       aria-label="DEB"
       id="text24887"
       style="font-size:10.5833px;line-height:1.25;stroke-width:0.6;stroke-miterlimit:4;stroke-dasharray:none"
       transform="matrix(3.7779228,0,0,3.7779228,-182.08937,-621.85857)">
      <path
         d="m 72.089306,256.83386 q -0.232833,0 -0.391582,-0.15875 -0.15875,-0.15875 -0.15875,-0.39158 v -7.16489 q 0,-0.24342 0.15875,-0.39159 0.158749,-0.15874 0.391582,-0.15874 h 1.915577 q 1.195913,0 2.127243,0.52916 0.931331,0.52917 1.449912,1.47108 0.518582,0.93133 0.518582,2.12724 0,1.19592 -0.518582,2.13783 -0.518581,0.94191 -1.449912,1.47108 -0.93133,0.52916 -2.127243,0.52916 z m 1.915577,-0.97366 q 0.878414,0 1.566328,-0.40217 0.698498,-0.40216 1.079497,-1.12183 0.391582,-0.73024 0.391582,-1.64041 0,-0.91016 -0.391582,-1.62983 -0.380999,-0.71966 -1.079497,-1.12183 -0.687914,-0.40216 -1.566328,-0.40216 h -1.365246 v 6.31823 z"
         style="font-weight:bold;font-family:Comfortaa;-inkscape-font-specification:'Comfortaa, Bold';fill:#ffffff;stroke-width:0.6;stroke-miterlimit:4;stroke-dasharray:none"
         id="path36092" />
      <path
         d="m 80.376019,256.83386 q -0.232832,0 -0.391582,-0.15875 -0.158749,-0.15875 -0.158749,-0.39158 v -7.16489 q 0,-0.24342 0.158749,-0.39159 0.15875,-0.15874 0.391582,-0.15874 h 4.783652 q 0.243416,0 0.391582,0.14816 0.148166,0.13758 0.148166,0.37042 0,0.22225 -0.148166,0.35983 -0.148166,0.13758 -0.391582,0.13758 h -4.23332 v 2.57174 h 3.037407 q 0.232833,0 0.380999,0.14817 0.158749,0.13758 0.158749,0.35983 0,0.22225 -0.158749,0.37042 -0.148166,0.13758 -0.380999,0.13758 h -3.037407 v 2.64583 h 4.23332 q 0.243416,0 0.391582,0.13758 0.148166,0.13758 0.148166,0.35983 0,0.23283 -0.148166,0.381 -0.148166,0.13758 -0.391582,0.13758 z"
         style="font-weight:bold;font-family:Comfortaa;-inkscape-font-specification:'Comfortaa, Bold';fill:#ffffff;stroke-width:0.6;stroke-miterlimit:4;stroke-dasharray:none"
         id="path36094" />
      <path
         d="m 87.784338,256.83386 q -0.232833,0 -0.391582,-0.15875 -0.15875,-0.15875 -0.15875,-0.39158 v -7.16489 q 0,-0.24342 0.15875,-0.39159 0.158749,-0.15874 0.391582,-0.15874 h 2.529409 q 0.709081,0 1.259412,0.28574 0.550332,0.27517 0.857247,0.78317 0.317499,0.49741 0.317499,1.13241 0,0.51858 -0.285749,0.93133 -0.275165,0.41275 -0.761997,0.66675 0.719664,0.16933 1.132413,0.67733 0.412749,0.508 0.412749,1.29116 0,0.71967 -0.349249,1.29117 -0.338666,0.57149 -0.963081,0.88899 -0.613831,0.3175 -1.396995,0.3175 z m 2.529409,-4.86832 q 0.624414,0 0.99483,-0.30691 0.380998,-0.30692 0.380998,-0.889 0,-0.58208 -0.380998,-0.87841 -0.370416,-0.30692 -0.99483,-0.30692 h -1.979078 v 2.38124 z m 0.222249,3.85233 q 0.740831,0 1.195913,-0.381 0.455082,-0.39159 0.455082,-1.10067 0,-0.65616 -0.455082,-1.00541 -0.444499,-0.34925 -1.195913,-0.34925 h -2.201327 v 2.83633 z"
         style="font-weight:bold;font-family:Comfortaa;-inkscape-font-specification:'Comfortaa, Bold';fill:#ffffff;stroke-width:0.6;stroke-miterlimit:4;stroke-dasharray:none"
         id="path36096" />
    </g>
    <g
       id="g3006"
       transform="matrix(2.9440853,0,0,2.9440853,84.625769,200.22413)">
      <path
         fill="#ffffff"
         d="m 31.676,22.128 c 0.04023,1.200021 -0.863184,2.193192 -1.403325,3.186454 -0.978053,0.716249 -2.041892,1.468436 -3.26699,1.655369 -2.478871,0.364364 -4.69493,-1.934727 -4.740977,-4.332656 -0.342375,-1.408295 0.616308,-2.869403 1.77851,-3.605709 1.166883,-0.721784 2.710633,-0.63348 3.824795,0.145774 -0.446068,-0.699052 -1.56317,-1.197512 -2.501327,-1.14657 -1.439089,-0.01041 -2.623825,1.036042 -3.232626,2.269423 -1.146695,1.865931 -0.720702,4.449979 0.91652,5.893279 0.388306,0.23858 1.675928,1.528296 0.483025,0.862197 -0.359316,-0.16259 -1.157682,-1.121266 -0.481563,-0.272306 0.610408,0.929256 -1.673911,-1.783865 -0.734432,-0.460578 1.198172,1.346711 3.060901,2.364555 4.901129,1.923111 -0.862376,-0.009 -2.581905,-0.117419 -2.720787,-0.779863 1.258766,0.172028 2.563845,0.558049 3.796408,0.0383 1.256628,-0.244094 2.252861,-1.416652 3.137928,-1.990423 -0.163271,0.383341 0.306836,-1.163295 0.723186,-1.017256 0.195744,-0.584622 0.705543,-2.046777 0.766793,-2.031644 -0.07045,0.655471 -0.0021,0.776938 -6.77e-4,0.0764 -0.107859,-0.297074 0.178098,-0.85012 0.200087,-0.205976 0.520002,-0.953772 -0.186955,-2.888452 0.0054,-3.221488 0.442086,-0.466649 -1.208657,-2.241124 0.02425,-1.772321 0.55409,0.319055 0.665295,2.281525 0.793335,1.966943 -0.52358,-0.906523 -0.197456,-1.983671 -0.576112,-2.917143 -0.730714,-1.595577 -1.973479,-2.946052 -3.487515,-3.829758 0.495206,0.804791 -0.818369,-0.84525 -1.224981,-0.312421 -1.351136,-0.343299 -2.664996,-1.245017 -4.097855,-0.726419 -0.892692,-0.03294 0.628052,-0.32855 -0.401462,-0.209349 -0.357478,0.07242 -1.245602,-0.05323 -0.462552,-0.313526 -2.342905,0.117001 -4.349221,1.539349 -6.14805,2.914289 -1.103227,1.084306 -1.661386,2.572278 -2.519158,3.832182 -0.647906,1.279678 -1.117824,2.700554 -0.9552,4.150708 -0.147544,2.933572 0.109142,6.000754 1.616487,8.590906 1.672212,3.149032 4.604234,5.896427 8.225661,6.459866 0.411994,0.08296 1.768727,0.03292 0.636843,-0.125108 -1.263026,0.09746 -2.029141,-1.260461 -3.058814,-1.415214 -0.859847,-0.714523 -1.561711,-1.49474 -2.388685,-2.28466 -0.750251,-0.845413 -1.399225,-1.852767 -1.691073,-2.90867 -0.05564,-0.295077 -0.851094,-1.475703 -0.07832,-0.924789 -0.495728,-1.237308 -2.082097,-1.933811 -1.774319,-3.486722 -0.313614,-1.175748 -0.358809,-2.379508 -0.173242,-3.57956 -0.01214,-1.297597 0.577653,-2.436681 1.001691,-3.627663 0.526658,-1.250132 1.572662,-2.203434 2.761943,-2.82704 0.570575,-0.610293 1.28734,-1.206422 2.354236,-1.349821 -0.499669,-0.105834 1.117252,-0.742917 1.505892,-0.899562 0.295912,-0.0823 0.820494,-0.02157 0.264596,0.136217 2.453907,-0.808455 5.340312,0.195479 6.835736,2.291715 1.435476,1.838092 1.813702,4.330348 1.384159,6.58366 0.06059,-0.134072 0.121187,-0.268144 0.18178,-0.402216"
         id="path2991" />
    </g>
  </g>
</svg>
