<?xml version="1.0" encoding="UTF-8" standalone="no"?>
<!-- Created with Inkscape (http://www.inkscape.org/) -->

<svg
   version="1.1"
   id="svg2"
   width="128.00003"
   height="128.04913"
   viewBox="0 0 128.00003 128.04913"
   sodipodi:docname="application-x-rpm.svg"
   inkscape:version="1.1.2 (0a00cf5339, 2022-02-04, custom)"
   xmlns:inkscape="http://www.inkscape.org/namespaces/inkscape"
   xmlns:sodipodi="http://sodipodi.sourceforge.net/DTD/sodipodi-0.dtd"
   xmlns="http://www.w3.org/2000/svg"
   xmlns:svg="http://www.w3.org/2000/svg">
  <defs
     id="defs6" />
  <sodipodi:namedview
     id="namedview4"
     pagecolor="#505050"
     bordercolor="#ffffff"
     borderopacity="1"
     inkscape:pageshadow="0"
     inkscape:pageopacity="0"
     inkscape:pagecheckerboard="1"
     showgrid="false"
     inkscape:zoom="4"
     inkscape:cx="52.125"
     inkscape:cy="62.625"
     inkscape:window-width="1440"
     inkscape:window-height="881"
     inkscape:window-x="-4"
     inkscape:window-y="-4"
     inkscape:window-maximized="0"
     inkscape:current-layer="g8"
     inkscape:snap-bbox="true"
     inkscape:snap-bbox-edge-midpoints="false"
     inkscape:snap-bbox-midpoints="true" />
  <g
     inkscape:groupmode="layer"
     inkscape:label="Image"
     id="g8"
     transform="translate(-1.3572121,-0.77849746)">
    <rect
       style="fill:#e33737;fill-opacity:1;stroke:#e33737;stroke-width:16.1782;stroke-linecap:round;stroke-linejoin:round;stroke-miterlimit:4;stroke-dasharray:none;stroke-opacity:1"
       id="rect1002"
       width="111.82184"
       height="111.8621"
       x="9.446312"
       y="8.8764315"
       ry="10.374181" />
    <rect
       style="fill:#2f2f2f;fill-opacity:1;stroke:none;stroke-width:128;stroke-linecap:round;stroke-linejoin:round;stroke-miterlimit:4;stroke-dasharray:none;stroke-opacity:1"
       id="rect44223"
       width="32.790222"
       height="13.736363"
       x="18.554279"
       y="33.060799" />
    <path
       style="fill:#b6b6b6;fill-opacity:1;stroke:none;stroke-width:0.0625;stroke-linecap:round;stroke-linejoin:round;stroke-miterlimit:4;stroke-dasharray:none;stroke-opacity:1"
       d="m 25.620577,52.106239 c -1.126884,0.25688 -1.915884,1.360088 -1.875556,2.502824 -0.10624,2.650548 -0.16068,5.304892 -0.1656,7.957384 0.0688,1.278036 1.257376,2.324 2.530764,2.2583 5.954812,0.08888 11.927476,0.14076 17.870108,0.19568 1.300652,-7.28e-4 2.398149,-1.20892 2.329841,-2.4978 -0.06944,-2.769964 -0.07864,-5.541292 -0.17652,-8.306508 -0.08052,-1.270028 -1.309205,-2.263884 -2.562617,-2.171292 -5.844884,0.0096 -11.691908,-0.0188 -17.535456,0.014 -0.13832,0.0156 -0.27664,0.0316 -0.414984,0.04728 z"
       id="path57473" />
    <path
       style="fill:none;stroke:#ffffff;stroke-width:7.68852;stroke-linecap:butt;stroke-linejoin:miter;stroke-miterlimit:4;stroke-dasharray:none;stroke-opacity:1"
       d="m 22.337593,50.573087 -0.688227,18.356244 c -0.787454,21.002822 26.499734,23.328664 26.195125,0.61 L 47.589726,50.538139 Z"
       id="path47194"
       sodipodi:nodetypes="csscc" />
    <path
       style="fill:#ffffff;stroke:#ffffff;stroke-width:8px;stroke-linecap:butt;stroke-linejoin:miter;stroke-opacity:1"
       d="M 47.241214,66.671412 22.389589,66.440932"
       id="path48548" />
    <rect
       style="fill:#ffffff;fill-opacity:1;stroke:none;stroke-width:8;stroke-linecap:round;stroke-linejoin:round;stroke-miterlimit:4;stroke-dasharray:none;stroke-opacity:1"
       id="rect57720"
       width="8.2307596"
       height="8.2307596"
       x="34.88298"
       y="8.368516" />
    <rect
       style="fill:#ffffff;fill-opacity:1;stroke:none;stroke-width:7.68496;stroke-linecap:round;stroke-linejoin:round;stroke-miterlimit:4;stroke-dasharray:none;stroke-opacity:1"
       id="rect57720-1"
       width="8.2307596"
       height="7.5953002"
       x="26.652214"
       y="0.77321577" />
    <rect
       style="fill:#ffffff;fill-opacity:1;stroke:none;stroke-width:8;stroke-linecap:round;stroke-linejoin:round;stroke-miterlimit:4;stroke-dasharray:none;stroke-opacity:1"
       id="rect57720-26"
       width="8.2307596"
       height="8.2307596"
       x="26.652214"
       y="16.599276" />
    <rect
       style="fill:#ffffff;fill-opacity:1;stroke:none;stroke-width:8;stroke-linecap:round;stroke-linejoin:round;stroke-miterlimit:4;stroke-dasharray:none;stroke-opacity:1"
       id="rect57720-2"
       width="8.2307596"
       height="8.2307596"
       x="34.88298"
       y="24.830032" />
    <g
       id="g31171"
       transform="matrix(0.47494664,0.06045565,-0.06045565,0.47494664,54.87236,85.473326)"
       style="stroke-width:1.00046188;stroke-miterlimit:4;stroke-dasharray:none">
      <path
         id="path4"
         style="fill:#ffffff;fill-opacity:1;stroke-width:1.00046;stroke-miterlimit:4;stroke-dasharray:none"
         d="m 71.647558,-128.64435 c -5.24187,0.0585 -8.713431,8.39255 -14.888456,5.06552 -4.740283,-2.03306 -10.658285,-5.87572 -15.474386,-1.82761 -5.329092,5.27663 -6.134591,13.28689 -9.059018,19.92027 -3.03517,5.23009 -2.531867,15.948183 -9.627885,15.920264 -9.030501,0.830601 -20.5092913,2.257683 -24.9087691,11.4384 -4.0054126,10.045322 3.28758572,19.8716 10.3725189,26.402656 17.4174022,15.49309 39.6907722,24.534421 62.1067722,30.016471 18.17025,3.97282 37.783755,5.959208 55.657995,-0.379571 10.72545,-3.639156 19.40886,-14.217385 18.06136,-25.929365 -1.76035,-12.509277 -13.03293,-20.99554 -23.8956,-25.746676 -2.93367,-11.876364 -5.28986,-23.912477 -8.5633,-35.692179 -3.35271,-6.95622 -11.62956,-9.11973 -18.045114,-12.32987 -7.050275,-2.7415 -14.139111,-6.94305 -21.736118,-6.85831 z"
         sodipodi:nodetypes="acccccccccccca" />
      <path
         id="path10"
         style="fill:#1a1a1a;stroke-width:1.00046188;stroke-miterlimit:4;stroke-dasharray:none"
         d="m 120.14669,-72.930698 c 1.67668,5.776301 2.32612,12.876163 -2.69421,17.268632 -9.77094,8.566197 -23.872034,7.995722 -36.0327,6.723601 -18.666854,-2.541083 -37.653353,-9.415415 -51.057458,-23.080432 -4.808591,-4.713824 -7.511763,-12.233805 -3.815381,-18.445511 0.694341,-1.146737 2.565912,-7.406064 2.203058,-4.168638 1.690106,6.359567 7.851537,10.254249 12.793465,14.068978 18.047438,12.103048 40.481566,18.400701 62.186016,15.784862 6.84214,-0.789252 15.37997,-4.809013 15.09095,-12.853666 -0.62984,-5.651407 0.58394,1.66147 1.07949,3.54421 0.0823,0.385988 0.16451,0.771976 0.24679,1.157964 z" />
    </g>
    <text
       xml:space="preserve"
       style="font-style:normal;font-weight:normal;font-size:40px;line-height:1.25;font-family:sans-serif;fill:#000000;fill-opacity:1;stroke:none"
       x="22.550224"
       y="126.56095"
       id="text24887"><tspan
         sodipodi:role="line"
         id="tspan24885"
         x="22.550224"
         y="126.56095"
         style="font-style:normal;font-variant:normal;font-weight:bold;font-stretch:normal;font-size:40px;font-family:Comfortaa;-inkscape-font-specification:'Comfortaa, Bold';font-variant-ligatures:normal;font-variant-caps:normal;font-variant-numeric:normal;font-variant-east-asian:normal;fill:#ffffff">RPM</tspan></text>
    <rect
       style="fill:#000000;fill-opacity:0.22;stroke:none;stroke-width:18.7792;stroke-linecap:round;stroke-linejoin:round;stroke-miterlimit:4;stroke-dasharray:none;stroke-opacity:1"
       id="rect37344-9"
       width="32.768505"
       height="32.272202"
       x="18.576"
       y="0.78859711" />
  </g>
</svg>
