<?xml version="1.0" encoding="UTF-8" standalone="no"?>
<svg
   width="102.4"
   height="128"
   version="1"
   id="svg16"
   sodipodi:docname="text-x-c++src.svg"
   inkscape:version="1.1.2 (0a00cf5339, 2022-02-04, custom)"
   xmlns:inkscape="http://www.inkscape.org/namespaces/inkscape"
   xmlns:sodipodi="http://sodipodi.sourceforge.net/DTD/sodipodi-0.dtd"
   xmlns="http://www.w3.org/2000/svg"
   xmlns:svg="http://www.w3.org/2000/svg">
  <defs
     id="defs20" />
  <sodipodi:namedview
     id="namedview18"
     pagecolor="#505050"
     bordercolor="#ffffff"
     borderopacity="1"
     inkscape:pageshadow="0"
     inkscape:pageopacity="0"
     inkscape:pagecheckerboard="1"
     showgrid="false"
     inkscape:zoom="2"
     inkscape:cx="-84"
     inkscape:cy="41.75"
     inkscape:window-width="1440"
     inkscape:window-height="881"
     inkscape:window-x="-4"
     inkscape:window-y="-4"
     inkscape:window-maximized="1"
     inkscape:current-layer="svg16" />
  <path
     fill="#e4e4e4"
     d="M 6.4,0 C 2.8544,0 0,2.8544 0,6.4 v 115.2 c 0,3.5456 2.8544,6.4 6.4,6.4 H 96 c 3.5456,0 6.4,-2.8544 6.4,-6.4 V 38.4 L 67.2,35.2 64,0 Z"
     id="path4"
     style="fill:#ffffff;fill-opacity:1;stroke-width:3.2" />
  <path
     fill="#fafafa"
     d="m 64,0 v 32 c 0,3.53472 2.865376,6.4 6.4,6.4 h 32 z"
     id="path10"
     style="fill:#999999;stroke-width:3.2" />
  <g
     aria-label="c"
     id="text2376"
     style="font-weight:bold;font-size:15.8924px;line-height:1.25;font-family:Comfortaa;-inkscape-font-specification:'Comfortaa, Bold';fill:#0180cd;stroke-width:0.397309"
     transform="scale(6.4)">
    <path
       d="M 5.9100203,9.8303381 C 4.3962636,9.8641986 2.8751347,9.0714409 2.1161289,7.7470214 1.3527692,6.3999352 1.3302368,4.6705445 1.9986276,3.2817381 2.671021,1.8752943 4.2119457,1.0007856 5.7533312,1.0106149 6.9251986,0.96724149 8.0966361,1.4667471 8.8673725,2.3523742 9.2080516,2.6221853 9.1658269,3.1853845 8.7970982,3.4113605 8.4405036,3.7023681 7.9144582,3.5081018 7.668862,3.163228 6.7567599,2.2473871 5.1533707,2.20264 4.1462744,2.9859284 3.2953633,3.6338484 2.9917335,4.7677196 3.0979037,5.795236 3.1649263,6.8018425 3.7787547,7.7745526 4.7254623,8.1672233 5.5711983,8.5134782 6.5937003,8.4906402 7.3933524,8.0328207 7.7114512,7.8028373 8.0983572,7.4887522 8.5119042,7.6771662 8.9235191,7.8425098 9.1351196,8.4465555 8.7706523,8.7655473 8.0080163,9.4941549 6.9546775,9.8430153 5.9100203,9.8303381 Z"
       id="path15551" />
  </g>
  <g
     aria-label="++"
     id="text2376-8"
     style="font-weight:bold;font-size:14.4138px;line-height:1.25;font-family:Comfortaa;-inkscape-font-specification:'Comfortaa, Bold';fill:#0180cd;stroke-width:0.360344"
     transform="scale(6.4)">
    <path
       d="m 4.3192686,18.518329 c -0.4207103,0.02938 -0.7784759,-0.358707 -0.7351038,-0.773671 0,-0.630961 0,-1.261921 0,-1.892882 -0.669686,-0.0022 -1.3396165,0.0045 -2.0091486,-0.0034 C 1.0504264,15.828656 0.76244068,15.189726 0.99643726,14.7509 1.1498201,14.429672 1.5197283,14.340023 1.8455501,14.367132 c 0.5795382,0 1.1590765,0 1.7386147,0 0.00221,-0.668565 -0.00445,-1.337332 0.00338,-2.00577 0.029084,-0.559256 0.7840429,-0.875274 1.1983725,-0.49525 0.2931611,0.209152 0.2747069,0.579131 0.268457,0.89739 0,0.534543 0,1.069087 0,1.60363 0.6685655,0.0022 1.3373324,-0.0044 2.0057704,0.0034 0.5317256,0.0325 0.8802544,0.719464 0.5454722,1.151528 -0.1772612,0.272598 -0.506471,0.355865 -0.8126279,0.329716 -0.5795382,0 -1.1590765,0 -1.7386147,0 -0.00222,0.669686 0.00447,1.339616 -0.00338,2.009148 -0.023204,0.371548 -0.3585014,0.675746 -0.7317257,0.657405 z"
       id="path15591" />
    <path
       d="m 12.20363,18.518329 c -0.42071,0.02938 -0.778476,-0.358707 -0.735104,-0.773671 0,-0.630961 0,-1.261921 0,-1.892882 -0.669686,-0.0022 -1.339616,0.0045 -2.0091485,-0.0034 -0.5245898,-0.01972 -0.8125755,-0.65865 -0.5785789,-1.097476 0.1533828,-0.321228 0.523291,-0.410877 0.8491128,-0.383768 0.5795386,0 1.1590766,0 1.7386146,0 0.0022,-0.668565 -0.0044,-1.337332 0.0034,-2.00577 0.02908,-0.559256 0.784043,-0.875274 1.198373,-0.49525 0.293161,0.209152 0.274707,0.579131 0.268457,0.89739 0,0.534543 0,1.069087 0,1.60363 0.668565,0.0022 1.337332,-0.0044 2.00577,0.0034 0.531726,0.0325 0.880255,0.719464 0.545473,1.151528 -0.177262,0.272598 -0.506471,0.355865 -0.812628,0.329716 -0.579539,0 -1.159077,0 -1.738615,0 -0.0022,0.669686 0.0045,1.339616 -0.0034,2.009148 -0.0232,0.371548 -0.358502,0.675746 -0.731726,0.657405 z"
       id="path15593" />
  </g>
</svg>
