<?xml version="1.0" encoding="UTF-8" standalone="no"?>
<!-- Created with Inkscape (http://www.inkscape.org/) -->

<svg
   version="1.1"
   id="svg2"
   width="128.00003"
   height="128.0403"
   viewBox="0 0 128.00003 128.04029"
   sodipodi:docname="video-x-generic.svg"
   inkscape:version="1.1.2 (0a00cf5339, 2022-02-04, custom)"
   xmlns:inkscape="http://www.inkscape.org/namespaces/inkscape"
   xmlns:sodipodi="http://sodipodi.sourceforge.net/DTD/sodipodi-0.dtd"
   xmlns="http://www.w3.org/2000/svg"
   xmlns:svg="http://www.w3.org/2000/svg">
  <defs
     id="defs6" />
  <sodipodi:namedview
     id="namedview4"
     pagecolor="#505050"
     bordercolor="#ffffff"
     borderopacity="1"
     inkscape:pageshadow="0"
     inkscape:pageopacity="0"
     inkscape:pagecheckerboard="1"
     showgrid="false"
     inkscape:zoom="3.6203867"
     inkscape:cx="-32.040776"
     inkscape:cy="22.235194"
     inkscape:window-width="1440"
     inkscape:window-height="881"
     inkscape:window-x="-4"
     inkscape:window-y="-4"
     inkscape:window-maximized="0"
     inkscape:current-layer="g8"
     inkscape:snap-bbox="true"
     inkscape:snap-bbox-edge-midpoints="false"
     inkscape:snap-bbox-midpoints="false"
     inkscape:snap-page="false"
     inkscape:snap-others="false"
     inkscape:object-nodes="false" />
  <g
     inkscape:groupmode="layer"
     inkscape:label="Image"
     id="g8"
     transform="translate(-1.3572121,-0.77958488)">
    <rect
       style="fill:#1a1a1a;fill-opacity:1;stroke:#1a1a1a;stroke-width:16.1782;stroke-linecap:round;stroke-linejoin:round;stroke-miterlimit:4;stroke-dasharray:none;stroke-opacity:1"
       id="rect1002"
       width="111.82184"
       height="111.8621"
       x="9.446312"
       y="8.8686848"
       ry="10.374181" />
    <rect
       style="fill:#000000;fill-opacity:1;stroke:#000000;stroke-width:16.1782;stroke-linecap:round;stroke-linejoin:round;stroke-miterlimit:4;stroke-dasharray:none;stroke-opacity:1"
       id="rect1002-8"
       width="111.82183"
       height="20.698292"
       x="9.446312"
       y="8.8686848"
       ry="7.7468033" />
    <rect
       style="fill:#000000;fill-opacity:1;stroke:none;stroke-width:11.6942;stroke-linecap:round;stroke-linejoin:round;stroke-miterlimit:4;stroke-dasharray:none;stroke-opacity:1"
       id="rect1002-9"
       width="127.89586"
       height="18.037985"
       x="1.4543467"
       y="19.575068"
       ry="0" />
    <path
       style="fill:#f9f9f9;stroke-width:0.26508"
       d="m 15.09067,34.707294 c 3.771135,-4.522402 7.536781,-9.04937 11.304423,-13.574676 4.919254,0.03336 9.842446,-0.0843 14.758546,0.09256 1.450544,0.19868 -0.898812,1.630894 -1.083244,2.287078 -3.52404,4.24792 -7.058566,8.487128 -10.588774,12.72992 -5.224344,0 -10.448678,0 -15.673022,0 0.427392,-0.511632 0.854716,-1.023258 1.282071,-1.53489 z M 20.345197,10.790003 C 18.279719,8.2765881 16.1485,5.8108012 14.201706,3.2039668 c 0.9277,-0.737978 2.725814,-0.18517 3.984581,-0.32601 3.29714,0.111644 6.69032,-0.073236 9.833856,1.1116748 1.916948,0.4395344 3.62339,1.5159012 4.859666,3.0424085 3.009414,3.4828609 5.920186,7.0556379 8.851142,10.6020819 -1.168936,0.52346 -2.731772,0.205988 -4.06142,0.31246 -3.781226,0.0092 -7.562474,0.0035 -11.343698,0.0051 -1.993544,-2.387229 -3.987094,-4.774447 -5.980636,-7.161659 z"
       id="path2512"
       sodipodi:nodetypes="sscssscccsssssssscs" />
    <path
       style="fill:#f9f9f9;stroke-width:0.26508"
       d="m 42.162823,34.855738 c 3.771136,-4.522402 7.53678,-9.049368 11.304428,-13.574676 4.919252,0.03336 9.84244,-0.0843 14.758544,0.09256 1.450544,0.19868 -0.898812,1.630894 -1.083244,2.28708 -3.52404,4.24792 -7.058568,8.487128 -10.588772,12.729922 -5.224348,0 -10.448684,0 -15.673028,0 0.427392,-0.511634 0.854716,-1.023262 1.282072,-1.534894 z m 5.254528,-23.91729 c -2.06548,-2.5134147 -4.1967,-4.979202 -6.143492,-7.5860364 0.9277,-0.7379764 2.725816,-0.185168 3.98458,-0.326008 3.29714,0.111648 6.69032,-0.0732 9.83386,1.1116748 1.916948,0.4395364 3.623392,1.5159012 4.859668,3.0424085 3.009412,3.4828601 5.920184,7.0556381 8.85114,10.6020811 -1.168936,0.523464 -2.731772,0.205992 -4.06142,0.312456 -3.781228,0.0092 -7.562472,0.0035 -11.3437,0.0051 -1.993548,-2.387216 -3.987096,-4.774433 -5.980636,-7.161645 z"
       id="path2512-6"
       sodipodi:nodetypes="sscssscccsssssssscs" />
    <path
       style="fill:#f9f9f9;stroke-width:0.26508"
       d="m 68.040791,34.932302 c 3.771136,-4.522404 7.53678,-9.04937 11.304429,-13.574676 4.919248,0.03336 9.842444,-0.0843 14.75854,0.09256 1.450544,0.19868 -0.898808,1.630894 -1.08324,2.287078 -3.52404,4.24792 -7.058568,8.487128 -10.588772,12.729922 -5.224344,0 -10.448681,0 -15.673029,0 0.427392,-0.511634 0.854716,-1.023262 1.282072,-1.534892 z M 73.295315,11.015011 C 71.229839,8.5015957 69.098619,6.0358084 67.151827,3.428974 c 0.927696,-0.7379764 2.725812,-0.185168 3.98458,-0.326008 3.29714,0.111648 6.690325,-0.0732 9.833861,1.1116748 1.916944,0.4395364 3.623392,1.5159012 4.859668,3.0424085 3.009416,3.4828607 5.920184,7.0556377 8.851136,10.6020817 -1.168936,0.523464 -2.731768,0.205992 -4.061416,0.312456 -3.781224,0.0092 -7.562476,0.0035 -11.3437,0.0051 -1.993544,-2.387215 -3.987097,-4.774432 -5.980641,-7.161646 z"
       id="path2512-64"
       sodipodi:nodetypes="sscssscccsssssssscs" />
    <path
       style="fill:#f9f9f9;stroke-width:0.26508"
       d="m 94.643848,34.79062 c 3.771132,-4.522404 7.536782,-9.04937 11.304422,-13.574676 4.91925,0.03336 9.84244,-0.0843 14.75855,0.09256 1.45053,0.19868 -0.89882,1.630894 -1.08325,2.287078 -3.52404,4.24792 -7.05857,8.487128 -10.58877,12.72992 -5.22435,0 -10.448684,0 -15.673024,0 0.42736,-0.511632 0.854712,-1.023258 1.282072,-1.53489 z m 5.254524,-23.91729 c -2.06548,-2.5134151 -4.1967,-4.9792024 -6.143492,-7.5860368 0.927696,-0.7379764 2.725816,-0.185168 3.98458,-0.326008 3.29714,0.111648 6.69032,-0.0732 9.83386,1.1116748 1.91694,0.4395364 3.62339,1.5159012 4.85966,3.0424085 3.00942,3.4828605 5.92019,7.0556375 8.85114,10.6020805 -1.16894,0.523464 -2.73177,0.205992 -4.06142,0.312456 -3.78122,0.0092 -7.56247,0.0035 -11.3437,0.0051 -1.99354,-2.387216 -3.98708,-4.774433 -5.980628,-7.161644 z"
       id="path2512-9"
       sodipodi:nodetypes="sscssscccsssssssscs" />
    <g
       id="g6200"
       transform="matrix(2.4360196,0,0,2.4360196,-31.796032,64.236125)">
      <path
         style="fill:#e6e6e6;stroke:#e6e6e6;stroke-width:1px;stroke-linecap:butt;stroke-linejoin:miter;stroke-opacity:1"
         d="M 58.671755,19.219373 V 5.5867801 L 50.69869,10.190032 v 4.714348 z"
         id="path5672" />
      <path
         id="path5242"
         style="fill:#cccccc;stroke:#cccccc;stroke-width:0;stroke-linecap:round;stroke-linejoin:round"
         d="m 51.010518,-1.4436094 a 6.9705172,6.9705172 0 0 1 -6.970517,6.9705175 6.9705172,6.9705172 0 0 1 -6.970517,-6.9705175 6.9705172,6.9705172 0 0 1 6.970517,-6.9705172 6.9705172,6.9705172 0 0 1 6.970517,6.9705172 z" />
      <path
         id="path5114"
         style="fill:#b3b3b3;stroke-width:0;stroke-linecap:round;stroke-linejoin:round"
         d="m 35.735744,-0.01232238 a 4.5503802,4.5503802 0 0 1 -4.55038,4.55038018 4.5503802,4.5503802 0 0 1 -4.550381,-4.55038018 4.5503802,4.5503802 0 0 1 4.550381,-4.55038022 4.5503802,4.5503802 0 0 1 4.55038,4.55038022 z" />
      <rect
         style="fill:#ffffff;fill-opacity:1;stroke:#f9f9f9;stroke-width:2.02227;stroke-linecap:round;stroke-linejoin:round;stroke-miterlimit:4;stroke-dasharray:none;stroke-opacity:1"
         id="rect1002-5"
         width="24.503922"
         height="15.420632"
         x="25.747051"
         y="4.886024"
         ry="1.2967722" />
    </g>
  </g>
</svg>
