<?xml version="1.0" encoding="UTF-8" standalone="no"?>
<!-- Created with Inkscape (http://www.inkscape.org/) -->

<svg
   version="1.1"
   id="svg2"
   width="128"
   height="121.59274"
   viewBox="0 0 128 121.59273"
   sodipodi:docname="folder-download.svg"
   inkscape:export-filename="/home/itszariep/.icons/ilustraciones/16/apps/folder.png"
   inkscape:export-xdpi="435.14099"
   inkscape:export-ydpi="435.14099"
   inkscape:version="1.1.2 (0a00cf5339, 2022-02-04, custom)"
   xmlns:inkscape="http://www.inkscape.org/namespaces/inkscape"
   xmlns:sodipodi="http://sodipodi.sourceforge.net/DTD/sodipodi-0.dtd"
   xmlns="http://www.w3.org/2000/svg"
   xmlns:svg="http://www.w3.org/2000/svg">
  <defs
     id="defs6" />
  <sodipodi:namedview
     id="namedview4"
     pagecolor="#505050"
     bordercolor="#ffffff"
     borderopacity="1"
     inkscape:pageshadow="0"
     inkscape:pageopacity="0"
     inkscape:pagecheckerboard="1"
     showgrid="false"
     inkscape:snap-global="true"
     inkscape:snap-others="false"
     inkscape:object-nodes="false"
     inkscape:snap-nodes="false"
     inkscape:snap-page="false"
     inkscape:snap-object-midpoints="false"
     inkscape:snap-center="false"
     inkscape:object-paths="false"
     inkscape:snap-intersection-paths="false"
     inkscape:snap-midpoints="false"
     inkscape:snap-bbox="true"
     inkscape:bbox-nodes="false"
     inkscape:bbox-paths="true"
     inkscape:snap-bbox-edge-midpoints="false"
     inkscape:snap-bbox-midpoints="false"
     inkscape:zoom="2.8284272"
     inkscape:cx="55.684658"
     inkscape:cy="77.251414"
     inkscape:window-width="1440"
     inkscape:window-height="881"
     inkscape:window-x="-4"
     inkscape:window-y="-4"
     inkscape:window-maximized="1"
     inkscape:current-layer="g8" />
  <g
     inkscape:groupmode="layer"
     inkscape:label="Image"
     id="g8"
     transform="translate(-9.5749264,-17.920704)">
    <rect
       style="font-variation-settings:'wght' 800;fill:#688050;fill-opacity:1;stroke:none;stroke-width:7.0128;stroke-linecap:round;stroke-linejoin:round;stroke-miterlimit:4;stroke-dasharray:none"
       id="rect3122"
       width="128"
       height="43.70536"
       x="9.5749264"
       y="17.920704"
       ry="4.9750605" />
    <rect
       style="font-variation-settings:'wght' 800;fill:#e6e6e6;fill-opacity:1;stroke:#e6e6e6;stroke-width:7.14624;stroke-linecap:round;stroke-linejoin:round;stroke-miterlimit:4;stroke-dasharray:none;stroke-opacity:1"
       id="rect19452"
       width="105.38168"
       height="21.779329"
       x="28.404104"
       y="34.223103" />
    <rect
       style="font-variation-settings:'wght' 800;fill:#8fa876;fill-opacity:1;stroke:#8fa876;stroke-width:7.0128;stroke-linecap:round;stroke-linejoin:round;stroke-miterlimit:4;stroke-dasharray:none;stroke-opacity:1"
       id="rect1518"
       width="120.86597"
       height="77.937378"
       x="13.142881"
       y="58.06966" />
    <rect
       style="font-variation-settings:'wght' 800;fill:#8fa876;fill-opacity:1;stroke:#8fa876;stroke-width:7.0128;stroke-linecap:round;stroke-linejoin:round;stroke-miterlimit:4;stroke-dasharray:none;stroke-opacity:1"
       id="rect1834"
       width="74.092171"
       height="11.556183"
       x="59.938164"
       y="46.30582" />
    <path
       style="fill:#e6e6e6;stroke-width:0.0788804"
       d="m 46.242926,129.39018 c -4.533528,-0.92308 -4.338456,-6.06233 -4.139816,-9.66244 0.0744,-4.78972 -0.16808,-9.60018 0.15416,-14.37628 0.8592,-4.20116 7.006808,-5.405508 9.367536,-1.83066 1.83592,2.72826 0.7516,6.21822 1.046944,9.3033 v 6.04672 h 45.750672 c 0.0672,-4.50483 -0.16312,-9.03001 0.1556,-13.51936 0.842744,-4.09175 6.751528,-5.391052 9.216868,-2.02798 2.1366,2.94028 0.79504,6.89564 1.1964,10.26935 -0.0688,3.97615 0.15408,7.97215 -0.15432,11.93478 -0.9262,4.14914 -5.53784,4.18226 -8.901956,3.96796 -17.896024,-0.01 -35.799872,0.12824 -53.69208,-0.10536 z m 28.712488,-16.63729 c -2.926408,-0.31184 -4.37608,-3.08945 -6.42612,-4.82111 -4.447824,-4.51346 -9.04404,-8.921452 -13.39932,-13.500684 -2.267632,-3.316008 0.4364,-8.381784 4.483216,-8.16608 3.511368,0.0192 5.330024,3.518704 7.751504,5.538848 l 2.89736,2.884864 c 0.0512,-12.671328 -0.5056,-12.558344 -0.27048,-25.226592 0.35944,-4.302984 6.600512,-6.024776 9.188928,-2.582784 2.133144,2.708792 0.92116,6.460624 1.263104,9.648088 0.02,10.27876 0.35064,7.769936 0.44504,18.048256 2.61744,-2.41948 5.02252,-5.11132 7.661264,-7.484424 3.298456,-2.308736 8.442544,0.35472 8.216088,4.447544 0.15608,3.165248 -2.84976,4.73228 -4.644488,6.834056 -4.705384,4.579788 -9.145568,9.468268 -14.089576,13.774568 -0.938272,0.50784 -2.021032,0.68008 -3.076728,0.60544 z"
       id="path947"
       sodipodi:nodetypes="scccccccccccsscccccccccccccccc" />
  </g>
</svg>
