<?xml version="1.0" encoding="UTF-8" standalone="no"?>
<!-- Created with Inkscape (http://www.inkscape.org/) -->

<svg
   version="1.1"
   id="svg2"
   width="128"
   height="121.59274"
   viewBox="0 0 128 121.59273"
   sodipodi:docname="user-home.svg"
   inkscape:export-filename="/home/itszariep/.icons/ilustraciones/16/apps/folder.png"
   inkscape:export-xdpi="435.14099"
   inkscape:export-ydpi="435.14099"
   inkscape:version="1.1.2 (0a00cf5339, 2022-02-04, custom)"
   xmlns:inkscape="http://www.inkscape.org/namespaces/inkscape"
   xmlns:sodipodi="http://sodipodi.sourceforge.net/DTD/sodipodi-0.dtd"
   xmlns="http://www.w3.org/2000/svg"
   xmlns:svg="http://www.w3.org/2000/svg">
  <defs
     id="defs6" />
  <sodipodi:namedview
     id="namedview4"
     pagecolor="#505050"
     bordercolor="#ffffff"
     borderopacity="1"
     inkscape:pageshadow="0"
     inkscape:pageopacity="0"
     inkscape:pagecheckerboard="1"
     showgrid="false"
     inkscape:snap-global="true"
     inkscape:snap-others="false"
     inkscape:object-nodes="false"
     inkscape:snap-nodes="false"
     inkscape:snap-page="false"
     inkscape:snap-object-midpoints="false"
     inkscape:snap-center="false"
     inkscape:object-paths="false"
     inkscape:snap-intersection-paths="false"
     inkscape:snap-midpoints="false"
     inkscape:snap-bbox="false"
     inkscape:bbox-nodes="true"
     inkscape:bbox-paths="true"
     inkscape:snap-bbox-edge-midpoints="true"
     inkscape:snap-bbox-midpoints="true"
     inkscape:zoom="7.1373592"
     inkscape:cx="27.180922"
     inkscape:cy="24.869142"
     inkscape:window-width="1440"
     inkscape:window-height="881"
     inkscape:window-x="-4"
     inkscape:window-y="-4"
     inkscape:window-maximized="0"
     inkscape:current-layer="g8" />
  <g
     inkscape:groupmode="layer"
     inkscape:label="Image"
     id="g8"
     transform="translate(-9.5749264,-17.920704)">
    <rect
       style="font-variation-settings:'wght' 800;fill:#688050;fill-opacity:1;stroke:none;stroke-width:7.0128;stroke-linecap:round;stroke-linejoin:round;stroke-miterlimit:4;stroke-dasharray:none"
       id="rect3122"
       width="128"
       height="43.70536"
       x="9.5749264"
       y="17.920704"
       ry="4.9750605" />
    <rect
       style="font-variation-settings:'wght' 800;fill:#ffffff;fill-opacity:1;stroke:#ffffff;stroke-width:7.14624;stroke-linecap:round;stroke-linejoin:round;stroke-miterlimit:4;stroke-dasharray:none;stroke-opacity:1"
       id="rect19452"
       width="105.38168"
       height="21.779329"
       x="28.404104"
       y="34.223103" />
    <rect
       style="font-variation-settings:'wght' 800;fill:#8fa876;fill-opacity:1;stroke:#8fa876;stroke-width:7.0128;stroke-linecap:round;stroke-linejoin:round;stroke-miterlimit:4;stroke-dasharray:none;stroke-opacity:1"
       id="rect1518"
       width="120.86597"
       height="77.937378"
       x="13.142881"
       y="58.06966" />
    <rect
       style="font-variation-settings:'wght' 800;fill:#8fa876;fill-opacity:1;stroke:#8fa876;stroke-width:7.0128;stroke-linecap:round;stroke-linejoin:round;stroke-miterlimit:4;stroke-dasharray:none;stroke-opacity:1"
       id="rect1834"
       width="74.092171"
       height="11.556183"
       x="59.938164"
       y="46.30582" />
    <path
       style="fill:#ffffff;stroke:#8fa876;stroke-width:0;stroke-linecap:round;stroke-linejoin:round;stroke-miterlimit:4;stroke-dasharray:none;stroke-opacity:1"
       d="m 50.919949,129.74033 c -4.183832,-0.8267 -3.758992,-5.61552 -3.682296,-8.86999 -0.0344,-9.62994 0.0472,-19.26111 -0.0728,-28.890324 -2.792072,1.292992 -6.128776,7.277032 -8.83636,4.019016 -1.648928,-2.094608 2.680736,-5.14176 5.349464,-7.297416 2.732192,-2.19324 5.468536,-4.381304 8.202584,-6.572224 0.076,-4.904976 -0.0472,-9.849448 0.15208,-14.729992 0.941536,-3.798 6.636024,-4.698704 8.546488,-1.203064 1.68776,2.06852 -0.29968,7.44444 1.272248,7.940424 3.790552,-2.886424 7.388096,-6.08236 11.23264,-8.884744 1.909752,-1.887064 3.73992,-0.6084 5.520328,0.4836 1.507936,1.179056 2.88908,2.699376 4.453032,3.6584 9.818592,7.854152 19.663723,15.675952 29.425213,23.60092 3.62587,2.935016 -0.86149,4.8774 -4.6992,2.171368 -1.73005,-1.063344 -4.0919,-4.715168 -4.06001,-0.71616 -0.12448,10.648686 0.12872,21.313076 -0.19768,31.952066 -0.68224,2.47067 -2.68153,3.57709 -5.700195,3.42473 -4.777144,-0.0704 -9.582184,0.2532 -14.336136,-0.1868 -3.383216,-0.93529 -3.56348,-4.74683 -3.332464,-7.62838 -0.0216,-5.22118 -0.0296,-2.53618 -0.044,-7.75737 h -9.365496 c -0.0576,6.60327 0.0576,5.32907 -0.10632,11.91455 -0.833392,3.79196 -4.948472,3.6499 -8.210576,3.6846 -3.834952,-0.0384 -7.680656,0.0896 -11.509968,-0.11312 z m 15.078688,-16.34248 c 0.0068,-3.92501 0.0128,0.056 0.0192,-3.8688 l 18.785744,-0.0392 c 0.0128,7.85021 0.0256,7.79421 0.0392,15.64442 4.69976,0.0136 9.39952,0.0264 14.09928,0.0392 -0.0028,-12.35794 -0.0052,-24.71589 -0.008,-37.073838 C 91.098525,81.836616 83.262989,75.5736 75.427453,69.310592 c -7.823352,6.266504 -15.646704,12.533 -23.470064,18.799496 -0.0128,12.354192 -0.0256,24.708382 -0.0384,37.062572 h 14.06068 c 0.0068,-3.925 0.0128,-7.85002 0.0192,-11.77503 z"
       id="path855"
       sodipodi:nodetypes="sccccccccccccccccccccccssscccccccccss" />
    <path
       style="fill:#ffffff;stroke:#ffffff;stroke-width:0;stroke-linecap:round;stroke-linejoin:round;stroke-miterlimit:4;stroke-dasharray:none"
       d="m 75.077189,69.22936 c -7.808048,6.245744 -15.616032,12.491568 -23.423952,18.737464 -0.28696,1.784008 -0.0432,3.688744 -0.12416,5.519704 0,10.553322 0,21.106642 0,31.659972 0.54696,0.71672 1.815984,0.15112 2.652256,0.3312 3.910952,-0.0424 7.857944,0.0842 11.746352,-0.0632 0.43336,-0.74496 0.0712,-1.85791 0.19,-2.74372 0,-4.27376 0,-8.54752 0,-12.82127 6.071744,0 12.143488,0 18.21524,0 -0.0076,5.10172 0.12232,10.20232 0.20488,15.30307 0.55696,0.70632 1.81504,0.14656 2.652264,0.3252 3.8942,-0.0424 7.824528,0.0845 11.696176,-0.0632 0.43328,-0.74496 0.0704,-1.85789 0.18968,-2.74371 -0.0018,-11.4762 -0.0034,-22.95239 -0.0048,-34.42859 -1.213536,-1.338512 -2.853792,-2.337568 -4.23328,-3.544064 -6.44896,-5.156136 -12.897776,-10.31244 -19.346616,-15.46872 -0.14192,-0.006 -0.28512,-0.14992 -0.414,0 z"
       id="path4109" />
  </g>
</svg>
