<?xml version="1.0" encoding="UTF-8" standalone="no"?>
<!-- Created with Inkscape (http://www.inkscape.org/) -->

<svg
   width="16.933336mm"
   height="16.940533mm"
   viewBox="0 0 16.933336 16.940532"
   version="1.1"
   id="svg5"
   inkscape:version="1.2 (dc2aedaf03, 2022-05-15)"
   sodipodi:docname="application-x-pacman.svg"
   xml:space="preserve"
   xmlns:inkscape="http://www.inkscape.org/namespaces/inkscape"
   xmlns:sodipodi="http://sodipodi.sourceforge.net/DTD/sodipodi-0.dtd"
   xmlns="http://www.w3.org/2000/svg"
   xmlns:svg="http://www.w3.org/2000/svg"><sodipodi:namedview
     id="namedview7"
     pagecolor="#505050"
     bordercolor="#ffffff"
     borderopacity="1"
     inkscape:pageshadow="0"
     inkscape:pageopacity="0"
     inkscape:pagecheckerboard="1"
     inkscape:document-units="mm"
     showgrid="false"
     inkscape:snap-object-midpoints="true"
     inkscape:zoom="1.9004323"
     inkscape:cx="54.461293"
     inkscape:cy="20.784745"
     inkscape:window-width="1440"
     inkscape:window-height="881"
     inkscape:window-x="-4"
     inkscape:window-y="-4"
     inkscape:window-maximized="1"
     inkscape:current-layer="layer1"
     inkscape:showpageshadow="0"
     inkscape:deskcolor="#505050" /><defs
     id="defs2" /><g
     inkscape:label="Layer 1"
     inkscape:groupmode="layer"
     id="layer1"
     transform="translate(-64.902582,-223.50993)"><rect
       style="fill:#1793d1;fill-opacity:1;stroke:#1793d1;stroke-width:2.14024;stroke-linecap:round;stroke-linejoin:round;stroke-miterlimit:4;stroke-dasharray:none;stroke-opacity:1"
       id="rect1002"
       width="14.793097"
       height="14.798422"
       x="65.972702"
       y="224.58192"
       ry="1.3724174" /><rect
       style="fill:#000000;fill-opacity:0.11;stroke:none;stroke-width:2.48433;stroke-linecap:round;stroke-linejoin:round;stroke-miterlimit:4;stroke-dasharray:none;stroke-opacity:1"
       id="rect37344"
       width="4.3349996"
       height="4.2693429"
       x="67.180481"
       y="223.51198" /><rect
       style="fill:#2f2f2f;fill-opacity:1;stroke:none;stroke-width:16.9334;stroke-linecap:round;stroke-linejoin:round;stroke-miterlimit:4;stroke-dasharray:none;stroke-opacity:1"
       id="rect44223"
       width="4.3378725"
       height="1.8172063"
       x="67.177612"
       y="227.78131" /><path
       style="fill:#b6b6b6;fill-opacity:1;stroke:none;stroke-width:0.00826825;stroke-linecap:round;stroke-linejoin:round;stroke-miterlimit:4;stroke-dasharray:none;stroke-opacity:1"
       d="m 68.112425,230.30086 c -0.149077,0.034 -0.253455,0.17993 -0.248121,0.33111 -0.01405,0.35064 -0.02126,0.70178 -0.0219,1.05269 0.0091,0.16908 0.16634,0.30745 0.334799,0.29876 0.787772,0.0118 1.577905,0.0186 2.364065,0.0259 0.172066,-9e-5 0.317255,-0.15993 0.308219,-0.33044 -0.0092,-0.36644 -0.0104,-0.73306 -0.02335,-1.09888 -0.01065,-0.16801 -0.173197,-0.29949 -0.339013,-0.28724 -0.773229,0.002 -1.546741,-0.002 -2.319794,0.002 -0.0183,0.002 -0.03659,0.004 -0.0549,0.006 z"
       id="path57473" /><path
       style="fill:none;stroke:#ffffff;stroke-width:1.01712;stroke-linecap:butt;stroke-linejoin:miter;stroke-miterlimit:4;stroke-dasharray:none;stroke-opacity:1"
       d="m 67.678114,230.09804 -0.09105,2.42838 c -0.104173,2.7785 3.505694,3.08619 3.465397,0.0807 l -0.0337,-2.5137 z"
       id="path47194"
       sodipodi:nodetypes="csscc" /><path
       style="fill:#ffffff;stroke:#ffffff;stroke-width:1.05834px;stroke-linecap:butt;stroke-linejoin:miter;stroke-opacity:1"
       d="m 70.972655,232.22771 -3.287663,-0.0305"
       id="path48548" /><rect
       style="fill:#ffffff;fill-opacity:1;stroke:none;stroke-width:1.05834;stroke-linecap:round;stroke-linejoin:round;stroke-miterlimit:4;stroke-dasharray:none;stroke-opacity:1"
       id="rect57720"
       width="1.0888608"
       height="1.0888608"
       x="69.337761"
       y="224.51472" /><rect
       style="fill:#ffffff;fill-opacity:1;stroke:none;stroke-width:1.01666;stroke-linecap:round;stroke-linejoin:round;stroke-miterlimit:4;stroke-dasharray:none;stroke-opacity:1"
       id="rect57720-1"
       width="1.0888608"
       height="1.0047948"
       x="68.248901"
       y="223.50993" /><rect
       style="fill:#ffffff;fill-opacity:1;stroke:none;stroke-width:1.05834;stroke-linecap:round;stroke-linejoin:round;stroke-miterlimit:4;stroke-dasharray:none;stroke-opacity:1"
       id="rect57720-26"
       width="1.0888608"
       height="1.0888608"
       x="68.248901"
       y="225.60359" /><rect
       style="fill:#ffffff;fill-opacity:1;stroke:none;stroke-width:1.05834;stroke-linecap:round;stroke-linejoin:round;stroke-miterlimit:4;stroke-dasharray:none;stroke-opacity:1"
       id="rect57720-2"
       width="1.0888608"
       height="1.0888608"
       x="69.337761"
       y="226.69246" /><g
       aria-label="Arch

"
       id="text1495"
       style="font-weight:bold;font-size:20.1177px;line-height:1.25;-inkscape-font-specification:'sans-serif, Bold';fill:#ffffff;fill-opacity:1;stroke-width:0.502944"
       transform="matrix(0.26469569,0,0,0.26469569,47.723152,164.34782)"><path
         d="m 87.534883,283.53794 q 0.100589,0.26153 0.100589,0.44259 0,0.42247 -0.301766,0.72424 -0.301765,0.30176 -0.744355,0.30176 -0.301765,0 -0.583413,-0.16094 -0.26153,-0.18106 -0.382236,-0.48283 l -1.126592,-2.81647 h -7.222254 l -1.146709,2.81647 q -0.140824,0.30177 -0.402354,0.48283 -0.26153,0.16094 -0.563296,0.16094 -0.442589,0 -0.744355,-0.30176 -0.281647,-0.32189 -0.281647,-0.74436 0,-0.20118 0.100588,-0.46271 l 5.653074,-13.49897 q 0.301765,-0.70412 0.985767,-0.70412 0.724237,0 0.985768,0.70412 z m -9.555908,-3.72178 h 5.814016 l -2.876831,-7.1619 z"
         id="path1551"
         style="fill:#ffffff;fill-opacity:1" /><path
         d="m 95.119239,273.88144 q 1.066238,0 1.669769,0.32189 0.603531,0.32188 0.603531,0.8047 0,0.14083 -0.02012,0.20118 -0.181059,0.64377 -0.804708,0.64377 -0.100588,0 -0.301765,-0.0402 -0.804708,-0.14082 -1.307651,-0.14082 -1.448474,0 -2.333653,0.66388 -0.885179,0.66389 -0.885179,1.79048 v 5.87437 q 0,0.48282 -0.26153,0.74435 -0.241413,0.26153 -0.744355,0.26153 -0.482825,0 -0.744355,-0.24141 -0.26153,-0.26153 -0.26153,-0.76447 v -8.99262 q 0,-0.48282 0.26153,-0.74435 0.26153,-0.26153 0.744355,-0.26153 1.005885,0 1.005885,1.00588 v 0.38224 q 0.603531,-0.70412 1.48871,-1.10647 0.885179,-0.40236 1.891064,-0.40236 z"
         id="path1553"
         style="fill:#ffffff;fill-opacity:1" /><path
         d="m 103.68936,285.087 q -1.5893,0 -2.85671,-0.72424 -1.267416,-0.72423 -1.991653,-1.99165 -0.70412,-1.28753 -0.70412,-2.85671 0,-1.60942 0.684002,-2.87683 0.70412,-1.28754 1.951421,-1.99166 1.24729,-0.72423 2.81647,-0.72423 2.37389,0 3.94307,1.81059 0.20118,0.2213 0.20118,0.52306 0,0.44259 -0.44259,0.74436 -0.20118,0.14082 -0.46271,0.14082 -0.4627,0 -0.78459,-0.36212 -0.50294,-0.54318 -1.10647,-0.78459 -0.58341,-0.26153 -1.34789,-0.26153 -1.54906,0 -2.51471,1.04612 -0.96565,1.026 -0.96565,2.73601 0,1.08635 0.44259,1.95142 0.46271,0.84494 1.26742,1.32776 0.82482,0.48283 1.87094,0.48283 1.36801,0 2.21295,-0.70412 0.38224,-0.28165 0.74435,-0.28165 0.28165,0 0.52306,0.18106 0.38224,0.32188 0.38224,0.72424 0,0.30176 -0.24141,0.54318 -1.44848,1.34788 -3.62119,1.34788 z"
         id="path1555"
         style="fill:#ffffff;fill-opacity:1" /><path
         d="m 116.26292,273.90156 q 1.38812,0 2.49459,0.60353 1.10648,0.60353 1.73013,1.77036 0.62365,1.14671 0.62365,2.77624 v 4.94896 q 0,0.44259 -0.30177,0.74435 -0.28165,0.28165 -0.72424,0.28165 -0.44259,0 -0.74435,-0.28165 -0.28165,-0.30176 -0.28165,-0.74435 v -4.94896 q 0,-1.62953 -0.88518,-2.45436 -0.86506,-0.84494 -2.31353,-0.84494 -0.84495,0 -1.54907,0.342 -0.684,0.342 -1.08635,0.92541 -0.38224,0.58342 -0.38224,1.30765 v 5.6732 q 0,0.44259 -0.28165,0.74435 -0.28164,0.28165 -0.74435,0.28165 -0.44259,0 -0.74436,-0.28165 -0.28164,-0.30176 -0.28164,-0.74435 v -13.68004 q 0,-0.46271 0.28164,-0.74436 0.30177,-0.28164 0.74436,-0.28164 0.46271,0 0.74435,0.28164 0.28165,0.28165 0.28165,0.74436 v 4.92884 q 0.64377,-0.64377 1.52895,-0.98577 0.88517,-0.36212 1.89106,-0.36212 z"
         id="path1557"
         style="fill:#ffffff;fill-opacity:1" /></g><g
       id="g1713"
       transform="matrix(0.22305102,0,0,0.22305102,74.88748,209.52667)"
       style="fill:#ffffff;fill-opacity:1;stroke:#ffffff;stroke-opacity:1"><g
         id="g1730"
         transform="translate(-18.92968,58.488024)"
         style="fill:#ffffff;fill-opacity:1;stroke:#ffffff;stroke-opacity:1"><path
           fill-rule="evenodd"
           style="fill:#ffffff;fill-opacity:1;stroke:#ffffff;stroke-width:0.377953;stroke-linecap:round;stroke-linejoin:round;stroke-dasharray:none;stroke-opacity:1;enable-background:new"
           fill="#1793d1"
           d="m 27.065288,10.556094 c -1.561539,3.83919 -3.061589,7.707064 -4.8364,11.455 1.546736,1.668742 3.25841,3.186749 5.1298,4.4829 -2.029279,-0.839119 -4.017966,-1.846533 -5.7089,-3.2644 -4.516981,9.286457 -9.585962,18.289713 -14.5769997,27.326 4.9910287,-2.832542 10.1438267,-5.661687 15.8329997,-6.777 -0.688836,-3.196664 -0.282348,-7.174436 2.4391,-9.331706 1.722533,-1.320415 4.096236,-0.131505 4.98175,1.61021 1.37093,2.306566 1.629793,5.155447 1.09304,7.751596 5.617843,1.144797 10.707608,3.943497 15.645,6.7469 -1.133219,-2.085803 -2.258232,-4.176048 -3.3847,-6.2655 -2.155744,-1.784495 -4.381792,-3.519397 -6.9048,-4.7612 1.737845,0.250033 4.463648,1.724075 5.381022,1.933832 C 36.685585,30.946204 30.662947,19.370346 27.065288,10.556094 Z"
           id="path1715"
           sodipodi:nodetypes="cccccccccccccc" /></g></g></g></svg>
