<?xml version="1.0" encoding="UTF-8" standalone="no"?>
<!-- Created with Inkscape (http://www.inkscape.org/) -->

<svg
   width="15.999999"
   height="15.133296"
   viewBox="0 0 15.999999 15.133296"
   version="1.1"
   id="svg5"
   inkscape:version="1.1.2 (0a00cf5339, 2022-02-04, custom)"
   sodipodi:docname="godot.svg"
   xmlns:inkscape="http://www.inkscape.org/namespaces/inkscape"
   xmlns:sodipodi="http://sodipodi.sourceforge.net/DTD/sodipodi-0.dtd"
   xmlns="http://www.w3.org/2000/svg"
   xmlns:svg="http://www.w3.org/2000/svg">
  <sodipodi:namedview
     id="namedview7"
     pagecolor="#505050"
     bordercolor="#ffffff"
     borderopacity="1"
     inkscape:pageshadow="0"
     inkscape:pageopacity="0"
     inkscape:pagecheckerboard="1"
     inkscape:document-units="px"
     showgrid="false"
     inkscape:zoom="4"
     inkscape:cx="23.125"
     inkscape:cy="25.375"
     inkscape:window-width="1440"
     inkscape:window-height="881"
     inkscape:window-x="-4"
     inkscape:window-y="-4"
     inkscape:window-maximized="0"
     inkscape:current-layer="layer1" />
  <defs
     id="defs2">
    <clipPath
       id="vlpa">
      <path
         d="M 0,595.3 H 841.9 V 0 H 0 Z"
         id="path830" />
    </clipPath>
  </defs>
  <g
     inkscape:label="Layer 1"
     inkscape:groupmode="layer"
     id="layer1"
     transform="translate(380.94353,74.167061)">
    <g
       transform="matrix(0.07203641,0,0,-0.07203641,-365.89425,-63.860835)"
       style="stroke-width:0.8841"
       id="g895">
      <path
         d="m 0,0 c 0,0 -0.325,1.994 -0.515,1.976 l -36.18,-3.491 c -2.879,-0.278 -5.115,-2.574 -5.317,-5.459 l -0.994,-14.25 -27.99,-1.997 -1.904,12.91 c -0.424,2.872 -2.932,5.037 -5.835,5.037 h -38.19 c -2.902,0 -5.41,-2.165 -5.834,-5.037 l -1.905,-12.91 -27.99,1.997 -0.994,14.25 c -0.202,2.886 -2.438,5.182 -5.317,5.46 l -36.2,3.49 c -0.187,0.018 -0.324,-1.978 -0.511,-1.978 l -0.049,-7.83 30.66,-4.944 1.004,-14.37 c 0.203,-2.91 2.551,-5.263 5.463,-5.472 l 38.55,-2.75 c 0.146,-0.01 0.29,-0.016 0.434,-0.016 2.897,0 5.401,2.166 5.825,5.038 l 1.959,13.29 h 28 l 1.959,-13.29 c 0.423,-2.871 2.93,-5.037 5.831,-5.037 0.142,0 0.284,0.005 0.423,0.015 l 38.56,2.75 c 2.911,0.209 5.26,2.562 5.463,5.472 l 1.003,14.37 30.64,4.966 z"
         style="fill:#ffffff"
         id="path893" />
    </g>
    <g
       transform="matrix(0.07203641,0,0,-0.07203641,-379.98944,-68.109137)"
       style="stroke-width:0.8841"
       id="g899">
      <path
         d="m 0,-59.04 c 0.108,-10e-4 0.216,-0.005 0.323,-0.015 l 36.2,-3.49 c 1.896,-0.183 3.382,-1.709 3.514,-3.609 l 1.116,-15.98 31.57,-2.253 2.175,14.75 c 0.282,1.912 1.922,3.329 3.856,3.329 h 38.19 c 1.933,0 3.573,-1.417 3.855,-3.329 l 2.175,-14.75 31.58,2.253 1.115,15.98 c 0.133,1.9 1.618,3.425 3.514,3.609 l 36.18,3.49 c 0.107,0.01 0.214,0.014 0.322,0.015 v 4.711 l 0.015,0.005 c -1.01322,29.046803 -2.50271,48.5862715 11.63594,70.609985 1.65506,2.211069 2.06273,3.083739 0.74765,5.222574 -4.86874,7.911615 -10.58801,15.131151 -16.68799,21.879832 -2.16815,2.947901 -3.04861,1.758716 -5.73472,0.330242 -4.97322,-2.647487 -9.82391,-5.520931 -14.486,-8.536936 -1.20355,-0.869297 -1.53762,-1.194658 -2.52944,-0.245443 -2.92698,2.758347 -6.14859,5.097109 -9.32144,7.531746 -2.88562,2.317767 -6.08003,4.114515 -9.20644,6.028361 -1.63593,0.765222 -1.70714,1.315685 -1.51244,2.874483 0.82591,6.622256 1.29487,13.184747 1.53197,19.944732 0.0932,1.691965 0.3888,2.573441 -1.04171,3.277469 -8.73728,4.258989 -17.98918,7.185367 -27.35675,9.335493 -1.32844,0.527644 -1.56229,-0.278591 -2.13981,-1.273229 -3.35191,-5.775478 -6.54991,-11.864442 -9.232,-17.971166 -0.69531,-1.583116 -0.82965,-1.956521 -2.37188,-1.729778 -3.56342,0.43143 -7.14571,0.657256 -10.23294,0.703635 -3.530848,-0.147292 -7.137962,-0.211982 -10.245341,-0.737236 -1.256948,-0.212467 -1.406478,-0.01039 -1.857743,0.9887 -2.578376,5.684917 -5.447435,11.446291 -8.547485,16.934636 -2.153102,4.334973 -2.582981,3.272632 -6.705933,2.234399 -7.753792,-1.957288 -15.399744,-4.499468 -22.696097,-7.946197 -2.512665,-0.767738 -2.226683,-2.129016 -2.14726,-4.305472 0.228862,-6.23472 0.658826,-12.305198 1.389314,-18.418025 0.512594,-2.277946 0.266031,-2.873113 -1.494521,-3.968877 C 39.351493,44.63886 33.424536,40.672835 28.372358,36.156992 26.272808,34.026085 26.254974,34.060377 23.972324,35.529677 19.260926,38.560693 14.359928,41.441446 9.3333748,44.086542 6.3734063,45.885314 6.2240653,45.532749 4.1568484,43.241498 -1.410737,37.066822 -6.6524377,30.502708 -11.218799,23.373763 -13.67393,19.495311 -14.052451,20.163992 -11.495102,16.845514 5.4301333,-5.1724535 0.00605532,-34.478138 0,-59.04 Z"
         style="fill:#478cbf"
         id="path897"
         sodipodi:nodetypes="cccccccssccccccccccccccccccccccsccscccccccccccccc" />
    </g>
    <g
       transform="matrix(0.07203641,0,0,-0.07203641,-368.23177,-63.071046)"
       style="stroke-width:0.8841"
       id="g903">
      <path
         d="m 0,0 -1.121,-16.06 c -0.135,-1.936 -1.675,-3.477 -3.611,-3.616 l -38.56,-2.751 c -0.094,-0.007 -0.188,-0.01 -0.281,-0.01 -1.916,0 -3.569,1.406 -3.852,3.33 l -2.211,14.99 h -31.46 l -2.211,-14.99 c -0.297,-2.018 -2.101,-3.469 -4.133,-3.32 l -38.56,2.751 c -1.936,0.139 -3.476,1.68 -3.611,3.616 l -1.121,16.06 -32.55,3.138 c 0.015,-3.498 0.06,-7.33 0.06,-8.093 0,-34.37 43.6,-50.9 97.78,-51.09 h 0.133 c 54.18,0.19 97.77,16.71 97.77,51.09 0,0.777 0.047,4.593 0.063,8.093 z"
         style="fill:#478cbf"
         id="path901" />
    </g>
    <g
       transform="matrix(0.07203641,0,0,-0.07203641,-375.06599,-66.383065)"
       style="stroke-width:0.8841"
       id="g907">
      <path
         d="m 0,0 c 0,-12.05 -9.765,-21.82 -21.81,-21.82 -12.04,0 -21.81,9.763 -21.81,21.82 0,12.04 9.768,21.8 21.81,21.8 C -9.76,21.8 0,12.042 0,0"
         style="fill:#ffffff"
         id="path905" />
    </g>
    <g
       transform="matrix(0.07203641,0,0,-0.07203641,-375.44178,-66.293895)"
       style="stroke-width:0.8841"
       id="g911">
      <path
         d="m 0,0 c 0,-7.994 -6.479,-14.47 -14.48,-14.47 -7.996,0 -14.48,6.479 -14.48,14.47 0,7.991 6.483,14.48 14.48,14.48 C -6.48,14.48 0,7.995 0,0"
         style="fill:#414042"
         id="path909" />
    </g>
    <g
       transform="matrix(0.07203641,0,0,-0.07203641,-370.81769,-66.383065)"
       style="stroke-width:0.8841"
       id="g919">
      <path
         d="m 0,0 c 0,-12.05 9.765,-21.82 21.82,-21.82 12.04,0 21.81,9.763 21.81,21.82 0,12.04 -9.767,21.8 -21.81,21.8 C 9.77,21.8 0,12.042 0,0"
         style="fill:#ffffff"
         id="path917" />
    </g>
    <g
       transform="matrix(0.07203641,0,0,-0.07203641,-370.43554,-66.293895)"
       style="stroke-width:0.8841"
       id="g923">
      <path
         d="m 0,0 c 0,-7.994 6.477,-14.47 14.47,-14.47 8.002,0 14.48,6.479 14.48,14.47 0,7.991 -6.477,14.48 -14.48,14.48 C 6.476,14.48 0,7.995 0,0"
         style="fill:#414042"
         id="path921" />
    </g>
    <rect
       style="fill:#ffffff;stroke:none;stroke-width:0.286617"
       id="rect6747"
       width="1.1274858"
       height="2.3973982"
       x="-373.41553"
       y="-67.069763"
       ry="0.62049896" />
  </g>
</svg>
