<?xml version="1.0" encoding="UTF-8" standalone="no"?>
<!-- Created with Inkscape (http://www.inkscape.org/) -->

<svg
   width="4.2333336mm"
   height="4.1670647mm"
   viewBox="0 0 4.2333335 4.1670652"
   version="1.1"
   id="svg5"
   inkscape:version="1.1.2 (0a00cf5339, 2022-02-04, custom)"
   sodipodi:docname="inkscape.svg"
   xmlns:inkscape="http://www.inkscape.org/namespaces/inkscape"
   xmlns:sodipodi="http://sodipodi.sourceforge.net/DTD/sodipodi-0.dtd"
   xmlns:xlink="http://www.w3.org/1999/xlink"
   xmlns="http://www.w3.org/2000/svg"
   xmlns:svg="http://www.w3.org/2000/svg">
  <sodipodi:namedview
     id="namedview7"
     pagecolor="#505050"
     bordercolor="#ffffff"
     borderopacity="1"
     inkscape:pageshadow="0"
     inkscape:pageopacity="0"
     inkscape:pagecheckerboard="1"
     inkscape:document-units="mm"
     showgrid="false"
     inkscape:zoom="2.56"
     inkscape:cx="-26.757813"
     inkscape:cy="13.476563"
     inkscape:window-width="1440"
     inkscape:window-height="881"
     inkscape:window-x="-4"
     inkscape:window-y="-4"
     inkscape:window-maximized="1"
     inkscape:current-layer="layer1" />
  <defs
     id="defs2">
    <linearGradient
       id="WhiteTransparent"
       gradientUnits="userSpaceOnUse">
      <stop
         style="stop-color:white;stop-opacity:1"
         offset="0"
         id="stop7" />
      <stop
         style="stop-color:white;stop-opacity:0"
         offset="1"
         id="stop9" />
    </linearGradient>
    <linearGradient
       id="BlackTransparent"
       gradientUnits="userSpaceOnUse">
      <stop
         style="stop-color:black;stop-opacity:1"
         offset="0"
         id="stop12" />
      <stop
         style="stop-color:black;stop-opacity:0"
         offset="1"
         id="stop14" />
    </linearGradient>
    <linearGradient
       id="liquidShade"
       xlink:href="#BlackTransparent"
       x1="0"
       y1="128"
       x2="0"
       y2="64"
       gradientUnits="userSpaceOnUse" />
    <linearGradient
       id="liquidSpecular"
       xlink:href="#WhiteTransparent"
       x1="0"
       y1="128"
       x2="0"
       y2="76"
       gradientUnits="userSpaceOnUse" />
    <linearGradient
       id="sideSpecular"
       xlink:href="#WhiteTransparent"
       x1="80"
       y1="20"
       x2="60"
       y2="40"
       gradientUnits="userSpaceOnUse" />
    <linearGradient
       id="IcecapTip"
       xlink:href="#WhiteTransparent"
       x1="60"
       y1="20"
       x2="90"
       y2="50"
       gradientUnits="userSpaceOnUse"
       gradientTransform="matrix(2.1154894,0,0,2.1148276,24.188831,-64.83473)" />
    <linearGradient
       id="shinySpecular"
       xlink:href="#WhiteTransparent"
       x1="33"
       y1="35"
       x2="58"
       y2="60"
       gradientUnits="userSpaceOnUse" />
    <clipPath
       clipPathUnits="userSpaceOnUse"
       id="clipoutline1">
      <path
         id="outline1"
         d="M 54.1,12.5 12.9,54.7 C -2.7,70.3 23,69 32.3,74.9 36.6,77.7 18.5,81.3 22.2,85 c 3.6,3.7 21.7,7.1 25.3,10.7 3.6,3.7 -7.3,7.6 -3.7,11.3 3.5,3.7 11.9,0.2 13.4,8.6 1.1,6.2 15.4,3.1 21.8,-2.2 4,-3.4 -6.9,-3.4 -3.3,-7.1 9,-9.1 17,-4.1 20.3,-12.5 1.8,-4.5 -13.6,-7.7 -9.5,-10.6 9.8,-6.9 45.8,-10.4 29.2,-27 L 73,12.5 c -5.3,-5 -14,-5 -18.9,0 z m -9.9,64.7 c 0.9,0 30.8,4 19.3,7.1 -4.4,1.2 -24.6,-7.1 -19.3,-7.1 z m 57.2,16.6 c 0,2.1 16.3,3.3 15.4,-0.5 -1.3,-6.4 -13.6,-5.9 -15.4,0.5 z m -69.5,11.1 c 3.7,3.2 9.3,-0.7 11.1,-5.2 -3.6,-4.7 -16.9,0.3 -11.1,5.2 z m 67.5,-6.7 c -4.6,4.2 0.8,8.6 5.3,5.7 1.2,-0.8 -0.1,-4.7 -5.3,-5.7 z" />
    </clipPath>
    <filter
       id="ShadowBlur"
       filterUnits="userSpaceOnUse"
       x="0"
       y="0">
      <feGaussianBlur
         in="SourceAlpha"
         stdDeviation="3"
         result="blur"
         id="feGaussianBlur24" />
    </filter>
    <linearGradient
       gradientUnits="userSpaceOnUse"
       id="linearGradient5785">
      <stop
         id="stop5787"
         offset="0"
         style="stop-color:#c0cdf9;stop-opacity:1" />
      <stop
         id="stop5789"
         offset="1"
         style="stop-color:#07092d;stop-opacity:0.28804347" />
    </linearGradient>
    <clipPath
       clipPathUnits="userSpaceOnUse"
       id="clipPath9086">
      <use
         id="use9088"
         xlink:href="#outline1"
         class="low-specularity"
         style="fill:#ffffff;fill-opacity:1"
         x="0"
         y="0"
         width="400"
         height="300"
         transform="translate(1.009546e-6)" />
    </clipPath>
    <linearGradient
       gradientUnits="userSpaceOnUse"
       y2="60"
       x2="58"
       y1="35"
       x1="33"
       xlink:href="#WhiteTransparent"
       id="shinySpecular-4"
       gradientTransform="matrix(2.1349181,0,0,2.1342502,-94.250967,119.13185)" />
    <linearGradient
       id="IcecapTip-64"
       xlink:href="#WhiteTransparent"
       x1="60"
       y1="20"
       x2="90"
       y2="50"
       gradientUnits="userSpaceOnUse" />
    <clipPath
       clipPathUnits="userSpaceOnUse"
       id="clipoutline1-9">
      <path
         id="outline1-5"
         d="M 54.1,12.5 12.9,54.7 C -2.7,70.3 23,69 32.3,74.9 36.6,77.7 18.5,81.3 22.2,85 c 3.6,3.7 21.7,7.1 25.3,10.7 3.6,3.7 -7.3,7.6 -3.7,11.3 3.5,3.7 11.9,0.2 13.4,8.6 1.1,6.2 15.4,3.1 21.8,-2.2 4,-3.4 -6.9,-3.4 -3.3,-7.1 9,-9.1 17,-4.1 20.3,-12.5 1.8,-4.5 -13.6,-7.7 -9.5,-10.6 9.8,-6.9 45.8,-10.4 29.2,-27 L 73,12.5 c -5.3,-5 -14,-5 -18.9,0 z m -9.9,64.7 c 0.9,0 30.8,4 19.3,7.1 -4.4,1.2 -24.6,-7.1 -19.3,-7.1 z m 57.2,16.6 c 0,2.1 16.3,3.3 15.4,-0.5 -1.3,-6.4 -13.6,-5.9 -15.4,0.5 z m -69.5,11.1 c 3.7,3.2 9.3,-0.7 11.1,-5.2 -3.6,-4.7 -16.9,0.3 -11.1,5.2 z m 67.5,-6.7 c -4.6,4.2 0.8,8.6 5.3,5.7 1.2,-0.8 -0.1,-4.7 -5.3,-5.7 z" />
    </clipPath>
    <filter
       id="ShadowBlur-0"
       filterUnits="userSpaceOnUse"
       x="0"
       y="0">
      <feGaussianBlur
         in="SourceAlpha"
         stdDeviation="3"
         result="blur"
         id="feGaussianBlur24-4" />
    </filter>
    <clipPath
       clipPathUnits="userSpaceOnUse"
       id="clipPath9086-1">
      <use
         id="use9088-7"
         xlink:href="#outline1-5"
         class="low-specularity"
         style="fill:#ffffff;fill-opacity:1"
         x="0"
         y="0"
         width="400"
         height="300"
         transform="translate(1.009546e-6)" />
    </clipPath>
    <linearGradient
       gradientUnits="userSpaceOnUse"
       y2="60"
       x2="58"
       y1="35"
       x1="33"
       xlink:href="#WhiteTransparent"
       id="shinySpecular-4-2"
       gradientTransform="matrix(1.009184,0,0,1.009184,-0.3890738,-0.3831933)" />
  </defs>
  <g
     inkscape:label="Layer 1"
     inkscape:groupmode="layer"
     id="layer1"
     transform="translate(-40.020599,47.401057)">
    <path
       inkscape:connector-curvature="0"
       sodipodi:nodetypes="cccccccccccccc"
       style="fill:#333333;fill-opacity:1;stroke:#ffffff;stroke-width:0.0374493;stroke-opacity:1"
       d="m 41.766611,-47.241686 -1.543146,1.580107 c -0.584298,0.584115 0.378295,0.535439 0.726627,0.756354 0.161056,0.104841 -0.516879,0.239637 -0.378296,0.378177 0.134838,0.13854 0.812774,0.265848 0.947612,0.400643 0.134838,0.138541 -0.273422,0.284569 -0.138584,0.42311 0.131093,0.13854 0.445715,0.0075 0.501897,0.322012 0.0412,0.232148 0.576807,0.116074 0.816519,-0.08237 0.14982,-0.127308 -0.258439,-0.127308 -0.123601,-0.265848 0.337094,-0.340734 0.636735,-0.153517 0.760336,-0.468041 0.06742,-0.168495 -0.509388,-0.288313 -0.355823,-0.396898 0.36706,-0.258359 1.71544,-0.389411 1.093687,-1.010969 l -1.599329,-1.636272 c -0.198511,-0.187216 -0.52437,-0.187216 -0.707899,0 z"
       id="use7631" />
    <path
       inkscape:connector-curvature="0"
       sodipodi:nodetypes="ccccccccccccccccccccccc"
       style="fill:none;stroke-width:0.0374493"
       d="m 41.766611,-47.241686 -1.543146,1.580107 c -0.584298,0.584115 0.378295,0.535439 0.726627,0.756354 0.161056,0.104841 -0.516879,0.239637 -0.378296,0.378177 0.134838,0.13854 0.812774,0.265848 0.947612,0.400643 0.134838,0.138541 -0.273422,0.284569 -0.138584,0.42311 0.131093,0.13854 0.445715,0.0075 0.501897,0.322012 0.0412,0.232148 0.576807,0.116074 0.816519,-0.08237 0.14982,-0.127308 -0.258439,-0.127308 -0.123601,-0.265848 0.337094,-0.340734 0.636735,-0.153517 0.760336,-0.468041 0.06742,-0.168495 -0.509388,-0.288313 -0.355823,-0.396898 0.36706,-0.258359 1.71544,-0.389411 1.093687,-1.010969 l -1.599329,-1.636272 c -0.198511,-0.187216 -0.52437,-0.187216 -0.707899,0 z m 1.771621,3.044139 c 0,0.07863 0.610517,0.123563 0.576808,-0.01872 -0.04869,-0.239637 -0.509389,-0.220916 -0.576808,0.01872 z m -2.603122,0.415621 c 0.138583,0.119818 0.348331,-0.02621 0.41575,-0.194705 -0.134838,-0.175984 -0.632989,0.01123 -0.41575,0.194705 z m 2.528212,-0.25087 c -0.172293,0.157262 0.02997,0.322012 0.198512,0.213426 0.04494,-0.02996 -0.0037,-0.175983 -0.198512,-0.213426 z"
       id="use7639" />
    <path
       inkscape:connector-curvature="0"
       d="m 42.380872,-47.129356 0.610517,0.621559 c 0.05618,0.05617 0.05618,0.172239 0.02248,0.205938 l -0.303385,-0.247126 -0.05993,0.3632 -0.250949,-0.134796 -0.408259,0.258359 -0.134838,-0.542928 -0.217239,0.471786 -0.543098,-0.0037 c -0.104874,0 -0.08989,-0.108586 0.01873,-0.217171 0.213494,-0.235893 0.629244,-0.636536 0.760337,-0.775077 0.134838,-0.13854 0.370805,-0.134795 0.505642,0 z"
       style="fill:#ffffff;fill-opacity:1;stroke-width:0.0374493"
       class="full-specularity"
       id="icecap-7" />
  </g>
  <style
     type="text/css"
     id="style26">
	.specularity {opacity:0.5;}
	.low-specularity {opacity:0.25;}
	.full-specularity {opacity:1;}
	.black {fill:#000000;}
	.white {fill:#ffffff;}
	.outline-big {stroke-width:16;stroke:none;opacity:0.1;fill:none;}
	.outline-small {stroke-width:8;stroke:none;opacity:0.2;fill:none;}
	.stroke-highlight {fill:none;stroke:none;opacity:0.2;}
       	.base-shadow 	{fill:black;opacity:75;}
	</style>
  <style
     type="text/css"
     id="style26-7">
	.specularity {opacity:0.5;}
	.low-specularity {opacity:0.25;}
	.full-specularity {opacity:1;}
	.black {fill:#000000;}
	.white {fill:#ffffff;}
	.outline-big {stroke-width:16;stroke:none;opacity:0.1;fill:none;}
	.outline-small {stroke-width:8;stroke:none;opacity:0.2;fill:none;}
	.stroke-highlight {fill:none;stroke:none;opacity:0.2;}
       	.base-shadow 	{fill:black;opacity:75;}
	</style>
</svg>
