<?xml version="1.0" encoding="UTF-8" standalone="no"?>
<svg
   width="12.8"
   height="16"
   version="1"
   id="svg16"
   sodipodi:docname="libreoffice-writer.svg"
   inkscape:version="1.1.2 (0a00cf5339, 2022-02-04, custom)"
   xmlns:inkscape="http://www.inkscape.org/namespaces/inkscape"
   xmlns:sodipodi="http://sodipodi.sourceforge.net/DTD/sodipodi-0.dtd"
   xmlns="http://www.w3.org/2000/svg"
   xmlns:svg="http://www.w3.org/2000/svg">
  <defs
     id="defs20" />
  <sodipodi:namedview
     id="namedview18"
     pagecolor="#505050"
     bordercolor="#ffffff"
     borderopacity="1"
     inkscape:pageshadow="0"
     inkscape:pageopacity="0"
     inkscape:pagecheckerboard="1"
     showgrid="false"
     inkscape:zoom="1.8101934"
     inkscape:cx="37.012621"
     inkscape:cy="3.5907766"
     inkscape:window-width="1440"
     inkscape:window-height="881"
     inkscape:window-x="-4"
     inkscape:window-y="-4"
     inkscape:window-maximized="1"
     inkscape:current-layer="svg16"
     inkscape:snap-nodes="false" />
  <path
     fill="#e4e4e4"
     d="M 0.8,0 C 0.3568,0 0,0.3568 0,0.8 V 15.2 C 0,15.6432 0.3568,16 0.8,16 H 12 c 0.4432,0 0.8,-0.3568 0.8,-0.8 V 4.8 L 8.4,4.4 8,0 Z"
     id="path4"
     style="fill:#1287c9;fill-opacity:1;stroke-width:0.4" />
  <path
     fill="#fafafa"
     d="m 8,0 v 4 c 0,0.44184 0.358172,0.8 0.8,0.8 h 4 z"
     id="path10"
     style="fill:#0e6599;fill-opacity:1;stroke-width:0.4" />
  <rect
     style="font-variation-settings:'wght' 800;fill:#ffffff;fill-opacity:1;stroke-width:2.26789;stroke-linecap:round;stroke-linejoin:round"
     id="rect1784"
     width="4.7826838"
     height="1.5658612"
     x="0.9354769"
     y="5.9434147"
     ry="0.22933134" />
  <rect
     style="font-variation-settings:'wght' 800;fill:#ffffff;fill-opacity:1;stroke-width:2.26789;stroke-linecap:round;stroke-linejoin:round"
     id="rect1784-4"
     width="11.268717"
     height="1.5658607"
     x="0.93396276"
     y="12.47129"
     ry="0.22933134" />
  <rect
     style="font-variation-settings:'wght' 800;fill:#ffffff;fill-opacity:1;stroke-width:2.26789;stroke-linecap:round;stroke-linejoin:round"
     id="rect1784-2"
     width="4.9040661"
     height="1.5658607"
     x="0.89228654"
     y="8.0531769"
     ry="0.22933134" />
  <rect
     style="font-variation-settings:'wght' 800;fill:#ffffff;fill-opacity:1;stroke-width:2.26789;stroke-linecap:round;stroke-linejoin:round"
     id="rect1784-2-5"
     width="4.9040661"
     height="1.5658607"
     x="0.93396276"
     y="10.254204"
     ry="0.22933134" />
  <g
     inkscape:label="Image"
     id="g8-9-9"
     transform="matrix(0.6414777,0,0,0.6414777,20.187096,6.331432)">
    <path
       style="fill:#ffffff;fill-opacity:1;stroke:none;stroke-width:0.0723464px;stroke-linecap:butt;stroke-linejoin:miter;stroke-opacity:1"
       d="m -16.776515,5.8261725 1.668384,-1.4032488 1.797924,1.4651827 -0.04587,2.1621924 -1.843639,-0.6095332 z"
       id="path1300-2"
       sodipodi:nodetypes="cccccc" />
    <path
       style="fill:#ffffff;fill-opacity:1;stroke:none;stroke-width:0.0723464px;stroke-linecap:butt;stroke-linejoin:miter;stroke-opacity:1"
       d="m -15.199712,7.4407656 -3.820518,-3.96537 -1.519065,1.4690527 -0.06563,2.6727244 5.220218,0.1156912 z"
       id="path1298-6"
       sodipodi:nodetypes="cccccc" />
    <rect
       style="fill:none;stroke:#ffffff;stroke-width:1.15754;stroke-linecap:round;stroke-linejoin:round;stroke-miterlimit:4;stroke-dasharray:none;stroke-opacity:1"
       id="rect1002-6"
       width="8.0008116"
       height="8.0036926"
       x="-20.9786"
       y="-0.027062623" />
    <path
       id="path24290-4"
       style="fill:#ffffff;stroke-width:1.14479;stroke-linecap:round;stroke-linejoin:round"
       d="m -14.992276,2.5187429 c -0.286145,0.00419 -0.552679,-0.1449791 -0.698765,-0.3910593 -0.146085,-0.2460803 -0.149412,-0.5514968 -0.0087,-0.8007014 0.140688,-0.2492048 0.415365,-0.4041409 0.701533,-0.4061918 l -0.0057,0.7990086 z"
       sodipodi:nodetypes="cssccc" />
    <path
       id="path24290-8-9"
       style="fill:#f9f9f9;stroke-width:1.14479;stroke-linecap:round;stroke-linejoin:round"
       d="m -15.035976,2.5187429 a 0.79902922,0.79902922 0 0 0 0.698765,-0.3910593 0.79902922,0.79902922 0 0 0 0.0087,-0.8007013 0.79902922,0.79902922 0 0 0 -0.690077,-0.4061919 l -0.0057,0.7990088 z" />
  </g>
</svg>
