<?xml version="1.0" encoding="UTF-8" standalone="no"?>
<!-- Created with Inkscape (http://www.inkscape.org/) -->

<svg
   version="1.1"
   id="svg2"
   width="32"
   height="32.010063"
   viewBox="0 0 32 32.010062"
   sodipodi:docname="video-x-generic.svg"
   inkscape:version="1.1.2 (0a00cf5339, 2022-02-04, custom)"
   xmlns:inkscape="http://www.inkscape.org/namespaces/inkscape"
   xmlns:sodipodi="http://sodipodi.sourceforge.net/DTD/sodipodi-0.dtd"
   xmlns="http://www.w3.org/2000/svg"
   xmlns:svg="http://www.w3.org/2000/svg">
  <defs
     id="defs6" />
  <sodipodi:namedview
     id="namedview4"
     pagecolor="#505050"
     bordercolor="#ffffff"
     borderopacity="1"
     inkscape:pageshadow="0"
     inkscape:pageopacity="0"
     inkscape:pagecheckerboard="1"
     showgrid="false"
     inkscape:zoom="3.6203867"
     inkscape:cx="-32.040776"
     inkscape:cy="22.235194"
     inkscape:window-width="1440"
     inkscape:window-height="881"
     inkscape:window-x="-4"
     inkscape:window-y="-4"
     inkscape:window-maximized="0"
     inkscape:current-layer="g8"
     inkscape:snap-bbox="true"
     inkscape:snap-bbox-edge-midpoints="false"
     inkscape:snap-bbox-midpoints="false"
     inkscape:snap-page="false"
     inkscape:snap-others="false"
     inkscape:object-nodes="false" />
  <g
     inkscape:groupmode="layer"
     inkscape:label="Image"
     id="g8"
     transform="translate(-1.3572316,-0.77960443)">
    <rect
       style="fill:#1a1a1a;fill-opacity:1;stroke:#1a1a1a;stroke-width:4.04454;stroke-linecap:round;stroke-linejoin:round;stroke-miterlimit:4;stroke-dasharray:none;stroke-opacity:1"
       id="rect1002"
       width="27.95546"
       height="27.965525"
       x="3.3795016"
       y="2.8018744"
       ry="2.5935452" />
    <rect
       style="fill:#000000;fill-opacity:1;stroke:#000000;stroke-width:4.04454;stroke-linecap:round;stroke-linejoin:round;stroke-miterlimit:4;stroke-dasharray:none;stroke-opacity:1"
       id="rect1002-8"
       width="27.955458"
       height="5.1745729"
       x="3.3795016"
       y="2.8018744"
       ry="1.9367008" />
    <rect
       style="fill:#000000;fill-opacity:1;stroke:none;stroke-width:2.92356;stroke-linecap:round;stroke-linejoin:round;stroke-miterlimit:4;stroke-dasharray:none;stroke-opacity:1"
       id="rect1002-9"
       width="31.973965"
       height="4.5094962"
       x="1.3815104"
       y="5.4784698"
       ry="0" />
    <path
       style="fill:#f9f9f9;stroke-width:0.06627"
       d="m 4.7905912,9.2615268 c 0.9427837,-1.1306005 1.8841952,-2.2623425 2.8261057,-3.393669 1.2298135,0.00834 2.4606111,-0.021075 3.6896361,0.02314 0.362636,0.04967 -0.224703,0.4077235 -0.270811,0.5717695 -0.88101,1.06198 -1.7646411,2.121782 -2.6471931,3.18248 -1.306086,0 -2.6121695,0 -3.9182556,0 0.106848,-0.127908 0.213679,-0.2558145 0.3205179,-0.3837225 z M 6.1042229,3.282204 C 5.5878534,2.6538503 5.0550486,2.0374036 4.5683501,1.385695 4.800275,1.2012005 5.2498037,1.3394025 5.5644954,1.3041925 c 0.824285,0.027911 1.67258,-0.018309 2.458464,0.2779187 0.479237,0.1098836 0.9058475,0.3789753 1.2149165,0.7606021 0.7523535,0.8707151 1.4800461,1.7639094 2.2127851,2.6505203 -0.292234,0.130865 -0.682943,0.051497 -1.015355,0.078115 -0.9453061,0.0023 -1.8906181,8.65e-4 -2.8359241,0.00127 C 7.1009959,4.4758114 6.6026084,3.879007 6.1042229,3.282204 Z"
       id="path2512"
       sodipodi:nodetypes="sscssscccsssssssscs" />
    <path
       style="fill:#f9f9f9;stroke-width:0.06627"
       d="m 11.558629,9.2986378 c 0.942784,-1.1306005 1.884195,-2.262342 2.826107,-3.393669 1.229813,0.00834 2.46061,-0.021075 3.689636,0.02314 0.362636,0.04967 -0.224703,0.4077235 -0.270811,0.57177 -0.88101,1.06198 -1.764642,2.121782 -2.647193,3.1824801 -1.306087,0 -2.612171,0 -3.918257,0 0.106848,-0.1279081 0.213679,-0.2558151 0.320518,-0.3837231 z m 1.313632,-5.9793225 c -0.51637,-0.6283537 -1.049175,-1.2448005 -1.535873,-1.8965091 0.231925,-0.1844941 0.681454,-0.046292 0.996145,-0.081502 0.824285,0.027912 1.67258,-0.0183 2.458465,0.2779187 0.479237,0.1098841 0.905848,0.3789753 1.214917,0.7606021 0.752353,0.8707151 1.480046,1.7639094 2.212785,2.6505203 -0.292234,0.130866 -0.682943,0.051498 -1.015355,0.078114 -0.945307,0.0023 -1.890618,8.65e-4 -2.835925,0.00127 C 13.869033,4.5129253 13.370646,3.9161209 12.872261,3.319318 Z"
       id="path2512-6"
       sodipodi:nodetypes="sscssscccsssssssscs" />
    <path
       style="fill:#f9f9f9;stroke-width:0.06627"
       d="m 18.028121,9.3177788 c 0.942784,-1.130601 1.884195,-2.2623425 2.826107,-3.393669 1.229812,0.00834 2.460611,-0.021075 3.689635,0.02314 0.362636,0.04967 -0.224702,0.4077235 -0.27081,0.5717695 -0.88101,1.06198 -1.764642,2.121782 -2.647193,3.1824801 -1.306086,0 -2.61217,0 -3.918257,0 0.106848,-0.1279081 0.213679,-0.2558151 0.320518,-0.3837226 z M 19.341752,3.3384559 C 18.825383,2.7101022 18.292578,2.0936554 17.80588,1.4419468 c 0.231924,-0.1844941 0.681453,-0.046292 0.996145,-0.081502 0.824285,0.027912 1.672581,-0.0183 2.458465,0.2779187 0.479236,0.1098841 0.905848,0.3789753 1.214917,0.7606021 0.752354,0.8707151 1.480046,1.7639094 2.212784,2.6505203 -0.292234,0.130866 -0.682942,0.051498 -1.015354,0.078114 -0.945306,0.0023 -1.890619,8.65e-4 -2.835925,0.00127 -0.498386,-0.5968036 -0.996774,-1.193608 -1.49516,-1.7904113 z"
       id="path2512-64"
       sodipodi:nodetypes="sscssscccsssssssscs" />
    <path
       style="fill:#f9f9f9;stroke-width:0.06627"
       d="m 24.678885,9.2823583 c 0.942783,-1.130601 1.884195,-2.2623425 2.826105,-3.393669 1.229813,0.00834 2.460611,-0.021075 3.689637,0.02314 0.362634,0.04967 -0.224704,0.4077235 -0.270812,0.5717695 -0.88101,1.06198 -1.764642,2.121782 -2.647193,3.18248 -1.306086,0 -2.61217,0 -3.918255,0 0.10684,-0.127908 0.213678,-0.2558145 0.320518,-0.3837225 z M 25.992516,3.3030357 C 25.476146,2.674682 24.943341,2.0582352 24.456643,1.4065266 c 0.231924,-0.1844941 0.681454,-0.046292 0.996145,-0.081502 0.824286,0.027912 1.67258,-0.0183 2.458464,0.2779187 0.479236,0.1098841 0.905849,0.3789753 1.214917,0.7606021 0.752354,0.8707151 1.480046,1.7639092 2.212784,2.6505201 -0.292234,0.130866 -0.682942,0.051498 -1.015354,0.078114 -0.945306,0.0023 -1.890619,8.65e-4 -2.835925,0.00127 -0.498386,-0.596804 -0.996772,-1.1936084 -1.495158,-1.7904111 z"
       id="path2512-9"
       sodipodi:nodetypes="sscssscccsssssssscs" />
    <g
       id="g6200"
       transform="matrix(0.60900491,0,0,0.60900491,-6.9310843,16.643734)">
      <path
         style="fill:#e6e6e6;stroke:#e6e6e6;stroke-width:1px;stroke-linecap:butt;stroke-linejoin:miter;stroke-opacity:1"
         d="M 58.671755,19.219373 V 5.5867801 L 50.69869,10.190032 v 4.714348 z"
         id="path5672" />
      <path
         id="path5242"
         style="fill:#cccccc;stroke:#cccccc;stroke-width:0;stroke-linecap:round;stroke-linejoin:round"
         d="m 51.010518,-1.4436094 a 6.9705172,6.9705172 0 0 1 -6.970517,6.9705175 6.9705172,6.9705172 0 0 1 -6.970517,-6.9705175 6.9705172,6.9705172 0 0 1 6.970517,-6.9705172 6.9705172,6.9705172 0 0 1 6.970517,6.9705172 z" />
      <path
         id="path5114"
         style="fill:#b3b3b3;stroke-width:0;stroke-linecap:round;stroke-linejoin:round"
         d="m 35.735744,-0.01232238 a 4.5503802,4.5503802 0 0 1 -4.55038,4.55038018 4.5503802,4.5503802 0 0 1 -4.550381,-4.55038018 4.5503802,4.5503802 0 0 1 4.550381,-4.55038022 4.5503802,4.5503802 0 0 1 4.55038,4.55038022 z" />
      <rect
         style="fill:#ffffff;fill-opacity:1;stroke:#f9f9f9;stroke-width:2.02227;stroke-linecap:round;stroke-linejoin:round;stroke-miterlimit:4;stroke-dasharray:none;stroke-opacity:1"
         id="rect1002-5"
         width="24.503922"
         height="15.420632"
         x="25.747051"
         y="4.886024"
         ry="1.2967722" />
    </g>
  </g>
</svg>
