<?xml version="1.0" encoding="UTF-8" standalone="no"?>
<!-- Created with Inkscape (http://www.inkscape.org/) -->

<svg
   version="1.1"
   id="svg2"
   width="16"
   height="15.199093"
   viewBox="0 0 16 15.199092"
   sodipodi:docname="folder-download.svg"
   inkscape:export-filename="/home/itszariep/.icons/ilustraciones/16/apps/folder.png"
   inkscape:export-xdpi="435.14099"
   inkscape:export-ydpi="435.14099"
   inkscape:version="1.1.2 (0a00cf5339, 2022-02-04, custom)"
   xmlns:inkscape="http://www.inkscape.org/namespaces/inkscape"
   xmlns:sodipodi="http://sodipodi.sourceforge.net/DTD/sodipodi-0.dtd"
   xmlns="http://www.w3.org/2000/svg"
   xmlns:svg="http://www.w3.org/2000/svg">
  <defs
     id="defs6" />
  <sodipodi:namedview
     id="namedview4"
     pagecolor="#505050"
     bordercolor="#ffffff"
     borderopacity="1"
     inkscape:pageshadow="0"
     inkscape:pageopacity="0"
     inkscape:pagecheckerboard="1"
     showgrid="false"
     inkscape:snap-global="true"
     inkscape:snap-others="false"
     inkscape:object-nodes="false"
     inkscape:snap-nodes="false"
     inkscape:snap-page="false"
     inkscape:snap-object-midpoints="false"
     inkscape:snap-center="false"
     inkscape:object-paths="false"
     inkscape:snap-intersection-paths="false"
     inkscape:snap-midpoints="false"
     inkscape:snap-bbox="true"
     inkscape:bbox-nodes="false"
     inkscape:bbox-paths="true"
     inkscape:snap-bbox-edge-midpoints="false"
     inkscape:snap-bbox-midpoints="false"
     inkscape:zoom="22.627417"
     inkscape:cx="3.6239222"
     inkscape:cy="6.0766989"
     inkscape:window-width="1440"
     inkscape:window-height="881"
     inkscape:window-x="-4"
     inkscape:window-y="-4"
     inkscape:window-maximized="1"
     inkscape:current-layer="g8" />
  <g
     inkscape:groupmode="layer"
     inkscape:label="Image"
     id="g8"
     transform="translate(-9.5749264,-17.920704)">
    <rect
       style="font-variation-settings:'wght' 800;fill:#688050;fill-opacity:1;stroke:none;stroke-width:0.876602;stroke-linecap:round;stroke-linejoin:round;stroke-miterlimit:4;stroke-dasharray:none"
       id="rect3122"
       width="16"
       height="5.4631701"
       x="9.5749264"
       y="17.920704"
       ry="0.62188256" />
    <rect
       style="font-variation-settings:'wght' 800;fill:#ffffff;fill-opacity:1;stroke:#ffffff;stroke-width:0.893281;stroke-linecap:round;stroke-linejoin:round;stroke-miterlimit:4;stroke-dasharray:none;stroke-opacity:1"
       id="rect19452"
       width="13.17271"
       height="2.7224162"
       x="11.928574"
       y="19.958504" />
    <rect
       style="font-variation-settings:'wght' 800;fill:#8fa876;fill-opacity:1;stroke:#8fa876;stroke-width:0.876602;stroke-linecap:round;stroke-linejoin:round;stroke-miterlimit:4;stroke-dasharray:none;stroke-opacity:1"
       id="rect1518"
       width="15.108247"
       height="9.7421722"
       x="10.020921"
       y="22.939323" />
    <rect
       style="font-variation-settings:'wght' 800;fill:#8fa876;fill-opacity:1;stroke:#8fa876;stroke-width:0.876602;stroke-linecap:round;stroke-linejoin:round;stroke-miterlimit:4;stroke-dasharray:none;stroke-opacity:1"
       id="rect1834"
       width="9.2615213"
       height="1.4445229"
       x="15.870332"
       y="21.468843" />
    <path
       style="fill:#ffffff;stroke-width:0.00986007"
       d="m 14.158426,31.854389 c -0.566691,-0.115385 -0.542307,-0.757792 -0.517477,-1.207806 0.0093,-0.598714 -0.02101,-1.200022 0.01927,-1.797035 0.1074,-0.525144 0.875851,-0.675688 1.170942,-0.228832 0.22949,0.341032 0.09395,0.777278 0.130868,1.162912 v 0.755841 h 5.718834 c 0.0084,-0.563104 -0.02039,-1.128752 0.01945,-1.689921 0.105343,-0.511468 0.843941,-0.673881 1.152108,-0.253497 0.267075,0.367535 0.09938,0.861955 0.149551,1.283669 -0.0086,0.497019 0.01926,0.996519 -0.01929,1.491847 -0.115775,0.518643 -0.692231,0.522783 -1.112745,0.495995 -2.237003,-0.0012 -4.474984,0.01603 -6.71151,-0.01317 z m 3.589061,-2.079662 c -0.365801,-0.03898 -0.54701,-0.386181 -0.803265,-0.602638 -0.555978,-0.564183 -1.130505,-1.115182 -1.674915,-1.687586 -0.283454,-0.414501 0.05455,-1.047723 0.560402,-1.02076 0.438921,0.0024 0.666253,0.439838 0.968938,0.692356 l 0.36217,0.360608 c 0.0064,-1.583916 -0.0632,-1.569793 -0.03381,-3.153324 0.04493,-0.537873 0.825064,-0.753097 1.148616,-0.322848 0.266643,0.338599 0.115145,0.807578 0.157888,1.206011 0.0025,1.284845 0.04383,0.971242 0.05563,2.256032 0.32718,-0.302435 0.627815,-0.638915 0.957658,-0.935553 0.412307,-0.288592 1.055318,0.04434 1.027011,0.555943 0.01951,0.395656 -0.35622,0.591535 -0.580561,0.854257 -0.588173,0.572474 -1.143196,1.183534 -1.761197,1.721821 -0.117284,0.06348 -0.252629,0.08501 -0.384591,0.07568 z"
       id="path947"
       sodipodi:nodetypes="scccccccccccsscccccccccccccccc" />
  </g>
</svg>
