<?xml version="1.0" encoding="UTF-8" standalone="no"?>
<!-- Created with Inkscape (http://www.inkscape.org/) -->

<svg
   version="1.1"
   id="svg2"
   width="16"
   height="15.199092"
   viewBox="0 0 16 15.19909"
   sodipodi:docname="user-home.svg"
   inkscape:export-filename="/home/itszariep/.icons/ilustraciones/16/apps/folder.png"
   inkscape:export-xdpi="435.14099"
   inkscape:export-ydpi="435.14099"
   inkscape:version="1.1.2 (0a00cf5339, 2022-02-04, custom)"
   xmlns:inkscape="http://www.inkscape.org/namespaces/inkscape"
   xmlns:sodipodi="http://sodipodi.sourceforge.net/DTD/sodipodi-0.dtd"
   xmlns="http://www.w3.org/2000/svg"
   xmlns:svg="http://www.w3.org/2000/svg">
  <defs
     id="defs6" />
  <sodipodi:namedview
     id="namedview4"
     pagecolor="#505050"
     bordercolor="#ffffff"
     borderopacity="1"
     inkscape:pageshadow="0"
     inkscape:pageopacity="0"
     inkscape:pagecheckerboard="1"
     showgrid="false"
     inkscape:snap-global="true"
     inkscape:snap-others="false"
     inkscape:object-nodes="false"
     inkscape:snap-nodes="false"
     inkscape:snap-page="false"
     inkscape:snap-object-midpoints="false"
     inkscape:snap-center="false"
     inkscape:object-paths="false"
     inkscape:snap-intersection-paths="false"
     inkscape:snap-midpoints="false"
     inkscape:snap-bbox="false"
     inkscape:bbox-nodes="true"
     inkscape:bbox-paths="true"
     inkscape:snap-bbox-edge-midpoints="true"
     inkscape:snap-bbox-midpoints="true"
     inkscape:zoom="3.5686796"
     inkscape:cx="53.381088"
     inkscape:cy="43.013108"
     inkscape:window-width="1440"
     inkscape:window-height="881"
     inkscape:window-x="-4"
     inkscape:window-y="-4"
     inkscape:window-maximized="0"
     inkscape:current-layer="g8" />
  <g
     inkscape:groupmode="layer"
     inkscape:label="Image"
     id="g8"
     transform="translate(-9.5749264,-17.920704)">
    <rect
       style="font-variation-settings:'wght' 800;fill:#688050;fill-opacity:1;stroke:none;stroke-width:0.8766;stroke-linecap:round;stroke-linejoin:round;stroke-miterlimit:4;stroke-dasharray:none"
       id="rect3122"
       width="16"
       height="5.4631701"
       x="9.5749264"
       y="17.920704"
       ry="0.62188256" />
    <rect
       style="font-variation-settings:'wght' 800;fill:#e6e6e6;fill-opacity:1;stroke:#e6e6e6;stroke-width:0.89328;stroke-linecap:round;stroke-linejoin:round;stroke-miterlimit:4;stroke-dasharray:none;stroke-opacity:1"
       id="rect19452"
       width="13.17271"
       height="2.7224162"
       x="11.928574"
       y="19.958504" />
    <rect
       style="font-variation-settings:'wght' 800;fill:#8fa876;fill-opacity:1;stroke:#8fa876;stroke-width:0.8766;stroke-linecap:round;stroke-linejoin:round;stroke-miterlimit:4;stroke-dasharray:none;stroke-opacity:1"
       id="rect1518"
       width="15.108246"
       height="9.7421722"
       x="10.020921"
       y="22.939323" />
    <rect
       style="font-variation-settings:'wght' 800;fill:#8fa876;fill-opacity:1;stroke:#8fa876;stroke-width:0.8766;stroke-linecap:round;stroke-linejoin:round;stroke-miterlimit:4;stroke-dasharray:none;stroke-opacity:1"
       id="rect1834"
       width="9.2615213"
       height="1.4445229"
       x="15.870332"
       y="21.468843" />
    <path
       style="fill:#e6e6e6;stroke:#8fa876;stroke-width:0;stroke-linecap:round;stroke-linejoin:round;stroke-miterlimit:4;stroke-dasharray:none;stroke-opacity:1"
       d="m 14.743054,31.898157 c -0.522979,-0.103338 -0.469874,-0.70194 -0.460287,-1.108749 -0.0043,-1.203742 0.0059,-2.407639 -0.0091,-3.61129 -0.349009,0.161624 -0.766097,0.909629 -1.104545,0.502377 -0.206116,-0.261826 0.335092,-0.64272 0.668683,-0.912177 0.341524,-0.274155 0.683567,-0.547663 1.025323,-0.821528 0.0095,-0.613122 -0.0059,-1.231181 0.01901,-1.841249 0.117692,-0.47475 0.829503,-0.587338 1.068311,-0.150383 0.21097,0.258565 -0.03746,0.930555 0.159031,0.992553 0.473819,-0.360803 0.923512,-0.760295 1.40408,-1.110593 0.238719,-0.235883 0.46749,-0.07605 0.690041,0.06045 0.188492,0.147382 0.361135,0.337422 0.556629,0.4573 1.227324,0.981769 2.457966,1.959494 3.678152,2.950115 0.453234,0.366877 -0.107686,0.609675 -0.5874,0.271421 -0.216256,-0.132918 -0.511488,-0.589396 -0.507501,-0.08952 -0.01556,1.331085 0.01609,2.664134 -0.02471,3.994008 -0.08528,0.308834 -0.335192,0.447136 -0.712525,0.428091 -0.597143,-0.0088 -1.197773,0.03165 -1.792017,-0.02335 -0.422902,-0.116911 -0.445435,-0.593354 -0.416558,-0.953547 -0.0027,-0.652648 -0.0037,-0.317023 -0.0055,-0.969672 h -1.170687 c -0.0072,0.825409 0.0072,0.666134 -0.01329,1.489319 -0.104174,0.473995 -0.618559,0.456238 -1.026322,0.460575 -0.479369,-0.0048 -0.960082,0.0112 -1.438746,-0.01414 z m 1.884836,-2.04281 c 8.5e-4,-0.490626 0.0016,0.007 0.0024,-0.4836 l 2.348218,-0.0049 c 0.0016,0.981276 0.0032,0.974276 0.0049,1.955552 0.58747,0.0017 1.17494,0.0033 1.76241,0.0049 -3.5e-4,-1.544742 -6.5e-4,-3.089486 -0.001,-4.634229 -0.979442,-0.782877 -1.958884,-1.565754 -2.938326,-2.34863 -0.977919,0.783313 -1.955838,1.566625 -2.933758,2.349937 -0.0016,1.544274 -0.0032,3.088547 -0.0048,4.632821 h 1.757585 c 8.5e-4,-0.490625 0.0016,-0.981252 0.0024,-1.471879 z"
       id="path855"
       sodipodi:nodetypes="sccccccccccccccccccccccssscccccccccss" />
    <path
       style="fill:#e6e6e6;stroke:#ffffff;stroke-width:0;stroke-linecap:round;stroke-linejoin:round;stroke-miterlimit:4;stroke-dasharray:none"
       d="m 17.762709,24.334286 c -0.976006,0.780718 -1.952004,1.561446 -2.927994,2.342183 -0.03587,0.223001 -0.0054,0.461093 -0.01552,0.689963 0,1.319165 0,2.63833 0,3.957496 0.06837,0.08959 0.226998,0.01889 0.331532,0.0414 0.488869,-0.0053 0.982243,0.01052 1.468294,-0.0079 0.05417,-0.09312 0.0089,-0.232239 0.02375,-0.342965 0,-0.53422 0,-1.06844 0,-1.602659 0.758968,0 1.517936,0 2.276905,0 -9.5e-4,0.637715 0.01529,1.27529 0.02561,1.912884 0.06962,0.08829 0.22688,0.01832 0.331533,0.04065 0.486775,-0.0053 0.978066,0.01056 1.462022,-0.0079 0.05416,-0.09312 0.0088,-0.232236 0.02371,-0.342964 -2.25e-4,-1.434525 -4.25e-4,-2.869048 -6e-4,-4.303573 -0.151692,-0.167314 -0.356724,-0.292196 -0.52916,-0.443008 -0.80612,-0.644517 -1.612222,-1.289055 -2.418327,-1.93359 -0.01774,-7.5e-4 -0.03564,-0.01874 -0.05175,0 z"
       id="path4109" />
  </g>
</svg>
