<?xml version="1.0" encoding="UTF-8" standalone="no"?>
<!-- Created with Inkscape (http://www.inkscape.org/) -->

<svg
   version="1.1"
   id="svg2"
   width="64"
   height="60.796368"
   viewBox="0 0 64 60.796361"
   sodipodi:docname="folder-backup.svg"
   inkscape:export-filename="/home/itszariep/.icons/ilustraciones/16/apps/folder.png"
   inkscape:export-xdpi="435.14099"
   inkscape:export-ydpi="435.14099"
   inkscape:version="1.1.2 (0a00cf5339, 2022-02-04, custom)"
   xmlns:inkscape="http://www.inkscape.org/namespaces/inkscape"
   xmlns:sodipodi="http://sodipodi.sourceforge.net/DTD/sodipodi-0.dtd"
   xmlns="http://www.w3.org/2000/svg"
   xmlns:svg="http://www.w3.org/2000/svg">
  <defs
     id="defs6" />
  <sodipodi:namedview
     id="namedview4"
     pagecolor="#505050"
     bordercolor="#ffffff"
     borderopacity="1"
     inkscape:pageshadow="0"
     inkscape:pageopacity="0"
     inkscape:pagecheckerboard="1"
     showgrid="false"
     inkscape:snap-global="true"
     inkscape:snap-others="false"
     inkscape:object-nodes="false"
     inkscape:snap-nodes="false"
     inkscape:snap-page="false"
     inkscape:snap-object-midpoints="false"
     inkscape:snap-center="false"
     inkscape:object-paths="false"
     inkscape:snap-intersection-paths="false"
     inkscape:snap-midpoints="false"
     inkscape:snap-bbox="true"
     inkscape:bbox-nodes="true"
     inkscape:bbox-paths="true"
     inkscape:snap-bbox-edge-midpoints="true"
     inkscape:snap-bbox-midpoints="true"
     inkscape:zoom="7.1373591"
     inkscape:cx="30.89378"
     inkscape:cy="31.173995"
     inkscape:window-width="1440"
     inkscape:window-height="881"
     inkscape:window-x="-4"
     inkscape:window-y="-4"
     inkscape:window-maximized="1"
     inkscape:current-layer="g8" />
  <g
     inkscape:groupmode="layer"
     inkscape:label="Image"
     id="g8"
     transform="translate(-9.5749264,-17.920704)">
    <rect
       style="font-variation-settings:'wght' 800;fill:#688050;fill-opacity:1;stroke:none;stroke-width:3.5064;stroke-linecap:round;stroke-linejoin:round;stroke-miterlimit:4;stroke-dasharray:none"
       id="rect3122"
       width="64"
       height="21.85268"
       x="9.5749264"
       y="17.920704"
       ry="2.4875302" />
    <rect
       style="font-variation-settings:'wght' 800;fill:#e6e6e6;fill-opacity:1;stroke:#e6e6e6;stroke-width:3.57312;stroke-linecap:round;stroke-linejoin:round;stroke-miterlimit:4;stroke-dasharray:none;stroke-opacity:1"
       id="rect19452"
       width="52.690842"
       height="10.889665"
       x="18.989515"
       y="26.071903" />
    <rect
       style="font-variation-settings:'wght' 800;fill:#8fa876;fill-opacity:1;stroke:#8fa876;stroke-width:3.5064;stroke-linecap:round;stroke-linejoin:round;stroke-miterlimit:4;stroke-dasharray:none;stroke-opacity:1"
       id="rect1518"
       width="60.432983"
       height="38.968689"
       x="11.358904"
       y="37.995182" />
    <rect
       style="font-variation-settings:'wght' 800;fill:#8fa876;fill-opacity:1;stroke:#8fa876;stroke-width:3.5064;stroke-linecap:round;stroke-linejoin:round;stroke-miterlimit:4;stroke-dasharray:none;stroke-opacity:1"
       id="rect1834"
       width="37.046085"
       height="5.7780914"
       x="34.756546"
       y="32.113262" />
    <g
       id="g12"
       transform="matrix(0.23958167,0,0,0.23958167,-7.8552981,30.691047)"
       style="fill:#aac148;fill-opacity:1;stroke:#aac148;stroke-linecap:round;stroke-linejoin:round;stroke-opacity:1;paint-order:fill markers stroke" />
    <g
       id="g14"
       transform="matrix(0.23958167,0,0,0.23958167,-7.8552981,30.691047)"
       style="fill:#aac148;fill-opacity:1;stroke:#aac148;stroke-linecap:round;stroke-linejoin:round;stroke-opacity:1;paint-order:fill markers stroke" />
    <g
       id="g16"
       transform="matrix(0.23958167,0,0,0.23958167,-7.8552981,30.691047)"
       style="fill:#aac148;fill-opacity:1;stroke:#aac148;stroke-linecap:round;stroke-linejoin:round;stroke-opacity:1;paint-order:fill markers stroke" />
    <g
       id="g18"
       transform="matrix(0.23958167,0,0,0.23958167,-7.8552981,30.691047)"
       style="fill:#aac148;fill-opacity:1;stroke:#aac148;stroke-linecap:round;stroke-linejoin:round;stroke-opacity:1;paint-order:fill markers stroke" />
    <g
       id="g20"
       transform="matrix(0.23958167,0,0,0.23958167,-7.8552981,30.691047)"
       style="fill:#aac148;fill-opacity:1;stroke:#aac148;stroke-linecap:round;stroke-linejoin:round;stroke-opacity:1;paint-order:fill markers stroke" />
    <g
       id="g22"
       transform="matrix(0.23958167,0,0,0.23958167,-7.8552981,30.691047)"
       style="fill:#aac148;fill-opacity:1;stroke:#aac148;stroke-linecap:round;stroke-linejoin:round;stroke-opacity:1;paint-order:fill markers stroke" />
    <g
       id="g24"
       transform="matrix(0.23958167,0,0,0.23958167,-7.8552981,30.691047)"
       style="fill:#aac148;fill-opacity:1;stroke:#aac148;stroke-linecap:round;stroke-linejoin:round;stroke-opacity:1;paint-order:fill markers stroke" />
    <g
       id="g26"
       transform="matrix(0.23958167,0,0,0.23958167,-7.8552981,30.691047)"
       style="fill:#aac148;fill-opacity:1;stroke:#aac148;stroke-linecap:round;stroke-linejoin:round;stroke-opacity:1;paint-order:fill markers stroke" />
    <g
       id="g28"
       transform="matrix(0.23958167,0,0,0.23958167,-7.8552981,30.691047)"
       style="fill:#aac148;fill-opacity:1;stroke:#aac148;stroke-linecap:round;stroke-linejoin:round;stroke-opacity:1;paint-order:fill markers stroke" />
    <g
       id="g30"
       transform="matrix(0.23958167,0,0,0.23958167,-7.8552981,30.691047)"
       style="fill:#aac148;fill-opacity:1;stroke:#aac148;stroke-linecap:round;stroke-linejoin:round;stroke-opacity:1;paint-order:fill markers stroke" />
    <g
       id="g32"
       transform="matrix(0.23958167,0,0,0.23958167,-7.8552981,30.691047)"
       style="fill:#aac148;fill-opacity:1;stroke:#aac148;stroke-linecap:round;stroke-linejoin:round;stroke-opacity:1;paint-order:fill markers stroke" />
    <g
       id="g34"
       transform="matrix(0.23958167,0,0,0.23958167,-7.8552981,30.691047)"
       style="fill:#aac148;fill-opacity:1;stroke:#aac148;stroke-linecap:round;stroke-linejoin:round;stroke-opacity:1;paint-order:fill markers stroke" />
    <g
       id="g36"
       transform="matrix(0.23958167,0,0,0.23958167,-7.8552981,30.691047)"
       style="fill:#aac148;fill-opacity:1;stroke:#aac148;stroke-linecap:round;stroke-linejoin:round;stroke-opacity:1;paint-order:fill markers stroke" />
    <g
       id="g38"
       transform="matrix(0.23958167,0,0,0.23958167,-7.8552981,30.691047)"
       style="fill:#aac148;fill-opacity:1;stroke:#aac148;stroke-linecap:round;stroke-linejoin:round;stroke-opacity:1;paint-order:fill markers stroke" />
    <g
       id="g40"
       transform="matrix(0.23958167,0,0,0.23958167,-7.8552981,30.691047)"
       style="fill:#aac148;fill-opacity:1;stroke:#aac148;stroke-linecap:round;stroke-linejoin:round;stroke-opacity:1;paint-order:fill markers stroke" />
    <path
       style="fill:#e6e6e6;fill-opacity:1;stroke:#e6e6e6;stroke-width:0.999997;stroke-linejoin:round;stroke-miterlimit:4;stroke-dasharray:none;stroke-opacity:1"
       d="M 42.472755,74.556604 C 36.206289,74.088498 30.377879,69.9441 28.004551,64.106023 c -0.747074,-1.911862 -1.432292,-3.98811 -1.151558,-6.060551 1.023219,-0.829617 3.904366,-1.08475 4.129121,0.680112 0.466426,5.713151 5.207542,10.665536 10.865368,11.455729 5.582915,0.925772 11.50487,-2.375397 13.648757,-7.617042 2.420738,-5.301597 0.518253,-12.086771 -4.256725,-15.407103 -4.420272,-3.324896 -10.908472,-3.121804 -15.311967,0.229084 -0.743012,0.565404 -1.196816,0.822009 -0.346594,1.53461 1.074912,0.900921 4.155376,2.694132 2.821624,3.134355 -2.14163,0.706873 -11.031041,1.030095 -11.050568,1.161325 -0.223149,0.05651 -1.125082,-7.813183 -0.593288,-11.006392 0.331264,-1.989104 2.531592,0.496146 3.373952,1.270855 l 1.766208,1.75811 c 4.143346,-4.00685 10.365299,-5.736986 15.95934,-4.274163 6.499697,1.535714 11.735602,7.249392 12.73928,13.84812 0.985362,5.894812 -1.409799,12.166656 -6.064183,15.913813 -3.352849,2.780523 -7.728728,4.109831 -12.06056,3.829721 z"
       id="path993"
       sodipodi:nodetypes="cccccccssscsccccccc" />
    <rect
       style="font-variation-settings:'wght' 100;fill:#e6e6e6;stroke:#e6e6e6;stroke-width:1;stroke-linecap:round;stroke-linejoin:round;stroke-miterlimit:4;stroke-dasharray:none;stroke-dashoffset:90.7465;paint-order:stroke fill markers"
       id="rect4372"
       width="8.5648489"
       height="4.1730061"
       x="41.628632"
       y="58.31385"
       ry="0.44976646" />
    <rect
       style="font-variation-settings:'wght' 100;fill:#e6e6e6;stroke:#e6e6e6;stroke-width:1;stroke-linecap:round;stroke-linejoin:round;stroke-miterlimit:4;stroke-dasharray:none;stroke-dashoffset:90.7465;paint-order:stroke fill markers"
       id="rect4473"
       width="8.5648489"
       height="4.1730061"
       x="-59.476051"
       y="-45.801636"
       ry="0.44976646"
       transform="matrix(0,-1,-1,0,0,0)" />
  </g>
</svg>
