<?xml version="1.0" encoding="UTF-8" standalone="no"?>
<!-- Created with Inkscape (http://www.inkscape.org/) -->

<svg
   version="1.1"
   id="svg2"
   width="64"
   height="60.796368"
   viewBox="0 0 64 60.796361"
   sodipodi:docname="user-home.svg"
   inkscape:export-filename="/home/itszariep/.icons/ilustraciones/16/apps/folder.png"
   inkscape:export-xdpi="435.14099"
   inkscape:export-ydpi="435.14099"
   inkscape:version="1.1.2 (0a00cf5339, 2022-02-04, custom)"
   xmlns:inkscape="http://www.inkscape.org/namespaces/inkscape"
   xmlns:sodipodi="http://sodipodi.sourceforge.net/DTD/sodipodi-0.dtd"
   xmlns="http://www.w3.org/2000/svg"
   xmlns:svg="http://www.w3.org/2000/svg">
  <defs
     id="defs6" />
  <sodipodi:namedview
     id="namedview4"
     pagecolor="#505050"
     bordercolor="#ffffff"
     borderopacity="1"
     inkscape:pageshadow="0"
     inkscape:pageopacity="0"
     inkscape:pagecheckerboard="1"
     showgrid="false"
     inkscape:snap-global="true"
     inkscape:snap-others="false"
     inkscape:object-nodes="false"
     inkscape:snap-nodes="false"
     inkscape:snap-page="false"
     inkscape:snap-object-midpoints="false"
     inkscape:snap-center="false"
     inkscape:object-paths="false"
     inkscape:snap-intersection-paths="false"
     inkscape:snap-midpoints="false"
     inkscape:snap-bbox="false"
     inkscape:bbox-nodes="true"
     inkscape:bbox-paths="true"
     inkscape:snap-bbox-edge-midpoints="true"
     inkscape:snap-bbox-midpoints="true"
     inkscape:zoom="3.5686796"
     inkscape:cx="53.381088"
     inkscape:cy="43.013108"
     inkscape:window-width="1440"
     inkscape:window-height="881"
     inkscape:window-x="-4"
     inkscape:window-y="-4"
     inkscape:window-maximized="0"
     inkscape:current-layer="g8" />
  <g
     inkscape:groupmode="layer"
     inkscape:label="Image"
     id="g8"
     transform="translate(-9.5749264,-17.920704)">
    <rect
       style="font-variation-settings:'wght' 800;fill:#688050;fill-opacity:1;stroke:none;stroke-width:3.5064;stroke-linecap:round;stroke-linejoin:round;stroke-miterlimit:4;stroke-dasharray:none"
       id="rect3122"
       width="64"
       height="21.85268"
       x="9.5749264"
       y="17.920704"
       ry="2.4875302" />
    <rect
       style="font-variation-settings:'wght' 800;fill:#e6e6e6;fill-opacity:1;stroke:#e6e6e6;stroke-width:3.57312;stroke-linecap:round;stroke-linejoin:round;stroke-miterlimit:4;stroke-dasharray:none;stroke-opacity:1"
       id="rect19452"
       width="52.690842"
       height="10.889665"
       x="18.989515"
       y="26.071903" />
    <rect
       style="font-variation-settings:'wght' 800;fill:#8fa876;fill-opacity:1;stroke:#8fa876;stroke-width:3.5064;stroke-linecap:round;stroke-linejoin:round;stroke-miterlimit:4;stroke-dasharray:none;stroke-opacity:1"
       id="rect1518"
       width="60.432983"
       height="38.968689"
       x="11.358904"
       y="37.995182" />
    <rect
       style="font-variation-settings:'wght' 800;fill:#8fa876;fill-opacity:1;stroke:#8fa876;stroke-width:3.5064;stroke-linecap:round;stroke-linejoin:round;stroke-miterlimit:4;stroke-dasharray:none;stroke-opacity:1"
       id="rect1834"
       width="37.046085"
       height="5.7780914"
       x="34.756546"
       y="32.113262" />
    <path
       style="fill:#e6e6e6;stroke:#8fa876;stroke-width:0;stroke-linecap:round;stroke-linejoin:round;stroke-miterlimit:4;stroke-dasharray:none;stroke-opacity:1"
       d="m 30.247438,73.830517 c -2.091916,-0.41335 -1.879496,-2.80776 -1.841148,-4.434995 -0.0172,-4.81497 0.0236,-9.630555 -0.0364,-14.445162 -1.396036,0.646496 -3.064388,3.638516 -4.41818,2.009508 -0.824464,-1.047304 1.340368,-2.57088 2.674732,-3.648708 1.366096,-1.09662 2.734268,-2.190652 4.101292,-3.286112 0.038,-2.452488 -0.0236,-4.924724 0.07604,-7.364996 0.470768,-1.899 3.318012,-2.349352 4.273244,-0.601532 0.84388,1.03426 -0.14984,3.72222 0.636124,3.970212 1.895276,-1.443212 3.694048,-3.04118 5.61632,-4.442372 0.954876,-0.943532 1.86996,-0.3042 2.760164,0.2418 0.753968,0.589528 1.44454,1.349688 2.226516,1.8292 4.909296,3.927076 9.831861,7.837976 14.712606,11.80046 1.812935,1.467508 -0.430745,2.4387 -2.3496,1.085684 -0.865025,-0.531672 -2.04595,-2.357584 -2.030005,-0.35808 -0.06224,5.324343 0.06436,10.656538 -0.09884,15.976033 -0.34112,1.235335 -1.340765,1.788545 -2.850097,1.712365 -2.388572,-0.0352 -4.791092,0.1266 -7.168068,-0.0934 -1.691608,-0.467645 -1.78174,-2.373415 -1.666232,-3.81419 -0.0108,-2.61059 -0.0148,-1.26809 -0.022,-3.878685 h -4.682748 c -0.0288,3.301635 0.0288,2.664535 -0.05316,5.957275 -0.416696,1.89598 -2.474236,1.82495 -4.105288,1.8423 -1.917476,-0.0192 -3.840328,0.0448 -5.754984,-0.05656 z m 7.539344,-8.17124 c 0.0034,-1.962505 0.0064,0.028 0.0096,-1.9344 l 9.392872,-0.0196 c 0.0064,3.925105 0.0128,3.897105 0.0196,7.82221 2.34988,0.0068 4.69976,0.0132 7.04964,0.0196 -0.0014,-6.17897 -0.0026,-12.357945 -0.004,-18.536919 -3.917768,-3.131508 -7.835536,-6.263016 -11.753304,-9.39452 -3.911676,3.133252 -7.823352,6.2665 -11.735032,9.399748 -0.0064,6.177096 -0.0128,12.354191 -0.0192,18.531286 h 7.03034 c 0.0034,-1.9625 0.0064,-3.92501 0.0096,-5.887515 z"
       id="path855"
       sodipodi:nodetypes="sccccccccccccccccccccccssscccccccccss" />
    <path
       style="fill:#e6e6e6;stroke:#ffffff;stroke-width:0;stroke-linecap:round;stroke-linejoin:round;stroke-miterlimit:4;stroke-dasharray:none"
       d="m 42.326058,43.575032 c -3.904024,3.122872 -7.808016,6.245784 -11.711976,9.368732 -0.14348,0.892004 -0.0216,1.844372 -0.06208,2.759852 0,5.276661 0,10.553321 0,15.829986 0.27348,0.35836 0.907992,0.07556 1.326128,0.1656 1.955476,-0.0212 3.928972,0.0421 5.873176,-0.0316 0.21668,-0.37248 0.0356,-0.928955 0.095,-1.37186 0,-2.13688 0,-4.27376 0,-6.410635 3.035872,0 6.071744,0 9.10762,0 -0.0038,2.55086 0.06116,5.10116 0.10244,7.651535 0.27848,0.35316 0.90752,0.07328 1.326132,0.1626 1.9471,-0.0212 3.912264,0.04225 5.848088,-0.0316 0.21664,-0.37248 0.0352,-0.928945 0.09484,-1.371855 -9e-4,-5.7381 -0.0017,-11.476195 -0.0024,-17.214295 -0.606768,-0.669256 -1.426896,-1.168784 -2.11664,-1.772032 -3.22448,-2.578068 -6.448888,-5.15622 -9.673308,-7.73436 -0.07096,-0.003 -0.14256,-0.07496 -0.207,0 z"
       id="path4109" />
  </g>
</svg>
