<?xml version="1.0" encoding="UTF-8" standalone="no"?>
<!-- Created with Inkscape (http://www.inkscape.org/) -->

<svg
   version="1.1"
   id="svg2"
   width="64"
   height="60.796368"
   viewBox="0 0 64 60.796364"
   sodipodi:docname="user-home.svg"
   inkscape:export-filename="/home/itszariep/.icons/ilustraciones/16/apps/folder.png"
   inkscape:export-xdpi="435.14099"
   inkscape:export-ydpi="435.14099"
   inkscape:version="1.1.2 (0a00cf5339, 2022-02-04, custom)"
   xmlns:inkscape="http://www.inkscape.org/namespaces/inkscape"
   xmlns:sodipodi="http://sodipodi.sourceforge.net/DTD/sodipodi-0.dtd"
   xmlns="http://www.w3.org/2000/svg"
   xmlns:svg="http://www.w3.org/2000/svg">
  <defs
     id="defs6" />
  <sodipodi:namedview
     id="namedview4"
     pagecolor="#505050"
     bordercolor="#ffffff"
     borderopacity="1"
     inkscape:pageshadow="0"
     inkscape:pageopacity="0"
     inkscape:pagecheckerboard="1"
     showgrid="false"
     inkscape:snap-global="true"
     inkscape:snap-others="false"
     inkscape:object-nodes="false"
     inkscape:snap-nodes="false"
     inkscape:snap-page="false"
     inkscape:snap-object-midpoints="false"
     inkscape:snap-center="false"
     inkscape:object-paths="false"
     inkscape:snap-intersection-paths="false"
     inkscape:snap-midpoints="false"
     inkscape:snap-bbox="false"
     inkscape:bbox-nodes="true"
     inkscape:bbox-paths="true"
     inkscape:snap-bbox-edge-midpoints="true"
     inkscape:snap-bbox-midpoints="true"
     inkscape:zoom="7.1373592"
     inkscape:cx="27.180922"
     inkscape:cy="24.869142"
     inkscape:window-width="1440"
     inkscape:window-height="881"
     inkscape:window-x="-4"
     inkscape:window-y="-4"
     inkscape:window-maximized="1"
     inkscape:current-layer="g8" />
  <g
     inkscape:groupmode="layer"
     inkscape:label="Image"
     id="g8"
     transform="translate(-9.5749264,-17.920704)">
    <rect
       style="font-variation-settings:'wght' 800;fill:#688050;fill-opacity:1;stroke:none;stroke-width:3.5064;stroke-linecap:round;stroke-linejoin:round;stroke-miterlimit:4;stroke-dasharray:none"
       id="rect3122"
       width="64"
       height="21.85268"
       x="9.5749264"
       y="17.920704"
       ry="2.4875302" />
    <rect
       style="font-variation-settings:'wght' 800;fill:#ffffff;fill-opacity:1;stroke:#ffffff;stroke-width:3.57312;stroke-linecap:round;stroke-linejoin:round;stroke-miterlimit:4;stroke-dasharray:none;stroke-opacity:1"
       id="rect19452"
       width="52.690842"
       height="10.889665"
       x="18.989515"
       y="26.071903" />
    <rect
       style="font-variation-settings:'wght' 800;fill:#8fa876;fill-opacity:1;stroke:#8fa876;stroke-width:3.5064;stroke-linecap:round;stroke-linejoin:round;stroke-miterlimit:4;stroke-dasharray:none;stroke-opacity:1"
       id="rect1518"
       width="60.432987"
       height="38.968689"
       x="11.358904"
       y="37.995182" />
    <rect
       style="font-variation-settings:'wght' 800;fill:#8fa876;fill-opacity:1;stroke:#8fa876;stroke-width:3.5064;stroke-linecap:round;stroke-linejoin:round;stroke-miterlimit:4;stroke-dasharray:none;stroke-opacity:1"
       id="rect1834"
       width="37.046085"
       height="5.7780914"
       x="34.756546"
       y="32.113262" />
    <path
       style="fill:#ffffff;stroke:#8fa876;stroke-width:0;stroke-miterlimit:4;stroke-dasharray:none;stroke-opacity:1;stroke-linecap:round;stroke-linejoin:round"
       d="m 30.247438,73.830518 c -2.091917,-0.413349 -1.879497,-2.807762 -1.84115,-4.434992 -0.01713,-4.814972 0.02345,-9.630557 -0.03647,-14.445165 -1.396037,0.646494 -3.064391,3.638515 -4.41818,2.009507 -0.824464,-1.047303 1.340368,-2.570879 2.674732,-3.648708 1.366096,-1.096621 2.734266,-2.190653 4.101291,-3.286113 0.03804,-2.452485 -0.02371,-4.924721 0.07603,-7.364994 0.470771,-1.899001 3.318014,-2.349352 4.273244,-0.601532 0.843882,1.034259 -0.14983,3.722219 0.636126,3.97021 1.895277,-1.443211 3.694049,-3.04118 5.61632,-4.442371 0.954877,-0.943533 1.869961,-0.304194 2.760162,0.241784 0.75397,0.589529 1.444543,1.349688 2.226517,1.829199 4.909298,3.927077 9.831861,7.837976 14.71261,11.800463 1.812929,1.467505 -0.430748,2.438699 -2.349601,1.085681 -0.865028,-0.53167 -2.045951,-2.357581 -2.030003,-0.358074 -0.06225,5.324344 0.06434,10.656534 -0.09884,15.97603 -0.341136,1.235338 -1.34077,1.788549 -2.850101,1.712368 -2.388572,-0.03518 -4.791092,0.126614 -7.16807,-0.09341 -1.691606,-0.467648 -1.781737,-2.373418 -1.666232,-3.814192 -0.01069,-2.610588 -0.01487,-1.26809 -0.02218,-3.878683 h -4.682748 c -0.02866,3.301633 0.02879,2.664532 -0.05318,5.95727 -0.416696,1.89598 -2.474235,1.824951 -4.105286,1.842301 -1.917476,-0.01922 -3.840327,0.04478 -5.754986,-0.05658 z m 7.539342,-8.17124 c 0.0033,-1.962504 0.0065,0.02811 0.0097,-1.934403 l 9.392872,-0.01955 c 0.0065,3.925107 0.01297,3.897105 0.01945,7.822212 2.349879,0.0066 4.699759,0.01309 7.049639,0.01966 -0.0014,-6.178973 -0.0027,-12.357947 -0.0041,-18.53692 -3.917768,-3.131508 -7.835537,-6.263015 -11.753306,-9.394521 -3.911675,3.133251 -7.823352,6.266501 -11.73503,9.39975 -0.0064,6.177096 -0.01291,12.354192 -0.01937,18.531288 h 7.030342 c 0.0033,-1.962504 0.0065,-3.925013 0.0098,-5.887516 z"
       id="path855"
       sodipodi:nodetypes="sccccccccccccccccccccccssscccccccccss" />
    <path
       style="fill:#ffffff;stroke:#ffffff;stroke-width:0;stroke-linecap:round;stroke-linejoin:round;stroke-miterlimit:4;stroke-dasharray:none"
       d="m 42.326056,43.575033 c -3.904023,3.122873 -7.808014,6.245784 -11.711976,9.368733 -0.143486,0.892001 -0.02176,1.844371 -0.0621,2.759849 0,5.276662 0,10.553322 0,15.829984 0.273488,0.358345 0.907991,0.07556 1.326129,0.165616 1.955476,-0.02104 3.928971,0.04213 5.873174,-0.03164 0.216668,-0.372482 0.03546,-0.928951 0.09501,-1.37186 0,-2.136877 0,-4.273755 0,-6.410632 3.035872,0 6.071745,0 9.107618,0 -0.0037,2.550862 0.06116,5.101161 0.102451,7.651537 0.27847,0.353166 0.907519,0.07326 1.32613,0.16259 1.947099,-0.02115 3.912266,0.04224 5.84809,-0.03164 0.216656,-0.372481 0.03533,-0.92895 0.09483,-1.371859 -8.84e-4,-5.738097 -0.0017,-11.476196 -0.0024,-17.214293 -0.606768,-0.669256 -1.426896,-1.168785 -2.11664,-1.772034 -3.224478,-2.578067 -6.448889,-5.156218 -9.673307,-7.73436 -0.07097,-0.0031 -0.142547,-0.07498 -0.207019,0 z"
       id="path4109" />
  </g>
</svg>
