<?xml version="1.0" encoding="UTF-8" standalone="no"?>
<!-- Created with Inkscape (http://www.inkscape.org/) -->

<svg
   width="128"
   version="1.1"
   height="121.08332"
   id="svg71"
   sodipodi:docname="video-display.svg"
   inkscape:version="1.1.2 (0a00cf5339, 2022-02-04, custom)"
   xmlns:inkscape="http://www.inkscape.org/namespaces/inkscape"
   xmlns:sodipodi="http://sodipodi.sourceforge.net/DTD/sodipodi-0.dtd"
   xmlns="http://www.w3.org/2000/svg"
   xmlns:svg="http://www.w3.org/2000/svg">
  <sodipodi:namedview
     id="namedview73"
     pagecolor="#505050"
     bordercolor="#ffffff"
     borderopacity="1"
     inkscape:pageshadow="0"
     inkscape:pageopacity="0"
     inkscape:pagecheckerboard="1"
     showgrid="false"
     inkscape:snap-object-midpoints="false"
     inkscape:snap-bbox="true"
     inkscape:snap-bbox-edge-midpoints="false"
     inkscape:zoom="0.50000002"
     inkscape:cx="15.999999"
     inkscape:cy="-84.999996"
     inkscape:window-width="1440"
     inkscape:window-height="881"
     inkscape:window-x="-4"
     inkscape:window-y="-4"
     inkscape:window-maximized="1"
     inkscape:current-layer="layer1" />
  <defs
     id="defs5455" />
  <metadata
     id="metadata5458" />
  <g
     inkscape:label="Capa 1"
     inkscape:groupmode="layer"
     id="layer1"
     transform="translate(-381.17145,-498.39798)">
    <rect
       style="fill:#1a1a1a;stroke:none;stroke-width:68.476;stroke-linecap:round;stroke-linejoin:round"
       id="rect1152"
       width="115.44456"
       height="85.934479"
       x="387.70996"
       y="504.8613"
       rx="0"
       ry="0" />
    <path
       inkscape:connector-curvature="0"
       style="fill:#b3b3b3;stroke-width:6.54016;stroke-opacity:0.550265"
       id="rect4254"
       d="m 428.51133,590.38434 v 17.83672 5.09624 5.09624 h 32.70076 v -5.09624 -5.09624 -17.83672 z" />
    <rect
       width="121.45984"
       x="384.44153"
       y="501.66806"
       height="91.731941"
       style="fill:none;fill-opacity:1;stroke:#333333;stroke-width:6.54016;stroke-opacity:1"
       id="rect4173"
       ry="1.5275854" />
    <path
       style="fill:#333333;stroke:#333333;stroke-width:7.00728;stroke-linecap:round;stroke-linejoin:miter;stroke-miterlimit:4;stroke-dasharray:none;stroke-opacity:1"
       d="m 416.42709,615.97766 h 56.8692"
       id="path11485" />
    <path
       style="fill:#cccccc;stroke-width:0.0934564;paint-order:stroke fill markers"
       d="m 468.96985,577.44282 c -0.45144,0.1396 -0.75016,0.036 -2.32792,-0.79716 -0.71296,-0.3772 -1.51428,-0.79464 -1.78068,-0.92788 -0.2664,-0.1332 -1.2472,-0.63884 -2.17952,-1.12356 -2.27716,-1.18384 -2.11296,-1.12564 -2.53176,-0.89644 -0.89856,0.49184 -2.92444,1.36076 -4.15644,1.78276 -1.33524,0.45732 -1.35348,0.467 -1.42504,0.75644 -0.04,0.1612 -0.404,1.32884 -0.80916,2.59464 -0.40524,1.2658 -0.966,3.02944 -1.24624,3.91912 -0.28,0.88972 -0.57472,1.68304 -0.65448,1.763 -0.08,0.08 -0.288,0.1928 -0.46268,0.2508 -0.3856,0.128 -8.93908,0.1772 -9.51044,0.0544 -0.64868,-0.1396 -0.83988,-0.409 -1.27004,-1.79176 -0.2088,-0.67172 -0.61136,-1.94192 -0.89428,-2.82272 -0.2828,-0.8808 -0.702,-2.19944 -0.93136,-2.9304 l -0.41696,-1.32896 -0.91396,-0.3016 c -1.43408,-0.47356 -2.53252,-0.91928 -3.7716,-1.5304 -0.6296,-0.3104 -1.16616,-0.56456 -1.19236,-0.56452 -0.0492,-1.6e-4 -3.27412,1.65864 -6.13692,3.15664 -0.94144,0.49264 -1.76732,0.86684 -1.9246,0.87216 -0.1516,0.003 -0.43788,-0.0876 -0.63644,-0.206 -0.49432,-0.2944 -6.41372,-6.20224 -6.67952,-6.66604 -0.31,-0.541 -0.2652,-0.81344 0.3116,-1.90988 0.2904,-0.5512 0.91268,-1.74668 1.3834,-2.65664 0.47072,-0.90996 1.10936,-2.14416 1.41928,-2.74264 0.3096,-0.59848 0.59592,-1.16268 0.63564,-1.2538 0.0484,-0.1116 -0.0936,-0.4976 -0.43428,-1.17804 -0.70728,-1.41372 -1.05824,-2.25384 -1.51944,-3.63752 l -0.3988,-1.19652 -1.52776,-0.48152 c -0.8402,-0.2648 -2.29384,-0.72592 -3.23024,-1.02464 -0.9364,-0.2988 -2.11888,-0.66908 -2.62776,-0.82308 -1.00788,-0.3052 -1.39816,-0.58304 -1.49732,-1.06676 -0.1116,-0.54352 -0.0884,-9.19437 0.028,-9.55677 0.146,-0.46556 0.3252,-0.64792 0.77304,-0.78712 1.00392,-0.3128 3.51176,-1.1128 5.4622,-1.74284 1.20944,-0.3908 2.29084,-0.72804 2.4032,-0.74972 0.174,-0.032 0.2364,-0.1476 0.4216,-0.76756 0.3036,-1.01804 1.02004,-2.78752 1.6402,-4.05216 0.2884,-0.5884 0.51512,-1.11812 0.50348,-1.17712 -0.012,-0.0592 -0.2576,-0.56092 -0.5466,-1.11552 -0.2888,-0.55464 -0.76864,-1.47904 -1.06596,-2.05428 -0.2972,-0.57524 -0.90904,-1.74844 -1.35932,-2.60704 -0.999,-1.90512 -1.08836,-2.15188 -0.94056,-2.59644 0.1052,-0.3164 0.4058,-0.63796 3.4162,-3.6546 3.01028,-3.0166 3.33124,-3.3178 3.6474,-3.42372 0.44784,-0.1496 0.70832,-0.056 2.59716,0.93636 0.85752,0.45056 1.65976,0.86712 1.78284,0.92576 0.1228,0.0584 1.08916,0.55196 2.14692,1.09632 l 1.92316,0.9898 0.63208,-0.3288 c 1.08232,-0.5632 2.92796,-1.34312 4.1164,-1.73944 0.94392,-0.3148 1.14564,-0.41304 1.17684,-0.57292 0.02,-0.106 0.34,-1.13876 0.70992,-2.29472 0.3696,-1.15596 0.94568,-2.9636 1.2798,-4.01696 0.334,-1.05336 0.67264,-1.98048 0.75224,-2.0602 0.0796,-0.08 0.3124,-0.1984 0.51748,-0.2628 0.362,-0.1144 9.01292,-0.1556 9.55668,-0.0452 0.52472,0.1064 0.75936,0.47552 1.20304,1.89252 0.2272,0.7262 0.62992,1.99656 0.8944,2.82304 0.2644,0.82644 0.6686,2.10052 0.898,2.83124 l 0.41704,1.32856 1.19832,0.3968 c 1.419,0.46976 2.27416,0.8246 3.6428,1.5116 l 1.01084,0.5074 1.2524,-0.64024 c 1.15452,-0.59016 3.06632,-1.58076 5.55528,-2.8784 1.08156,-0.56388 1.41904,-0.62996 1.88288,-0.3684 0.4438,0.2504 6.52144,6.33228 6.74952,6.75444 0.26,0.48116 0.2112,0.78068 -0.28,1.71904 -0.2424,0.46352 -0.63396,1.21464 -0.86972,1.6692 -0.236,0.4546 -0.61708,1.18808 -0.84736,1.63 -0.82312,1.57972 -1.8456,3.60448 -1.84556,3.6546 4e-5,0.028 0.2252,0.49724 0.50032,1.04264 0.6806,1.34908 1.03884,2.2084 1.50968,3.62088 l 0.3992,1.19696 0.93228,0.284 c 0.51276,0.156 1.78796,0.5576 2.83376,0.89216 1.04584,0.3344 2.49624,0.79376 3.22316,1.0204 1.54772,0.48252 1.80752,0.67044 1.91508,1.38528 0.036,0.2464 0.0636,2.42649 0.058,4.84413 -0.008,3.79768 -0.036,4.44704 -0.214,4.77284 l -0.2044,0.3772 -1.16096,0.3728 c -0.63856,0.2048 -2.33228,0.74852 -3.76384,1.208 -1.43156,0.45944 -2.82584,0.90016 -3.09836,0.9794 l -0.49556,0.144 -0.3828,1.15808 c -0.3924,1.18764 -1.13836,2.96512 -1.71416,4.08476 l -0.3244,0.63088 0.53736,1.05704 c 0.70512,1.38716 1.47804,2.8778 2.4856,4.79384 0.99496,1.89208 1.08832,2.15012 0.93956,2.59748 -0.1052,0.3164 -0.40596,0.63816 -3.41704,3.65572 -3.08088,3.08744 -3.32524,3.31604 -3.65364,3.4176 z m -9.79436,-19.51272 c 1.16544,-1.49812 2.08744,-3.19112 2.63396,-4.83676 1.02812,-3.0958 1.09796,-6.597 0.1936,-9.70457 -1.21172,-4.16364 -4.3032,-7.87748 -8.19628,-9.84632 -5.61984,-2.84208 -12.30252,-2.18728 -17.27028,1.69224 -5.94144,4.63988 -7.87004,12.82017 -4.6362,19.66449 0.75612,1.60032 1.80412,3.05636 3.20884,4.45816 1.9322,1.9282 3.75672,3.06044 6.29516,3.90656 1.88,0.62664 3.31956,0.83896 5.45164,0.80412 4.83624,-0.0792 9.35888,-2.33248 12.31952,-6.13792 z"
       id="path1756" />
  </g>
</svg>
