<?xml version="1.0" encoding="UTF-8" standalone="no"?>
<!-- Created with Inkscape (http://www.inkscape.org/) -->

<svg
   version="1.1"
   id="svg2"
   width="32"
   height="30.398184"
   viewBox="0 0 32 30.398182"
   sodipodi:docname="folder-download.svg"
   inkscape:export-filename="/home/itszariep/.icons/ilustraciones/16/apps/folder.png"
   inkscape:export-xdpi="435.14099"
   inkscape:export-ydpi="435.14099"
   inkscape:version="1.1.2 (0a00cf5339, 2022-02-04, custom)"
   xmlns:inkscape="http://www.inkscape.org/namespaces/inkscape"
   xmlns:sodipodi="http://sodipodi.sourceforge.net/DTD/sodipodi-0.dtd"
   xmlns="http://www.w3.org/2000/svg"
   xmlns:svg="http://www.w3.org/2000/svg">
  <defs
     id="defs6" />
  <sodipodi:namedview
     id="namedview4"
     pagecolor="#505050"
     bordercolor="#ffffff"
     borderopacity="1"
     inkscape:pageshadow="0"
     inkscape:pageopacity="0"
     inkscape:pagecheckerboard="1"
     showgrid="false"
     inkscape:snap-global="true"
     inkscape:snap-others="false"
     inkscape:object-nodes="false"
     inkscape:snap-nodes="false"
     inkscape:snap-page="false"
     inkscape:snap-object-midpoints="false"
     inkscape:snap-center="false"
     inkscape:object-paths="false"
     inkscape:snap-intersection-paths="false"
     inkscape:snap-midpoints="false"
     inkscape:snap-bbox="true"
     inkscape:bbox-nodes="false"
     inkscape:bbox-paths="true"
     inkscape:snap-bbox-edge-midpoints="false"
     inkscape:snap-bbox-midpoints="false"
     inkscape:zoom="11.313709"
     inkscape:cx="-0.88388347"
     inkscape:cy="18.605747"
     inkscape:window-width="1440"
     inkscape:window-height="881"
     inkscape:window-x="-4"
     inkscape:window-y="-4"
     inkscape:window-maximized="1"
     inkscape:current-layer="g8" />
  <g
     inkscape:groupmode="layer"
     inkscape:label="Image"
     id="g8"
     transform="translate(-9.5749264,-17.920704)">
    <rect
       style="font-variation-settings:'wght' 800;fill:#688050;fill-opacity:1;stroke:none;stroke-width:1.7532;stroke-linecap:round;stroke-linejoin:round;stroke-miterlimit:4;stroke-dasharray:none"
       id="rect3122"
       width="32"
       height="10.92634"
       x="9.5749264"
       y="17.920704"
       ry="1.2437651" />
    <rect
       style="font-variation-settings:'wght' 800;fill:#ffffff;fill-opacity:1;stroke:#ffffff;stroke-width:1.78656;stroke-linecap:round;stroke-linejoin:round;stroke-miterlimit:4;stroke-dasharray:none;stroke-opacity:1"
       id="rect19452"
       width="26.345421"
       height="5.4448323"
       x="14.282221"
       y="21.996304" />
    <rect
       style="font-variation-settings:'wght' 800;fill:#8fa876;fill-opacity:1;stroke:#8fa876;stroke-width:1.7532;stroke-linecap:round;stroke-linejoin:round;stroke-miterlimit:4;stroke-dasharray:none;stroke-opacity:1"
       id="rect1518"
       width="30.216494"
       height="19.484344"
       x="10.466915"
       y="27.957943" />
    <rect
       style="font-variation-settings:'wght' 800;fill:#8fa876;fill-opacity:1;stroke:#8fa876;stroke-width:1.7532;stroke-linecap:round;stroke-linejoin:round;stroke-miterlimit:4;stroke-dasharray:none;stroke-opacity:1"
       id="rect1834"
       width="18.523043"
       height="2.8890457"
       x="22.165737"
       y="25.016983" />
    <path
       style="fill:#ffffff;stroke-width:0.0197201"
       d="m 18.741926,45.788074 c -1.133382,-0.23077 -1.084614,-1.515584 -1.034954,-2.415612 0.0186,-1.197428 -0.04202,-2.400044 0.03854,-3.59407 0.2148,-1.050288 1.751702,-1.351376 2.341884,-0.457664 0.45898,0.682064 0.1879,1.554556 0.261736,2.325824 v 1.511682 H 31.7868 c 0.0168,-1.126208 -0.04078,-2.257504 0.0389,-3.379842 0.210686,-1.022936 1.687882,-1.347762 2.304216,-0.506994 0.53415,0.73507 0.19876,1.72391 0.299102,2.567338 -0.0172,0.994038 0.03852,1.993038 -0.03858,2.983694 -0.23155,1.037286 -1.384462,1.045566 -2.22549,0.99199 -4.474006,-0.0024 -8.949968,0.03206 -13.42302,-0.02634 z m 7.178122,-4.159324 c -0.731602,-0.07796 -1.09402,-0.772362 -1.60653,-1.205276 -1.111956,-1.128366 -2.26101,-2.230364 -3.34983,-3.375172 -0.566908,-0.829002 0.1091,-2.095446 1.120804,-2.04152 0.877842,0.0048 1.332506,0.879676 1.937876,1.384712 l 0.72434,0.721216 c 0.0128,-3.167832 -0.1264,-3.139586 -0.06762,-6.306648 0.08986,-1.075746 1.650128,-1.506194 2.297232,-0.645696 0.533286,0.677198 0.23029,1.615156 0.315776,2.412022 0.005,2.56969 0.08766,1.942484 0.11126,4.512064 0.65436,-0.60487 1.25563,-1.27783 1.915316,-1.871106 0.824614,-0.577184 2.110636,0.08868 2.054022,1.111886 0.03902,0.791312 -0.71244,1.18307 -1.161122,1.708514 -1.176346,1.144948 -2.286392,2.367068 -3.522394,3.443642 -0.234568,0.12696 -0.505258,0.17002 -0.769182,0.15136 z"
       id="path947"
       sodipodi:nodetypes="scccccccccccsscccccccccccccccc" />
  </g>
</svg>
