<?xml version="1.0" encoding="UTF-8" standalone="no"?>
<!-- Created with Inkscape (http://www.inkscape.org/) -->

<svg
   version="1.1"
   id="svg2"
   width="32"
   height="30.398184"
   viewBox="0 0 32 30.398182"
   sodipodi:docname="user-home.svg"
   inkscape:export-filename="/home/itszariep/.icons/ilustraciones/16/apps/folder.png"
   inkscape:export-xdpi="435.14099"
   inkscape:export-ydpi="435.14099"
   inkscape:version="1.1.2 (0a00cf5339, 2022-02-04, custom)"
   xmlns:inkscape="http://www.inkscape.org/namespaces/inkscape"
   xmlns:sodipodi="http://sodipodi.sourceforge.net/DTD/sodipodi-0.dtd"
   xmlns="http://www.w3.org/2000/svg"
   xmlns:svg="http://www.w3.org/2000/svg">
  <defs
     id="defs6" />
  <sodipodi:namedview
     id="namedview4"
     pagecolor="#505050"
     bordercolor="#ffffff"
     borderopacity="1"
     inkscape:pageshadow="0"
     inkscape:pageopacity="0"
     inkscape:pagecheckerboard="1"
     showgrid="false"
     inkscape:snap-global="true"
     inkscape:snap-others="false"
     inkscape:object-nodes="false"
     inkscape:snap-nodes="false"
     inkscape:snap-page="false"
     inkscape:snap-object-midpoints="false"
     inkscape:snap-center="false"
     inkscape:object-paths="false"
     inkscape:snap-intersection-paths="false"
     inkscape:snap-midpoints="false"
     inkscape:snap-bbox="false"
     inkscape:bbox-nodes="true"
     inkscape:bbox-paths="true"
     inkscape:snap-bbox-edge-midpoints="true"
     inkscape:snap-bbox-midpoints="true"
     inkscape:zoom="7.1373592"
     inkscape:cx="27.180922"
     inkscape:cy="24.869142"
     inkscape:window-width="1440"
     inkscape:window-height="881"
     inkscape:window-x="-4"
     inkscape:window-y="-4"
     inkscape:window-maximized="0"
     inkscape:current-layer="g8" />
  <g
     inkscape:groupmode="layer"
     inkscape:label="Image"
     id="g8"
     transform="translate(-9.5749264,-17.920704)">
    <rect
       style="font-variation-settings:'wght' 800;fill:#688050;fill-opacity:1;stroke:none;stroke-width:1.7532;stroke-linecap:round;stroke-linejoin:round;stroke-miterlimit:4;stroke-dasharray:none"
       id="rect3122"
       width="32"
       height="10.92634"
       x="9.5749264"
       y="17.920704"
       ry="1.2437651" />
    <rect
       style="font-variation-settings:'wght' 800;fill:#ffffff;fill-opacity:1;stroke:#ffffff;stroke-width:1.78656;stroke-linecap:round;stroke-linejoin:round;stroke-miterlimit:4;stroke-dasharray:none;stroke-opacity:1"
       id="rect19452"
       width="26.345421"
       height="5.4448323"
       x="14.282221"
       y="21.996304" />
    <rect
       style="font-variation-settings:'wght' 800;fill:#8fa876;fill-opacity:1;stroke:#8fa876;stroke-width:1.7532;stroke-linecap:round;stroke-linejoin:round;stroke-miterlimit:4;stroke-dasharray:none;stroke-opacity:1"
       id="rect1518"
       width="30.216494"
       height="19.484344"
       x="10.466915"
       y="27.957943" />
    <rect
       style="font-variation-settings:'wght' 800;fill:#8fa876;fill-opacity:1;stroke:#8fa876;stroke-width:1.7532;stroke-linecap:round;stroke-linejoin:round;stroke-miterlimit:4;stroke-dasharray:none;stroke-opacity:1"
       id="rect1834"
       width="18.523043"
       height="2.8890457"
       x="22.165735"
       y="25.016983" />
    <path
       style="fill:#ffffff;stroke:#8fa876;stroke-width:0;stroke-linecap:round;stroke-linejoin:round;stroke-miterlimit:4;stroke-dasharray:none;stroke-opacity:1"
       d="m 19.911182,45.87561 c -1.045958,-0.206674 -0.939748,-1.40388 -0.920574,-2.217496 -0.0086,-2.407486 0.0118,-4.815278 -0.0182,-7.222582 -0.698018,0.323248 -1.532194,1.819258 -2.20909,1.004754 -0.412232,-0.523652 0.670184,-1.28544 1.337366,-1.824354 0.683048,-0.54831 1.367134,-1.095326 2.050646,-1.643056 0.019,-1.226244 -0.0118,-2.462362 0.03802,-3.682498 0.235384,-0.9495 1.659006,-1.174676 2.136622,-0.300766 0.42194,0.51713 -0.07492,1.86111 0.318062,1.985106 0.947638,-0.721606 1.847024,-1.52059 2.80816,-2.221186 0.477438,-0.471766 0.93498,-0.1521 1.380082,0.1209 0.376984,0.294764 0.72227,0.674844 1.113258,0.9146 2.454648,1.963538 4.91593,3.918988 7.356304,5.90023 0.906466,0.733754 -0.215374,1.21935 -1.1748,0.542842 -0.432514,-0.265836 -1.022976,-1.178792 -1.015002,-0.17904 -0.03112,2.662172 0.03218,5.328268 -0.04942,7.988016 -0.17056,0.617668 -0.670384,0.894274 -1.42505,0.856184 -1.194286,-0.0176 -2.395546,0.0633 -3.584034,-0.0467 -0.845804,-0.233824 -0.89087,-1.186708 -0.833116,-1.907096 -0.0054,-1.305294 -0.0074,-0.634044 -0.011,-1.939342 h -2.341374 c -0.0144,1.650818 0.0144,1.332266 -0.02658,2.978636 -0.208348,0.94799 -1.237118,0.912476 -2.052644,0.92115 -0.958738,-0.0096 -1.920164,0.0224 -2.877492,-0.02828 z m 3.769672,-4.08562 c 0.0017,-0.981252 0.0032,0.014 0.0048,-0.9672 l 4.696436,-0.0098 c 0.0032,1.962554 0.0064,1.948552 0.0098,3.911106 1.17494,0.0034 2.34988,0.0066 3.52482,0.0098 -7e-4,-3.089486 -0.0013,-6.178974 -0.002,-9.26846 -1.958884,-1.565754 -3.917768,-3.131508 -5.876652,-4.69726 -1.955838,1.566626 -3.911676,3.13325 -5.867516,4.699874 -0.0032,3.088548 -0.0064,6.177096 -0.0096,9.265644 h 3.51517 c 0.0017,-0.981252 0.0032,-1.962506 0.0048,-2.943758 z"
       id="path855"
       sodipodi:nodetypes="sccccccccccccccccccccccssscccccccccss" />
    <path
       style="fill:#ffffff;stroke:#ffffff;stroke-width:0;stroke-linecap:round;stroke-linejoin:round;stroke-miterlimit:4;stroke-dasharray:none"
       d="m 25.950492,30.747868 c -1.952012,1.561436 -3.904008,3.122892 -5.855988,4.684366 -0.07174,0.446002 -0.0108,0.922186 -0.03104,1.379926 0,2.63833 0,5.27666 0,7.914992 0.13674,0.17918 0.453996,0.03778 0.663064,0.0828 0.977738,-0.0106 1.964486,0.02106 2.936588,-0.0158 0.10834,-0.18624 0.0178,-0.464476 0.0475,-0.68593 0,-1.06844 0,-2.136878 0,-3.205316 1.517936,0 3.035872,0 4.55381,0 -0.0019,1.27543 0.03058,2.55058 0.05122,3.825768 0.13924,0.17658 0.45376,0.03664 0.663066,0.0813 0.97355,-0.0106 1.956132,0.02112 2.924044,-0.0158 0.10832,-0.18624 0.0176,-0.464474 0.04742,-0.685928 -4.42e-4,-2.86905 -8.5e-4,-5.738098 -0.0012,-8.607148 -0.303384,-0.334628 -0.713448,-0.584392 -1.05832,-0.886016 -1.61224,-1.289034 -3.224444,-2.57811 -4.836654,-3.86718 -0.03548,-0.0015 -0.07128,-0.03748 -0.1035,0 z"
       id="path4109" />
  </g>
</svg>
