<?xml version="1.0" encoding="UTF-8" standalone="no"?>
<svg
   width="64"
   height="64"
   version="1"
   id="svg16"
   sodipodi:docname="libreoffice-math.svg"
   inkscape:version="1.2 (dc2aedaf03, 2022-05-15)"
   xml:space="preserve"
   xmlns:inkscape="http://www.inkscape.org/namespaces/inkscape"
   xmlns:sodipodi="http://sodipodi.sourceforge.net/DTD/sodipodi-0.dtd"
   xmlns:xlink="http://www.w3.org/1999/xlink"
   xmlns="http://www.w3.org/2000/svg"
   xmlns:svg="http://www.w3.org/2000/svg"><defs
     id="defs20"><linearGradient
       id="a"
       gradientUnits="userSpaceOnUse"
       x1="117.00146"
       x2="12.00143"
       xlink:href="#b"
       y1="127.8783"
       y2="0.0766"
       gradientTransform="matrix(0.52728954,0,0,0.52728954,58.510268,47.549921)" /><linearGradient
       id="b"><stop
         offset="0"
         stop-color="#8e03a3"
         id="stop5069" /><stop
         offset="1"
         stop-color="#c254d2"
         id="stop5071" /></linearGradient><radialGradient
       id="c"
       cx="518.85358"
       cy="730.48431"
       gradientTransform="matrix(0.53006756,0,7.9093431e-8,0.14920727,-189.37368,-2.7077497)"
       gradientUnits="userSpaceOnUse"
       r="22.889727"><stop
         offset="0"
         stop-color="#dc85e9"
         id="stop5074" /><stop
         offset="1"
         stop-color="#f2cbf8"
         id="stop5076" /></radialGradient><linearGradient
       id="h"
       gradientTransform="matrix(-2,0,0,2,860.00054,-2063.5036)"
       gradientUnits="userSpaceOnUse"
       x1="386.63177"
       x2="410.49988"
       y1="1068.9539"
       y2="1068.9539"><stop
         offset="0"
         stop-color="#e196fb"
         id="stop5097" /><stop
         offset=".13010512"
         stop-color="#f4c7fa"
         id="stop5099" /><stop
         offset=".31360075"
         stop-color="#e091f3"
         id="stop5101" /><stop
         offset=".44078669"
         stop-color="#d764e9"
         id="stop5103" /><stop
         offset=".68364757"
         stop-color="#e7adf0"
         id="stop5105" /><stop
         offset=".75620717"
         stop-color="#e6a9f8"
         id="stop5107" /><stop
         offset=".88021636"
         stop-color="#e595f2"
         id="stop5109" /><stop
         offset="1"
         stop-color="#f2cbf8"
         id="stop5111" /></linearGradient><linearGradient
       id="d"
       gradientUnits="userSpaceOnUse"
       x1="38.000729"
       x2="88.000732"
       y1="79.980797"
       y2="79.980797"
       gradientTransform="matrix(0.52728954,0,0,0.52728954,52.435433,71.221276)"><stop
         offset="0"
         stop-color="#9207a7"
         id="stop5079" /><stop
         offset=".27254906"
         stop-color="#cd6cc4"
         id="stop5081" /><stop
         offset=".50966245"
         stop-color="#ad3cbe"
         id="stop5083" /><stop
         offset=".83376038"
         stop-color="#bc2ad2"
         id="stop5085" /><stop
         offset="1"
         stop-color="#950ba8"
         id="stop5087" /></linearGradient><linearGradient
       id="e"
       gradientTransform="matrix(0.52728954,0,0,0.52729481,-557.63831,687.43572)"
       gradientUnits="userSpaceOnUse"
       x1="1273.0009"
       x2="1169.0009"
       xlink:href="#b"
       y1="-1040.6349"
       y2="-1168.6337" /><linearGradient
       id="f"
       gradientUnits="userSpaceOnUse"
       x1="108.00134"
       x2="20.001341"
       y1="122"
       y2="6"
       gradientTransform="matrix(0.52728954,0,0,0.52728954,-10.12459,71.85888)"><stop
         offset="0"
         stop-color="#e6e6e6"
         id="stop5091" /><stop
         offset="1"
         stop-color="#fff"
         id="stop5093" /></linearGradient><linearGradient
       id="g"
       gradientTransform="matrix(4.2181792,0,0,4.2171456,-408.39845,-4046.2601)"
       gradientUnits="userSpaceOnUse"
       x1="122.75008"
       x2="111.74973"
       xlink:href="#b"
       y1="991.62115"
       y2="977.11713" /></defs><sodipodi:namedview
     id="namedview18"
     pagecolor="#505050"
     bordercolor="#ffffff"
     borderopacity="1"
     inkscape:pageshadow="0"
     inkscape:pageopacity="0"
     inkscape:pagecheckerboard="1"
     showgrid="false"
     inkscape:zoom="5.6568542"
     inkscape:cx="84.852814"
     inkscape:cy="19.887378"
     inkscape:window-width="1440"
     inkscape:window-height="871"
     inkscape:window-x="0"
     inkscape:window-y="0"
     inkscape:window-maximized="1"
     inkscape:current-layer="svg16"
     inkscape:snap-nodes="false"
     inkscape:showpageshadow="0"
     inkscape:deskcolor="#505050" /><path
     d="m 9.8883754,0 c -1.7728,0 -3.2,1.4272 -3.2,3.2 v 57.6 c 0,1.7728 1.4272,3.2 3.2,3.2 H 54.688375 c 1.7728,0 3.2,-1.4272 3.2,-3.2 V 19.2 l -17.6,-1.6 -1.6,-17.6 z"
     style="fill:#636e73;fill-opacity:1;stroke-width:1.6"
     id="path250" /><g
     aria-label="√×"
     id="text1561"
     style="font-size:43.108px;line-height:1.25;letter-spacing:-6.85418px;stroke-width:1.0777;fill:#ffffff;fill-opacity:1"
     transform="matrix(0.93117495,0,0,0.93117495,-60.719057,0.27801405)"><path
       d="m 84.778278,62.223007 c -0.833421,0 -1.480041,-0.387972 -1.93986,-1.163916 l -6.336876,-12.71686 c -0.201171,-0.373603 -0.301756,-0.747205 -0.301756,-1.120808 0,-0.632251 0.201171,-1.149547 0.603512,-1.551888 0.43108,-0.402341 0.962745,-0.603512 1.594996,-0.603512 0.890899,0 1.566257,0.43108 2.026076,1.29324 l 4.353908,8.750924 13.966993,-27.933985 c 0.43108,-0.86216 1.10644,-1.29324 2.026079,-1.29324 l 20.35481,0 c 0.63224,0 1.14954,0.21554 1.55189,0.64662 0.43108,0.402341 0.64662,0.919637 0.64662,1.551888 0,0.632251 -0.21554,1.149547 -0.64662,1.551888 -0.40235,0.402341 -0.91965,0.603512 -1.55189,0.603512 l -18.97536,0 -15.389554,30.736005 c -0.201171,0.402341 -0.488557,0.718467 -0.86216,0.948376 -0.344864,0.201171 -0.718467,0.301756 -1.120808,0.301756 z"
       style="font-weight:bold;-inkscape-font-specification:'sans-serif, Bold';fill:#ffffff;fill-opacity:1"
       id="path1667"
       sodipodi:nodetypes="sccscsccssscscscccs" /><path
       d="m 105.03904,55.843023 q -0.94838,0 -1.595,-0.603512 -0.60351,-0.64662 -0.60351,-1.594996 0,-0.948376 0.60351,-1.551888 l 4.87121,-4.871204 -4.87121,-4.828097 q -0.60351,-0.732836 -0.60351,-1.551888 0,-0.905268 0.60351,-1.551888 0.64662,-0.64662 1.595,-0.64662 0.86216,0 1.59499,0.64662 l 4.78499,4.828096 4.8281,-4.828096 q 0.64662,-0.64662 1.59499,-0.64662 0.90527,0 1.55189,0.64662 0.64662,0.64662 0.64662,1.551888 0,0.819052 -0.64662,1.551888 l -4.82809,4.828097 4.82809,4.871204 q 0.64662,0.64662 0.64662,1.551888 0,0.948376 -0.64662,1.594996 -0.64662,0.603512 -1.55189,0.603512 -0.94837,0 -1.55188,-0.603512 l -4.87121,-4.871204 -4.8712,4.871204 q -0.60351,0.603512 -1.50878,0.603512 z"
       style="font-weight:bold;-inkscape-font-specification:'sans-serif, Bold';fill:#ffffff;fill-opacity:1"
       id="path1669" /></g><path
     d="m 38.688375,0 v 16 c 0,1.76736 1.432688,3.2 3.2,3.2 h 16 z"
     style="fill:#373d40;fill-opacity:1;stroke-width:1.6"
     id="path322" /></svg>
