<?xml version="1.0" encoding="UTF-8" standalone="no"?>
<!-- Created with Inkscape (http://www.inkscape.org/) -->

<svg
   width="60.813419"
   height="52.118774"
   viewBox="0 0 60.813419 52.118775"
   version="1.1"
   id="svg5"
   inkscape:version="1.1.2 (0a00cf5339, 2022-02-04, custom)"
   sodipodi:docname="strawberry.svg"
   xmlns:inkscape="http://www.inkscape.org/namespaces/inkscape"
   xmlns:sodipodi="http://sodipodi.sourceforge.net/DTD/sodipodi-0.dtd"
   xmlns="http://www.w3.org/2000/svg"
   xmlns:svg="http://www.w3.org/2000/svg">
  <sodipodi:namedview
     id="namedview7"
     pagecolor="#505050"
     bordercolor="#ffffff"
     borderopacity="1"
     inkscape:pageshadow="0"
     inkscape:pageopacity="0"
     inkscape:pagecheckerboard="1"
     inkscape:document-units="px"
     showgrid="false"
     width="64px"
     inkscape:zoom="2.3791197"
     inkscape:cx="-37.408795"
     inkscape:cy="6.9353383"
     inkscape:window-width="1426"
     inkscape:window-height="867"
     inkscape:window-x="6"
     inkscape:window-y="6"
     inkscape:window-maximized="1"
     inkscape:current-layer="layer1" />
  <defs
     id="defs2" />
  <g
     inkscape:label="Layer 1"
     inkscape:groupmode="layer"
     id="layer1"
     transform="translate(-19.007746,-6.0698132)">
    <g
       id="g1050"
       transform="matrix(1.569034,0,0,1.6626804,-75.949777,19.330903)"
       style="fill:#e21b44;fill-opacity:1;stroke:none;stroke-width:0.6;stroke-miterlimit:4;stroke-dasharray:none">
      <path
         style="font-variation-settings:'wght' 100;fill:#e21b44;fill-opacity:1;stroke:none;stroke-width:0.6;stroke-linejoin:round;stroke-miterlimit:4;stroke-dasharray:none;stroke-dashoffset:90.7465;paint-order:stroke fill markers"
         d="m 65.375224,21.93459 c 4.115577,1.851635 8.628739,1.113797 12.334603,1.359364 13.424264,0.977415 15.95389,-7.663946 16.553199,-11.138851 C 95.665083,2.680631 91.934425,-3.4947413 81.954222,-5.65316 76.854634,-6.5154926 71.413325,-2.289893 68.1217,2.703768 c -2.371543,3.1458816 -5.055629,6.240955 -6.626588,9.516983 -1.109306,3.11656 -2.580516,6.956218 3.880112,9.713839 z"
         id="path1975"
         sodipodi:nodetypes="ccccccc" />
    </g>
    <path
       id="path4780"
       style="font-variation-settings:'wght' 100;fill:#9b1635;stroke-width:0.997608;stroke-linejoin:round;stroke-dashoffset:90.7465;paint-order:stroke fill markers"
       d="m 37.913062,54.441662 a 2.0505476,2.0505476 0 0 1 -2.050548,2.050547 2.0505476,2.0505476 0 0 1 -2.050547,-2.050547 2.0505476,2.0505476 0 0 1 2.050547,-2.050548 2.0505476,2.0505476 0 0 1 2.050548,2.050548 z" />
    <path
       id="path4780-3"
       style="font-variation-settings:'wght' 100;fill:#9b1635;stroke-width:0.997608;stroke-linejoin:round;stroke-dashoffset:90.7465;paint-order:stroke fill markers"
       d="m 40.019904,47.267624 a 2.0505476,2.0505476 0 0 1 -2.050547,2.050548 2.0505476,2.0505476 0 0 1 -2.050548,-2.050548 2.0505476,2.0505476 0 0 1 2.050548,-2.050548 2.0505476,2.0505476 0 0 1 2.050547,2.050548 z" />
    <path
       id="path4780-6"
       style="font-variation-settings:'wght' 100;fill:#9b1635;stroke-width:0.997608;stroke-linejoin:round;stroke-dashoffset:90.7465;paint-order:stroke fill markers"
       d="m 44.654281,54.924885 a 2.0505476,2.0505476 0 0 1 -2.050548,2.050547 2.0505476,2.0505476 0 0 1 -2.050548,-2.050547 2.0505476,2.0505476 0 0 1 2.050548,-2.050548 2.0505476,2.0505476 0 0 1 2.050548,2.050548 z" />
    <path
       id="path4780-7"
       style="font-variation-settings:'wght' 100;fill:#9b1635;stroke-width:0.997608;stroke-linejoin:round;stroke-dashoffset:90.7465;paint-order:stroke fill markers"
       d="m 41.971072,39.110191 a 2.0505476,2.0505476 0 0 1 -2.050547,2.050548 2.0505476,2.0505476 0 0 1 -2.050548,-2.050548 2.0505476,2.0505476 0 0 1 2.050548,-2.050547 2.0505476,2.0505476 0 0 1 2.050547,2.050547 z" />
    <path
       id="path4780-5"
       style="font-variation-settings:'wght' 100;fill:#9b1635;stroke-width:0.997608;stroke-linejoin:round;stroke-dashoffset:90.7465;paint-order:stroke fill markers"
       d="m 34.279567,40.802986 a 2.0505476,2.0505476 0 0 1 -2.050548,2.050548 2.0505476,2.0505476 0 0 1 -2.050547,-2.050548 2.0505476,2.0505476 0 0 1 2.050547,-2.050547 2.0505476,2.0505476 0 0 1 2.050548,2.050547 z" />
    <path
       id="path4780-35"
       style="font-variation-settings:'wght' 100;fill:#9b1635;stroke-width:0.997608;stroke-linejoin:round;stroke-dashoffset:90.7465;paint-order:stroke fill markers"
       d="m 25.927476,41.490761 a 2.0505476,2.0505476 0 0 1 -2.050548,2.050547 2.0505476,2.0505476 0 0 1 -2.050547,-2.050547 2.0505476,2.0505476 0 0 1 2.050547,-2.050548 2.0505476,2.0505476 0 0 1 2.050548,2.050548 z" />
    <path
       id="path4780-62"
       style="font-variation-settings:'wght' 100;fill:#9b1635;stroke-width:0.997608;stroke-linejoin:round;stroke-dashoffset:90.7465;paint-order:stroke fill markers"
       d="m 29.020377,34.718456 a 2.0505476,2.0505476 0 0 1 -2.050547,2.050548 2.0505476,2.0505476 0 0 1 -2.050548,-2.050548 2.0505476,2.0505476 0 0 1 2.050548,-2.050547 2.0505476,2.0505476 0 0 1 2.050547,2.050547 z" />
    <path
       id="path4780-9"
       style="font-variation-settings:'wght' 100;fill:#9b1635;stroke-width:0.997608;stroke-linejoin:round;stroke-dashoffset:90.7465;paint-order:stroke fill markers"
       d="m 36.627769,33.50391 a 2.0505476,2.0505476 0 0 1 -2.050548,2.050548 2.0505476,2.0505476 0 0 1 -2.050548,-2.050548 2.0505476,2.0505476 0 0 1 2.050548,-2.050548 2.0505476,2.0505476 0 0 1 2.050548,2.050548 z" />
    <path
       id="path4780-1"
       style="font-variation-settings:'wght' 100;fill:#9b1635;stroke-width:0.997608;stroke-linejoin:round;stroke-dashoffset:90.7465;paint-order:stroke fill markers"
       d="m 47.790278,47.282494 a 2.0505476,2.0505476 0 0 1 -2.050547,2.050547 2.0505476,2.0505476 0 0 1 -2.050548,-2.050547 2.0505476,2.0505476 0 0 1 2.050548,-2.050548 2.0505476,2.0505476 0 0 1 2.050547,2.050548 z" />
    <path
       id="path4780-2"
       style="font-variation-settings:'wght' 100;fill:#9b1635;stroke-width:0.997608;stroke-linejoin:round;stroke-dashoffset:90.7465;paint-order:stroke fill markers"
       d="m 52.045112,54.991531 a 2.0505476,2.0505476 0 0 1 -2.050548,2.050548 2.0505476,2.0505476 0 0 1 -2.050548,-2.050548 2.0505476,2.0505476 0 0 1 2.050548,-2.050547 2.0505476,2.0505476 0 0 1 2.050548,2.050547 z" />
    <path
       id="path4782"
       style="font-variation-settings:'wght' 100;fill:#9b1635;stroke-width:0.997608;stroke-linejoin:round;stroke-dashoffset:90.7465;paint-order:stroke fill markers"
       d="m 31.924328,46.986294 a 2.2296145,2.2296145 0 0 1 -2.229614,2.229614 2.2296145,2.2296145 0 0 1 -2.229615,-2.229614 2.2296145,2.2296145 0 0 1 2.229615,-2.229615 2.2296145,2.2296145 0 0 1 2.229614,2.229615 z" />
    <path
       id="path4782-6"
       style="font-variation-settings:'wght' 100;fill:#9b1635;stroke-width:1.01409;stroke-linejoin:round;stroke-dashoffset:90.7465;paint-order:stroke fill markers"
       d="m 25.125042,49.044529 a 2.2296145,2.3039179 0 0 1 -2.229614,2.303918 2.2296145,2.3039179 0 0 1 -2.229615,-2.303918 2.2296145,2.3039179 0 0 1 2.229615,-2.303918 2.2296145,2.3039179 0 0 1 2.229614,2.303918 z" />
    <path
       id="path4780-23"
       style="font-variation-settings:'wght' 100;fill:#9b1635;stroke-width:0.997608;stroke-linejoin:round;stroke-dashoffset:90.7465;paint-order:stroke fill markers"
       d="m 32.332831,28.834932 a 2.0505476,2.0505476 0 0 1 -2.050547,2.050548 2.0505476,2.0505476 0 0 1 -2.050548,-2.050548 2.0505476,2.0505476 0 0 1 2.050548,-2.050547 2.0505476,2.0505476 0 0 1 2.050547,2.050547 z" />
    <path
       id="path4780-75"
       style="font-variation-settings:'wght' 100;fill:#9b1635;stroke-width:0.997608;stroke-linejoin:round;stroke-dashoffset:90.7465;paint-order:stroke fill markers"
       d="m 39.302138,26.934036 a 2.0505476,2.0505476 0 0 1 -2.050547,2.050548 2.0505476,2.0505476 0 0 1 -2.050548,-2.050548 2.0505476,2.0505476 0 0 1 2.050548,-2.050547 2.0505476,2.0505476 0 0 1 2.050547,2.050547 z" />
    <path
       id="path4780-92"
       style="font-variation-settings:'wght' 100;fill:#9b1635;stroke-width:0.997608;stroke-linejoin:round;stroke-dashoffset:90.7465;paint-order:stroke fill markers"
       d="m 44.19958,32.374451 a 2.0505476,2.0505476 0 0 1 -2.050547,2.050547 2.0505476,2.0505476 0 0 1 -2.050548,-2.050547 2.0505476,2.0505476 0 0 1 2.050548,-2.050548 2.0505476,2.0505476 0 0 1 2.050547,2.050548 z" />
    <path
       id="path4780-28"
       style="font-variation-settings:'wght' 100;fill:#9b1635;stroke-width:0.997608;stroke-linejoin:round;stroke-dashoffset:90.7465;paint-order:stroke fill markers"
       d="m 49.56861,40.140614 a 2.0505476,2.0505476 0 0 1 -2.050547,2.050547 2.0505476,2.0505476 0 0 1 -2.050548,-2.050547 2.0505476,2.0505476 0 0 1 2.050548,-2.050548 2.0505476,2.0505476 0 0 1 2.050547,2.050548 z" />
    <path
       id="path4780-97"
       style="font-variation-settings:'wght' 100;fill:#9b1635;stroke-width:0.997608;stroke-linejoin:round;stroke-dashoffset:90.7465;paint-order:stroke fill markers"
       d="m 54.646384,49.12405 a 2.0505476,2.0505476 0 0 1 -2.050547,2.050548 2.0505476,2.0505476 0 0 1 -2.050548,-2.050548 2.0505476,2.0505476 0 0 1 2.050548,-2.050547 2.0505476,2.0505476 0 0 1 2.050547,2.050547 z" />
    <path
       id="path4780-36"
       style="font-variation-settings:'wght' 100;fill:#9b1635;stroke-width:0.997608;stroke-linejoin:round;stroke-dashoffset:90.7465;paint-order:stroke fill markers"
       d="m 40.337356,19.94198 a 2.0505476,2.0505476 0 0 1 -2.050548,2.050548 2.0505476,2.0505476 0 0 1 -2.050548,-2.050548 2.0505476,2.0505476 0 0 1 2.050548,-2.050547 2.0505476,2.0505476 0 0 1 2.050548,2.050547 z" />
    <path
       id="path4780-12"
       style="font-variation-settings:'wght' 100;fill:#9b1635;stroke-width:0.997608;stroke-linejoin:round;stroke-dashoffset:90.7465;paint-order:stroke fill markers"
       d="m 45.563979,26.404268 a 2.0505476,2.0505476 0 0 1 -2.050547,2.050548 2.0505476,2.0505476 0 0 1 -2.050548,-2.050548 2.0505476,2.0505476 0 0 1 2.050548,-2.050547 2.0505476,2.0505476 0 0 1 2.050547,2.050547 z" />
    <path
       id="path4780-93"
       style="font-variation-settings:'wght' 100;fill:#9b1635;stroke-width:0.997608;stroke-linejoin:round;stroke-dashoffset:90.7465;paint-order:stroke fill markers"
       d="m 51.327914,34.081696 a 2.0505476,2.0505476 0 0 1 -2.050547,2.050547 2.0505476,2.0505476 0 0 1 -2.050548,-2.050547 2.0505476,2.0505476 0 0 1 2.050548,-2.050548 2.0505476,2.0505476 0 0 1 2.050547,2.050548 z" />
    <path
       id="path4780-19"
       style="font-variation-settings:'wght' 100;fill:#9b1635;stroke-width:0.997608;stroke-linejoin:round;stroke-dashoffset:90.7465;paint-order:stroke fill markers"
       d="m 55.266337,43.135002 a 2.0505476,2.0505476 0 0 1 -2.050547,2.050548 2.0505476,2.0505476 0 0 1 -2.050548,-2.050548 2.0505476,2.0505476 0 0 1 2.050548,-2.050547 2.0505476,2.0505476 0 0 1 2.050547,2.050547 z" />
    <path
       id="path4780-4"
       style="font-variation-settings:'wght' 100;fill:#9b1635;stroke-width:0.997608;stroke-linejoin:round;stroke-dashoffset:90.7465;paint-order:stroke fill markers"
       d="m 60.122493,53.324383 a 2.0505476,2.0505476 0 0 1 -2.050548,2.050547 2.0505476,2.0505476 0 0 1 -2.050547,-2.050547 2.0505476,2.0505476 0 0 1 2.050547,-2.050548 2.0505476,2.0505476 0 0 1 2.050548,2.050548 z" />
    <path
       id="path4780-78"
       style="font-variation-settings:'wght' 100;fill:#9b1635;stroke-width:0.997608;stroke-linejoin:round;stroke-dashoffset:90.7465;paint-order:stroke fill markers"
       d="m 62.394355,46.305325 a 2.0505476,2.0505476 0 0 1 -2.050548,2.050547 2.0505476,2.0505476 0 0 1 -2.050547,-2.050547 2.0505476,2.0505476 0 0 1 2.050547,-2.050548 2.0505476,2.0505476 0 0 1 2.050548,2.050548 z" />
    <path
       id="path4780-45"
       style="font-variation-settings:'wght' 100;fill:#9b1635;stroke-width:0.997608;stroke-linejoin:round;stroke-dashoffset:90.7465;paint-order:stroke fill markers"
       d="m 58.308768,37.19635 a 2.0505476,2.0505476 0 0 1 -2.050547,2.050548 2.0505476,2.0505476 0 0 1 -2.050548,-2.050548 2.0505476,2.0505476 0 0 1 2.050548,-2.050548 2.0505476,2.0505476 0 0 1 2.050547,2.050548 z" />
    <path
       id="path4780-0"
       style="font-variation-settings:'wght' 100;fill:#9b1635;stroke-width:0.997608;stroke-linejoin:round;stroke-dashoffset:90.7465;paint-order:stroke fill markers"
       d="m 52.947604,27.985523 a 2.0505476,2.0505476 0 0 1 -2.050547,2.050548 2.0505476,2.0505476 0 0 1 -2.050548,-2.050548 2.0505476,2.0505476 0 0 1 2.050548,-2.050547 2.0505476,2.0505476 0 0 1 2.050547,2.050547 z" />
    <path
       id="path4780-361"
       style="font-variation-settings:'wght' 100;fill:#9b1635;stroke-width:0.997608;stroke-linejoin:round;stroke-dashoffset:90.7465;paint-order:stroke fill markers"
       d="m 47.21017,19.642025 a 2.0505476,2.0505476 0 0 1 -2.050548,2.050548 2.0505476,2.0505476 0 0 1 -2.050547,-2.050548 2.0505476,2.0505476 0 0 1 2.050547,-2.050548 2.0505476,2.0505476 0 0 1 2.050548,2.050548 z" />
    <path
       id="path4780-06"
       style="font-variation-settings:'wght' 100;fill:#9b1635;stroke-width:0.997608;stroke-linejoin:round;stroke-dashoffset:90.7465;paint-order:stroke fill markers"
       d="m 50.607123,13.52378 a 2.0505476,2.0505476 0 0 1 -2.050547,2.050547 2.0505476,2.0505476 0 0 1 -2.050548,-2.050547 2.0505476,2.0505476 0 0 1 2.050548,-2.050548 2.0505476,2.0505476 0 0 1 2.050547,2.050548 z" />
    <path
       id="path4780-32"
       style="font-variation-settings:'wght' 100;fill:#9b1635;stroke-width:0.997608;stroke-linejoin:round;stroke-dashoffset:90.7465;paint-order:stroke fill markers"
       d="m 54.914287,21.652992 a 2.0505476,2.0505476 0 0 1 -2.050548,2.050548 2.0505476,2.0505476 0 0 1 -2.050548,-2.050548 2.0505476,2.0505476 0 0 1 2.050548,-2.050547 2.0505476,2.0505476 0 0 1 2.050548,2.050547 z" />
    <path
       id="path4780-55"
       style="font-variation-settings:'wght' 100;fill:#9b1635;stroke-width:0.997608;stroke-linejoin:round;stroke-dashoffset:90.7465;paint-order:stroke fill markers"
       d="m 64.083243,40.88879 a 2.0505476,2.0505476 0 0 1 -2.050547,2.050548 2.0505476,2.0505476 0 0 1 -2.050548,-2.050548 2.0505476,2.0505476 0 0 1 2.050548,-2.050547 2.0505476,2.0505476 0 0 1 2.050547,2.050547 z" />
    <path
       id="path4780-47"
       style="font-variation-settings:'wght' 100;fill:#9b1635;stroke-width:0.997608;stroke-linejoin:round;stroke-dashoffset:90.7465;paint-order:stroke fill markers"
       d="m 68.488208,47.582603 a 2.0505476,2.0505476 0 0 1 -2.050548,2.050548 2.0505476,2.0505476 0 0 1 -2.050547,-2.050548 2.0505476,2.0505476 0 0 1 2.050547,-2.050547 2.0505476,2.0505476 0 0 1 2.050548,2.050547 z" />
    <path
       id="path4780-65"
       style="font-variation-settings:'wght' 100;fill:#9b1635;stroke-width:0.997608;stroke-linejoin:round;stroke-dashoffset:90.7465;paint-order:stroke fill markers"
       d="m 31.381665,53.827034 a 2.0505476,2.0505476 0 0 1 -2.050547,2.050548 2.0505476,2.0505476 0 0 1 -2.050548,-2.050548 2.0505476,2.0505476 0 0 1 2.050548,-2.050548 2.0505476,2.0505476 0 0 1 2.050547,2.050548 z" />
    <path
       style="font-variation-settings:'wght' 100;fill:#668631;fill-opacity:1;stroke:#668631;stroke-width:0.997608;stroke-linejoin:round;stroke-miterlimit:4;stroke-dasharray:none;stroke-dashoffset:90.7465;stroke-opacity:1;paint-order:stroke fill markers"
       d="m 70.497515,37.05993 c 1.496633,1.526088 2.854012,4.323817 4.016812,8.898391 1.481153,-3.64724 3.240032,-7.176462 -1.677854,-13.542914 0.648812,-4.262793 -0.511576,-5.802905 -1.249201,-7.876408 l 7.394538,-5.001458 c 1.157704,-2.016888 -0.75632,-2.951764 -1.694571,-2.563089 l -7.981427,4.192482 C 68.71681,19.00671 67.613323,16.910389 65.512717,14.93792 L 65.887876,9.1047902 C 66.072494,8.3052737 63.730919,6.6130974 62.990075,8.6829349 l -0.880174,2.9219511 c -4.95327,-0.988613 -8.043052,-3.0499143 -11.262977,-5.0363019 -0.535842,4.1081839 3.839165,6.3021119 8.588165,8.3502579 -3.165958,0.501613 -6.917423,0.87178 -9.597815,2.98297 5.463111,0.771565 9.377312,2.756405 13.060439,4.922246 -4.524798,2.561198 -6.75255,5.751015 -7.539623,9.335097 4.041657,0.561027 7.81338,0.05033 11.057267,-2.556068 -0.222218,4.83821 -0.357522,9.683453 -2.145718,14.394954 3.66343,-1.236497 5.670693,-3.595772 6.227876,-6.938111 z"
       id="path2807"
       sodipodi:nodetypes="ccccccccccccccccccc" />
  </g>
</svg>
