<?xml version="1.0" encoding="UTF-8" standalone="no"?>
<!-- Created with Inkscape (http://www.inkscape.org/) -->

<svg
   version="1.1"
   id="svg2"
   width="64"
   height="60.796368"
   viewBox="0 0 64 60.796361"
   sodipodi:docname="folder-arduino.svg"
   inkscape:export-filename="/home/itszariep/.icons/ilustraciones/16/apps/folder.png"
   inkscape:export-xdpi="435.14099"
   inkscape:export-ydpi="435.14099"
   inkscape:version="1.1.2 (0a00cf5339, 2022-02-04, custom)"
   xmlns:inkscape="http://www.inkscape.org/namespaces/inkscape"
   xmlns:sodipodi="http://sodipodi.sourceforge.net/DTD/sodipodi-0.dtd"
   xmlns="http://www.w3.org/2000/svg"
   xmlns:svg="http://www.w3.org/2000/svg">
  <defs
     id="defs6" />
  <sodipodi:namedview
     id="namedview4"
     pagecolor="#505050"
     bordercolor="#ffffff"
     borderopacity="1"
     inkscape:pageshadow="0"
     inkscape:pageopacity="0"
     inkscape:pagecheckerboard="1"
     showgrid="false"
     inkscape:snap-global="true"
     inkscape:snap-others="false"
     inkscape:object-nodes="false"
     inkscape:snap-nodes="false"
     inkscape:snap-page="false"
     inkscape:snap-object-midpoints="false"
     inkscape:snap-center="false"
     inkscape:object-paths="false"
     inkscape:snap-intersection-paths="false"
     inkscape:snap-midpoints="false"
     inkscape:snap-bbox="false"
     inkscape:bbox-nodes="true"
     inkscape:bbox-paths="true"
     inkscape:snap-bbox-edge-midpoints="true"
     inkscape:snap-bbox-midpoints="true"
     inkscape:zoom="7.1373591"
     inkscape:cx="28.371839"
     inkscape:cy="33.275613"
     inkscape:window-width="1440"
     inkscape:window-height="881"
     inkscape:window-x="-4"
     inkscape:window-y="-4"
     inkscape:window-maximized="1"
     inkscape:current-layer="g864" />
  <g
     inkscape:groupmode="layer"
     inkscape:label="Image"
     id="g8"
     transform="translate(-9.5749264,-17.920704)">
    <rect
       style="font-variation-settings:'wght' 800;fill:#688050;fill-opacity:1;stroke:none;stroke-width:3.5064;stroke-linecap:round;stroke-linejoin:round;stroke-miterlimit:4;stroke-dasharray:none"
       id="rect3122"
       width="64"
       height="21.85268"
       x="9.5749264"
       y="17.920704"
       ry="2.4875302" />
    <rect
       style="font-variation-settings:'wght' 800;fill:#e6e6e6;fill-opacity:1;stroke:#e6e6e6;stroke-width:3.57312;stroke-linecap:round;stroke-linejoin:round;stroke-miterlimit:4;stroke-dasharray:none;stroke-opacity:1"
       id="rect19452"
       width="52.690842"
       height="10.889665"
       x="18.989515"
       y="26.071903" />
    <rect
       style="font-variation-settings:'wght' 800;fill:#8fa876;fill-opacity:1;stroke:#8fa876;stroke-width:3.5064;stroke-linecap:round;stroke-linejoin:round;stroke-miterlimit:4;stroke-dasharray:none;stroke-opacity:1"
       id="rect1518"
       width="60.432983"
       height="38.968689"
       x="11.358904"
       y="37.995182" />
    <rect
       style="font-variation-settings:'wght' 800;fill:#8fa876;fill-opacity:1;stroke:#8fa876;stroke-width:3.5064;stroke-linecap:round;stroke-linejoin:round;stroke-miterlimit:4;stroke-dasharray:none;stroke-opacity:1"
       id="rect1834"
       width="37.046085"
       height="5.7780914"
       x="34.756546"
       y="32.113262" />
    <g
       id="g864"
       transform="matrix(0.83699977,0,0,0.83699977,14.791403,30.571761)">
      <g
         id="g12"
         transform="matrix(0.28623863,0,0,0.28623863,-27.056998,0.14251659)"
         style="fill:#aac148;fill-opacity:1;stroke:#aac148;stroke-linecap:round;stroke-linejoin:round;stroke-opacity:1;paint-order:fill markers stroke">
</g>
      <g
         id="g14"
         transform="matrix(0.28623863,0,0,0.28623863,-27.056998,0.14251659)"
         style="fill:#aac148;fill-opacity:1;stroke:#aac148;stroke-linecap:round;stroke-linejoin:round;stroke-opacity:1;paint-order:fill markers stroke">
</g>
      <g
         id="g16"
         transform="matrix(0.28623863,0,0,0.28623863,-27.056998,0.14251659)"
         style="fill:#aac148;fill-opacity:1;stroke:#aac148;stroke-linecap:round;stroke-linejoin:round;stroke-opacity:1;paint-order:fill markers stroke">
</g>
      <g
         id="g18"
         transform="matrix(0.28623863,0,0,0.28623863,-27.056998,0.14251659)"
         style="fill:#aac148;fill-opacity:1;stroke:#aac148;stroke-linecap:round;stroke-linejoin:round;stroke-opacity:1;paint-order:fill markers stroke">
</g>
      <g
         id="g20"
         transform="matrix(0.28623863,0,0,0.28623863,-27.056998,0.14251659)"
         style="fill:#aac148;fill-opacity:1;stroke:#aac148;stroke-linecap:round;stroke-linejoin:round;stroke-opacity:1;paint-order:fill markers stroke">
</g>
      <g
         id="g22"
         transform="matrix(0.28623863,0,0,0.28623863,-27.056998,0.14251659)"
         style="fill:#aac148;fill-opacity:1;stroke:#aac148;stroke-linecap:round;stroke-linejoin:round;stroke-opacity:1;paint-order:fill markers stroke">
</g>
      <g
         id="g24"
         transform="matrix(0.28623863,0,0,0.28623863,-27.056998,0.14251659)"
         style="fill:#aac148;fill-opacity:1;stroke:#aac148;stroke-linecap:round;stroke-linejoin:round;stroke-opacity:1;paint-order:fill markers stroke">
</g>
      <g
         id="g26"
         transform="matrix(0.28623863,0,0,0.28623863,-27.056998,0.14251659)"
         style="fill:#aac148;fill-opacity:1;stroke:#aac148;stroke-linecap:round;stroke-linejoin:round;stroke-opacity:1;paint-order:fill markers stroke">
</g>
      <g
         id="g28"
         transform="matrix(0.28623863,0,0,0.28623863,-27.056998,0.14251659)"
         style="fill:#aac148;fill-opacity:1;stroke:#aac148;stroke-linecap:round;stroke-linejoin:round;stroke-opacity:1;paint-order:fill markers stroke">
</g>
      <g
         id="g30"
         transform="matrix(0.28623863,0,0,0.28623863,-27.056998,0.14251659)"
         style="fill:#aac148;fill-opacity:1;stroke:#aac148;stroke-linecap:round;stroke-linejoin:round;stroke-opacity:1;paint-order:fill markers stroke">
</g>
      <g
         id="g32"
         transform="matrix(0.28623863,0,0,0.28623863,-27.056998,0.14251659)"
         style="fill:#aac148;fill-opacity:1;stroke:#aac148;stroke-linecap:round;stroke-linejoin:round;stroke-opacity:1;paint-order:fill markers stroke">
</g>
      <g
         id="g34"
         transform="matrix(0.28623863,0,0,0.28623863,-27.056998,0.14251659)"
         style="fill:#aac148;fill-opacity:1;stroke:#aac148;stroke-linecap:round;stroke-linejoin:round;stroke-opacity:1;paint-order:fill markers stroke">
</g>
      <g
         id="g36"
         transform="matrix(0.28623863,0,0,0.28623863,-27.056998,0.14251659)"
         style="fill:#aac148;fill-opacity:1;stroke:#aac148;stroke-linecap:round;stroke-linejoin:round;stroke-opacity:1;paint-order:fill markers stroke">
</g>
      <g
         id="g38"
         transform="matrix(0.28623863,0,0,0.28623863,-27.056998,0.14251659)"
         style="fill:#aac148;fill-opacity:1;stroke:#aac148;stroke-linecap:round;stroke-linejoin:round;stroke-opacity:1;paint-order:fill markers stroke">
</g>
      <g
         id="g40"
         transform="matrix(0.28623863,0,0,0.28623863,-27.056998,0.14251659)"
         style="fill:#aac148;fill-opacity:1;stroke:#aac148;stroke-linecap:round;stroke-linejoin:round;stroke-opacity:1;paint-order:fill markers stroke">
</g>
      <circle
         style="fill:#8fa876;fill-opacity:1;stroke:none;stroke-width:0.325989;stroke-linecap:round;stroke-linejoin:round;stroke-dashoffset:90.7465;stroke-opacity:1;paint-order:fill markers stroke"
         id="path18621-3"
         cx="46.177731"
         cy="37.362648"
         r="5.8443384" />
      <circle
         style="fill:#8fa876;fill-opacity:1;stroke:none;stroke-width:0.325989;stroke-linecap:round;stroke-linejoin:round;stroke-dashoffset:90.7465;stroke-opacity:1;paint-order:fill markers stroke"
         id="path18621-3-6"
         cx="18.591455"
         cy="37.384995"
         r="5.8443384" />
      <path
         style="fill:#ffffff;fill-opacity:1;stroke:#e6e6e6;stroke-width:0.765994;stroke-linecap:round;stroke-linejoin:round;stroke-miterlimit:4;stroke-dasharray:none;stroke-opacity:1"
         d="m 103.30309,49.29214 c -2.93135,-0.410902 -4.650143,-3.118181 -6.290669,-5.303041 -3.296119,-4.911444 -5.161274,-11.083633 -4.06158,-16.987697 0.830319,-4.487223 4.555449,-8.444329 9.198309,-8.903539 2.83842,-0.454495 5.34439,1.29478 8.04633,1.762826 2.93876,-0.636321 5.74701,-2.393112 8.86248,-1.841956 2.75775,0.304175 5.47935,1.671781 7.04389,4.012176 -2.52022,1.510689 -4.48822,4.148513 -4.54665,7.177363 -0.33547,3.539998 1.68038,7.027368 4.78264,8.688064 1.82201,0.572783 -0.3268,2.752002 -0.6202,3.980509 -1.35014,2.38274 -2.91187,4.758631 -5.10905,6.445838 -1.95983,1.486815 -4.58504,0.907833 -6.64411,-0.04481 -2.56354,-1.094987 -5.4352,-0.590169 -7.88371,0.545892 -0.89813,0.271646 -1.82831,0.537594 -2.77768,0.468379 z m 6.79824,-31.386725 c -0.46966,-1.145284 0.0731,-2.920419 0.59423,-4.134795 1.35972,-3.084964 4.46487,-5.3161936 7.83044,-5.5898436 0.42289,4.0702016 -2.46345,8.0714296 -6.22515,9.4442756 -0.71139,0.215859 -1.45666,0.313872 -2.19952,0.280363 z"
         id="path12467" />
      <path
         style="fill:#e6e6e6;stroke:#e6e6e6;stroke-width:0.429793;stroke-linecap:round;stroke-linejoin:round;stroke-miterlimit:4;stroke-dasharray:none;fill-opacity:1;stroke-opacity:1"
         d="M 14.812067,49.406497 C 8.0960851,48.48948 2.5793358,42.269458 2.6683227,35.457857 2.4707788,28.647709 7.8191181,22.299057 14.544168,21.280106 c 6.199683,-1.081335 12.126656,2.37376 16.239899,6.747025 1.228232,1.356895 1.866878,3.203735 3.603587,0.994502 4.099787,-4.635158 9.979428,-8.640913 16.449035,-7.828361 7.037724,0.717264 12.802146,7.329398 12.514434,14.405501 0.01284,7.099295 -6.078269,13.571954 -13.189245,13.880469 -6.259773,0.53825 -11.85953,-3.437596 -15.818208,-7.912176 -0.988975,-1.344036 -1.145429,-1.91895 -2.426383,-0.268094 -3.920428,4.471539 -9.34334,8.506851 -15.57771,8.198197 -0.510051,-0.0031 -1.022455,-0.01162 -1.52751,-0.09066 z m 3.753816,-5.482441 c 4.723667,-1.069863 8.267388,-4.783617 11.072896,-8.518513 -0.724124,-1.597362 -2.150835,-2.879991 -3.350782,-4.175057 -3.078019,-3.141577 -7.713767,-5.775855 -12.19832,-4.220741 -4.4068389,1.410391 -7.0926114,6.609679 -5.5474179,11.007499 1.303334,4.120072 5.7636859,6.816676 10.0236239,5.906812 z m 32.118956,0.03352 c 4.500259,-0.738757 7.853563,-5.341306 7.145775,-9.855179 -0.578126,-4.65424 -5.317221,-8.262365 -9.968761,-7.471431 -4.936417,0.926738 -8.678893,4.810502 -11.534961,8.699353 2.84997,3.841324 6.550611,7.709934 11.442005,8.652012 0.965742,0.106928 1.954006,0.127667 2.915942,-0.02477 z"
         id="path20660"
         sodipodi:nodetypes="ccccccccccccccccccsccccss" />
      <rect
         style="font-variation-settings:'wght' 100;fill:#e6e6e6;fill-opacity:1;stroke:#e6e6e6;stroke-width:0.429793;stroke-linecap:round;stroke-linejoin:round;stroke-miterlimit:4;stroke-dasharray:none;stroke-dashoffset:90.7465;stroke-opacity:1;paint-order:stroke fill markers"
         id="rect21267"
         width="8.5669727"
         height="2.8712847"
         x="13.501079"
         y="33.483185"
         ry="0.15583728" />
      <rect
         style="font-variation-settings:'wght' 100;fill:#e6e6e6;fill-opacity:1;stroke:#e6e6e6;stroke-width:0.415143;stroke-linecap:round;stroke-linejoin:round;stroke-miterlimit:4;stroke-dasharray:none;stroke-dashoffset:90.7465;stroke-opacity:1;paint-order:stroke fill markers"
         id="rect21528"
         width="8.581624"
         height="2.6742976"
         x="43.964382"
         y="33.428707"
         ry="0.14514589" />
      <rect
         style="font-variation-settings:'wght' 100;fill:#e6e6e6;fill-opacity:1;stroke:#e6e6e6;stroke-width:0.412753;stroke-linecap:round;stroke-linejoin:round;stroke-miterlimit:4;stroke-dasharray:none;stroke-dashoffset:90.7465;stroke-opacity:1;paint-order:stroke fill markers"
         id="rect21530"
         width="8.584013"
         height="2.6428504"
         x="30.473852"
         y="-49.576622"
         ry="0.14343913"
         transform="rotate(90)" />
    </g>
  </g>
</svg>
