<?xml version="1.0" encoding="UTF-8" standalone="no"?>
<!-- Created with Inkscape (http://www.inkscape.org/) -->

<svg
   version="1.1"
   id="svg2"
   width="64"
   height="60.796368"
   viewBox="0 0 64 60.796361"
   sodipodi:docname="folder-github.svg"
   inkscape:export-filename="/home/itszariep/.icons/ilustraciones/16/apps/folder.png"
   inkscape:export-xdpi="435.14099"
   inkscape:export-ydpi="435.14099"
   inkscape:version="1.1.2 (0a00cf5339, 2022-02-04, custom)"
   xmlns:inkscape="http://www.inkscape.org/namespaces/inkscape"
   xmlns:sodipodi="http://sodipodi.sourceforge.net/DTD/sodipodi-0.dtd"
   xmlns="http://www.w3.org/2000/svg"
   xmlns:svg="http://www.w3.org/2000/svg">
  <defs
     id="defs6" />
  <sodipodi:namedview
     id="namedview4"
     pagecolor="#505050"
     bordercolor="#ffffff"
     borderopacity="1"
     inkscape:pageshadow="0"
     inkscape:pageopacity="0"
     inkscape:pagecheckerboard="1"
     showgrid="false"
     inkscape:snap-global="true"
     inkscape:snap-others="false"
     inkscape:object-nodes="false"
     inkscape:snap-nodes="false"
     inkscape:snap-page="false"
     inkscape:snap-object-midpoints="false"
     inkscape:snap-center="false"
     inkscape:object-paths="false"
     inkscape:snap-intersection-paths="false"
     inkscape:snap-midpoints="false"
     inkscape:snap-bbox="true"
     inkscape:bbox-nodes="true"
     inkscape:bbox-paths="true"
     inkscape:snap-bbox-edge-midpoints="true"
     inkscape:snap-bbox-midpoints="true"
     inkscape:zoom="5.6568543"
     inkscape:cx="29.43332"
     inkscape:cy="23.776465"
     inkscape:window-width="1440"
     inkscape:window-height="881"
     inkscape:window-x="-4"
     inkscape:window-y="-4"
     inkscape:window-maximized="1"
     inkscape:current-layer="g8" />
  <g
     inkscape:groupmode="layer"
     inkscape:label="Image"
     id="g8"
     transform="translate(-9.5749264,-17.920704)">
    <rect
       style="font-variation-settings:'wght' 800;fill:#688050;fill-opacity:1;stroke:none;stroke-width:3.5064;stroke-linecap:round;stroke-linejoin:round;stroke-miterlimit:4;stroke-dasharray:none"
       id="rect3122"
       width="64"
       height="21.85268"
       x="9.5749264"
       y="17.920704"
       ry="2.4875302" />
    <rect
       style="font-variation-settings:'wght' 800;fill:#e6e6e6;fill-opacity:1;stroke:#e6e6e6;stroke-width:3.57312;stroke-linecap:round;stroke-linejoin:round;stroke-miterlimit:4;stroke-dasharray:none;stroke-opacity:1"
       id="rect19452"
       width="52.690842"
       height="10.889665"
       x="18.989515"
       y="26.071903" />
    <rect
       style="font-variation-settings:'wght' 800;fill:#8fa876;fill-opacity:1;stroke:#8fa876;stroke-width:3.5064;stroke-linecap:round;stroke-linejoin:round;stroke-miterlimit:4;stroke-dasharray:none;stroke-opacity:1"
       id="rect1518"
       width="60.432983"
       height="38.968689"
       x="11.358904"
       y="37.995182" />
    <rect
       style="font-variation-settings:'wght' 800;fill:#8fa876;fill-opacity:1;stroke:#8fa876;stroke-width:3.5064;stroke-linecap:round;stroke-linejoin:round;stroke-miterlimit:4;stroke-dasharray:none;stroke-opacity:1"
       id="rect1834"
       width="37.046085"
       height="5.7780914"
       x="34.756546"
       y="32.113262" />
    <path
       style="fill:#e6e6e6;fill-opacity:1;stroke:#e6e6e6;stroke-width:0.6;stroke-opacity:1;stroke-miterlimit:4;stroke-dasharray:none;stroke-linejoin:round;stroke-linecap:round"
       d="m 41.367189,73.745617 c -1.328933,0 -4.303224,0.369836 -3.976716,-1.634686 -0.03584,-1.771524 -0.01386,-0.762168 -0.07235,-2.533059 -2.229198,0.441094 -4.964948,0.255099 -6.392723,-1.767307 -0.922182,-1.475555 -1.367336,-3.395123 -2.981761,-4.332437 -1.161498,-0.488657 -0.712656,-1.640996 0.492664,-1.225498 2.013363,0.241962 2.748233,2.339931 4.030988,3.580999 1.326593,1.206803 3.390225,1.129486 4.907253,0.353544 -0.06619,-0.99713 1.103009,-2.358892 1.185352,-2.880281 -3.171987,-0.35288 -6.621084,-1.642235 -8.111361,-4.684875 -1.2431,-2.41685 -1.425208,-5.264016 -1.038969,-7.910664 0.308698,-1.411301 0.999491,-2.718849 1.934281,-3.814734 -0.647072,-1.842841 -0.474834,-3.893718 0.215349,-5.698342 2.135364,-0.146997 4.032475,1.101886 5.752228,2.210273 3.402562,-0.934218 7.06845,-0.932832 10.471118,0 1.722212,-1.115553 3.611118,-2.351977 5.752192,-2.210258 0.674413,1.802339 0.869298,3.854454 0.212827,5.690896 1.587373,1.79075 2.318486,4.214117 2.095915,6.587472 0.02331,3.338403 -1.41931,6.970815 -4.578374,8.482507 -1.384575,0.893643 -3.589217,0.981236 -4.804041,1.462743 1.796761,1.973014 1.204562,4.818263 1.278874,7.244431 -0.130955,1.724609 0.204423,0.917628 -0.152929,2.513788 -2.031362,0.485738 -4.132708,0.565488 -6.219812,0.565488 z"
       id="path1762"
       sodipodi:nodetypes="scccccccccccccccccccccss" />
  </g>
</svg>
