<?xml version="1.0" encoding="UTF-8" standalone="no"?>
<!-- Created with Inkscape (http://www.inkscape.org/) -->

<svg
   version="1.1"
   id="svg2"
   width="64"
   height="60.796368"
   viewBox="0 0 64 60.796361"
   sodipodi:docname="folder-download.svg"
   inkscape:export-filename="/home/itszariep/.icons/ilustraciones/16/apps/folder.png"
   inkscape:export-xdpi="435.14099"
   inkscape:export-ydpi="435.14099"
   inkscape:version="1.1.2 (0a00cf5339, 2022-02-04, custom)"
   xmlns:inkscape="http://www.inkscape.org/namespaces/inkscape"
   xmlns:sodipodi="http://sodipodi.sourceforge.net/DTD/sodipodi-0.dtd"
   xmlns="http://www.w3.org/2000/svg"
   xmlns:svg="http://www.w3.org/2000/svg">
  <defs
     id="defs6" />
  <sodipodi:namedview
     id="namedview4"
     pagecolor="#505050"
     bordercolor="#ffffff"
     borderopacity="1"
     inkscape:pageshadow="0"
     inkscape:pageopacity="0"
     inkscape:pagecheckerboard="1"
     showgrid="false"
     inkscape:snap-global="true"
     inkscape:snap-others="false"
     inkscape:object-nodes="false"
     inkscape:snap-nodes="false"
     inkscape:snap-page="false"
     inkscape:snap-object-midpoints="false"
     inkscape:snap-center="false"
     inkscape:object-paths="false"
     inkscape:snap-intersection-paths="false"
     inkscape:snap-midpoints="false"
     inkscape:snap-bbox="true"
     inkscape:bbox-nodes="false"
     inkscape:bbox-paths="true"
     inkscape:snap-bbox-edge-midpoints="false"
     inkscape:snap-bbox-midpoints="false"
     inkscape:zoom="2.8284272"
     inkscape:cx="55.684658"
     inkscape:cy="77.251414"
     inkscape:window-width="1440"
     inkscape:window-height="881"
     inkscape:window-x="-4"
     inkscape:window-y="-4"
     inkscape:window-maximized="1"
     inkscape:current-layer="g8" />
  <g
     inkscape:groupmode="layer"
     inkscape:label="Image"
     id="g8"
     transform="translate(-9.5749264,-17.920704)">
    <rect
       style="font-variation-settings:'wght' 800;fill:#688050;fill-opacity:1;stroke:none;stroke-width:3.5064;stroke-linecap:round;stroke-linejoin:round;stroke-miterlimit:4;stroke-dasharray:none"
       id="rect3122"
       width="64"
       height="21.85268"
       x="9.5749264"
       y="17.920704"
       ry="2.4875302" />
    <rect
       style="font-variation-settings:'wght' 800;fill:#e6e6e6;fill-opacity:1;stroke:#e6e6e6;stroke-width:3.57312;stroke-linecap:round;stroke-linejoin:round;stroke-miterlimit:4;stroke-dasharray:none;stroke-opacity:1"
       id="rect19452"
       width="52.690842"
       height="10.889665"
       x="18.989515"
       y="26.071903" />
    <rect
       style="font-variation-settings:'wght' 800;fill:#8fa876;fill-opacity:1;stroke:#8fa876;stroke-width:3.5064;stroke-linecap:round;stroke-linejoin:round;stroke-miterlimit:4;stroke-dasharray:none;stroke-opacity:1"
       id="rect1518"
       width="60.432983"
       height="38.968689"
       x="11.358904"
       y="37.995182" />
    <rect
       style="font-variation-settings:'wght' 800;fill:#8fa876;fill-opacity:1;stroke:#8fa876;stroke-width:3.5064;stroke-linecap:round;stroke-linejoin:round;stroke-miterlimit:4;stroke-dasharray:none;stroke-opacity:1"
       id="rect1834"
       width="37.046085"
       height="5.7780914"
       x="34.756546"
       y="32.113262" />
    <path
       style="fill:#e6e6e6;stroke-width:0.0394402"
       d="m 27.908926,73.655442 c -2.266764,-0.46154 -2.169228,-3.031165 -2.069908,-4.83122 0.0372,-2.39486 -0.08404,-4.80009 0.07708,-7.18814 0.4296,-2.10058 3.503404,-2.702754 4.683768,-0.91533 0.91796,1.36413 0.3758,3.10911 0.523472,4.65165 v 3.02336 h 22.875336 c 0.0336,-2.252415 -0.08156,-4.515005 0.0778,-6.75968 0.421372,-2.045875 3.375764,-2.695526 4.608434,-1.01399 1.0683,1.47014 0.39752,3.44782 0.5982,5.134675 -0.0344,1.988075 0.07704,3.986075 -0.07716,5.96739 -0.4631,2.07457 -2.76892,2.09113 -4.450978,1.98398 -8.948012,-0.005 -17.899936,0.06412 -26.84604,-0.05268 z M 42.26517,65.336797 c -1.463204,-0.15592 -2.18804,-1.544725 -3.21306,-2.410555 -2.223912,-2.25673 -4.52202,-4.460726 -6.69966,-6.750342 -1.133816,-1.658004 0.2182,-4.190892 2.241608,-4.08304 1.755684,0.0096 2.665012,1.759352 3.875752,2.769424 l 1.44868,1.442432 c 0.0256,-6.335664 -0.2528,-6.279172 -0.13524,-12.613296 0.17972,-2.151492 3.300256,-3.012388 4.594464,-1.291392 1.066572,1.354396 0.46058,3.230312 0.631552,4.824044 0.01,5.13938 0.17532,3.884968 0.22252,9.024128 1.30872,-1.20974 2.51126,-2.55566 3.830632,-3.742212 1.649228,-1.154368 4.221272,0.17736 4.108044,2.223772 0.07804,1.582624 -1.42488,2.36614 -2.322244,3.417028 -2.352692,2.289894 -4.572784,4.734134 -7.044788,6.887284 -0.469136,0.25392 -1.010516,0.34004 -1.538364,0.30272 z"
       id="path947"
       sodipodi:nodetypes="scccccccccccsscccccccccccccccc" />
  </g>
</svg>
