<?xml version="1.0" encoding="UTF-8" standalone="no"?>
<!-- Created with Inkscape (http://www.inkscape.org/) -->

<svg
   version="1.1"
   id="svg2"
   width="64"
   height="60.796368"
   viewBox="0 0 64 60.796361"
   sodipodi:docname="folder-git.svg"
   inkscape:export-filename="/home/itszariep/.icons/ilustraciones/16/apps/folder.png"
   inkscape:export-xdpi="435.14099"
   inkscape:export-ydpi="435.14099"
   inkscape:version="1.1.2 (0a00cf5339, 2022-02-04, custom)"
   xmlns:inkscape="http://www.inkscape.org/namespaces/inkscape"
   xmlns:sodipodi="http://sodipodi.sourceforge.net/DTD/sodipodi-0.dtd"
   xmlns="http://www.w3.org/2000/svg"
   xmlns:svg="http://www.w3.org/2000/svg">
  <defs
     id="defs6" />
  <sodipodi:namedview
     id="namedview4"
     pagecolor="#505050"
     bordercolor="#ffffff"
     borderopacity="1"
     inkscape:pageshadow="0"
     inkscape:pageopacity="0"
     inkscape:pagecheckerboard="1"
     showgrid="false"
     inkscape:snap-global="true"
     inkscape:snap-others="false"
     inkscape:object-nodes="false"
     inkscape:snap-nodes="false"
     inkscape:snap-page="false"
     inkscape:snap-object-midpoints="false"
     inkscape:snap-center="false"
     inkscape:object-paths="false"
     inkscape:snap-intersection-paths="false"
     inkscape:snap-midpoints="false"
     inkscape:snap-bbox="false"
     inkscape:bbox-nodes="true"
     inkscape:bbox-paths="true"
     inkscape:snap-bbox-edge-midpoints="true"
     inkscape:snap-bbox-midpoints="true"
     inkscape:zoom="5.6568543"
     inkscape:cx="34.559844"
     inkscape:cy="46.934212"
     inkscape:window-width="1440"
     inkscape:window-height="881"
     inkscape:window-x="-4"
     inkscape:window-y="-4"
     inkscape:window-maximized="1"
     inkscape:current-layer="g8" />
  <g
     inkscape:groupmode="layer"
     inkscape:label="Image"
     id="g8"
     transform="translate(-9.5749264,-17.920704)">
    <rect
       style="font-variation-settings:'wght' 800;fill:#688050;fill-opacity:1;stroke:none;stroke-width:3.5064;stroke-linecap:round;stroke-linejoin:round;stroke-miterlimit:4;stroke-dasharray:none"
       id="rect3122"
       width="64"
       height="21.85268"
       x="9.5749264"
       y="17.920704"
       ry="2.4875302" />
    <rect
       style="font-variation-settings:'wght' 800;fill:#e6e6e6;fill-opacity:1;stroke:#e6e6e6;stroke-width:3.57312;stroke-linecap:round;stroke-linejoin:round;stroke-miterlimit:4;stroke-dasharray:none;stroke-opacity:1"
       id="rect19452"
       width="52.690842"
       height="10.889665"
       x="18.989515"
       y="26.071903" />
    <rect
       style="font-variation-settings:'wght' 800;fill:#8fa876;fill-opacity:1;stroke:#8fa876;stroke-width:3.5064;stroke-linecap:round;stroke-linejoin:round;stroke-miterlimit:4;stroke-dasharray:none;stroke-opacity:1"
       id="rect1518"
       width="60.432983"
       height="38.968689"
       x="11.358904"
       y="37.995182" />
    <rect
       style="font-variation-settings:'wght' 800;fill:#8fa876;fill-opacity:1;stroke:#8fa876;stroke-width:3.5064;stroke-linecap:round;stroke-linejoin:round;stroke-miterlimit:4;stroke-dasharray:none;stroke-opacity:1"
       id="rect1834"
       width="37.046085"
       height="5.7780914"
       x="34.756546"
       y="32.113262" />
    <rect
       style="fill:#e6e6e6;fill-opacity:1;stroke:#e6e6e6;stroke-width:3.62711;stroke-linecap:round;stroke-linejoin:round;stroke-miterlimit:4;stroke-dasharray:none;stroke-opacity:1"
       id="rect1002"
       width="25.07024"
       height="25.079268"
       x="57.253693"
       y="0.79961079"
       ry="2.3258712"
       transform="rotate(42.991466)" />
    <path
       style="font-variation-settings:'wght' 100;fill:#8fa876;fill-opacity:1;stroke:#8fa876;stroke-width:0.0371232;stroke-linecap:round;stroke-linejoin:round;stroke-miterlimit:4;stroke-dasharray:none;stroke-dashoffset:90.7465;stroke-opacity:1;paint-order:stroke fill markers"
       d="m 39.548862,66.264255 c -1.057292,-1.280403 -0.600288,-3.434462 0.886984,-4.179007 0.209184,-0.944307 0.0186,-1.973372 0.03156,-2.95171 -0.09553,-2.419588 -0.162951,-4.840688 -0.293686,-7.258665 -1.228518,-0.501308 -2.049163,-1.837341 -1.778472,-3.16689 0.278351,-0.452299 -0.08607,-0.701676 -0.408267,-0.975114 l -3.566296,-3.324634 c 0.310402,-0.472352 0.543047,-1.016379 1.068148,-1.290824 0.301917,-0.352106 0.585974,-0.368421 0.847875,0.03186 1.249917,1.165222 2.499836,2.330443 3.749756,3.495663 1.521852,-0.622865 3.266497,0.387708 3.753118,1.988161 0.205364,0.675426 -0.4493,1.430863 0.295147,1.773177 1.342932,1.154407 2.620463,2.382029 3.920971,3.583488 1.433874,-0.559518 3.212405,0.236635 3.667054,1.726667 0.619499,1.638217 -0.697595,3.565161 -2.432795,3.639562 -1.733915,0.192902 -3.289385,-1.55366 -2.933546,-3.254875 0.181844,-0.410044 -0.02934,-0.683507 -0.364208,-0.913991 -1.171468,-1.081471 -2.328341,-2.179172 -3.518835,-3.239711 0.09151,3.352154 0.258264,6.702087 0.390432,10.052959 1.121072,0.539209 1.852522,1.804407 1.59399,3.048164 -0.175121,1.049334 -1.070142,1.978897 -2.106945,2.209987 -1.028317,0.245521 -2.151194,-0.167133 -2.801987,-0.994264 z"
       id="path13848"
       sodipodi:nodetypes="cscsccscscscccccssscccc" />
  </g>
</svg>
