<?xml version="1.0" encoding="UTF-8" standalone="no"?>
<!-- Created with Inkscape (http://www.inkscape.org/) -->

<svg
   width="16"
   version="1.1"
   height="15.135403"
   id="svg71"
   sodipodi:docname="video-display.svg"
   inkscape:version="1.1.2 (0a00cf5339, 2022-02-04, custom)"
   xmlns:inkscape="http://www.inkscape.org/namespaces/inkscape"
   xmlns:sodipodi="http://sodipodi.sourceforge.net/DTD/sodipodi-0.dtd"
   xmlns="http://www.w3.org/2000/svg"
   xmlns:svg="http://www.w3.org/2000/svg">
  <sodipodi:namedview
     id="namedview73"
     pagecolor="#505050"
     bordercolor="#ffffff"
     borderopacity="1"
     inkscape:pageshadow="0"
     inkscape:pageopacity="0"
     inkscape:pagecheckerboard="1"
     showgrid="false"
     inkscape:snap-object-midpoints="false"
     inkscape:snap-bbox="true"
     inkscape:snap-bbox-edge-midpoints="false"
     inkscape:zoom="0.50000002"
     inkscape:cx="15.999999"
     inkscape:cy="-84.999996"
     inkscape:window-width="1440"
     inkscape:window-height="881"
     inkscape:window-x="-4"
     inkscape:window-y="-4"
     inkscape:window-maximized="1"
     inkscape:current-layer="layer1" />
  <defs
     id="defs5455" />
  <metadata
     id="metadata5458" />
  <g
     inkscape:label="Capa 1"
     inkscape:groupmode="layer"
     id="layer1"
     transform="translate(-381.17147,-498.398)">
    <rect
       style="fill:#1a1a1a;stroke:none;stroke-width:8.5595;stroke-linecap:round;stroke-linejoin:round"
       id="rect1152"
       width="14.43057"
       height="10.74181"
       x="381.98877"
       y="499.2059"
       rx="0"
       ry="0" />
    <path
       inkscape:connector-curvature="0"
       style="fill:#b3b3b3;stroke-width:0.81752;stroke-opacity:0.550265"
       id="rect4254"
       d="m 387.08894,509.89628 v 2.22959 0.63703 0.63703 h 4.0876 v -0.63703 -0.63703 -2.22959 z" />
    <rect
       width="15.18248"
       x="381.58023"
       y="498.80676"
       height="11.466493"
       style="fill:none;fill-opacity:1;stroke:#333333;stroke-width:0.81752;stroke-opacity:1"
       id="rect4173"
       ry="0.19094817" />
    <path
       style="fill:#333333;stroke:#333333;stroke-width:0.87591;stroke-linecap:round;stroke-linejoin:miter;stroke-miterlimit:4;stroke-dasharray:none;stroke-opacity:1"
       d="m 385.57841,513.09545 h 7.10865"
       id="path11485" />
    <path
       style="fill:#cccccc;stroke-width:0.0116821;paint-order:stroke fill markers"
       d="m 392.14626,508.27859 c -0.0564,0.0174 -0.0938,0.005 -0.29099,-0.0996 -0.0891,-0.0471 -0.18929,-0.0993 -0.22259,-0.11599 -0.0333,-0.0166 -0.1559,-0.0798 -0.27244,-0.14044 -0.28464,-0.14798 -0.26412,-0.14071 -0.31647,-0.11206 -0.11232,0.0615 -0.36555,0.1701 -0.51955,0.22285 -0.16691,0.0572 -0.16919,0.0584 -0.17813,0.0946 -0.005,0.0202 -0.0505,0.16611 -0.10115,0.32433 -0.0506,0.15823 -0.12075,0.37868 -0.15578,0.48989 -0.035,0.11122 -0.0718,0.21038 -0.0818,0.22038 -0.01,0.01 -0.036,0.0241 -0.0578,0.0313 -0.0482,0.016 -1.11739,0.0222 -1.18881,0.007 -0.0811,-0.0174 -0.10498,-0.0511 -0.15875,-0.22397 -0.0261,-0.084 -0.0764,-0.24274 -0.11179,-0.35284 -0.0353,-0.1101 -0.0877,-0.27493 -0.11642,-0.3663 l -0.0521,-0.16612 -0.11424,-0.0377 c -0.17926,-0.0592 -0.31657,-0.11491 -0.47145,-0.1913 -0.0787,-0.0388 -0.14577,-0.0706 -0.14905,-0.0706 -0.006,-2e-5 -0.40926,0.20733 -0.76711,0.39458 -0.11768,0.0616 -0.22092,0.10836 -0.24058,0.10902 -0.019,5e-4 -0.0547,-0.0109 -0.0796,-0.0258 -0.0618,-0.0368 -0.80172,-0.77528 -0.83494,-0.83325 -0.0387,-0.0676 -0.0332,-0.10168 0.0389,-0.23874 0.0363,-0.0689 0.11408,-0.21833 0.17292,-0.33208 0.0588,-0.11374 0.13867,-0.26802 0.17741,-0.34283 0.0387,-0.0748 0.0745,-0.14533 0.0795,-0.15672 0.006,-0.014 -0.0117,-0.0622 -0.0543,-0.14726 -0.0884,-0.17671 -0.13228,-0.28173 -0.18993,-0.45469 l -0.0498,-0.14956 -0.19097,-0.0602 c -0.10502,-0.0331 -0.28673,-0.0907 -0.40378,-0.12808 -0.11705,-0.0374 -0.26486,-0.0836 -0.32847,-0.10289 -0.12598,-0.0382 -0.17477,-0.0729 -0.18716,-0.13334 -0.0139,-0.0679 -0.0111,-1.1493 0.004,-1.1946 0.0182,-0.0582 0.0406,-0.081 0.0966,-0.0984 0.12549,-0.0391 0.43897,-0.1391 0.68277,-0.21785 0.15118,-0.0489 0.28636,-0.091 0.3004,-0.0937 0.0217,-0.004 0.0296,-0.0184 0.0527,-0.0959 0.0379,-0.12726 0.12751,-0.34844 0.20503,-0.50652 0.0361,-0.0735 0.0644,-0.13977 0.0629,-0.14714 -0.002,-0.007 -0.0322,-0.0701 -0.0683,-0.13944 -0.0361,-0.0693 -0.0961,-0.18488 -0.13325,-0.25679 -0.0371,-0.0719 -0.11363,-0.21855 -0.16991,-0.32588 -0.12488,-0.23814 -0.13605,-0.26898 -0.11757,-0.32455 0.0131,-0.0396 0.0507,-0.0798 0.42702,-0.45683 0.37629,-0.37707 0.41641,-0.41472 0.45593,-0.42796 0.056,-0.0187 0.0885,-0.007 0.32464,0.11704 0.10719,0.0563 0.20747,0.10839 0.22286,0.11572 0.0154,0.007 0.13614,0.069 0.26836,0.13704 l 0.2404,0.12373 0.079,-0.0411 c 0.13529,-0.0704 0.36599,-0.16789 0.51455,-0.21743 0.11799,-0.0393 0.1432,-0.0516 0.1471,-0.0716 0.002,-0.0132 0.0425,-0.14234 0.0887,-0.28684 0.0462,-0.14449 0.11821,-0.37045 0.15998,-0.50212 0.0418,-0.13167 0.0841,-0.24756 0.094,-0.25752 0.01,-0.01 0.039,-0.0248 0.0647,-0.0328 0.0453,-0.0143 1.12662,-0.0195 1.19459,-0.006 0.0656,0.0133 0.0949,0.0594 0.15038,0.23656 0.0284,0.0908 0.0787,0.24957 0.1118,0.35288 0.0331,0.10331 0.0836,0.26257 0.11225,0.35391 l 0.0521,0.16607 0.14979,0.0496 c 0.17737,0.0587 0.28427,0.10307 0.45535,0.18895 l 0.12635,0.0634 0.15655,-0.08 c 0.14432,-0.0738 0.38329,-0.19759 0.69441,-0.3598 0.1352,-0.0705 0.17738,-0.0787 0.23536,-0.0461 0.0555,0.0313 0.81518,0.79154 0.84369,0.84431 0.0325,0.0601 0.0264,0.0976 -0.035,0.21488 -0.0303,0.0579 -0.0792,0.15183 -0.10871,0.20865 -0.0295,0.0568 -0.0771,0.14851 -0.10592,0.20375 -0.10289,0.19746 -0.2307,0.45056 -0.2307,0.45682 1e-5,0.003 0.0282,0.0622 0.0625,0.13033 0.0851,0.16864 0.12986,0.27605 0.18871,0.45261 l 0.0499,0.14962 0.11654,0.0355 c 0.0641,0.0195 0.22349,0.0697 0.35422,0.11152 0.13073,0.0418 0.31203,0.0992 0.40289,0.12755 0.19347,0.0603 0.22594,0.0838 0.23939,0.17316 0.005,0.0308 0.008,0.30331 0.007,0.60552 -10e-4,0.47471 -0.005,0.55588 -0.0267,0.5966 l -0.0256,0.0471 -0.14512,0.0466 c -0.0798,0.0256 -0.29154,0.0936 -0.47048,0.151 -0.17895,0.0574 -0.35323,0.11252 -0.3873,0.12243 l -0.0619,0.018 -0.0478,0.14476 c -0.0491,0.14845 -0.1423,0.37064 -0.21427,0.51059 l -0.0405,0.0789 0.0672,0.13213 c 0.0881,0.1734 0.18475,0.35973 0.3107,0.59923 0.12437,0.23651 0.13604,0.26877 0.11744,0.32469 -0.0131,0.0396 -0.0507,0.0798 -0.42713,0.45696 -0.38511,0.38593 -0.41565,0.41451 -0.4567,0.4272 z m -1.2243,-2.43909 c 0.14568,-0.18726 0.26093,-0.39889 0.32925,-0.60459 0.12851,-0.38698 0.13724,-0.82463 0.0242,-1.21307 -0.15147,-0.52046 -0.5379,-0.98469 -1.02454,-1.23079 -0.70248,-0.35526 -1.53781,-0.27341 -2.15878,0.21153 -0.74268,0.57998 -0.98376,1.60252 -0.57953,2.45806 0.0945,0.20004 0.22552,0.38204 0.40111,0.55727 0.24152,0.24102 0.46959,0.38255 0.78689,0.48832 0.235,0.0783 0.41495,0.10487 0.68146,0.10051 0.60453,-0.01 1.16986,-0.29156 1.53994,-0.76724 z"
       id="path1756" />
  </g>
</svg>
