<?xml version="1.0" encoding="UTF-8" standalone="no"?>
<!-- Created with Inkscape (http://www.inkscape.org/) -->

<svg
   width="33.866665mm"
   height="34.914223mm"
   viewBox="0 0 33.866664 34.914223"
   version="1.1"
   id="svg5"
   inkscape:version="1.1.2 (0a00cf5339, 2022-02-04, custom)"
   sodipodi:docname="playonlinux.svg"
   xmlns:inkscape="http://www.inkscape.org/namespaces/inkscape"
   xmlns:sodipodi="http://sodipodi.sourceforge.net/DTD/sodipodi-0.dtd"
   xmlns="http://www.w3.org/2000/svg"
   xmlns:svg="http://www.w3.org/2000/svg">
  <sodipodi:namedview
     id="namedview7"
     pagecolor="#505050"
     bordercolor="#ffffff"
     borderopacity="1"
     inkscape:pageshadow="0"
     inkscape:pageopacity="0"
     inkscape:pagecheckerboard="1"
     inkscape:document-units="mm"
     showgrid="false"
     inkscape:zoom="1"
     inkscape:cx="-47.5"
     inkscape:cy="61.5"
     inkscape:window-width="1440"
     inkscape:window-height="881"
     inkscape:window-x="-4"
     inkscape:window-y="-4"
     inkscape:window-maximized="1"
     inkscape:current-layer="layer1" />
  <defs
     id="defs2" />
  <g
     inkscape:label="Layer 1"
     inkscape:groupmode="layer"
     id="layer1"
     transform="translate(4.6476655,4.8357425)">
    <path
       style="fill:#ffbe24;fill-opacity:1;stroke:#ffbe24;stroke-width:0.0366591px;stroke-linecap:butt;stroke-linejoin:miter;stroke-opacity:1"
       d="m 12.396733,12.34221 c 1.880998,4.864169 1.113646,9.935807 4.30354,12.942283 1.781174,1.678758 5.021708,2.536199 7.342657,-0.05208 0.563177,-0.868077 0.656676,-1.149504 0.819406,-2.901781 0.07641,-0.822781 0.560673,-1.167899 0.974881,-1.476524 0,0 2.042258,-1.141809 2.740488,-2.041936 2.173149,-2.801527 -1.723044,-8.765504 -5.767351,-8.209627 -3.317761,0.456014 -7.999072,1.827519 -10.413621,1.739658 z"
       id="path2247"
       sodipodi:nodetypes="cscssssc" />
    <path
       style="fill:#ff2a2a;fill-opacity:1;stroke:#ff2a2a;stroke-width:0.0366591px;stroke-linecap:butt;stroke-linejoin:miter;stroke-opacity:1"
       d="M 12.396733,12.34221 C 16.961189,9.8195066 23.775084,10.028834 26.321636,6.4610027 27.743583,4.4687971 28.15405,1.1419703 25.275178,-0.80688772 24.3388,-1.2472545 24.047301,-1.3017597 22.289135,-1.2255719 c -0.825548,0.035774 -1.233098,-0.397266 -1.594998,-0.7658382 0,0 -1.407988,-1.8687205 -2.394418,-2.4385525 -3.070134,-1.773528 -8.4512162,2.8947991 -7.3525,6.8264985 0.901337,3.2253809 1.209414,7.5414859 1.449514,9.9456741 z"
       id="path2247-8"
       sodipodi:nodetypes="cscssssc" />
    <path
       style="fill:#1c5d9e;fill-opacity:1;stroke:#1c5d9e;stroke-width:0.0366591px;stroke-linecap:butt;stroke-linejoin:miter;stroke-opacity:1"
       d="m 12.396733,12.34221 c -0.35299,5.20324 2.656033,11.04097 0.501878,14.858559 -1.202837,2.131663 -4.0430124,3.912018 -7.0274283,2.128982 C 5.0757936,28.667875 4.9030014,28.426867 4.2276632,26.801786 3.9105592,26.038733 3.3456989,25.852851 2.8585695,25.681029 c 0,0 -2.28908204,-0.484411 -3.22295284,-1.136821 C -3.2709322,22.513667 -1.3198418,15.662203 2.7072703,14.993016 6.0109236,14.444047 10.116993,13.142558 12.396733,12.34221 Z"
       id="path2247-8-2"
       sodipodi:nodetypes="cscssssc" />
    <path
       style="fill:#1c960c;fill-opacity:1;stroke:#1c960c;stroke-width:0.0366591px;stroke-linecap:butt;stroke-linejoin:miter;stroke-opacity:1"
       d="M 12.396733,12.34221 C 7.1936467,12.697467 2.9316415,15.028044 -1.1426094,13.411004 -3.4175909,12.508079 -5.5663455,9.935316 -4.204113,6.7368354 -3.6561087,5.8591027 -3.4407329,5.655249 -1.9221438,4.7659553 c 0.7130534,-0.417567 0.8206896,-1.0024037 0.92492599,-1.5083212 0,0 0.16979223,-2.33360644 0.68965475,-3.34726126 C 1.3104423,-3.2444936 8.3630816,-2.2397055 9.5717345,1.6596014 10.563256,4.8584098 11.29488,10.191932 12.396733,12.34221 Z"
       id="path2247-9"
       sodipodi:nodetypes="cscssssc" />
  </g>
</svg>
