<?xml version="1.0" encoding="UTF-8" standalone="no"?>
<!-- Created with Inkscape (http://www.inkscape.org/) -->

<svg
   version="1.1"
   id="svg2"
   width="15.999995"
   height="16.006794"
   viewBox="0 0 15.999995 16.006794"
   sodipodi:docname="application-x-rpm.svg"
   inkscape:version="1.1.2 (0a00cf5339, 2022-02-04, custom)"
   xmlns:inkscape="http://www.inkscape.org/namespaces/inkscape"
   xmlns:sodipodi="http://sodipodi.sourceforge.net/DTD/sodipodi-0.dtd"
   xmlns="http://www.w3.org/2000/svg"
   xmlns:svg="http://www.w3.org/2000/svg">
  <defs
     id="defs6" />
  <sodipodi:namedview
     id="namedview4"
     pagecolor="#505050"
     bordercolor="#ffffff"
     borderopacity="1"
     inkscape:pageshadow="0"
     inkscape:pageopacity="0"
     inkscape:pagecheckerboard="1"
     showgrid="false"
     inkscape:zoom="2.8284271"
     inkscape:cx="44.017397"
     inkscape:cy="38.714096"
     inkscape:window-width="1440"
     inkscape:window-height="881"
     inkscape:window-x="-4"
     inkscape:window-y="-4"
     inkscape:window-maximized="0"
     inkscape:current-layer="g8"
     inkscape:snap-bbox="true"
     inkscape:snap-bbox-edge-midpoints="false"
     inkscape:snap-bbox-midpoints="true" />
  <g
     inkscape:groupmode="layer"
     inkscape:label="Image"
     id="g8"
     transform="translate(-1.3572129,-0.77321577)">
    <rect
       style="fill:#e33737;fill-opacity:1;stroke:#e33737;stroke-width:2.02227;stroke-linecap:round;stroke-linejoin:round;stroke-miterlimit:4;stroke-dasharray:none;stroke-opacity:1"
       id="rect1002"
       width="13.977725"
       height="13.982758"
       x="2.3683479"
       y="1.7861173"
       ry="1.2967721" />
    <rect
       style="fill:#2f2f2f;fill-opacity:1;stroke:none;stroke-width:16;stroke-linecap:round;stroke-linejoin:round;stroke-miterlimit:4;stroke-dasharray:none;stroke-opacity:1"
       id="rect44223"
       width="4.0987759"
       height="1.7170448"
       x="3.5068436"
       y="4.8091621" />
    <path
       style="fill:#b6b6b6;fill-opacity:1;stroke:none;stroke-width:0.0078125;stroke-linecap:round;stroke-linejoin:round;stroke-miterlimit:4;stroke-dasharray:none;stroke-opacity:1"
       d="m 4.3901304,7.1898414 c -0.1408605,0.03211 -0.2394855,0.170011 -0.2344445,0.312853 -0.01328,0.3313185 -0.020085,0.6631115 -0.0207,0.9946725 0.0086,0.1597545 0.157172,0.2905 0.3163455,0.2822875 0.7443512,0.01111 1.4909338,0.017595 2.2337628,0.02446 0.1625815,-9.1e-5 0.2997685,-0.151115 0.29123,-0.312225 -0.00868,-0.346245 -0.00983,-0.692661 -0.022065,-1.038313 -0.010065,-0.1587535 -0.1636505,-0.2829855 -0.320327,-0.2714115 -0.7306105,0.0012 -1.4614881,-0.00235 -2.1919313,0.00175 -0.01729,0.00195 -0.03458,0.00395 -0.051873,0.00591 z"
       id="path57473" />
    <path
       style="fill:none;stroke:#ffffff;stroke-width:0.961065;stroke-linecap:butt;stroke-linejoin:miter;stroke-miterlimit:4;stroke-dasharray:none;stroke-opacity:1"
       d="m 3.9797574,6.9981974 -0.086028,2.2945295 c -0.098432,2.6253521 3.3124655,2.9160821 3.2743895,0.07625 l -0.031845,-2.375148 z"
       id="path47194"
       sodipodi:nodetypes="csscc" />
    <path
       style="fill:#ffffff;stroke:#ffffff;stroke-width:1px;stroke-linecap:butt;stroke-linejoin:miter;stroke-opacity:1"
       d="M 7.0927092,9.0104874 3.9862569,8.9816774"
       id="path48548" />
    <rect
       style="fill:#ffffff;fill-opacity:1;stroke:none;stroke-width:1;stroke-linecap:round;stroke-linejoin:round;stroke-miterlimit:4;stroke-dasharray:none;stroke-opacity:1"
       id="rect57720"
       width="1.0288445"
       height="1.0288445"
       x="5.5479302"
       y="1.722628" />
    <rect
       style="fill:#ffffff;fill-opacity:1;stroke:none;stroke-width:0.96062;stroke-linecap:round;stroke-linejoin:round;stroke-miterlimit:4;stroke-dasharray:none;stroke-opacity:1"
       id="rect57720-1"
       width="1.0288445"
       height="0.94941217"
       x="4.5190849"
       y="0.77321577" />
    <rect
       style="fill:#ffffff;fill-opacity:1;stroke:none;stroke-width:1;stroke-linecap:round;stroke-linejoin:round;stroke-miterlimit:4;stroke-dasharray:none;stroke-opacity:1"
       id="rect57720-26"
       width="1.0288445"
       height="1.0288445"
       x="4.5190849"
       y="2.7514725" />
    <rect
       style="fill:#ffffff;fill-opacity:1;stroke:none;stroke-width:1;stroke-linecap:round;stroke-linejoin:round;stroke-miterlimit:4;stroke-dasharray:none;stroke-opacity:1"
       id="rect57720-2"
       width="1.0288445"
       height="1.0288445"
       x="5.5479302"
       y="3.7803166" />
    <g
       id="g31171"
       transform="matrix(0.05936831,0.00755696,-0.00755696,0.05936831,8.0466022,11.360726)"
       style="stroke-width:1.00046;stroke-miterlimit:4;stroke-dasharray:none">
      <path
         id="path4"
         style="fill:#ffffff;fill-opacity:1;stroke-width:1.00046;stroke-miterlimit:4;stroke-dasharray:none"
         d="m 71.647558,-128.64435 c -5.24187,0.0585 -8.713431,8.39255 -14.888456,5.06552 -4.740283,-2.03306 -10.658285,-5.87572 -15.474386,-1.82761 -5.329092,5.27663 -6.134591,13.28689 -9.059018,19.92027 -3.03517,5.23009 -2.531867,15.948183 -9.627885,15.920264 -9.030501,0.830601 -20.5092913,2.257683 -24.9087691,11.4384 -4.0054126,10.045322 3.28758572,19.8716 10.3725189,26.402656 17.4174022,15.49309 39.6907722,24.534421 62.1067722,30.016471 18.17025,3.97282 37.783755,5.959208 55.657995,-0.379571 10.72545,-3.639156 19.40886,-14.217385 18.06136,-25.929365 -1.76035,-12.509277 -13.03293,-20.99554 -23.8956,-25.746676 -2.93367,-11.876364 -5.28986,-23.912477 -8.5633,-35.692179 -3.35271,-6.95622 -11.62956,-9.11973 -18.045114,-12.32987 -7.050275,-2.7415 -14.139111,-6.94305 -21.736118,-6.85831 z"
         sodipodi:nodetypes="acccccccccccca" />
      <path
         id="path10"
         style="fill:#1a1a1a;stroke-width:1.00046;stroke-miterlimit:4;stroke-dasharray:none"
         d="m 120.14669,-72.930698 c 1.67668,5.776301 2.32612,12.876163 -2.69421,17.268632 -9.77094,8.566197 -23.872034,7.995722 -36.0327,6.723601 -18.666854,-2.541083 -37.653353,-9.415415 -51.057458,-23.080432 -4.808591,-4.713824 -7.511763,-12.233805 -3.815381,-18.445511 0.694341,-1.146737 2.565912,-7.406064 2.203058,-4.168638 1.690106,6.359567 7.851537,10.254249 12.793465,14.068978 18.047438,12.103048 40.481566,18.400701 62.186016,15.784862 6.84214,-0.789252 15.37997,-4.809013 15.09095,-12.853666 -0.62984,-5.651407 0.58394,1.66147 1.07949,3.54421 0.0823,0.385988 0.16451,0.771976 0.24679,1.157964 z" />
    </g>
    <text
       xml:space="preserve"
       style="font-style:normal;font-weight:normal;font-size:5px;line-height:1.25;font-family:sans-serif;fill:#000000;fill-opacity:1;stroke:none;stroke-width:0.125"
       x="4.0063367"
       y="16.496677"
       id="text24887"><tspan
         sodipodi:role="line"
         id="tspan24885"
         x="4.0063367"
         y="16.496677"
         style="font-style:normal;font-variant:normal;font-weight:bold;font-stretch:normal;font-size:5px;font-family:Comfortaa;-inkscape-font-specification:'Comfortaa, Bold';font-variant-ligatures:normal;font-variant-caps:normal;font-variant-numeric:normal;font-variant-east-asian:normal;fill:#ffffff;stroke-width:0.125">RPM</tspan></text>
    <rect
       style="fill:#000000;fill-opacity:0.22;stroke:none;stroke-width:2.3474;stroke-linecap:round;stroke-linejoin:round;stroke-miterlimit:4;stroke-dasharray:none;stroke-opacity:1"
       id="rect37344-9"
       width="4.0960612"
       height="4.0340233"
       x="3.5095587"
       y="0.77513844" />
  </g>
</svg>
