<?xml version="1.0" encoding="UTF-8" standalone="no"?>
<!-- Created with Inkscape (http://www.inkscape.org/) -->

<svg
   version="1.1"
   id="svg2"
   width="16"
   height="16.005032"
   viewBox="0 0 16 16.005031"
   sodipodi:docname="text-x-script.svg"
   inkscape:version="1.1.2 (0a00cf5339, 2022-02-04, custom)"
   xmlns:inkscape="http://www.inkscape.org/namespaces/inkscape"
   xmlns:sodipodi="http://sodipodi.sourceforge.net/DTD/sodipodi-0.dtd"
   xmlns="http://www.w3.org/2000/svg"
   xmlns:svg="http://www.w3.org/2000/svg">
  <defs
     id="defs6" />
  <sodipodi:namedview
     id="namedview4"
     pagecolor="#505050"
     bordercolor="#ffffff"
     borderopacity="1"
     inkscape:pageshadow="0"
     inkscape:pageopacity="0"
     inkscape:pagecheckerboard="1"
     showgrid="false"
     inkscape:zoom="4"
     inkscape:cx="10.75"
     inkscape:cy="6.125"
     inkscape:window-width="1440"
     inkscape:window-height="881"
     inkscape:window-x="-4"
     inkscape:window-y="-4"
     inkscape:window-maximized="0"
     inkscape:current-layer="g8"
     inkscape:snap-bbox="false"
     inkscape:snap-bbox-edge-midpoints="false"
     inkscape:snap-bbox-midpoints="false"
     inkscape:object-nodes="false"
     inkscape:bbox-nodes="false"
     inkscape:bbox-paths="false"
     inkscape:object-paths="false"
     inkscape:snap-intersection-paths="false"
     inkscape:snap-smooth-nodes="false"
     inkscape:snap-midpoints="false"
     inkscape:snap-page="false" />
  <g
     inkscape:groupmode="layer"
     inkscape:label="Image"
     id="g8"
     transform="translate(-1.3572317,-0.78292465)">
    <rect
       style="fill:#2f2f2f;fill-opacity:1;stroke:#2f2f2f;stroke-width:2.02227;stroke-linecap:round;stroke-linejoin:round;stroke-miterlimit:4;stroke-dasharray:none;stroke-opacity:1"
       id="rect1002"
       width="13.97773"
       height="13.982762"
       x="2.3683667"
       y="1.7940596"
       ry="1.2967726" />
    <path
       id="path9195"
       style="fill:#ffffff;stroke-width:0.118287"
       d="m 8.7962696,14.572067 c 0.7923847,-5.5e-4 1.7255734,0.05401 2.4768364,0.0041 0.368453,0.0053 0.302469,-0.152863 0.317863,-0.283344 V 8.1466283 c 0.0036,-0.1825195 -0.135282,-0.203138 -0.181996,-0.1944865 H 8.7520903 V 5.1132623 h 2.8388787 c 0.6246,0 0.654678,-1.8925858 0,-1.8925858 H 8.7520903 V 1.7400686 c 0,-0.6844477 -1.8925863,-0.5747707 -1.8925863,0 V 3.2206765 H 4.6627313 C 3.8722963,3.209639 4.019902,3.372679 4.0206253,4.1382063 v 5.3844411 c -0.0226,0.3510815 0.153878,0.3231445 0.3373617,0.32208 H 6.859504 V 12.683607 H 4.0206253 c -0.6570759,0 -0.6481483,1.892585 0,1.892585 H 6.859504 v 1.349038 c 0,0.635111 1.8925863,0.639893 1.8925863,0 0.058243,-0.485157 0.026774,-1.051933 0.044179,-1.353163 z m -0.044181,-3.3079 V 9.8447274 h 0.946293 V 12.683607 H 8.7520891 Z M 5.9132103,6.5327021 V 5.1132623 H 6.859503 V 7.9521418 H 5.9132103 Z"
       sodipodi:nodetypes="cccccccsscsscccccccsscsccccccccccccccc" />
    <g
       id="g20082"
       transform="matrix(0.57903936,0,0,0.57903936,18.277024,-28.779869)">
      <rect
         style="fill:#ffffff;fill-opacity:1;stroke:#ffffff;stroke-width:0.413284;stroke-linecap:round;stroke-linejoin:round;stroke-miterlimit:4;stroke-dasharray:none;stroke-opacity:1"
         id="rect1002-9"
         width="2.8565636"
         height="2.8575921"
         x="-8.0725126"
         y="71.813026"
         ry="0.26501539" />
      <rect
         style="fill:#ffffff;fill-opacity:1;stroke:#ffffff;stroke-width:0.413284;stroke-linecap:round;stroke-linejoin:round;stroke-miterlimit:4;stroke-dasharray:none;stroke-opacity:1"
         id="rect1002-9-2"
         width="2.8565636"
         height="14.299333"
         x="-8.0604649"
         y="55.471497"
         ry="0.26501539" />
    </g>
  </g>
</svg>
