<?xml version="1.0" encoding="UTF-8" standalone="no"?>
<!-- Created with Inkscape (http://www.inkscape.org/) -->

<svg
   version="1.1"
   id="svg2"
   width="15.999995"
   height="16.005028"
   viewBox="0 0 15.999995 16.005027"
   sodipodi:docname="video-x-generic.svg"
   inkscape:version="1.1.2 (0a00cf5339, 2022-02-04, custom)"
   xmlns:inkscape="http://www.inkscape.org/namespaces/inkscape"
   xmlns:sodipodi="http://sodipodi.sourceforge.net/DTD/sodipodi-0.dtd"
   xmlns="http://www.w3.org/2000/svg"
   xmlns:svg="http://www.w3.org/2000/svg">
  <defs
     id="defs6" />
  <sodipodi:namedview
     id="namedview4"
     pagecolor="#505050"
     bordercolor="#ffffff"
     borderopacity="1"
     inkscape:pageshadow="0"
     inkscape:pageopacity="0"
     inkscape:pagecheckerboard="1"
     showgrid="false"
     inkscape:zoom="20.48"
     inkscape:cx="8.7890626"
     inkscape:cy="2.2216797"
     inkscape:window-width="1440"
     inkscape:window-height="881"
     inkscape:window-x="-4"
     inkscape:window-y="-4"
     inkscape:window-maximized="0"
     inkscape:current-layer="g8"
     inkscape:snap-bbox="true"
     inkscape:snap-bbox-edge-midpoints="false"
     inkscape:snap-bbox-midpoints="false"
     inkscape:snap-page="false"
     inkscape:snap-others="false"
     inkscape:object-nodes="false" />
  <g
     inkscape:groupmode="layer"
     inkscape:label="Image"
     id="g8"
     transform="translate(-1.357231,-0.77960384)">
    <rect
       style="fill:#1a1a1a;fill-opacity:1;stroke:#1a1a1a;stroke-width:2.02227;stroke-linecap:round;stroke-linejoin:round;stroke-miterlimit:4;stroke-dasharray:none;stroke-opacity:1"
       id="rect1002"
       width="13.977725"
       height="13.982758"
       x="2.368366"
       y="1.7907388"
       ry="1.2967722" />
    <rect
       style="fill:#000000;fill-opacity:1;stroke:#000000;stroke-width:2.02227;stroke-linecap:round;stroke-linejoin:round;stroke-miterlimit:4;stroke-dasharray:none;stroke-opacity:1"
       id="rect1002-8"
       width="13.977724"
       height="2.5872858"
       x="2.368366"
       y="1.7907388"
       ry="0.96835011" />
    <rect
       style="fill:#000000;fill-opacity:1;stroke:none;stroke-width:1.46178;stroke-linecap:round;stroke-linejoin:round;stroke-miterlimit:4;stroke-dasharray:none;stroke-opacity:1"
       id="rect1002-9"
       width="15.986978"
       height="2.2547474"
       x="1.3693707"
       y="3.1290359"
       ry="0" />
    <path
       style="fill:#f9f9f9;stroke-width:0.0331349"
       d="m 3.0739105,5.0205639 c 0.4713918,-0.5653002 0.9420972,-1.1311708 1.4130524,-1.696834 0.6149065,0.00417 1.230305,-0.010538 1.8448177,0.011571 0.1813176,0.024835 -0.1123515,0.2038617 -0.1354054,0.2858847 -0.4405049,0.5309899 -0.8823207,1.0608907 -1.3235964,1.5912396 -0.6530428,0 -1.3060844,0 -1.9591272,0 0.053424,-0.063954 0.1068395,-0.1279074 0.1602589,-0.1918613 z M 3.7307262,2.0309035 C 3.4725415,1.7167268 3.2061392,1.4085035 2.96279,1.0826493 3.0787524,0.99040211 3.3035167,1.0595031 3.4608625,1.0418981 3.8730048,1.0558536 4.2971523,1.0327434 4.6900941,1.1808574 4.9297124,1.2357992 5.1430178,1.370345 5.2975522,1.5611583 5.6737288,1.9965157 6.0375749,2.4431127 6.4039444,2.886418 6.2578274,2.9518505 6.0624729,2.9121666 5.896267,2.9254754 5.423614,2.9266259 4.9509583,2.9259069 4.4783053,2.9261091 4.2291124,2.627707 3.9799187,2.3293049 3.7307262,2.0309035 Z"
       id="path2512"
       sodipodi:nodetypes="sscssscccsssssssscs" />
    <path
       style="fill:#f9f9f9;stroke-width:0.0331349"
       d="M 6.4579284,5.0391195 C 6.9293202,4.4738193 7.4000256,3.9079487 7.8709808,3.3422855 8.4858873,3.3464555 9.1012858,3.3317475 9.7157985,3.3538565 9.8971161,3.3786915 9.603447,3.5577182 9.5803931,3.6397412 9.1398882,4.1707311 8.6980724,4.7006319 8.2567967,5.2309808 c -0.6530428,0 -1.3060844,0 -1.9591272,0 C 6.3510935,5.1670268 6.404509,5.1030734 6.4579284,5.0391195 Z M 7.1147441,2.0494591 c -0.2581847,-0.3141767 -0.524587,-0.6224 -0.7679362,-0.9482542 0.1159624,-0.092247 0.3407267,-0.023146 0.4980725,-0.040751 0.4121423,0.013956 0.8362898,-0.00915 1.2292316,0.1389593 0.2396183,0.054942 0.4529237,0.1894876 0.6074581,0.3803009 0.3761766,0.4353574 0.7400227,0.8819544 1.1063922,1.3252597 -0.146117,0.065433 -0.3414715,0.025749 -0.5076774,0.039057 -0.472653,0.00115 -0.9453087,4.315e-4 -1.4179617,6.337e-4 C 7.6131303,2.6462626 7.3639366,2.3478605 7.1147441,2.0494591 Z"
       id="path2512-6"
       sodipodi:nodetypes="sscssscccsssssssscs" />
    <path
       style="fill:#f9f9f9;stroke-width:0.0331349"
       d="M 9.6926727,5.0486898 C 10.164065,4.4833896 10.63477,3.917519 11.105726,3.3518558 c 0.614906,0.00417 1.230305,-0.010538 1.844817,0.011571 0.181318,0.024835 -0.112351,0.2038617 -0.135405,0.2858847 -0.440505,0.5309899 -0.882321,1.0608907 -1.323596,1.5912396 -0.653043,0 -1.306085,0 -1.9591282,0 0.053424,-0.063954 0.1068395,-0.1279074 0.1602589,-0.1918613 z M 10.349488,2.0590294 c -0.258184,-0.3141767 -0.5245866,-0.6224 -0.7679358,-0.9482542 0.1159624,-0.092247 0.3407267,-0.023146 0.4980728,-0.040751 0.412142,0.013956 0.83629,-0.00915 1.229232,0.1389593 0.239618,0.054942 0.452924,0.1894876 0.607458,0.3803009 0.376177,0.4353574 0.740023,0.8819544 1.106392,1.3252597 -0.146117,0.065433 -0.341471,0.025749 -0.507677,0.039057 -0.472653,0.00115 -0.945309,4.315e-4 -1.417962,6.337e-4 C 10.847875,2.6558331 10.598681,2.357431 10.349488,2.0590294 Z"
       id="path2512-64"
       sodipodi:nodetypes="sscssscccsssssssscs" />
    <path
       style="fill:#f9f9f9;stroke-width:0.0331349"
       d="m 13.018054,5.0309796 c 0.471391,-0.5653002 0.942097,-1.1311708 1.413052,-1.696834 0.614906,0.00417 1.230305,-0.010538 1.844818,0.011571 0.181317,0.024835 -0.112352,0.2038617 -0.135406,0.2858847 -0.440505,0.5309899 -0.882321,1.0608907 -1.323596,1.5912396 -0.653043,0 -1.306085,0 -1.959127,0 0.05342,-0.063954 0.106839,-0.1279074 0.160259,-0.1918613 z m 0.656815,-2.9896603 c -0.258185,-0.3141767 -0.524587,-0.6224 -0.767936,-0.9482542 0.115962,-0.092247 0.340727,-0.023146 0.498072,-0.040751 0.412143,0.013956 0.83629,-0.00915 1.229232,0.1389593 0.239618,0.054942 0.452924,0.1894876 0.607458,0.3803009 0.376177,0.4353574 0.740023,0.8819543 1.106392,1.3252596 -0.146117,0.065433 -0.341471,0.025749 -0.507677,0.039057 -0.472653,0.00115 -0.945309,4.315e-4 -1.417962,6.337e-4 -0.249193,-0.2984019 -0.498386,-0.596804 -0.747579,-0.8952053 z"
       id="path2512-9"
       sodipodi:nodetypes="sscssscccsssssssscs" />
    <g
       id="g6200"
       transform="matrix(0.30450235,0,0,0.30450235,-2.7869253,8.7116662)">
      <path
         style="fill:#e6e6e6;stroke:#e6e6e6;stroke-width:1px;stroke-linecap:butt;stroke-linejoin:miter;stroke-opacity:1"
         d="M 58.671755,19.219373 V 5.5867801 L 50.69869,10.190032 v 4.714348 z"
         id="path5672" />
      <path
         id="path5242"
         style="fill:#cccccc;stroke:#cccccc;stroke-width:0;stroke-linecap:round;stroke-linejoin:round"
         d="m 51.010518,-1.4436094 a 6.9705172,6.9705172 0 0 1 -6.970517,6.9705175 6.9705172,6.9705172 0 0 1 -6.970517,-6.9705175 6.9705172,6.9705172 0 0 1 6.970517,-6.9705172 6.9705172,6.9705172 0 0 1 6.970517,6.9705172 z" />
      <path
         id="path5114"
         style="fill:#b3b3b3;stroke-width:0;stroke-linecap:round;stroke-linejoin:round"
         d="m 35.735744,-0.01232238 a 4.5503802,4.5503802 0 0 1 -4.55038,4.55038018 4.5503802,4.5503802 0 0 1 -4.550381,-4.55038018 4.5503802,4.5503802 0 0 1 4.550381,-4.55038022 4.5503802,4.5503802 0 0 1 4.55038,4.55038022 z" />
      <rect
         style="fill:#ffffff;fill-opacity:1;stroke:#f9f9f9;stroke-width:2.02227;stroke-linecap:round;stroke-linejoin:round;stroke-miterlimit:4;stroke-dasharray:none;stroke-opacity:1"
         id="rect1002-5"
         width="24.503922"
         height="15.420632"
         x="25.747051"
         y="4.886024"
         ry="1.2967722" />
    </g>
  </g>
</svg>
