<?xml version="1.0" encoding="UTF-8" standalone="no"?>
<!-- Created with Inkscape (http://www.inkscape.org/) -->

<svg
   version="1.1"
   id="svg2"
   width="64"
   height="64.024559"
   viewBox="0 0 64 64.024556"
   sodipodi:docname="text-x-script.svg"
   inkscape:version="1.1.2 (0a00cf5339, 2022-02-04, custom)"
   xmlns:inkscape="http://www.inkscape.org/namespaces/inkscape"
   xmlns:sodipodi="http://sodipodi.sourceforge.net/DTD/sodipodi-0.dtd"
   xmlns="http://www.w3.org/2000/svg"
   xmlns:svg="http://www.w3.org/2000/svg">
  <defs
     id="defs6" />
  <sodipodi:namedview
     id="namedview4"
     pagecolor="#505050"
     bordercolor="#ffffff"
     borderopacity="1"
     inkscape:pageshadow="0"
     inkscape:pageopacity="0"
     inkscape:pagecheckerboard="1"
     showgrid="false"
     inkscape:zoom="4"
     inkscape:cx="10.75"
     inkscape:cy="6.125"
     inkscape:window-width="1440"
     inkscape:window-height="881"
     inkscape:window-x="-4"
     inkscape:window-y="-4"
     inkscape:window-maximized="0"
     inkscape:current-layer="g8"
     inkscape:snap-bbox="false"
     inkscape:snap-bbox-edge-midpoints="false"
     inkscape:snap-bbox-midpoints="false"
     inkscape:object-nodes="false"
     inkscape:bbox-nodes="false"
     inkscape:bbox-paths="false"
     inkscape:object-paths="false"
     inkscape:snap-intersection-paths="false"
     inkscape:snap-smooth-nodes="false"
     inkscape:snap-midpoints="false"
     inkscape:snap-page="false" />
  <g
     inkscape:groupmode="layer"
     inkscape:label="Image"
     id="g8"
     transform="translate(-1.3572316,-0.77849746)">
    <rect
       style="fill:#2f2f2f;fill-opacity:1;stroke:#2f2f2f;stroke-width:8.08908;stroke-linecap:round;stroke-linejoin:round;stroke-miterlimit:4;stroke-dasharray:none;stroke-opacity:1"
       id="rect1002"
       width="55.910919"
       height="55.931049"
       x="5.4017715"
       y="4.8274646"
       ry="5.1870904" />
    <path
       id="path9195"
       style="fill:#ffffff;stroke-width:0.473147"
       d="m 31.113383,55.939493 c 3.169539,-0.0022 6.902295,0.216028 9.907347,0.01645 1.473811,0.02108 1.209873,-0.611452 1.271451,-1.133377 V 30.237739 c 0.01459,-0.730078 -0.541127,-0.812552 -0.727985,-0.777946 H 30.936666 V 18.104275 h 11.355515 c 2.498399,0 2.618712,-7.570343 0,-7.570343 H 30.936666 V 4.6115005 c 0,-2.7377907 -7.570345,-2.2990827 -7.570345,0 V 10.533932 H 14.57923 c -3.16174,-0.04415 -2.571317,0.60801 -2.568424,3.670119 v 21.537764 c -0.0904,1.404326 0.615512,1.292578 1.349447,1.28832 H 23.366321 V 48.385652 H 12.010806 c -2.6283035,0 -2.592593,7.570341 0,7.570341 h 11.355515 v 5.396154 c 0,2.540444 7.570345,2.559569 7.570345,0 0.232972,-1.94063 0.107098,-4.207733 0.176722,-5.412654 z m -0.176722,-13.2316 v -5.677758 h 3.78517 v 11.355517 h -3.78517 z M 19.581146,23.782034 v -5.677759 h 3.785171 v 11.355518 h -3.785171 z"
       sodipodi:nodetypes="cccccccsscsscccccccsscsccccccccccccccc" />
    <g
       id="g20082"
       transform="matrix(2.3161574,0,0,2.3161574,69.036399,-117.46825)">
      <rect
         style="fill:#ffffff;fill-opacity:1;stroke:#ffffff;stroke-width:0.413284;stroke-linecap:round;stroke-linejoin:round;stroke-miterlimit:4;stroke-dasharray:none;stroke-opacity:1"
         id="rect1002-9"
         width="2.8565636"
         height="2.8575921"
         x="-8.0725126"
         y="71.813026"
         ry="0.26501539" />
      <rect
         style="fill:#ffffff;fill-opacity:1;stroke:#ffffff;stroke-width:0.413284;stroke-linecap:round;stroke-linejoin:round;stroke-miterlimit:4;stroke-dasharray:none;stroke-opacity:1"
         id="rect1002-9-2"
         width="2.8565636"
         height="14.299333"
         x="-8.0604649"
         y="55.471497"
         ry="0.26501539" />
    </g>
  </g>
</svg>
