<?xml version="1.0" encoding="UTF-8" standalone="no"?>
<!-- Created with Inkscape (http://www.inkscape.org/) -->

<svg
   version="1.1"
   id="svg2"
   width="64"
   height="64.020126"
   viewBox="0 0 64 64.020124"
   sodipodi:docname="video-x-generic.svg"
   inkscape:version="1.1.2 (0a00cf5339, 2022-02-04, custom)"
   xmlns:inkscape="http://www.inkscape.org/namespaces/inkscape"
   xmlns:sodipodi="http://sodipodi.sourceforge.net/DTD/sodipodi-0.dtd"
   xmlns="http://www.w3.org/2000/svg"
   xmlns:svg="http://www.w3.org/2000/svg">
  <defs
     id="defs6" />
  <sodipodi:namedview
     id="namedview4"
     pagecolor="#505050"
     bordercolor="#ffffff"
     borderopacity="1"
     inkscape:pageshadow="0"
     inkscape:pageopacity="0"
     inkscape:pagecheckerboard="1"
     showgrid="false"
     inkscape:zoom="3.6203867"
     inkscape:cx="-32.040776"
     inkscape:cy="22.235194"
     inkscape:window-width="1440"
     inkscape:window-height="881"
     inkscape:window-x="-4"
     inkscape:window-y="-4"
     inkscape:window-maximized="0"
     inkscape:current-layer="g8"
     inkscape:snap-bbox="true"
     inkscape:snap-bbox-edge-midpoints="false"
     inkscape:snap-bbox-midpoints="false"
     inkscape:snap-page="false"
     inkscape:snap-others="false"
     inkscape:object-nodes="false" />
  <g
     inkscape:groupmode="layer"
     inkscape:label="Image"
     id="g8"
     transform="translate(-1.3572316,-0.77960443)">
    <rect
       style="fill:#1a1a1a;fill-opacity:1;stroke:#1a1a1a;stroke-width:8.08908;stroke-linecap:round;stroke-linejoin:round;stroke-miterlimit:4;stroke-dasharray:none;stroke-opacity:1"
       id="rect1002"
       width="55.910919"
       height="55.931049"
       x="5.4017715"
       y="4.8241444"
       ry="5.1870904" />
    <rect
       style="fill:#000000;fill-opacity:1;stroke:#000000;stroke-width:8.08908;stroke-linecap:round;stroke-linejoin:round;stroke-miterlimit:4;stroke-dasharray:none;stroke-opacity:1"
       id="rect1002-8"
       width="55.910915"
       height="10.349146"
       x="5.4017715"
       y="4.8241444"
       ry="3.8734016" />
    <rect
       style="fill:#000000;fill-opacity:1;stroke:none;stroke-width:5.84712;stroke-linecap:round;stroke-linejoin:round;stroke-miterlimit:4;stroke-dasharray:none;stroke-opacity:1"
       id="rect1002-9"
       width="63.947929"
       height="9.0189924"
       x="1.4057891"
       y="10.177336"
       ry="0" />
    <path
       style="fill:#f9f9f9;stroke-width:0.13254"
       d="m 8.2239509,17.743449 c 1.8855671,-2.261201 3.7683901,-4.524685 5.6522111,-6.787338 2.459627,0.01668 4.921223,-0.04215 7.379273,0.04628 0.725272,0.09934 -0.449406,0.815447 -0.541622,1.143539 -1.76202,2.12396 -3.529283,4.243564 -5.294387,6.36496 -2.612172,0 -5.224339,0 -7.8365109,0 0.213696,-0.255816 0.427358,-0.511629 0.6410358,-0.767445 z M 10.851214,5.7848036 C 9.8184753,4.5280962 8.7528657,3.2952028 7.7794687,1.9917856 c 0.4638498,-0.368989 1.3629072,-0.092585 1.9922906,-0.163005 1.6485697,0.055822 3.3451597,-0.036618 4.9169277,0.5558374 0.958474,0.2197672 1.811695,0.7579506 2.429833,1.5212042 1.504707,1.7414302 2.960093,3.5278189 4.425571,5.3010407 -0.584468,0.26173 -1.365886,0.102994 -2.03071,0.15623 -1.890613,0.0046 -3.781237,0.00173 -5.671849,0.00254 C 12.84476,8.1720185 11.847985,6.9784097 10.851214,5.7848036 Z"
       id="path2512"
       sodipodi:nodetypes="sscssscccsssssssscs" />
    <path
       style="fill:#f9f9f9;stroke-width:0.13254"
       d="m 21.760027,17.817671 c 1.885568,-2.261201 3.76839,-4.524684 5.652214,-6.787338 2.459626,0.01668 4.92122,-0.04215 7.379272,0.04628 0.725272,0.09934 -0.449406,0.815447 -0.541622,1.14354 -1.76202,2.12396 -3.529284,4.243564 -5.294386,6.364961 -2.612174,0 -5.224342,0 -7.836514,0 0.213696,-0.255817 0.427358,-0.511631 0.641036,-0.767447 z M 24.387291,5.8590262 c -1.03274,-1.2567074 -2.09835,-2.489601 -3.071746,-3.7930182 0.46385,-0.3689882 1.362908,-0.092584 1.99229,-0.163004 1.64857,0.055824 3.34516,-0.0366 4.91693,0.5558374 0.958474,0.2197682 1.811696,0.7579506 2.429834,1.5212042 1.504706,1.7414302 2.960092,3.5278189 4.42557,5.3010407 -0.584468,0.261732 -1.365886,0.102996 -2.03071,0.156228 -1.890614,0.0046 -3.781236,0.00173 -5.67185,0.00254 -0.996774,-1.193608 -1.993548,-2.3872168 -2.990318,-3.5808227 z"
       id="path2512-6"
       sodipodi:nodetypes="sscssscccsssssssscs" />
    <path
       style="fill:#f9f9f9;stroke-width:0.13254"
       d="m 34.699011,17.855953 c 1.885568,-2.261202 3.76839,-4.524685 5.652214,-6.787338 2.459624,0.01668 4.921222,-0.04215 7.37927,0.04628 0.725272,0.09934 -0.449404,0.815447 -0.54162,1.143539 -1.76202,2.12396 -3.529284,4.243564 -5.294386,6.364961 -2.612172,0 -5.22434,0 -7.836514,0 0.213696,-0.255817 0.427358,-0.511631 0.641036,-0.767446 z M 37.326273,5.8973074 C 36.293535,4.6406 35.227925,3.4077064 34.254529,2.1042892 c 0.463848,-0.3689882 1.362906,-0.092584 1.99229,-0.163004 1.64857,0.055824 3.345162,-0.0366 4.91693,0.5558374 0.958472,0.2197682 1.811696,0.7579506 2.429834,1.5212042 1.504708,1.7414302 2.960092,3.5278189 4.425568,5.3010407 -0.584468,0.261732 -1.365884,0.102996 -2.030708,0.156228 -1.890612,0.0046 -3.781238,0.00173 -5.67185,0.00254 -0.996772,-1.1936072 -1.993548,-2.387216 -2.99032,-3.5808227 z"
       id="path2512-64"
       sodipodi:nodetypes="sscssscccsssssssscs" />
    <path
       style="fill:#f9f9f9;stroke-width:0.13254"
       d="m 48.000539,17.785112 c 1.885566,-2.261202 3.76839,-4.524685 5.65221,-6.787338 2.459626,0.01668 4.921222,-0.04215 7.379274,0.04628 0.725268,0.09934 -0.449408,0.815447 -0.541624,1.143539 -1.76202,2.12396 -3.529284,4.243564 -5.294386,6.36496 -2.612172,0 -5.22434,0 -7.83651,0 0.21368,-0.255816 0.427356,-0.511629 0.641036,-0.767445 z M 50.627801,5.826467 c -1.03274,-1.2567074 -2.09835,-2.489601 -3.071746,-3.7930182 0.463848,-0.3689882 1.362908,-0.092584 1.99229,-0.163004 1.648572,0.055824 3.34516,-0.0366 4.916928,0.5558374 0.958472,0.2197682 1.811698,0.7579506 2.429834,1.5212042 1.504708,1.7414302 2.960092,3.5278185 4.425568,5.3010403 -0.584468,0.261732 -1.365884,0.102996 -2.030708,0.156228 -1.890612,0.0046 -3.781238,0.00173 -5.67185,0.00254 -0.996772,-1.193608 -1.993544,-2.3872168 -2.990316,-3.5808223 z"
       id="path2512-9"
       sodipodi:nodetypes="sscssscccsssssssscs" />
    <g
       id="g6200"
       transform="matrix(1.2180098,0,0,1.2180098,-15.2194,32.507864)">
      <path
         style="fill:#e6e6e6;stroke:#e6e6e6;stroke-width:1px;stroke-linecap:butt;stroke-linejoin:miter;stroke-opacity:1"
         d="M 58.671755,19.219373 V 5.5867801 L 50.69869,10.190032 v 4.714348 z"
         id="path5672" />
      <path
         id="path5242"
         style="fill:#cccccc;stroke:#cccccc;stroke-width:0;stroke-linecap:round;stroke-linejoin:round"
         d="m 51.010518,-1.4436094 a 6.9705172,6.9705172 0 0 1 -6.970517,6.9705175 6.9705172,6.9705172 0 0 1 -6.970517,-6.9705175 6.9705172,6.9705172 0 0 1 6.970517,-6.9705172 6.9705172,6.9705172 0 0 1 6.970517,6.9705172 z" />
      <path
         id="path5114"
         style="fill:#b3b3b3;stroke-width:0;stroke-linecap:round;stroke-linejoin:round"
         d="m 35.735744,-0.01232238 a 4.5503802,4.5503802 0 0 1 -4.55038,4.55038018 4.5503802,4.5503802 0 0 1 -4.550381,-4.55038018 4.5503802,4.5503802 0 0 1 4.550381,-4.55038022 4.5503802,4.5503802 0 0 1 4.55038,4.55038022 z" />
      <rect
         style="fill:#ffffff;fill-opacity:1;stroke:#f9f9f9;stroke-width:2.02227;stroke-linecap:round;stroke-linejoin:round;stroke-miterlimit:4;stroke-dasharray:none;stroke-opacity:1"
         id="rect1002-5"
         width="24.503922"
         height="15.420632"
         x="25.747051"
         y="4.886024"
         ry="1.2967722" />
    </g>
  </g>
</svg>
