<?xml version="1.0" encoding="UTF-8" standalone="no"?>
<!-- Created with Inkscape (http://www.inkscape.org/) -->

<svg
   version="1.1"
   id="svg2"
   width="32"
   height="32.013592"
   viewBox="0 0 32 32.013591"
   sodipodi:docname="application-x-rpm.svg"
   inkscape:version="1.1.2 (0a00cf5339, 2022-02-04, custom)"
   xmlns:inkscape="http://www.inkscape.org/namespaces/inkscape"
   xmlns:sodipodi="http://sodipodi.sourceforge.net/DTD/sodipodi-0.dtd"
   xmlns="http://www.w3.org/2000/svg"
   xmlns:svg="http://www.w3.org/2000/svg">
  <defs
     id="defs6" />
  <sodipodi:namedview
     id="namedview4"
     pagecolor="#505050"
     bordercolor="#ffffff"
     borderopacity="1"
     inkscape:pageshadow="0"
     inkscape:pageopacity="0"
     inkscape:pagecheckerboard="1"
     showgrid="false"
     inkscape:zoom="2.8284271"
     inkscape:cx="44.017397"
     inkscape:cy="38.714096"
     inkscape:window-width="1440"
     inkscape:window-height="881"
     inkscape:window-x="-4"
     inkscape:window-y="-4"
     inkscape:window-maximized="0"
     inkscape:current-layer="g8"
     inkscape:snap-bbox="true"
     inkscape:snap-bbox-edge-midpoints="false"
     inkscape:snap-bbox-midpoints="true" />
  <g
     inkscape:groupmode="layer"
     inkscape:label="Image"
     id="g8"
     transform="translate(-1.3572104,-0.77321577)">
    <rect
       style="fill:#e33737;fill-opacity:1;stroke:#e33737;stroke-width:4.04455;stroke-linecap:round;stroke-linejoin:round;stroke-miterlimit:4;stroke-dasharray:none;stroke-opacity:1"
       id="rect1002"
       width="27.95545"
       height="27.965515"
       x="3.3794854"
       y="2.7990189"
       ry="2.5935442" />
    <rect
       style="fill:#2f2f2f;fill-opacity:1;stroke:none;stroke-width:32;stroke-linecap:round;stroke-linejoin:round;stroke-miterlimit:4;stroke-dasharray:none;stroke-opacity:1"
       id="rect44223"
       width="8.1975517"
       height="3.4340897"
       x="5.6564765"
       y="8.845108" />
    <path
       style="fill:#b6b6b6;fill-opacity:1;stroke:none;stroke-width:0.015625;stroke-linecap:round;stroke-linejoin:round;stroke-miterlimit:4;stroke-dasharray:none;stroke-opacity:1"
       d="m 7.4230505,13.606467 c -0.281721,0.06422 -0.478971,0.340022 -0.468889,0.625706 -0.02656,0.662637 -0.04017,1.326223 -0.0414,1.989345 0.0172,0.319509 0.314344,0.581 0.6326909,0.564575 1.4887025,0.02222 2.9818676,0.03519 4.4675256,0.04892 0.325163,-1.82e-4 0.599537,-0.30223 0.58246,-0.62445 -0.01736,-0.69249 -0.01966,-1.385322 -0.04413,-2.076626 -0.02013,-0.317507 -0.327301,-0.565971 -0.640654,-0.542823 -1.461221,0.0024 -2.9229761,-0.0047 -4.3838625,0.0035 -0.03458,0.0039 -0.06916,0.0079 -0.103746,0.01182 z"
       id="path57473" />
    <path
       style="fill:none;stroke:#ffffff;stroke-width:1.92213;stroke-linecap:butt;stroke-linejoin:miter;stroke-miterlimit:4;stroke-dasharray:none;stroke-opacity:1"
       d="M 6.6023045,13.223179 6.430248,17.812238 c -0.1968635,5.250704 6.624931,5.832165 6.548779,0.1525 l -0.06369,-4.750296 z"
       id="path47194"
       sodipodi:nodetypes="csscc" />
    <path
       style="fill:#ffffff;stroke:#ffffff;stroke-width:2px;stroke-linecap:butt;stroke-linejoin:miter;stroke-opacity:1"
       d="M 12.828208,17.247759 6.6153035,17.190139"
       id="path48548" />
    <rect
       style="fill:#ffffff;fill-opacity:1;stroke:none;stroke-width:2;stroke-linecap:round;stroke-linejoin:round;stroke-miterlimit:4;stroke-dasharray:none;stroke-opacity:1"
       id="rect57720"
       width="2.057689"
       height="2.057689"
       x="9.7386503"
       y="2.6720402" />
    <rect
       style="fill:#ffffff;fill-opacity:1;stroke:none;stroke-width:1.92124;stroke-linecap:round;stroke-linejoin:round;stroke-miterlimit:4;stroke-dasharray:none;stroke-opacity:1"
       id="rect57720-1"
       width="2.057689"
       height="1.8988243"
       x="7.6809597"
       y="0.77321577" />
    <rect
       style="fill:#ffffff;fill-opacity:1;stroke:none;stroke-width:2;stroke-linecap:round;stroke-linejoin:round;stroke-miterlimit:4;stroke-dasharray:none;stroke-opacity:1"
       id="rect57720-26"
       width="2.057689"
       height="2.057689"
       x="7.6809597"
       y="4.7297292" />
    <rect
       style="fill:#ffffff;fill-opacity:1;stroke:none;stroke-width:2;stroke-linecap:round;stroke-linejoin:round;stroke-miterlimit:4;stroke-dasharray:none;stroke-opacity:1"
       id="rect57720-2"
       width="2.057689"
       height="2.057689"
       x="9.7386503"
       y="6.7874174" />
    <g
       id="g31171"
       transform="matrix(0.11873662,0.01511391,-0.01511391,0.11873662,14.735994,21.948236)"
       style="stroke-width:1.00046;stroke-miterlimit:4;stroke-dasharray:none">
      <path
         id="path4"
         style="fill:#ffffff;fill-opacity:1;stroke-width:1.00046;stroke-miterlimit:4;stroke-dasharray:none"
         d="m 71.647558,-128.64435 c -5.24187,0.0585 -8.713431,8.39255 -14.888456,5.06552 -4.740283,-2.03306 -10.658285,-5.87572 -15.474386,-1.82761 -5.329092,5.27663 -6.134591,13.28689 -9.059018,19.92027 -3.03517,5.23009 -2.531867,15.948183 -9.627885,15.920264 -9.030501,0.830601 -20.5092913,2.257683 -24.9087691,11.4384 -4.0054126,10.045322 3.28758572,19.8716 10.3725189,26.402656 17.4174022,15.49309 39.6907722,24.534421 62.1067722,30.016471 18.17025,3.97282 37.783755,5.959208 55.657995,-0.379571 10.72545,-3.639156 19.40886,-14.217385 18.06136,-25.929365 -1.76035,-12.509277 -13.03293,-20.99554 -23.8956,-25.746676 -2.93367,-11.876364 -5.28986,-23.912477 -8.5633,-35.692179 -3.35271,-6.95622 -11.62956,-9.11973 -18.045114,-12.32987 -7.050275,-2.7415 -14.139111,-6.94305 -21.736118,-6.85831 z"
         sodipodi:nodetypes="acccccccccccca" />
      <path
         id="path10"
         style="fill:#1a1a1a;stroke-width:1.00046;stroke-miterlimit:4;stroke-dasharray:none"
         d="m 120.14669,-72.930698 c 1.67668,5.776301 2.32612,12.876163 -2.69421,17.268632 -9.77094,8.566197 -23.872034,7.995722 -36.0327,6.723601 -18.666854,-2.541083 -37.653353,-9.415415 -51.057458,-23.080432 -4.808591,-4.713824 -7.511763,-12.233805 -3.815381,-18.445511 0.694341,-1.146737 2.565912,-7.406064 2.203058,-4.168638 1.690106,6.359567 7.851537,10.254249 12.793465,14.068978 18.047438,12.103048 40.481566,18.400701 62.186016,15.784862 6.84214,-0.789252 15.37997,-4.809013 15.09095,-12.853666 -0.62984,-5.651407 0.58394,1.66147 1.07949,3.54421 0.0823,0.385988 0.16451,0.771976 0.24679,1.157964 z" />
    </g>
    <text
       xml:space="preserve"
       style="font-style:normal;font-weight:normal;font-size:10px;line-height:1.25;font-family:sans-serif;fill:#000000;fill-opacity:1;stroke:none;stroke-width:0.25"
       x="6.6554627"
       y="32.220139"
       id="text24887"><tspan
         sodipodi:role="line"
         id="tspan24885"
         x="6.6554627"
         y="32.220139"
         style="font-style:normal;font-variant:normal;font-weight:bold;font-stretch:normal;font-size:10px;font-family:Comfortaa;-inkscape-font-specification:'Comfortaa, Bold';font-variant-ligatures:normal;font-variant-caps:normal;font-variant-numeric:normal;font-variant-east-asian:normal;fill:#ffffff;stroke-width:0.25">RPM</tspan></text>
    <rect
       style="fill:#000000;fill-opacity:0.22;stroke:none;stroke-width:4.6948;stroke-linecap:round;stroke-linejoin:round;stroke-miterlimit:4;stroke-dasharray:none;stroke-opacity:1"
       id="rect37344-9"
       width="8.1921225"
       height="8.0680466"
       x="5.6619067"
       y="0.7770611" />
  </g>
</svg>
