<?xml version="1.0" encoding="UTF-8" standalone="no"?>
<!-- Created with Inkscape (http://www.inkscape.org/) -->

<svg
   version="1.1"
   id="svg2"
   width="64"
   height="64.027191"
   viewBox="0 0 64 64.02719"
   sodipodi:docname="application-x-jar.svg"
   inkscape:version="1.1.2 (0a00cf5339, 2022-02-04, custom)"
   xmlns:inkscape="http://www.inkscape.org/namespaces/inkscape"
   xmlns:sodipodi="http://sodipodi.sourceforge.net/DTD/sodipodi-0.dtd"
   xmlns="http://www.w3.org/2000/svg"
   xmlns:svg="http://www.w3.org/2000/svg">
  <defs
     id="defs6" />
  <sodipodi:namedview
     id="namedview4"
     pagecolor="#505050"
     bordercolor="#ffffff"
     borderopacity="1"
     inkscape:pageshadow="0"
     inkscape:pageopacity="0"
     inkscape:pagecheckerboard="1"
     showgrid="false"
     inkscape:zoom="5.6568542"
     inkscape:cx="28.37266"
     inkscape:cy="44.989669"
     inkscape:window-width="1440"
     inkscape:window-height="881"
     inkscape:window-x="-4"
     inkscape:window-y="-4"
     inkscape:window-maximized="0"
     inkscape:current-layer="g8"
     inkscape:snap-bbox="true"
     inkscape:snap-bbox-edge-midpoints="false"
     inkscape:snap-bbox-midpoints="true" />
  <g
     inkscape:groupmode="layer"
     inkscape:label="Image"
     id="g8"
     transform="translate(-1.3572106,-0.77321577)">
    <rect
       style="fill:#e33737;fill-opacity:1;stroke:#e33737;stroke-width:8.0891;stroke-linecap:round;stroke-linejoin:round;stroke-miterlimit:4;stroke-dasharray:none;stroke-opacity:1"
       id="rect1002"
       width="55.910904"
       height="55.931034"
       x="5.4017606"
       y="4.8248224"
       ry="5.187089" />
    <rect
       style="fill:#2f2f2f;fill-opacity:1;stroke:none;stroke-width:64;stroke-linecap:round;stroke-linejoin:round;stroke-miterlimit:4;stroke-dasharray:none;stroke-opacity:1"
       id="rect44223"
       width="16.395105"
       height="6.8681798"
       x="9.9557428"
       y="16.917002" />
    <path
       style="fill:#b6b6b6;fill-opacity:1;stroke:none;stroke-width:0.03125;stroke-linecap:round;stroke-linejoin:round;stroke-miterlimit:4;stroke-dasharray:none;stroke-opacity:1"
       d="m 13.488891,26.43972 c -0.563442,0.12844 -0.957942,0.680044 -0.937778,1.251411 -0.05312,1.325274 -0.08034,2.652446 -0.0828,3.978691 0.0344,0.639018 0.628688,1.162 1.265382,1.12915 2.977405,0.04444 5.963736,0.07038 8.935051,0.09784 0.650326,-3.64e-4 1.199074,-0.60446 1.16492,-1.2489 -0.03472,-1.384981 -0.03932,-2.770645 -0.08826,-4.153253 -0.04026,-0.635013 -0.654602,-1.131941 -1.281308,-1.085645 -2.922441,0.0048 -5.845952,-0.0094 -8.767725,0.007 -0.06916,0.0078 -0.13832,0.0158 -0.207492,0.02364 z"
       id="path57473" />
    <path
       style="fill:none;stroke:#ffffff;stroke-width:3.84426;stroke-linecap:butt;stroke-linejoin:miter;stroke-miterlimit:4;stroke-dasharray:none;stroke-opacity:1"
       d="m 11.847399,25.673144 -0.344113,9.178119 c -0.393727,10.501408 13.249863,11.664329 13.097559,0.305 L 24.473462,25.65567 Z"
       id="path47194"
       sodipodi:nodetypes="csscc" />
    <path
       style="fill:#ffffff;stroke:#ffffff;stroke-width:4px;stroke-linecap:butt;stroke-linejoin:miter;stroke-opacity:1"
       d="M 24.299206,33.722304 11.873397,33.607064"
       id="path48548" />
    <rect
       style="fill:#ffffff;fill-opacity:1;stroke:none;stroke-width:4;stroke-linecap:round;stroke-linejoin:round;stroke-miterlimit:4;stroke-dasharray:none;stroke-opacity:1"
       id="rect57720"
       width="4.1153784"
       height="4.1153784"
       x="18.12009"
       y="4.5708647" />
    <rect
       style="fill:#ffffff;fill-opacity:1;stroke:none;stroke-width:3.84248;stroke-linecap:round;stroke-linejoin:round;stroke-miterlimit:4;stroke-dasharray:none;stroke-opacity:1"
       id="rect57720-1"
       width="4.1153784"
       height="3.7976489"
       x="14.004709"
       y="0.77321577" />
    <rect
       style="fill:#ffffff;fill-opacity:1;stroke:none;stroke-width:4;stroke-linecap:round;stroke-linejoin:round;stroke-miterlimit:4;stroke-dasharray:none;stroke-opacity:1"
       id="rect57720-26"
       width="4.1153784"
       height="4.1153784"
       x="14.004709"
       y="8.6862431" />
    <rect
       style="fill:#ffffff;fill-opacity:1;stroke:none;stroke-width:4;stroke-linecap:round;stroke-linejoin:round;stroke-miterlimit:4;stroke-dasharray:none;stroke-opacity:1"
       id="rect57720-2"
       width="4.1153784"
       height="4.1153784"
       x="18.12009"
       y="12.80162" />
    <g
       aria-label="JAR"
       id="text24887"
       style="font-size:20px;line-height:1.25;stroke-width:0.5">
      <path
         d="m 17.653715,63.867065 q -1.4,0 -2.5,-0.6 -1.08,-0.62 -1.7,-1.7 -0.6,-1.1 -0.6,-2.5 0,-0.46 0.3,-0.74 0.3,-0.3 0.74,-0.3 0.46,0 0.74,0.3 0.3,0.28 0.3,0.74 0,1.28 0.76,2.1 0.76,0.82 1.96,0.82 1.2,0 1.96,-0.82 0.78,-0.82 0.78,-2.1 v -9.98 q 0,-0.46 0.28,-0.74 0.3,-0.3 0.74,-0.3 0.46,0 0.76,0.3 0.3,0.28 0.3,0.74 v 9.98 q 0,1.4 -0.62,2.5 -0.62,1.08 -1.72,1.7 -1.08,0.6 -2.48,0.6 z"
         style="font-weight:bold;font-family:Comfortaa;-inkscape-font-specification:'Comfortaa, Bold';fill:#ffffff"
         id="path15386" />
      <path
         d="m 37.553691,62.207065 q 0.1,0.26 0.1,0.44 0,0.42 -0.3,0.72 -0.3,0.3 -0.74,0.3 -0.3,0 -0.58,-0.16 -0.26,-0.18 -0.38,-0.48 l -1.12,-2.8 h -7.18 l -1.14,2.8 q -0.14,0.3 -0.4,0.48 -0.26,0.16 -0.56,0.16 -0.44,0 -0.74,-0.3 -0.28,-0.32 -0.28,-0.74 0,-0.2 0.1,-0.46 l 5.62,-13.42 q 0.3,-0.7 0.98,-0.7 0.72,0 0.98,0.7 z m -9.5,-3.7 h 5.78 l -2.86,-7.12 z"
         style="font-weight:bold;font-family:Comfortaa;-inkscape-font-specification:'Comfortaa, Bold';fill:#ffffff"
         id="path15388" />
      <path
         d="m 50.073673,62.067065 q 0.2,0.32 0.2,0.66 0,0.4 -0.28,0.68 -0.26,0.26 -0.72,0.26 -0.58,0 -0.9,-0.5 l -3.44,-5.52 h -0.36 -2.56 v 4.98 q 0,0.44 -0.3,0.74 -0.28,0.3 -0.74,0.3 -0.44,0 -0.74,-0.3 -0.3,-0.3 -0.3,-0.74 v -13.54 q 0,-0.46 0.3,-0.74 0.3,-0.3 0.74,-0.3 h 3.6 q 1.48,0 2.64,0.62 1.18,0.62 1.82,1.74 0.66,1.12 0.66,2.56 0,1.42 -0.72,2.52 -0.72,1.1 -1.96,1.66 z m -5.5,-6.34 q 1.36,0 2.24,-0.76 0.88,-0.78 0.88,-2 0,-1.32 -0.88,-2.16 -0.88,-0.84 -2.24,-0.84 h -2.56 v 5.76 z"
         style="font-weight:bold;font-family:Comfortaa;-inkscape-font-specification:'Comfortaa, Bold';fill:#ffffff"
         id="path15390" />
    </g>
    <rect
       style="fill:#000000;fill-opacity:0.22;stroke:none;stroke-width:9.3896;stroke-linecap:round;stroke-linejoin:round;stroke-miterlimit:4;stroke-dasharray:none;stroke-opacity:1"
       id="rect37344-9"
       width="16.384247"
       height="16.136095"
       x="9.9666033"
       y="0.78090644" />
    <path
       d="m 40.990352,33.742231 c 0,0 -1.506697,0.876197 1.072265,1.172691 3.12434,0.356429 4.721154,0.305313 8.164196,-0.346335 0,0 0.905213,0.567589 2.169395,1.059193 -7.718391,3.307975 -17.468244,-0.191605 -11.405856,-1.885549"
       fill="#5382a1"
       id="path2"
       style="fill:#ffffff;stroke-width:0.114;stroke:#ffffff;stroke-opacity:1;stroke-miterlimit:4;stroke-dasharray:none;stroke-linejoin:round;stroke-linecap:round" />
    <path
       d="m 40.047205,29.425542 c 0,0 -1.689907,1.250904 0.890969,1.517854 3.337517,0.344316 5.973227,0.372477 10.534019,-0.505739 0,0 0.630818,0.639533 1.622741,0.989268 -9.331996,2.728803 -19.726165,0.215198 -13.047729,-2.001383"
       fill="#5382a1"
       id="path4-3"
       style="fill:#ffffff;stroke-width:0.114;stroke:#ffffff;stroke-opacity:1;stroke-miterlimit:4;stroke-dasharray:none;stroke-linejoin:round;stroke-linecap:round" />
    <path
       d="m 47.998225,22.103002 c 1.901809,2.18959 -0.499682,4.159942 -0.499682,4.159942 0,0 4.829016,-2.492883 2.611268,-5.614567 -2.071309,-2.911161 -3.659729,-4.357603 4.939326,-9.344751 0,0 -13.497679,3.371099 -7.050912,10.799376"
       fill="#e76f00"
       id="path6"
       style="fill:#ffffff;stroke-width:0.114;stroke:#ffffff;stroke-opacity:1;stroke-miterlimit:4;stroke-dasharray:none;stroke-linejoin:round;stroke-linecap:round" />
    <path
       d="m 58.206417,36.935115 c 0,0 1.114989,0.918705 -1.227947,1.62944 -4.455158,1.349629 -18.542851,1.757175 -22.456352,0.05377 -1.406803,-0.612009 1.231352,-1.46132 2.061214,-1.639535 0.865464,-0.187673 1.360045,-0.152709 1.360045,-0.152709 -1.564508,-1.102127 -10.112341,2.164083 -4.341876,3.099472 15.736896,2.552076 28.686856,-1.149204 24.604916,-2.990439"
       fill="#5382a1"
       id="path8"
       style="fill:#ffffff;stroke-width:0.114;stroke:#ffffff;stroke-opacity:1;stroke-miterlimit:4;stroke-dasharray:none;stroke-linejoin:round;stroke-linecap:round" />
    <path
       d="m 41.714901,24.952952 c 0,0 -7.165896,1.702022 -2.537623,2.320089 1.954201,0.261637 5.849848,0.202444 9.478546,-0.101595 2.965571,-0.250159 5.943371,-0.782041 5.943371,-0.782041 0,0 -1.045703,0.447822 -1.802238,0.964401 -7.276843,1.913817 -21.334354,1.023487 -17.287377,-0.934114 3.422534,-1.654412 6.205321,-1.46674 6.205321,-1.46674"
       fill="#5382a1"
       id="path10-6"
       style="fill:#ffffff;stroke-width:0.114;stroke:#ffffff;stroke-opacity:1;stroke-miterlimit:4;stroke-dasharray:none;stroke-linejoin:round;stroke-linecap:round" />
    <path
       d="m 54.569649,32.138297 c 7.397247,-3.843894 3.977048,-7.537842 1.589794,-7.040179 -0.585121,0.121786 -0.846009,0.227311 -0.846009,0.227311 0,0 0.217214,-0.340277 0.632091,-0.487567 4.722751,-1.660363 8.354845,4.897031 -1.524546,7.494166 0,1.05e-4 0.11445,-0.102233 0.14867,-0.193731"
       fill="#5382a1"
       id="path12"
       style="fill:#ffffff;stroke-width:0.114;stroke:#ffffff;stroke-opacity:1;stroke-miterlimit:4;stroke-dasharray:none;stroke-linejoin:round;stroke-linecap:round" />
    <path
       d="m 50.109811,3.2506931 c 0,0 4.09671,4.0980927 -3.885552,10.3998009 -6.400965,5.055055 -1.459619,7.937311 -0.0027,11.230408 -3.736347,-3.371099 -6.478327,-6.338691 -4.638792,-9.100649 2.700004,-4.05431 10.179931,-6.0199873 8.527003,-12.5295599"
       fill="#e76f00"
       id="path14"
       style="fill:#ffffff;stroke-width:0.114;stroke:#ffffff;stroke-opacity:1;stroke-miterlimit:4;stroke-dasharray:none;stroke-linejoin:round;stroke-linecap:round" />
    <path
       d="m 42.441788,42.554358 c 7.100435,0.454516 18.003955,-0.252179 18.262191,-3.611907 0,0 -0.496388,1.273646 -5.868123,2.285125 -6.060371,1.140489 -13.534983,1.007333 -17.968251,0.276408 1.06e-4,-1.06e-4 0.907547,0.751117 5.574183,1.050374"
       fill="#5382a1"
       id="path16"
       style="fill:#ffffff;stroke-width:0.114;stroke:#ffffff;stroke-opacity:1;stroke-miterlimit:4;stroke-dasharray:none;stroke-linejoin:round;stroke-linecap:round" />
  </g>
</svg>
