<?xml version="1.0" encoding="UTF-8" standalone="no"?>
<!-- Created with Inkscape (http://www.inkscape.org/) -->

<svg
   width="64.000031"
   version="1.1"
   height="64.000084"
   id="svg71"
   sodipodi:docname="application-x-executable.svg"
   inkscape:version="1.1.2 (0a00cf5339, 2022-02-04, custom)"
   xmlns:inkscape="http://www.inkscape.org/namespaces/inkscape"
   xmlns:sodipodi="http://sodipodi.sourceforge.net/DTD/sodipodi-0.dtd"
   xmlns="http://www.w3.org/2000/svg"
   xmlns:svg="http://www.w3.org/2000/svg">
  <sodipodi:namedview
     id="namedview73"
     pagecolor="#505050"
     bordercolor="#ffffff"
     borderopacity="1"
     inkscape:pageshadow="0"
     inkscape:pageopacity="0"
     inkscape:pagecheckerboard="1"
     showgrid="false"
     inkscape:snap-object-midpoints="true"
     inkscape:snap-bbox="true"
     inkscape:snap-bbox-edge-midpoints="false"
     inkscape:zoom="8.0000003"
     inkscape:cx="24.374999"
     inkscape:cy="28.687499"
     inkscape:window-width="1440"
     inkscape:window-height="881"
     inkscape:window-x="-4"
     inkscape:window-y="-4"
     inkscape:window-maximized="1"
     inkscape:current-layer="layer1" />
  <defs
     id="defs5455" />
  <metadata
     id="metadata5458" />
  <g
     inkscape:label="Capa 1"
     inkscape:groupmode="layer"
     id="layer1"
     transform="translate(-394.85794,-504.19752)">
    <path
       style="fill:#2f2f2f;fill-opacity:1;stroke:#ffffff;stroke-width:0.999474;stroke-linecap:round;stroke-linejoin:round;stroke-miterlimit:4;stroke-dasharray:none;stroke-opacity:1;paint-order:normal"
       d="m 446.01884,561.3474 c -0.38496,0.11905 -0.63969,0.0307 -1.98509,-0.67979 -0.60796,-0.32166 -1.29127,-0.67764 -1.51843,-0.79126 -0.22717,-0.1136 -1.06352,-0.54479 -1.85854,-0.95814 -1.94179,-1.00954 -1.80177,-0.95991 -2.15889,-0.76446 -0.76624,0.41943 -2.49377,1.16041 -3.54433,1.52029 -1.1386,0.38998 -1.15415,0.39824 -1.21517,0.64506 -0.0341,0.13746 -0.34451,1.1332 -0.68999,2.21263 -0.34556,1.07942 -0.82375,2.5834 -1.06271,3.34209 -0.23877,0.75873 -0.49008,1.43525 -0.55809,1.50343 -0.0683,0.0683 -0.24559,0.16442 -0.39454,0.21387 -0.32882,0.10917 -7.62263,0.15111 -8.10983,0.0464 -0.55316,-0.11905 -0.71619,-0.34878 -1.083,-1.52795 -0.17806,-0.57281 -0.52134,-1.656 -0.76259,-2.40712 -0.24115,-0.75112 -0.5986,-1.87561 -0.79419,-2.49894 l -0.35555,-1.1333 -0.77937,-0.25721 c -1.22288,-0.40382 -2.15955,-0.78392 -3.21615,-1.30506 -0.53688,-0.2647 -0.99443,-0.48145 -1.01675,-0.48142 -0.042,-1.3e-4 -2.79193,1.41445 -5.23313,2.69189 -0.80279,0.4201 -1.50704,0.73921 -1.64116,0.74375 -0.12927,0.003 -0.3734,-0.0747 -0.54271,-0.17567 -0.42153,-0.25104 -5.46917,-5.28907 -5.69583,-5.68457 -0.26435,-0.46135 -0.22614,-0.69369 0.26571,-1.62869 0.24764,-0.47005 0.77828,-1.48951 1.17967,-2.2655 0.40139,-0.77597 0.94598,-1.82847 1.21026,-2.33883 0.26401,-0.51036 0.50816,-0.99151 0.54203,-1.0692 0.0413,-0.0951 -0.0799,-0.42434 -0.37033,-1.00461 -0.60312,-1.20556 -0.90239,-1.92199 -1.29565,-3.10193 l -0.34009,-1.02037 -1.30276,-0.41062 c -0.71646,-0.22581 -1.95602,-0.61904 -2.75452,-0.87378 -0.79849,-0.25481 -1.80683,-0.57057 -2.24077,-0.7019 -0.85945,-0.26026 -1.19224,-0.49719 -1.27681,-0.9097 -0.0951,-0.4635 -0.0754,-7.84064 0.0239,-8.14968 0.12451,-0.39702 0.27731,-0.55254 0.6592,-0.67124 0.85607,-0.26675 2.99458,-0.94896 4.65778,-1.48623 1.03132,-0.33326 1.95346,-0.62086 2.04928,-0.63935 0.14836,-0.0273 0.20158,-0.12586 0.3595,-0.65454 0.2589,-0.86815 0.86982,-2.3771 1.39866,-3.45555 0.24592,-0.50176 0.43924,-0.95349 0.42932,-1.0038 -0.0102,-0.0505 -0.21966,-0.47834 -0.4661,-0.95128 -0.24626,-0.47298 -0.65544,-1.26129 -0.90898,-1.75184 -0.25342,-0.49053 -0.77517,-1.49099 -1.15913,-2.22319 -0.85188,-1.62462 -0.92807,-1.83505 -0.80204,-2.21416 0.0897,-0.26981 0.34604,-0.54404 2.91309,-3.11652 2.56695,-2.57246 2.84065,-2.82931 3.11024,-2.91963 0.38189,-0.12759 0.60402,-0.0478 2.21468,0.79849 0.73124,0.38423 1.41532,0.73945 1.52028,0.78946 0.10472,0.0498 0.92875,0.47069 1.83073,0.93491 l 1.63994,0.84406 0.53899,-0.28039 c 0.92293,-0.48027 2.49676,-1.14537 3.51018,-1.48333 0.8049,-0.26846 0.97691,-0.35223 1.00352,-0.48858 0.017,-0.0903 0.28994,-0.97109 0.60537,-1.95684 0.31516,-0.98578 0.80641,-2.52727 1.09133,-3.42556 0.28481,-0.89826 0.57357,-1.68887 0.64145,-1.75686 0.068,-0.0682 0.2664,-0.16918 0.44127,-0.2241 0.30869,-0.0976 7.68558,-0.13269 8.14926,-0.0386 0.44745,0.0908 0.64753,0.40551 1.02587,1.61389 0.19373,0.61927 0.53715,1.70259 0.76268,2.40738 0.22546,0.70476 0.57013,1.79126 0.76575,2.41439 l 0.35562,1.13296 1.02184,0.33838 c 1.21003,0.40058 1.93924,0.70319 3.10633,1.28903 l 0.86196,0.4327 1.06796,-0.54598 c 0.9845,-0.50326 2.61474,-1.34801 4.73715,-2.45459 0.92228,-0.48086 1.21005,-0.53721 1.60558,-0.31416 0.37844,0.21352 5.56102,5.39996 5.75552,5.75996 0.2217,0.41031 0.18009,0.66574 -0.23878,1.46594 -0.2067,0.39528 -0.54059,1.0358 -0.74162,1.42344 -0.20125,0.38767 -0.52621,1.01315 -0.72257,1.39001 -0.70189,1.34713 -1.5738,3.07378 -1.57377,3.11652 3e-5,0.0239 0.19203,0.42403 0.42664,0.88913 0.58036,1.15044 0.88585,1.88325 1.28735,3.08777 l 0.34041,1.02073 0.79497,0.24218 c 0.43725,0.13303 1.52465,0.47551 2.41644,0.7608 0.89181,0.28517 2.12861,0.6769 2.74848,0.87018 1.31979,0.41148 1.54132,0.57172 1.63304,1.18131 0.0307,0.21012 0.0543,2.06922 0.0495,4.13091 -0.007,3.23853 -0.0307,3.79229 -0.18249,4.07012 l -0.17429,0.32165 -0.98998,0.31793 c -0.54453,0.17465 -1.98882,0.63831 -3.20955,1.03013 -1.22073,0.3918 -2.40967,0.76764 -2.64206,0.8352 l -0.42258,0.12281 -0.32643,0.98757 c -0.3346,1.01279 -0.97071,2.52856 -1.46171,3.48336 l -0.27662,0.53798 0.45822,0.90142 c 0.60128,1.18291 1.26037,2.45409 2.11954,4.08801 0.84843,1.61351 0.92805,1.83357 0.80119,2.21506 -0.0897,0.26981 -0.34617,0.5442 -2.91381,3.11747 -2.62715,2.63287 -2.83553,2.82782 -3.11556,2.91442 z"
       id="path1756"
       sodipodi:nodetypes="cccccccccccccccccccsccccscccsccccccccccccccccccccccccccccccccccccccsccccccccccccccccccccccccscccc" />
    <ellipse
       style="fill:#ffffff;stroke:#ffffff;stroke-width:0.941901;stroke-linecap:round;stroke-linejoin:round;stroke-miterlimit:4;stroke-dasharray:none;stroke-dashoffset:90.7465;stroke-opacity:1;paint-order:stroke fill markers"
       id="path2309"
       cx="426.87482"
       cy="536.21436"
       rx="11.755172"
       ry="11.755701" />
  </g>
</svg>
