<?xml version="1.0" encoding="UTF-8" standalone="no"?>
<!-- Created with Inkscape (http://www.inkscape.org/) -->

<svg
   width="16.926146mm"
   height="16.933336mm"
   viewBox="0 0 16.926145 16.933336"
   version="1.1"
   id="svg5"
   inkscape:version="1.2 (dc2aedaf03, 2022-05-15)"
   sodipodi:docname="application-x-deb.svg"
   xmlns:inkscape="http://www.inkscape.org/namespaces/inkscape"
   xmlns:sodipodi="http://sodipodi.sourceforge.net/DTD/sodipodi-0.dtd"
   xmlns="http://www.w3.org/2000/svg"
   xmlns:svg="http://www.w3.org/2000/svg">
  <sodipodi:namedview
     id="namedview7"
     pagecolor="#505050"
     bordercolor="#ffffff"
     borderopacity="1"
     inkscape:pageshadow="0"
     inkscape:pageopacity="0"
     inkscape:pagecheckerboard="1"
     inkscape:document-units="mm"
     showgrid="false"
     inkscape:snap-object-midpoints="true"
     inkscape:zoom="0.81386721"
     inkscape:cx="315.77633"
     inkscape:cy="266.01391"
     inkscape:window-width="1440"
     inkscape:window-height="881"
     inkscape:window-x="-4"
     inkscape:window-y="-4"
     inkscape:window-maximized="1"
     inkscape:current-layer="layer1"
     inkscape:showpageshadow="0"
     inkscape:deskcolor="#505050" />
  <defs
     id="defs2" />
  <g
     inkscape:label="Layer 1"
     inkscape:groupmode="layer"
     id="layer1"
     transform="translate(-64.902587,-223.50993)">
    <rect
       style="fill:#f9548f;fill-opacity:1;stroke:#f9548f;stroke-width:2.13933;stroke-linecap:round;stroke-linejoin:round;stroke-miterlimit:4;stroke-dasharray:none;stroke-opacity:1"
       id="rect1002"
       width="14.786816"
       height="14.792138"
       x="65.972252"
       y="224.58147"
       ry="1.3718348" />
    <rect
       style="fill:#000000;fill-opacity:0.11;stroke:none;stroke-width:2.48327;stroke-linecap:round;stroke-linejoin:round;stroke-miterlimit:4;stroke-dasharray:none;stroke-opacity:1"
       id="rect37344"
       width="4.333159"
       height="4.26753"
       x="67.17952"
       y="223.51198" />
    <rect
       style="fill:#2f2f2f;fill-opacity:1;stroke:none;stroke-width:16.9262;stroke-linecap:round;stroke-linejoin:round;stroke-miterlimit:4;stroke-dasharray:none;stroke-opacity:1"
       id="rect44223"
       width="4.3360305"
       height="1.8164346"
       x="67.176643"
       y="227.7795" />
    <path
       style="fill:#b6b6b6;fill-opacity:1;stroke:none;stroke-width:0.00826474;stroke-linecap:round;stroke-linejoin:round;stroke-miterlimit:4;stroke-dasharray:none;stroke-opacity:1"
       d="m 68.111062,230.29798 c -0.149014,0.034 -0.253348,0.17985 -0.248015,0.33096 -0.01405,0.3505 -0.02125,0.70149 -0.02189,1.05225 0.0091,0.169 0.166269,0.30731 0.334656,0.29863 0.787438,0.0118 1.577235,0.0186 2.363062,0.0259 0.171993,-9e-5 0.31712,-0.15986 0.308088,-0.3303 -0.0092,-0.36628 -0.0104,-0.73275 -0.02334,-1.09841 -0.01065,-0.16794 -0.173124,-0.29936 -0.338869,-0.28712 -0.772901,0.002 -1.546084,-0.002 -2.318809,0.002 -0.01829,0.002 -0.03658,0.004 -0.05488,0.006 z"
       id="path57473" />
    <path
       style="fill:none;stroke:#ffffff;stroke-width:1.01669;stroke-linecap:butt;stroke-linejoin:miter;stroke-miterlimit:4;stroke-dasharray:none;stroke-opacity:1"
       d="m 67.676935,230.09524 -0.09101,2.42735 c -0.10413,2.77732 3.504205,3.08488 3.463925,0.0807 l -0.03369,-2.51263 z"
       id="path47194"
       sodipodi:nodetypes="csscc" />
    <path
       style="fill:#ffffff;stroke:#ffffff;stroke-width:1.05789px;stroke-linecap:butt;stroke-linejoin:miter;stroke-opacity:1"
       d="m 70.970077,232.22401 -3.286266,-0.0305"
       id="path48548" />
    <rect
       style="fill:#ffffff;fill-opacity:1;stroke:none;stroke-width:1.05789;stroke-linecap:round;stroke-linejoin:round;stroke-miterlimit:4;stroke-dasharray:none;stroke-opacity:1"
       id="rect57720"
       width="1.0883983"
       height="1.0883983"
       x="69.335876"
       y="224.5143" />
    <rect
       style="fill:#ffffff;fill-opacity:1;stroke:none;stroke-width:1.01622;stroke-linecap:round;stroke-linejoin:round;stroke-miterlimit:4;stroke-dasharray:none;stroke-opacity:1"
       id="rect57720-1"
       width="1.0883983"
       height="1.0043682"
       x="68.247482"
       y="223.50993" />
    <rect
       style="fill:#ffffff;fill-opacity:1;stroke:none;stroke-width:1.05789;stroke-linecap:round;stroke-linejoin:round;stroke-miterlimit:4;stroke-dasharray:none;stroke-opacity:1"
       id="rect57720-26"
       width="1.0883983"
       height="1.0883983"
       x="68.247482"
       y="225.60269" />
    <rect
       style="fill:#ffffff;fill-opacity:1;stroke:none;stroke-width:1.05789;stroke-linecap:round;stroke-linejoin:round;stroke-miterlimit:4;stroke-dasharray:none;stroke-opacity:1"
       id="rect57720-2"
       width="1.0883983"
       height="1.0883983"
       x="69.335876"
       y="226.6911" />
    <g
       aria-label="DEB"
       id="text24887"
       style="font-size:10.5833px;line-height:1.25;stroke-width:0.6;stroke-miterlimit:4;stroke-dasharray:none"
       transform="matrix(0.49978766,0,0,0.49978766,32.227612,111.67474)">
      <path
         d="m 72.089306,256.83386 q -0.232833,0 -0.391582,-0.15875 -0.15875,-0.15875 -0.15875,-0.39158 v -7.16489 q 0,-0.24342 0.15875,-0.39159 0.158749,-0.15874 0.391582,-0.15874 h 1.915577 q 1.195913,0 2.127243,0.52916 0.931331,0.52917 1.449912,1.47108 0.518582,0.93133 0.518582,2.12724 0,1.19592 -0.518582,2.13783 -0.518581,0.94191 -1.449912,1.47108 -0.93133,0.52916 -2.127243,0.52916 z m 1.915577,-0.97366 q 0.878414,0 1.566328,-0.40217 0.698498,-0.40216 1.079497,-1.12183 0.391582,-0.73024 0.391582,-1.64041 0,-0.91016 -0.391582,-1.62983 -0.380999,-0.71966 -1.079497,-1.12183 -0.687914,-0.40216 -1.566328,-0.40216 h -1.365246 v 6.31823 z"
         style="font-weight:bold;font-family:Comfortaa;-inkscape-font-specification:'Comfortaa, Bold';fill:#ffffff;stroke-width:0.6;stroke-miterlimit:4;stroke-dasharray:none"
         id="path36092" />
      <path
         d="m 80.376019,256.83386 q -0.232832,0 -0.391582,-0.15875 -0.158749,-0.15875 -0.158749,-0.39158 v -7.16489 q 0,-0.24342 0.158749,-0.39159 0.15875,-0.15874 0.391582,-0.15874 h 4.783652 q 0.243416,0 0.391582,0.14816 0.148166,0.13758 0.148166,0.37042 0,0.22225 -0.148166,0.35983 -0.148166,0.13758 -0.391582,0.13758 h -4.23332 v 2.57174 h 3.037407 q 0.232833,0 0.380999,0.14817 0.158749,0.13758 0.158749,0.35983 0,0.22225 -0.158749,0.37042 -0.148166,0.13758 -0.380999,0.13758 h -3.037407 v 2.64583 h 4.23332 q 0.243416,0 0.391582,0.13758 0.148166,0.13758 0.148166,0.35983 0,0.23283 -0.148166,0.381 -0.148166,0.13758 -0.391582,0.13758 z"
         style="font-weight:bold;font-family:Comfortaa;-inkscape-font-specification:'Comfortaa, Bold';fill:#ffffff;stroke-width:0.6;stroke-miterlimit:4;stroke-dasharray:none"
         id="path36094" />
      <path
         d="m 87.784338,256.83386 q -0.232833,0 -0.391582,-0.15875 -0.15875,-0.15875 -0.15875,-0.39158 v -7.16489 q 0,-0.24342 0.15875,-0.39159 0.158749,-0.15874 0.391582,-0.15874 h 2.529409 q 0.709081,0 1.259412,0.28574 0.550332,0.27517 0.857247,0.78317 0.317499,0.49741 0.317499,1.13241 0,0.51858 -0.285749,0.93133 -0.275165,0.41275 -0.761997,0.66675 0.719664,0.16933 1.132413,0.67733 0.412749,0.508 0.412749,1.29116 0,0.71967 -0.349249,1.29117 -0.338666,0.57149 -0.963081,0.88899 -0.613831,0.3175 -1.396995,0.3175 z m 2.529409,-4.86832 q 0.624414,0 0.99483,-0.30691 0.380998,-0.30692 0.380998,-0.889 0,-0.58208 -0.380998,-0.87841 -0.370416,-0.30692 -0.99483,-0.30692 h -1.979078 v 2.38124 z m 0.222249,3.85233 q 0.740831,0 1.195913,-0.381 0.455082,-0.39159 0.455082,-1.10067 0,-0.65616 -0.455082,-1.00541 -0.444499,-0.34925 -1.195913,-0.34925 h -2.201327 v 2.83633 z"
         style="font-weight:bold;font-family:Comfortaa;-inkscape-font-specification:'Comfortaa, Bold';fill:#ffffff;stroke-width:0.6;stroke-miterlimit:4;stroke-dasharray:none"
         id="path36096" />
    </g>
    <g
       id="g3006"
       transform="matrix(0.38947791,0,0,0.38947791,67.511799,220.42942)">
      <path
         fill="#ffffff"
         d="m 31.676,22.128 c 0.04023,1.200021 -0.863184,2.193192 -1.403325,3.186454 -0.978053,0.716249 -2.041892,1.468436 -3.26699,1.655369 -2.478871,0.364364 -4.69493,-1.934727 -4.740977,-4.332656 -0.342375,-1.408295 0.616308,-2.869403 1.77851,-3.605709 1.166883,-0.721784 2.710633,-0.63348 3.824795,0.145774 -0.446068,-0.699052 -1.56317,-1.197512 -2.501327,-1.14657 -1.439089,-0.01041 -2.623825,1.036042 -3.232626,2.269423 -1.146695,1.865931 -0.720702,4.449979 0.91652,5.893279 0.388306,0.23858 1.675928,1.528296 0.483025,0.862197 -0.359316,-0.16259 -1.157682,-1.121266 -0.481563,-0.272306 0.610408,0.929256 -1.673911,-1.783865 -0.734432,-0.460578 1.198172,1.346711 3.060901,2.364555 4.901129,1.923111 -0.862376,-0.009 -2.581905,-0.117419 -2.720787,-0.779863 1.258766,0.172028 2.563845,0.558049 3.796408,0.0383 1.256628,-0.244094 2.252861,-1.416652 3.137928,-1.990423 -0.163271,0.383341 0.306836,-1.163295 0.723186,-1.017256 0.195744,-0.584622 0.705543,-2.046777 0.766793,-2.031644 -0.07045,0.655471 -0.0021,0.776938 -6.77e-4,0.0764 -0.107859,-0.297074 0.178098,-0.85012 0.200087,-0.205976 0.520002,-0.953772 -0.186955,-2.888452 0.0054,-3.221488 0.442086,-0.466649 -1.208657,-2.241124 0.02425,-1.772321 0.55409,0.319055 0.665295,2.281525 0.793335,1.966943 -0.52358,-0.906523 -0.197456,-1.983671 -0.576112,-2.917143 -0.730714,-1.595577 -1.973479,-2.946052 -3.487515,-3.829758 0.495206,0.804791 -0.818369,-0.84525 -1.224981,-0.312421 -1.351136,-0.343299 -2.664996,-1.245017 -4.097855,-0.726419 -0.892692,-0.03294 0.628052,-0.32855 -0.401462,-0.209349 -0.357478,0.07242 -1.245602,-0.05323 -0.462552,-0.313526 -2.342905,0.117001 -4.349221,1.539349 -6.14805,2.914289 -1.103227,1.084306 -1.661386,2.572278 -2.519158,3.832182 -0.647906,1.279678 -1.117824,2.700554 -0.9552,4.150708 -0.147544,2.933572 0.109142,6.000754 1.616487,8.590906 1.672212,3.149032 4.604234,5.896427 8.225661,6.459866 0.411994,0.08296 1.768727,0.03292 0.636843,-0.125108 -1.263026,0.09746 -2.029141,-1.260461 -3.058814,-1.415214 -0.859847,-0.714523 -1.561711,-1.49474 -2.388685,-2.28466 -0.750251,-0.845413 -1.399225,-1.852767 -1.691073,-2.90867 -0.05564,-0.295077 -0.851094,-1.475703 -0.07832,-0.924789 -0.495728,-1.237308 -2.082097,-1.933811 -1.774319,-3.486722 -0.313614,-1.175748 -0.358809,-2.379508 -0.173242,-3.57956 -0.01214,-1.297597 0.577653,-2.436681 1.001691,-3.627663 0.526658,-1.250132 1.572662,-2.203434 2.761943,-2.82704 0.570575,-0.610293 1.28734,-1.206422 2.354236,-1.349821 -0.499669,-0.105834 1.117252,-0.742917 1.505892,-0.899562 0.295912,-0.0823 0.820494,-0.02157 0.264596,0.136217 2.453907,-0.808455 5.340312,0.195479 6.835736,2.291715 1.435476,1.838092 1.813702,4.330348 1.384159,6.58366 0.06059,-0.134072 0.121187,-0.268144 0.18178,-0.402216"
         id="path2991" />
    </g>
  </g>
</svg>
