<?xml version="1.0" encoding="UTF-8" standalone="no"?>
<!-- Created with Inkscape (http://www.inkscape.org/) -->

<svg
   width="63.972836mm"
   height="64.000008mm"
   viewBox="0 0 63.972834 64.000006"
   version="1.1"
   id="svg5"
   inkscape:version="1.1.2 (0a00cf5339, 2022-02-04, custom)"
   sodipodi:docname="application-lpkg.svg"
   xmlns:inkscape="http://www.inkscape.org/namespaces/inkscape"
   xmlns:sodipodi="http://sodipodi.sourceforge.net/DTD/sodipodi-0.dtd"
   xmlns="http://www.w3.org/2000/svg"
   xmlns:svg="http://www.w3.org/2000/svg">
  <sodipodi:namedview
     id="namedview7"
     pagecolor="#505050"
     bordercolor="#ffffff"
     borderopacity="1"
     inkscape:pageshadow="0"
     inkscape:pageopacity="0"
     inkscape:pagecheckerboard="1"
     inkscape:document-units="mm"
     showgrid="false"
     inkscape:snap-object-midpoints="true"
     inkscape:zoom="1.6277344"
     inkscape:cx="152.97336"
     inkscape:cy="136.69306"
     inkscape:window-width="1440"
     inkscape:window-height="881"
     inkscape:window-x="-4"
     inkscape:window-y="-4"
     inkscape:window-maximized="1"
     inkscape:current-layer="layer1" />
  <defs
     id="defs2" />
  <g
     inkscape:label="Layer 1"
     inkscape:groupmode="layer"
     id="layer1"
     transform="translate(-64.902586,-223.50993)">
    <rect
       style="fill:#f9548f;fill-opacity:1;stroke:#f9548f;stroke-width:8.08565;stroke-linecap:round;stroke-linejoin:round;stroke-miterlimit:4;stroke-dasharray:none;stroke-opacity:1"
       id="rect1002"
       width="55.887184"
       height="55.907303"
       x="68.945412"
       y="227.55981"
       ry="5.1848879" />
    <rect
       style="fill:#000000;fill-opacity:0.11;stroke:none;stroke-width:9.3856;stroke-linecap:round;stroke-linejoin:round;stroke-miterlimit:4;stroke-dasharray:none;stroke-opacity:1"
       id="rect37344"
       width="16.377296"
       height="16.12925"
       x="73.508308"
       y="223.51764" />
    <rect
       style="fill:#2f2f2f;fill-opacity:1;stroke:none;stroke-width:63.973;stroke-linecap:round;stroke-linejoin:round;stroke-miterlimit:4;stroke-dasharray:none;stroke-opacity:1"
       id="rect44223"
       width="16.388149"
       height="6.8652658"
       x="73.497452"
       y="239.64687" />
    <path
       style="fill:#b6b6b6;fill-opacity:1;stroke:none;stroke-width:0.0312368;stroke-linecap:round;stroke-linejoin:round;stroke-miterlimit:4;stroke-dasharray:none;stroke-opacity:1"
       d="m 77.02911,249.16554 c -0.563203,0.12845 -0.957535,0.67976 -0.93738,1.25089 -0.0531,1.32471 -0.0803,2.6513 -0.08275,3.977 0.03438,0.63875 0.628419,1.1615 1.264844,1.12867 2.976143,0.0444 5.961204,0.0703 8.931259,0.0978 0.65005,-3.6e-4 1.198565,-0.60421 1.164425,-1.24838 -0.0347,-1.38438 -0.0393,-2.76946 -0.08821,-4.15148 -0.04025,-0.63475 -0.654325,-1.13145 -1.280765,-1.08519 -2.9212,0.006 -5.843468,-0.009 -8.764003,0.008 -0.06914,0.008 -0.138253,0.0151 -0.207404,0.0236 z"
       id="path57473" />
    <path
       style="fill:none;stroke:#ffffff;stroke-width:3.84262;stroke-linecap:butt;stroke-linejoin:miter;stroke-miterlimit:4;stroke-dasharray:none;stroke-opacity:1"
       d="m 75.388315,248.3993 -0.343969,9.17421 c -0.393559,10.49696 13.244242,11.65939 13.092002,0.30488 l -0.127335,-9.49656 z"
       id="path47194"
       sodipodi:nodetypes="csscc" />
    <path
       style="fill:#ffffff;stroke:#ffffff;stroke-width:3.99831px;stroke-linecap:butt;stroke-linejoin:miter;stroke-opacity:1"
       d="M 87.834838,256.44503 75.414301,256.3298"
       id="path48548" />
    <rect
       style="fill:#ffffff;fill-opacity:1;stroke:none;stroke-width:3.99831;stroke-linecap:round;stroke-linejoin:round;stroke-miterlimit:4;stroke-dasharray:none;stroke-opacity:1"
       id="rect57720"
       width="4.1136322"
       height="4.1136322"
       x="81.65834"
       y="227.30595" />
    <rect
       style="fill:#ffffff;fill-opacity:1;stroke:none;stroke-width:3.84085;stroke-linecap:round;stroke-linejoin:round;stroke-miterlimit:4;stroke-dasharray:none;stroke-opacity:1"
       id="rect57720-1"
       width="4.1136322"
       height="3.7960379"
       x="77.544701"
       y="223.50993" />
    <rect
       style="fill:#ffffff;fill-opacity:1;stroke:none;stroke-width:3.99831;stroke-linecap:round;stroke-linejoin:round;stroke-miterlimit:4;stroke-dasharray:none;stroke-opacity:1"
       id="rect57720-26"
       width="4.1136322"
       height="4.1136322"
       x="77.544701"
       y="231.41959" />
    <rect
       style="fill:#ffffff;fill-opacity:1;stroke:none;stroke-width:3.99831;stroke-linecap:round;stroke-linejoin:round;stroke-miterlimit:4;stroke-dasharray:none;stroke-opacity:1"
       id="rect57720-2"
       width="4.1136322"
       height="4.1136322"
       x="81.65834"
       y="235.53325" />
    <g
       id="g3006"
       transform="matrix(1.4720427,0,0,1.4720427,74.764177,211.86703)">
      <path
         fill="#ffffff"
         d="m 31.676,22.128 c 0.04023,1.200021 -0.863184,2.193192 -1.403325,3.186454 -0.978053,0.716249 -2.041892,1.468436 -3.26699,1.655369 -2.478871,0.364364 -4.69493,-1.934727 -4.740977,-4.332656 -0.342375,-1.408295 0.616308,-2.869403 1.77851,-3.605709 1.166883,-0.721784 2.710633,-0.63348 3.824795,0.145774 -0.446068,-0.699052 -1.56317,-1.197512 -2.501327,-1.14657 -1.439089,-0.01041 -2.623825,1.036042 -3.232626,2.269423 -1.146695,1.865931 -0.720702,4.449979 0.91652,5.893279 0.388306,0.23858 1.675928,1.528296 0.483025,0.862197 -0.359316,-0.16259 -1.157682,-1.121266 -0.481563,-0.272306 0.610408,0.929256 -1.673911,-1.783865 -0.734432,-0.460578 1.198172,1.346711 3.060901,2.364555 4.901129,1.923111 -0.862376,-0.009 -2.581905,-0.117419 -2.720787,-0.779863 1.258766,0.172028 2.563845,0.558049 3.796408,0.0383 1.256628,-0.244094 2.252861,-1.416652 3.137928,-1.990423 -0.163271,0.383341 0.306836,-1.163295 0.723186,-1.017256 0.195744,-0.584622 0.705543,-2.046777 0.766793,-2.031644 -0.07045,0.655471 -0.0021,0.776938 -6.77e-4,0.0764 -0.107859,-0.297074 0.178098,-0.85012 0.200087,-0.205976 0.520002,-0.953772 -0.186955,-2.888452 0.0054,-3.221488 0.442086,-0.466649 -1.208657,-2.241124 0.02425,-1.772321 0.55409,0.319055 0.665295,2.281525 0.793335,1.966943 -0.52358,-0.906523 -0.197456,-1.983671 -0.576112,-2.917143 -0.730714,-1.595577 -1.973479,-2.946052 -3.487515,-3.829758 0.495206,0.804791 -0.818369,-0.84525 -1.224981,-0.312421 -1.351136,-0.343299 -2.664996,-1.245017 -4.097855,-0.726419 -0.892692,-0.03294 0.628052,-0.32855 -0.401462,-0.209349 -0.357478,0.07242 -1.245602,-0.05323 -0.462552,-0.313526 -2.342905,0.117001 -4.349221,1.539349 -6.14805,2.914289 -1.103227,1.084306 -1.661386,2.572278 -2.519158,3.832182 -0.647906,1.279678 -1.117824,2.700554 -0.9552,4.150708 -0.147544,2.933572 0.109142,6.000754 1.616487,8.590906 1.672212,3.149032 4.604234,5.896427 8.225661,6.459866 0.411994,0.08296 1.768727,0.03292 0.636843,-0.125108 -1.263026,0.09746 -2.029141,-1.260461 -3.058814,-1.415214 -0.859847,-0.714523 -1.561711,-1.49474 -2.388685,-2.28466 -0.750251,-0.845413 -1.399225,-1.852767 -1.691073,-2.90867 -0.05564,-0.295077 -0.851094,-1.475703 -0.07832,-0.924789 -0.495728,-1.237308 -2.082097,-1.933811 -1.774319,-3.486722 -0.313614,-1.175748 -0.358809,-2.379508 -0.173242,-3.57956 -0.01214,-1.297597 0.577653,-2.436681 1.001691,-3.627663 0.526658,-1.250132 1.572662,-2.203434 2.761943,-2.82704 0.570575,-0.610293 1.28734,-1.206422 2.354236,-1.349821 -0.499669,-0.105834 1.117252,-0.742917 1.505892,-0.899562 0.295912,-0.0823 0.820494,-0.02157 0.264596,0.136217 2.453907,-0.808455 5.340312,0.195479 6.835736,2.291715 1.435476,1.838092 1.813702,4.330348 1.384159,6.58366 0.06059,-0.134072 0.121187,-0.268144 0.18178,-0.402216"
         id="path2991" />
    </g>
    <text
       xml:space="preserve"
       style="font-style:normal;font-weight:normal;font-size:19.492px;line-height:1.25;font-family:sans-serif;fill:#ffffff;fill-opacity:1;stroke:none;stroke-width:0.487301"
       x="70.932831"
       y="285.63806"
       id="text2987"><tspan
         sodipodi:role="line"
         id="tspan2985"
         style="font-style:normal;font-variant:normal;font-weight:bold;font-stretch:normal;font-size:19.492px;font-family:Comfortaa;-inkscape-font-specification:'Comfortaa, Bold';font-variant-ligatures:normal;font-variant-caps:normal;font-variant-numeric:normal;font-variant-east-asian:normal;fill:#ffffff;stroke-width:0.487301"
         x="70.932831"
         y="285.63806">LPKG</tspan></text>
  </g>
</svg>
