<?xml version="1.0" encoding="UTF-8" standalone="no"?>
<!-- Created with Inkscape (http://www.inkscape.org/) -->

<svg
   version="1.1"
   id="svg2"
   width="64"
   height="64.027191"
   viewBox="0 0 64 64.02719"
   sodipodi:docname="application-x-rpm.svg"
   inkscape:version="1.1.2 (0a00cf5339, 2022-02-04, custom)"
   xmlns:inkscape="http://www.inkscape.org/namespaces/inkscape"
   xmlns:sodipodi="http://sodipodi.sourceforge.net/DTD/sodipodi-0.dtd"
   xmlns="http://www.w3.org/2000/svg"
   xmlns:svg="http://www.w3.org/2000/svg">
  <defs
     id="defs6" />
  <sodipodi:namedview
     id="namedview4"
     pagecolor="#505050"
     bordercolor="#ffffff"
     borderopacity="1"
     inkscape:pageshadow="0"
     inkscape:pageopacity="0"
     inkscape:pagecheckerboard="1"
     showgrid="false"
     inkscape:zoom="5.6568542"
     inkscape:cx="39.863145"
     inkscape:cy="30.847534"
     inkscape:window-width="1440"
     inkscape:window-height="881"
     inkscape:window-x="-4"
     inkscape:window-y="-4"
     inkscape:window-maximized="0"
     inkscape:current-layer="g8"
     inkscape:snap-bbox="true"
     inkscape:snap-bbox-edge-midpoints="false"
     inkscape:snap-bbox-midpoints="true" />
  <g
     inkscape:groupmode="layer"
     inkscape:label="Image"
     id="g8"
     transform="translate(-1.3572106,-0.77321577)">
    <rect
       style="fill:#e33737;fill-opacity:1;stroke:#e33737;stroke-width:8.0891;stroke-linecap:round;stroke-linejoin:round;stroke-miterlimit:4;stroke-dasharray:none;stroke-opacity:1"
       id="rect1002"
       width="55.910904"
       height="55.931034"
       x="5.4017606"
       y="4.8248224"
       ry="5.187089" />
    <rect
       style="fill:#2f2f2f;fill-opacity:1;stroke:none;stroke-width:64;stroke-linecap:round;stroke-linejoin:round;stroke-miterlimit:4;stroke-dasharray:none;stroke-opacity:1"
       id="rect44223"
       width="16.395105"
       height="6.8681798"
       x="9.9557428"
       y="16.917002" />
    <path
       style="fill:#b6b6b6;fill-opacity:1;stroke:none;stroke-width:0.03125;stroke-linecap:round;stroke-linejoin:round;stroke-miterlimit:4;stroke-dasharray:none;stroke-opacity:1"
       d="m 13.488891,26.43972 c -0.563442,0.12844 -0.957942,0.680044 -0.937778,1.251411 -0.05312,1.325274 -0.08034,2.652446 -0.0828,3.978691 0.0344,0.639018 0.628688,1.162 1.265382,1.12915 2.977405,0.04444 5.963736,0.07038 8.935051,0.09784 0.650326,-3.64e-4 1.199074,-0.60446 1.16492,-1.2489 -0.03472,-1.384981 -0.03932,-2.770645 -0.08826,-4.153253 -0.04026,-0.635013 -0.654602,-1.131941 -1.281308,-1.085645 -2.922441,0.0048 -5.845952,-0.0094 -8.767725,0.007 -0.06916,0.0078 -0.13832,0.0158 -0.207492,0.02364 z"
       id="path57473" />
    <path
       style="fill:none;stroke:#ffffff;stroke-width:3.84426;stroke-linecap:butt;stroke-linejoin:miter;stroke-miterlimit:4;stroke-dasharray:none;stroke-opacity:1"
       d="m 11.847399,25.673144 -0.344113,9.178119 c -0.393727,10.501408 13.249863,11.664329 13.097559,0.305 L 24.473462,25.65567 Z"
       id="path47194"
       sodipodi:nodetypes="csscc" />
    <path
       style="fill:#ffffff;stroke:#ffffff;stroke-width:4px;stroke-linecap:butt;stroke-linejoin:miter;stroke-opacity:1"
       d="M 24.299206,33.722304 11.873397,33.607064"
       id="path48548" />
    <rect
       style="fill:#ffffff;fill-opacity:1;stroke:none;stroke-width:4;stroke-linecap:round;stroke-linejoin:round;stroke-miterlimit:4;stroke-dasharray:none;stroke-opacity:1"
       id="rect57720"
       width="4.1153784"
       height="4.1153784"
       x="18.12009"
       y="4.5708647" />
    <rect
       style="fill:#ffffff;fill-opacity:1;stroke:none;stroke-width:3.84248;stroke-linecap:round;stroke-linejoin:round;stroke-miterlimit:4;stroke-dasharray:none;stroke-opacity:1"
       id="rect57720-1"
       width="4.1153784"
       height="3.7976489"
       x="14.004709"
       y="0.77321577" />
    <rect
       style="fill:#ffffff;fill-opacity:1;stroke:none;stroke-width:4;stroke-linecap:round;stroke-linejoin:round;stroke-miterlimit:4;stroke-dasharray:none;stroke-opacity:1"
       id="rect57720-26"
       width="4.1153784"
       height="4.1153784"
       x="14.004709"
       y="8.6862431" />
    <rect
       style="fill:#ffffff;fill-opacity:1;stroke:none;stroke-width:4;stroke-linecap:round;stroke-linejoin:round;stroke-miterlimit:4;stroke-dasharray:none;stroke-opacity:1"
       id="rect57720-2"
       width="4.1153784"
       height="4.1153784"
       x="18.12009"
       y="12.80162" />
    <g
       id="g31171"
       transform="matrix(0.23747325,0.03022782,-0.03022782,0.23747325,28.114778,43.123258)"
       style="stroke-width:1.00046;stroke-miterlimit:4;stroke-dasharray:none">
      <path
         id="path4"
         style="fill:#ffffff;fill-opacity:1;stroke-width:1.00046;stroke-miterlimit:4;stroke-dasharray:none"
         d="m 71.647558,-128.64435 c -5.24187,0.0585 -8.713431,8.39255 -14.888456,5.06552 -4.740283,-2.03306 -10.658285,-5.87572 -15.474386,-1.82761 -5.329092,5.27663 -6.134591,13.28689 -9.059018,19.92027 -3.03517,5.23009 -2.531867,15.948183 -9.627885,15.920264 -9.030501,0.830601 -20.5092913,2.257683 -24.9087691,11.4384 -4.0054126,10.045322 3.28758572,19.8716 10.3725189,26.402656 17.4174022,15.49309 39.6907722,24.534421 62.1067722,30.016471 18.17025,3.97282 37.783755,5.959208 55.657995,-0.379571 10.72545,-3.639156 19.40886,-14.217385 18.06136,-25.929365 -1.76035,-12.509277 -13.03293,-20.99554 -23.8956,-25.746676 -2.93367,-11.876364 -5.28986,-23.912477 -8.5633,-35.692179 -3.35271,-6.95622 -11.62956,-9.11973 -18.045114,-12.32987 -7.050275,-2.7415 -14.139111,-6.94305 -21.736118,-6.85831 z"
         sodipodi:nodetypes="acccccccccccca" />
      <path
         id="path10"
         style="fill:#1a1a1a;stroke-width:1.00046;stroke-miterlimit:4;stroke-dasharray:none"
         d="m 120.14669,-72.930698 c 1.67668,5.776301 2.32612,12.876163 -2.69421,17.268632 -9.77094,8.566197 -23.872034,7.995722 -36.0327,6.723601 -18.666854,-2.541083 -37.653353,-9.415415 -51.057458,-23.080432 -4.808591,-4.713824 -7.511763,-12.233805 -3.815381,-18.445511 0.694341,-1.146737 2.565912,-7.406064 2.203058,-4.168638 1.690106,6.359567 7.851537,10.254249 12.793465,14.068978 18.047438,12.103048 40.481566,18.400701 62.186016,15.784862 6.84214,-0.789252 15.37997,-4.809013 15.09095,-12.853666 -0.62984,-5.651407 0.58394,1.66147 1.07949,3.54421 0.0823,0.385988 0.16451,0.771976 0.24679,1.157964 z" />
    </g>
    <g
       aria-label="RPM"
       id="text24887"
       style="font-size:20px;line-height:1.25;stroke-width:0.5">
      <path
         d="m 24.093715,62.067065 q 0.2,0.32 0.2,0.66 0,0.4 -0.28,0.68 -0.26,0.26 -0.72,0.26 -0.58,0 -0.9,-0.5 l -3.44,-5.52 h -0.36 -2.56 v 4.98 q 0,0.44 -0.3,0.74 -0.28,0.3 -0.74,0.3 -0.44,0 -0.74,-0.3 -0.3,-0.3 -0.3,-0.74 v -13.54 q 0,-0.46 0.3,-0.74 0.3,-0.3 0.74,-0.3 h 3.6 q 1.48,0 2.64,0.62 1.18,0.62 1.82,1.74 0.66,1.12 0.66,2.56 0,1.42 -0.72,2.52 -0.72,1.1 -1.96,1.66 z m -5.5,-6.34 q 1.36,0 2.24,-0.76 0.88,-0.78 0.88,-2 0,-1.32 -0.88,-2.16 -0.88,-0.84 -2.24,-0.84 h -2.56 v 5.76 z"
         style="font-weight:bold;font-family:Comfortaa;-inkscape-font-specification:'Comfortaa, Bold';fill:#ffffff"
         id="path836" />
      <path
         d="m 27.633715,63.667065 q -0.44,0 -0.74,-0.3 -0.3,-0.3 -0.3,-0.74 v -13.54 q 0,-0.46 0.3,-0.74 0.3,-0.3 0.74,-0.3 h 4 q 1.48,0 2.64,0.66 1.18,0.66 1.82,1.84 0.66,1.18 0.66,2.68 0,1.46 -0.66,2.6 -0.64,1.14 -1.82,1.78 -1.16,0.64 -2.64,0.64 h -2.96 v 4.38 q 0,0.44 -0.3,0.74 -0.28,0.3 -0.74,0.3 z m 4,-7.34 q 1.36,0 2.24,-0.86 0.88,-0.88 0.88,-2.24 0,-1.42 -0.88,-2.34 -0.88,-0.92 -2.24,-0.92 h -2.96 v 6.36 z"
         style="font-weight:bold;font-family:Comfortaa;-inkscape-font-specification:'Comfortaa, Bold';fill:#ffffff"
         id="path838" />
      <path
         d="m 53.653699,48.047065 q 0.44,0 0.74,0.3 0.3,0.3 0.3,0.74 v 13.54 q 0,0.44 -0.32,0.74 -0.3,0.3 -0.72,0.3 -0.44,0 -0.74,-0.3 -0.3,-0.3 -0.3,-0.74 v -9.94 l -4.84,9.86 q -0.34,0.52 -0.9,0.52 -0.66,0 -0.96,-0.62 l -4.78,-9.58 v 9.76 q 0,0.44 -0.3,0.74 -0.3,0.3 -0.74,0.3 -0.44,0 -0.74,-0.3 -0.3,-0.3 -0.3,-0.74 v -13.54 q 0,-0.44 0.3,-0.74 0.3,-0.3 0.74,-0.3 0.6,0 0.92,0.56 l 5.94,11.9 5.78,-11.9 q 0.32,-0.56 0.92,-0.56 z"
         style="font-weight:bold;font-family:Comfortaa;-inkscape-font-specification:'Comfortaa, Bold';fill:#ffffff"
         id="path840" />
    </g>
    <rect
       style="fill:#000000;fill-opacity:0.22;stroke:none;stroke-width:9.3896;stroke-linecap:round;stroke-linejoin:round;stroke-miterlimit:4;stroke-dasharray:none;stroke-opacity:1"
       id="rect37344-9"
       width="16.384247"
       height="16.136095"
       x="9.9666033"
       y="0.78090644" />
  </g>
</svg>
