<?xml version="1.0" encoding="UTF-8" standalone="no"?>
<!-- Created with Inkscape (http://www.inkscape.org/) -->

<svg
   width="51.200001"
   height="64"
   viewBox="0 0 51.2 64"
   version="1.1"
   id="svg5"
   inkscape:version="1.1.2 (0a00cf5339, 2022-02-04, custom)"
   sodipodi:docname="text-markdown.svg"
   xmlns:inkscape="http://www.inkscape.org/namespaces/inkscape"
   xmlns:sodipodi="http://sodipodi.sourceforge.net/DTD/sodipodi-0.dtd"
   xmlns="http://www.w3.org/2000/svg"
   xmlns:svg="http://www.w3.org/2000/svg">
  <sodipodi:namedview
     id="namedview7"
     pagecolor="#505050"
     bordercolor="#ffffff"
     borderopacity="1"
     inkscape:pageshadow="0"
     inkscape:pageopacity="0"
     inkscape:pagecheckerboard="1"
     inkscape:document-units="px"
     showgrid="false"
     inkscape:zoom="2.6916667"
     inkscape:cx="-18.018576"
     inkscape:cy="53.68421"
     inkscape:window-width="1440"
     inkscape:window-height="881"
     inkscape:window-x="-4"
     inkscape:window-y="-4"
     inkscape:window-maximized="1"
     inkscape:current-layer="layer1" />
  <defs
     id="defs2" />
  <g
     inkscape:label="Layer 1"
     inkscape:groupmode="layer"
     id="layer1"
     transform="translate(-57.434056,-64.22291)">
    <g
       id="g837"
       transform="translate(57.434056,64.22291)">
      <path
         fill="#e4e4e4"
         d="M 3.2,0 C 1.4272,0 0,1.4272 0,3.2 V 60.8 C 0,62.5728 1.4272,64 3.2,64 H 48 c 1.7728,0 3.2,-1.4272 3.2,-3.2 V 19.2 L 33.6,17.6 32,0 Z"
         id="path4"
         style="fill:#e6e6e6;fill-opacity:1;stroke-width:1.6" />
      <path
         fill="#fafafa"
         d="m 32,0 v 16 c 0,1.76736 1.432688,3.2 3.2,3.2 h 16 z"
         id="path10"
         style="fill:#999999;stroke-width:1.6" />
    </g>
    <g
       id="g60728"
       transform="matrix(0.34266655,0,0,0.34266655,-10.034043,51.16358)">
      <path
         style="font-variation-settings:'wght' 800;fill:#333333;fill-opacity:1;stroke:#333333;stroke-width:6;stroke-linecap:round;stroke-linejoin:round;stroke-miterlimit:4;stroke-dasharray:none;stroke-opacity:1"
         d="m 274.3218,191.27961 v -55.57543 h -13.54503 l -16.08723,32.51104 -17.81046,-32.50728 h -13.34259 v 55.64808 h 13.24339 v -31.18046 l 11.97183,22.61175 10.44825,-0.0619 11.53425,-23.88542 v 32.40716 z"
         id="path12864" />
      <path
         style="font-variation-settings:'wght' 800;fill:#333333;fill-opacity:1;stroke:#333333;stroke-width:6;stroke-linejoin:round;stroke-miterlimit:4;stroke-dasharray:none;stroke-opacity:1"
         d="m 314.14873,187.95781 -20.02704,-23.49199 h 13.29792 v -23.091 h 12.94561 v 22.8726 h 13.5992 z"
         id="path8255" />
    </g>
  </g>
</svg>
