<?xml version="1.0" encoding="UTF-8" standalone="no"?>
<!-- Created with Inkscape (http://www.inkscape.org/) -->

<svg
   width="64"
   version="1.1"
   height="60.54166"
   id="svg71"
   sodipodi:docname="video-display.svg"
   inkscape:version="1.1.2 (0a00cf5339, 2022-02-04, custom)"
   xmlns:inkscape="http://www.inkscape.org/namespaces/inkscape"
   xmlns:sodipodi="http://sodipodi.sourceforge.net/DTD/sodipodi-0.dtd"
   xmlns="http://www.w3.org/2000/svg"
   xmlns:svg="http://www.w3.org/2000/svg">
  <sodipodi:namedview
     id="namedview73"
     pagecolor="#505050"
     bordercolor="#ffffff"
     borderopacity="1"
     inkscape:pageshadow="0"
     inkscape:pageopacity="0"
     inkscape:pagecheckerboard="1"
     showgrid="false"
     inkscape:snap-object-midpoints="false"
     inkscape:snap-bbox="true"
     inkscape:snap-bbox-edge-midpoints="false"
     inkscape:zoom="0.50000002"
     inkscape:cx="15.999999"
     inkscape:cy="-84.999996"
     inkscape:window-width="1440"
     inkscape:window-height="881"
     inkscape:window-x="-4"
     inkscape:window-y="-4"
     inkscape:window-maximized="1"
     inkscape:current-layer="layer1" />
  <defs
     id="defs5455" />
  <metadata
     id="metadata5458" />
  <g
     inkscape:label="Capa 1"
     inkscape:groupmode="layer"
     id="layer1"
     transform="translate(-381.17145,-498.39798)">
    <rect
       style="fill:#1a1a1a;stroke:none;stroke-width:34.238;stroke-linecap:round;stroke-linejoin:round"
       id="rect1152"
       width="57.722279"
       height="42.967239"
       x="384.4407"
       y="501.62964"
       rx="0"
       ry="0" />
    <path
       inkscape:connector-curvature="0"
       style="fill:#b3b3b3;stroke-width:3.27008;stroke-opacity:0.550265"
       id="rect4254"
       d="m 404.84139,544.39116 v 8.91836 2.54812 2.54812 h 16.35038 v -2.54812 -2.54812 -8.91836 z" />
    <rect
       width="60.729919"
       x="382.80649"
       y="500.03302"
       height="45.865971"
       style="fill:none;fill-opacity:1;stroke:#333333;stroke-width:3.27008;stroke-opacity:1"
       id="rect4173"
       ry="0.76379269" />
    <path
       style="fill:#333333;stroke:#333333;stroke-width:3.50364;stroke-linecap:round;stroke-linejoin:miter;stroke-miterlimit:4;stroke-dasharray:none;stroke-opacity:1"
       d="m 398.79927,557.18782 h 28.4346"
       id="path11485" />
    <path
       style="fill:#cccccc;stroke-width:0.0467282;paint-order:stroke fill markers"
       d="m 425.07065,537.9204 c -0.22572,0.0698 -0.37508,0.018 -1.16396,-0.39858 -0.35648,-0.1886 -0.75714,-0.39732 -0.89034,-0.46394 -0.1332,-0.0666 -0.6236,-0.31942 -1.08976,-0.56178 -1.13858,-0.59192 -1.05648,-0.56282 -1.26588,-0.44822 -0.44928,0.24592 -1.46222,0.68038 -2.07822,0.89138 -0.66762,0.22866 -0.67674,0.2335 -0.71252,0.37822 -0.02,0.0806 -0.202,0.66442 -0.40458,1.29732 -0.20262,0.6329 -0.483,1.51472 -0.62312,1.95956 -0.14,0.44486 -0.28736,0.84152 -0.32724,0.8815 -0.04,0.04 -0.144,0.0964 -0.23134,0.1254 -0.1928,0.064 -4.46954,0.0886 -4.75522,0.0272 -0.32434,-0.0698 -0.41994,-0.2045 -0.63502,-0.89588 -0.1044,-0.33586 -0.30568,-0.97096 -0.44714,-1.41136 -0.1414,-0.4404 -0.351,-1.09972 -0.46568,-1.4652 l -0.20848,-0.66448 -0.45698,-0.1508 c -0.71704,-0.23678 -1.26626,-0.45964 -1.8858,-0.7652 -0.3148,-0.1552 -0.58308,-0.28228 -0.59618,-0.28226 -0.0246,-8e-5 -1.63706,0.82932 -3.06846,1.57832 -0.47072,0.24632 -0.88366,0.43342 -0.9623,0.43608 -0.0758,0.002 -0.21894,-0.0438 -0.31822,-0.103 -0.24716,-0.1472 -3.20686,-3.10112 -3.33976,-3.33302 -0.155,-0.2705 -0.1326,-0.40672 0.1558,-0.95494 0.1452,-0.2756 0.45634,-0.87334 0.6917,-1.32832 0.23536,-0.45498 0.55468,-1.07208 0.70964,-1.37132 0.1548,-0.29924 0.29796,-0.58134 0.31782,-0.6269 0.0242,-0.0558 -0.0468,-0.2488 -0.21714,-0.58902 -0.35364,-0.70686 -0.52912,-1.12692 -0.75972,-1.81876 l -0.1994,-0.59826 -0.76388,-0.24076 c -0.4201,-0.1324 -1.14692,-0.36296 -1.61512,-0.51232 -0.4682,-0.1494 -1.05944,-0.33454 -1.31388,-0.41154 -0.50394,-0.1526 -0.69908,-0.29152 -0.74866,-0.53338 -0.0558,-0.27176 -0.0442,-4.59718 0.014,-4.77838 0.073,-0.23278 0.1626,-0.32396 0.38652,-0.39356 0.50196,-0.1564 1.75588,-0.5564 2.7311,-0.87142 0.60472,-0.1954 1.14542,-0.36402 1.2016,-0.37486 0.087,-0.016 0.1182,-0.0738 0.2108,-0.38378 0.1518,-0.50902 0.51002,-1.39376 0.8201,-2.02608 0.1442,-0.2942 0.25756,-0.55906 0.25174,-0.58856 -0.006,-0.0296 -0.1288,-0.28046 -0.2733,-0.55776 -0.1444,-0.27732 -0.38432,-0.73952 -0.53298,-1.02714 -0.1486,-0.28762 -0.45452,-0.87422 -0.67966,-1.30352 -0.4995,-0.95256 -0.54418,-1.07594 -0.47028,-1.29822 0.0526,-0.1582 0.2029,-0.31898 1.7081,-1.8273 1.50514,-1.5083 1.66562,-1.6589 1.8237,-1.71186 0.22392,-0.0748 0.35416,-0.028 1.29858,0.46818 0.42876,0.22528 0.82988,0.43356 0.89142,0.46288 0.0614,0.0292 0.54458,0.27598 1.07346,0.54816 l 0.96158,0.4949 0.31604,-0.1644 c 0.54116,-0.2816 1.46398,-0.67156 2.0582,-0.86972 0.47196,-0.1574 0.57282,-0.20652 0.58842,-0.28646 0.01,-0.053 0.17,-0.56938 0.35496,-1.14736 0.1848,-0.57798 0.47284,-1.4818 0.6399,-2.00848 0.167,-0.52668 0.33632,-0.99024 0.37612,-1.0301 0.0398,-0.04 0.1562,-0.0992 0.25874,-0.1314 0.181,-0.0572 4.50646,-0.0778 4.77834,-0.0226 0.26236,0.0532 0.37968,0.23776 0.60152,0.94626 0.1136,0.3631 0.31496,0.99828 0.4472,1.41152 0.1322,0.41322 0.3343,1.05026 0.449,1.41562 l 0.20852,0.66428 0.59916,0.1984 c 0.7095,0.23488 1.13708,0.4123 1.8214,0.7558 l 0.50542,0.2537 0.6262,-0.32012 c 0.57726,-0.29508 1.53316,-0.79038 2.77764,-1.4392 0.54078,-0.28194 0.70952,-0.31498 0.94144,-0.1842 0.2219,0.1252 3.26072,3.16614 3.37476,3.37722 0.13,0.24058 0.1056,0.39034 -0.14,0.85952 -0.1212,0.23176 -0.31698,0.60732 -0.43486,0.8346 -0.118,0.2273 -0.30854,0.59404 -0.42368,0.815 -0.41156,0.78986 -0.9228,1.80224 -0.92278,1.8273 2e-5,0.014 0.1126,0.24862 0.25016,0.52132 0.3403,0.67454 0.51942,1.1042 0.75484,1.81044 l 0.1996,0.59848 0.46614,0.142 c 0.25638,0.078 0.89398,0.2788 1.41688,0.44608 0.52292,0.1672 1.24812,0.39688 1.61158,0.5102 0.77386,0.24126 0.90376,0.33522 0.95754,0.69264 0.018,0.1232 0.0318,1.21324 0.029,2.42206 -0.004,1.89884 -0.018,2.22352 -0.107,2.38642 l -0.1022,0.1886 -0.58048,0.1864 c -0.31928,0.1024 -1.16614,0.37426 -1.88192,0.604 -0.71578,0.22972 -1.41292,0.45008 -1.54918,0.4897 l -0.24778,0.072 -0.1914,0.57904 c -0.1962,0.59382 -0.56918,1.48256 -0.85708,2.04238 l -0.1622,0.31544 0.26868,0.52852 c 0.35256,0.69358 0.73902,1.4389 1.2428,2.39692 0.49748,0.94604 0.54416,1.07506 0.46978,1.29874 -0.0526,0.1582 -0.20298,0.31908 -1.70852,1.82786 -1.54044,1.54372 -1.66262,1.65802 -1.82682,1.7088 z m -4.89718,-9.75636 c 0.58272,-0.74906 1.04372,-1.59556 1.31698,-2.41838 0.51406,-1.5479 0.54898,-3.2985 0.0968,-4.85228 -0.60586,-2.08182 -2.1516,-3.93874 -4.09814,-4.92316 -2.80992,-1.42104 -6.15126,-1.09364 -8.63514,0.84612 -2.97072,2.31994 -3.93502,6.41008 -2.3181,9.83224 0.37806,0.80016 0.90206,1.52818 1.60442,2.22908 0.9661,0.9641 1.87836,1.53022 3.14758,1.95328 0.94,0.31332 1.65978,0.41948 2.72582,0.40206 2.41812,-0.0396 4.67944,-1.16624 6.15976,-3.06896 z"
       id="path1756" />
  </g>
</svg>
