<?xml version="1.0" encoding="UTF-8" standalone="no"?>
<!-- Created with Inkscape (http://www.inkscape.org/) -->

<svg
   width="64"
   height="64.020134"
   viewBox="0 0 64 64.020134"
   version="1.1"
   id="svg5"
   xml:space="preserve"
   inkscape:version="1.2 (dc2aedaf03, 2022-05-15)"
   sodipodi:docname="plank.svg"
   xmlns:inkscape="http://www.inkscape.org/namespaces/inkscape"
   xmlns:sodipodi="http://sodipodi.sourceforge.net/DTD/sodipodi-0.dtd"
   xmlns:xlink="http://www.w3.org/1999/xlink"
   xmlns="http://www.w3.org/2000/svg"
   xmlns:svg="http://www.w3.org/2000/svg"><sodipodi:namedview
     id="namedview7"
     pagecolor="#505050"
     bordercolor="#ffffff"
     borderopacity="1"
     inkscape:showpageshadow="0"
     inkscape:pageopacity="0"
     inkscape:pagecheckerboard="1"
     inkscape:deskcolor="#505050"
     inkscape:document-units="px"
     showgrid="false"
     inkscape:zoom="16"
     inkscape:cx="18.25"
     inkscape:cy="16.28125"
     inkscape:window-width="1440"
     inkscape:window-height="881"
     inkscape:window-x="-4"
     inkscape:window-y="-4"
     inkscape:window-maximized="1"
     inkscape:current-layer="layer1" /><defs
     id="defs2"><linearGradient
       id="linearGradient4146"><stop
         style="stop-color:#e4f2f6;stop-opacity:1;"
         offset="0"
         id="stop687" /><stop
         style="stop-color:#b1caee;stop-opacity:1"
         offset="1"
         id="stop689" /></linearGradient><linearGradient
       id="a"
       y1="543.79999"
       y2="503.79999"
       x2="0"
       gradientUnits="userSpaceOnUse"
       gradientTransform="translate(-384.5705,504.5622)"><stop
         stop-color="#2f74c8"
         id="stop692" /><stop
         offset="1"
         stop-color="#4699d7"
         id="stop694" /></linearGradient><linearGradient
       id="b"
       y1="15.968"
       x1="18.437"
       y2="33.629002"
       x2="36.098"
       gradientUnits="userSpaceOnUse"
       gradientTransform="translate(-5.0357628e-4,1004.3622)"><stop
         stop-color="#292c2f"
         style="stop-color:#000000;stop-opacity:1"
         id="stop697" /><stop
         offset="1"
         stop-opacity="0"
         id="stop699" /></linearGradient><linearGradient
       xlink:href="#linearGradient4146"
       id="linearGradient4152"
       x1="21.051001"
       y1="1016.939"
       x2="28.563999"
       y2="1040.1071"
       gradientUnits="userSpaceOnUse" /><linearGradient
       id="linearGradient3707-319-631-407-324"><stop
         offset="0"
         style="stop-color:#185f9a;stop-opacity:1;"
         id="stop3760" /><stop
         offset="1"
         style="stop-color:#599ec9;stop-opacity:1;"
         id="stop3762" /></linearGradient><linearGradient
       id="linearGradient3707-319-631-407-1-846-5-4-5-2"><stop
         id="stop3788-4-8-9-54"
         style="stop-color:#365a7c;stop-opacity:1"
         offset="0" /><stop
         id="stop3790-2-1-9-7"
         style="stop-color:#5ea1ca;stop-opacity:1;"
         offset="1" /></linearGradient><linearGradient
       id="linearGradient3924"><stop
         id="stop3926"
         style="stop-color:#ffffff;stop-opacity:1"
         offset="0" /><stop
         id="stop3928"
         style="stop-color:#ffffff;stop-opacity:0.23529412"
         offset="0.06316455" /><stop
         id="stop3930"
         style="stop-color:#ffffff;stop-opacity:0.15686275"
         offset="0.95056331" /><stop
         id="stop3932"
         style="stop-color:#ffffff;stop-opacity:0.39215687"
         offset="1" /></linearGradient><linearGradient
       id="linearGradient2867-449-88-871-390-598-476-591-434-148-57-177"><stop
         offset="0"
         style="stop-color:#90dbec;stop-opacity:1;"
         id="stop3750" /><stop
         offset="0.26238"
         style="stop-color:#55c1ec;stop-opacity:1;"
         id="stop3752" /><stop
         offset="0.704952"
         style="stop-color:#3689e6;stop-opacity:1;"
         id="stop3754" /><stop
         offset="1"
         style="stop-color:#2b63a0;stop-opacity:1;"
         id="stop3756" /></linearGradient><radialGradient
       cx="4.9929786"
       cy="43.5"
       r="2.5"
       fx="4.9929786"
       fy="43.5"
       id="radialGradient2873-966-168"
       xlink:href="#linearGradient3688-166-749"
       gradientUnits="userSpaceOnUse"
       gradientTransform="matrix(2.003784,0,0,1.4,27.98813,-17.4)" /><linearGradient
       id="linearGradient3688-166-749"><stop
         id="stop2883"
         style="stop-color:#181818;stop-opacity:1"
         offset="0" /><stop
         id="stop2885"
         style="stop-color:#181818;stop-opacity:0"
         offset="1" /></linearGradient><radialGradient
       cx="4.9929786"
       cy="43.5"
       r="2.5"
       fx="4.9929786"
       fy="43.5"
       id="radialGradient2875-742-326"
       xlink:href="#linearGradient3688-166-749"
       gradientUnits="userSpaceOnUse"
       gradientTransform="matrix(2.003784,0,0,1.4,-20.01187,-104.4)" /><linearGradient
       x1="25.058096"
       y1="47.027729"
       x2="25.058096"
       y2="39.999443"
       id="linearGradient2877-634-617"
       xlink:href="#linearGradient3702-501-757"
       gradientUnits="userSpaceOnUse" /><linearGradient
       id="linearGradient3702-501-757"><stop
         id="stop2895"
         style="stop-color:#181818;stop-opacity:0"
         offset="0" /><stop
         id="stop2897"
         style="stop-color:#181818;stop-opacity:1"
         offset="0.5" /><stop
         id="stop2899"
         style="stop-color:#181818;stop-opacity:0"
         offset="1" /></linearGradient></defs><g
     inkscape:label="Layer 1"
     inkscape:groupmode="layer"
     id="layer1"
     transform="translate(-1464.6071,-755.11031)"><rect
       style="fill:#3177c5;fill-opacity:1;stroke:#3177c5;stroke-width:8.08908;stroke-linecap:round;stroke-linejoin:round;stroke-miterlimit:4;stroke-dasharray:none;stroke-opacity:1"
       id="rect1002"
       width="55.910919"
       height="55.931053"
       x="1468.6516"
       y="759.15485"
       ry="5.1870904" /><path
       inkscape:connector-curvature="0"
       d="m 1496.2714,760.5719 c -3.8627,-0.1807 -6.7512,4.1838 -5.1972,7.89603 0.8158,1.94905 5.1185,3.39016 3.8817,5.14187 -3.3188,0.032 -6.6499,-0.0611 -9.9616,0.0414 -0.085,0.002 -0.168,0.005 -0.2519,0.008 -0.054,0.0558 -0.1055,0.12456 -0.1522,0.20345 -0.4427,0.74731 -0.545,3.81642 0.4902,3.88291 h 9.0948 c 0.045,8.86456 0.107,16.31301 0.063,25.17758 0.1404,3.22329 -3.8769,2.04671 -5.6359,1.40232 -2.7498,-1.01549 -5.5447,-2.1633 -7.8492,-4.00619 -1.3397,-1.53856 0.7041,-1.68199 1.5564,-1.68168 -0.1629,-3.08203 -4.3381,-4.22892 -5.4363,-6.0007 -1.8916,-3.20118 -3.1046,2.3488 -3.3068,3.92191 -0.1916,2.10786 -0.1169,5.73132 1.8613,6.40438 1.4607,-2.49075 4.0917,-0.39211 5.5085,0.95973 3.1897,2.64572 7.1813,4.01881 10.9838,5.47653 1.7666,0.54226 3.899,2.77018 4.7214,3.47557 2.1003,-2.73628 5.4529,-3.85726 8.5592,-4.97422 3.1203,-1.24882 6.0542,-2.9363 8.5663,-5.18212 1.2536,-1.32662 3.3336,-1.21335 4.2071,0.46745 2.0436,-1.98917 1.9418,-5.20647 1.4293,-7.80126 -0.1917,-1.46643 -1.6132,-5.74255 -3.0789,-2.74797 -1.2262,2.0898 -5.2732,2.91867 -5.4362,6.0007 0.8524,-3.1e-4 2.8961,0.14313 1.5566,1.68168 -3.4275,2.27227 -6.851,4.8475 -11.0522,4.8982 -2.131,-0.48993 -3.167,-0.58195 -3.4339,-2.34443 l -0.05,-25.12745 c 3.4954,-0.0329 7.0036,0.0658 10.4907,-0.0496 0.5718,-0.58415 0.8065,-4.01285 -0.338,-4.08636 h -10.1027 c -0.4466,-2.17895 2.2766,-2.91912 3.2793,-4.75292 1.9778,-3.61755 -0.7429,-8.26943 -4.663,-8.27751 z m -0.1278,2.80469 c 3.1053,-0.2003 3.9551,4.6898 0.8389,5.43985 -2.8632,1.07611 -5.1418,-3.37104 -2.4083,-4.97154 0.4617,-0.30737 1.0163,-0.46955 1.5694,-0.46831 z"
       id="path3504"
       style="fill:#ffffff;fill-opacity:1;fill-rule:nonzero;stroke:#ffffff;stroke-width:0.679921;stroke-linecap:round;stroke-linejoin:round;stroke-dasharray:none;stroke-opacity:1;paint-order:normal"
       sodipodi:nodetypes="cscscscccccccccccccccccccccccccscccccc" /></g></svg>
