<?xml version="1.0" encoding="UTF-8" standalone="no"?>
<!-- Created with Inkscape (http://www.inkscape.org/) -->

<svg
   width="64"
   height="64.000031"
   viewBox="0 0 64 64.00003"
   version="1.1"
   id="svg5"
   xml:space="preserve"
   inkscape:version="1.2 (dc2aedaf03, 2022-05-15)"
   sodipodi:docname="anatine-indicator.svg"
   xmlns:inkscape="http://www.inkscape.org/namespaces/inkscape"
   xmlns:sodipodi="http://sodipodi.sourceforge.net/DTD/sodipodi-0.dtd"
   xmlns="http://www.w3.org/2000/svg"
   xmlns:svg="http://www.w3.org/2000/svg"><sodipodi:namedview
     id="namedview7"
     pagecolor="#505050"
     bordercolor="#ffffff"
     borderopacity="1"
     inkscape:showpageshadow="0"
     inkscape:pageopacity="0"
     inkscape:pagecheckerboard="1"
     inkscape:deskcolor="#505050"
     inkscape:document-units="px"
     showgrid="false"
     inkscape:zoom="4.9445097"
     inkscape:cx="31.145657"
     inkscape:cy="15.067217"
     inkscape:window-width="1440"
     inkscape:window-height="871"
     inkscape:window-x="0"
     inkscape:window-y="0"
     inkscape:window-maximized="1"
     inkscape:current-layer="layer1" /><defs
     id="defs2" /><g
     inkscape:label="Layer 1"
     inkscape:groupmode="layer"
     id="layer1"
     transform="translate(-671.99812,-746.6323)"><path
       d="m 679.5348,804.08351 c -4.16997,-3.78496 -6.90177,-10.05769 -5.39346,-14.94827 1.91183,-5.94075 7.09224,-8.71315 10.03417,-13.66738 1.16415,-2.22837 1.91489,-5.34571 -0.20735,-6.94431 -3.14248,-1.55895 -6.40376,0.12283 -9.66047,-1.22524 -0.97985,-0.41812 -1.32707,-0.89048 -1.02424,-1.39333 1.53919,-1.18412 3.0522,-1.35852 4.72999,-2.0457 -2.52039,-1.91162 -5.92865,-5.29245 -6.01532,-8.15509 0.49119,-1.91134 2.49062,-1.223 3.97861,-0.7992 2.44521,0.67263 4.51643,0.88463 6.85112,0.25461 2.09473,-2.42671 4.03069,-5.66172 6.96458,-6.99762 2.43377,-1.06529 5.87724,-1.63519 9.14556,-1.51348 8.53396,0.14485 10.25806,6.35515 15.05873,5.33386 1.25349,-0.2854 1.28176,-0.28399 1.28176,0.0632 -0.2963,0.95869 -0.96864,1.74427 -1.77613,2.31996 l 0.58776,0.30817 c 0.80996,0.4247 0.73576,1.07387 -0.22786,1.19637 -0.80264,0.10202 -1.40424,0.3371 -1.40424,0.54873 0.7303,7.00798 0.45237,13.1721 -8.44886,17.10149 -1.0822,0.37733 -1.37279,0.61452 -0.75289,0.61452 8.69065,-0.44308 15.88723,5.14184 20.09022,3.4977 3.11694,-1.02005 4.44767,-6.18888 7.71241,-5.81029 3.26475,0.37857 4.36427,5.05079 4.77192,7.44346 1.81087,14.8813 -11.4067,27.74371 -23.74252,30.42143 -11.11878,2.05993 -24.92163,0.99416 -32.55349,-5.60358 z"
       style="fill:#e6e6e6;fill-opacity:1;stroke-width:1.67736"
       id="path417" /></g></svg>
