<?xml version="1.0" encoding="UTF-8" standalone="no"?>
<svg
   width="64"
   height="64"
   version="1"
   id="svg20"
   sodipodi:docname="visual-studio-code.svg"
   inkscape:version="1.1.2 (0a00cf5339, 2022-02-04, custom)"
   xmlns:inkscape="http://www.inkscape.org/namespaces/inkscape"
   xmlns:sodipodi="http://sodipodi.sourceforge.net/DTD/sodipodi-0.dtd"
   xmlns="http://www.w3.org/2000/svg"
   xmlns:svg="http://www.w3.org/2000/svg">
  <defs
     id="defs24" />
  <sodipodi:namedview
     id="namedview22"
     pagecolor="#505050"
     bordercolor="#ffffff"
     borderopacity="1"
     inkscape:pageshadow="0"
     inkscape:pageopacity="0"
     inkscape:pagecheckerboard="1"
     showgrid="false"
     inkscape:zoom="4.40625"
     inkscape:cx="39.829787"
     inkscape:cy="-0.34042553"
     inkscape:window-width="1440"
     inkscape:window-height="881"
     inkscape:window-x="-4"
     inkscape:window-y="-4"
     inkscape:window-maximized="1"
     inkscape:current-layer="svg20" />
  <path
     style="opacity:1;fill:#106fae;fill-opacity:1;stroke-width:1.6"
     d="M 48.557681,0.39743876 C 47.03236,-0.34129715 45.209225,-0.02968123 44.011953,1.1744305 L 0.86946635,40.258685 c -1.16042499,1.064239 -1.15909042,2.901712 0.002821,3.964192 l 3.52401395,3.22211 c 0.9499695,0.868738 2.3806236,0.932561 3.403423,0.152322 L 59.753346,8.4352623 C 67.011297,8.5508014 52.719579,2.4900428 48.557681,0.39743876 Z"
     id="path6"
     sodipodi:nodetypes="cccccccc" />
  <path
     style="opacity:1;fill:#2b90d5;fill-opacity:1;stroke-width:1.6"
     d="m 48.557681,63.602748 c -1.525321,0.73856 -3.348456,0.426943 -4.545728,-0.777008 L 0.86946635,22.301278 c -1.16042499,-1.064159 -1.15909042,-2.901712 0.002821,-3.96416 L 4.3963009,15.114879 c 0.9499695,-0.868607 2.3806236,-0.93256 3.403423,-0.152158 L 59.753285,55.564796 c 3.227694,-4.535264 -2.863583,3.261281 -11.195667,8.037952 z"
     id="path12"
     sodipodi:nodetypes="cccccccc" />
  <path
     style="opacity:1;fill:#279ff1;fill-opacity:1;stroke-width:1.6"
     d="m 48.558428,63.603758 c -1.525819,0.738044 -3.348955,0.426188 -4.546226,-0.778018 1.475102,1.483648 3.997561,0.432735 3.997561,-1.665583 V 2.8398385 c 0,-2.0983199 -2.522459,-3.14918374 -3.997561,-1.6654406 1.197271,-1.20420709 3.020407,-1.51627134 4.546226,-0.77819128 L 61.734885,6.7695827 c 1.384654,0.6696963 2.265117,2.0782401 2.265117,3.6235043 v 43.214126 c 0,1.545216 -0.880463,2.953728 -2.265117,3.623422 z"
     id="path16" />
</svg>
