<?xml version="1.0" encoding="UTF-8" standalone="no"?>
<!-- Created with Inkscape (http://www.inkscape.org/) -->

<svg
   version="1.1"
   id="svg2"
   width="64"
   height="64"
   viewBox="0 0 64 64"
   sodipodi:docname="brave-desktop.svg"
   inkscape:version="1.1.2 (0a00cf5339, 2022-02-04, custom)"
   xmlns:inkscape="http://www.inkscape.org/namespaces/inkscape"
   xmlns:sodipodi="http://sodipodi.sourceforge.net/DTD/sodipodi-0.dtd"
   xmlns="http://www.w3.org/2000/svg"
   xmlns:svg="http://www.w3.org/2000/svg">
  <defs
     id="defs6" />
  <sodipodi:namedview
     id="namedview4"
     pagecolor="#505050"
     bordercolor="#ffffff"
     borderopacity="1"
     inkscape:pageshadow="0"
     inkscape:pageopacity="0"
     inkscape:pagecheckerboard="1"
     showgrid="false"
     inkscape:zoom="5.6568543"
     inkscape:cx="27.842329"
     inkscape:cy="40.393475"
     inkscape:window-width="1440"
     inkscape:window-height="881"
     inkscape:window-x="-4"
     inkscape:window-y="-4"
     inkscape:window-maximized="1"
     inkscape:current-layer="g8"
     width="64px" />
  <g
     inkscape:groupmode="layer"
     inkscape:label="Image"
     id="g8"
     transform="translate(-9.0315638,1.2891048)">
    <path
       style="font-variation-settings:'wght' 100;opacity:1;fill:#ff5500;fill-opacity:1;stroke:#ff5500;stroke-width:1.11735;stroke-linecap:round;stroke-linejoin:round;stroke-dashoffset:90.7465;stroke-opacity:1;paint-order:stroke fill markers"
       d="m 40.021232,61.970149 2.704881,0.182075 16.232163,-11.870937 9.159989,-30.653892 -2.600741,-5.64437 2.068299,-3.089165 -6.033447,-5.4045555 -5.645775,0.037736 -5.485695,-6.25747023 -19.148249,0.10757871 -5.248187,6.23035002 -5.729885,-0.2808225 -5.587422,5.6067377 1.824031,3.366758 -2.092632,5.579211 8.36992,29.494799 z"
       id="path902" />
    <path
       style="font-variation-settings:'wght' 100;opacity:1;fill:#ffffff;stroke:#ffffff;stroke-width:1.21786;stroke-linecap:round;stroke-linejoin:round;stroke-dashoffset:90.7465;paint-order:stroke fill markers"
       d="m 42.309642,51.694281 -9.63169,-7.644345 9.134066,-3.920321 9.6262,3.842459 z"
       id="path1564"
       sodipodi:nodetypes="ccccc" />
    <path
       style="fill:#ffffff;fill-opacity:1;stroke:#ffffff;stroke-width:0.537044;stroke-linejoin:round;stroke-opacity:1"
       d="m 28.138253,40.520826 c -1.756815,-1.756814 -1.898798,-2.117798 -1.547315,-3.933967 0.212846,-1.099808 1.007357,-3.298136 1.159539,-4.101932 0.236411,-1.248671 -0.356671,-2.147878 -4.073447,-6.175983 -2.596743,-2.814261 -4.352114,-5.176907 -4.355025,-5.861678 -0.0054,-1.260626 3.189767,-6.301157 5.99456,-9.456803 1.722503,-1.9379643 1.865963,-1.9922644 3.93583,-1.4896791 3.172275,0.7702681 5.994919,0.6591861 9.239614,-0.3636096 2.545686,-0.8024592 3.190335,-0.8233554 5.41762,-0.175597 3.596419,1.0459377 6.983688,1.2513187 9.778175,0.5928893 2.350182,-0.5537497 2.458718,-0.5215377 3.943827,1.1704074 2.56093,2.917603 6.25997,8.650676 6.25997,9.70222 -1.455564,4.288357 -6.496632,6.465557 -8.482551,8.804451 -0.618152,0.779621 -0.06787,2.449213 0.888479,5.178096 1.093962,2.155715 0.779484,2.657628 -0.0022,4.296894 -2.349659,3.645041 -3.130711,3.724426 -5.093802,2.411223 -2.405884,-1.608798 -8.86048,-5.570635 -8.476876,-6.532766 0.140137,-0.351481 1.819203,-1.667263 3.729896,-2.9245 1.910694,-1.257236 3.473985,-2.641483 3.473985,-3.076095 0,-0.434613 -0.658381,-2.132621 -1.463068,-3.773349 -1.125549,-2.294947 -1.331822,-3.195915 -0.894132,-3.905455 0.312918,-0.507268 2.669764,-1.749693 5.237437,-2.760943 5.180355,-2.040223 5.223635,-2.704689 0.177046,-2.717996 -3.867432,-0.0102 -7.883523,0.959409 -8.282717,1.999697 -0.165318,0.43081 0.111307,3.089253 0.614725,5.907655 0.670411,3.753338 0.755881,5.283778 0.319465,5.7202 -0.78913,0.78913 -7.298008,0.767804 -8.092326,-0.02653 -0.471764,-0.47177 -0.39841,-1.866054 0.303182,-5.762632 0.509041,-2.827155 0.797598,-5.473671 0.641239,-5.881147 -0.384694,-1.00249 -4.459527,-1.967302 -8.266435,-1.95726 -5.133009,0.01354 -5.099058,0.710196 0.133439,2.738383 2.579982,1.000036 4.951672,2.233289 5.270428,2.740557 0.449933,0.716028 0.252334,1.58951 -0.883515,3.90545 -0.804687,1.640733 -1.463069,3.331293 -1.463069,3.756802 0,0.425509 1.399333,1.72392 3.109629,2.88536 4.77607,3.243373 5.224578,3.878031 2.058777,5.865298 -3.396868,2.132315 -4.603894,3.693479 -7.154414,4.759664 -0.929035,0.388361 -1.632473,-0.03389 -3.155949,-1.557341 z"
       id="path5516"
       sodipodi:nodetypes="csssssssssscccccssssssssssssssssssssscc" />
  </g>
</svg>
