<?xml version="1.0" encoding="UTF-8" standalone="no"?>
<!-- Generator: Adobe Illustrator 19.0.0, SVG Export Plug-In . SVG Version: 6.00 Build 0)  -->

<svg
   version="1.1"
   id="Layer_1"
   x="0px"
   y="0px"
   viewBox="0 0 64.000003 64.000002"
   xml:space="preserve"
   sodipodi:docname="android-file-transfer.svg"
   width="64"
   height="64"
   inkscape:version="1.1.2 (0a00cf5339, 2022-02-04, custom)"
   xmlns:inkscape="http://www.inkscape.org/namespaces/inkscape"
   xmlns:sodipodi="http://sodipodi.sourceforge.net/DTD/sodipodi-0.dtd"
   xmlns="http://www.w3.org/2000/svg"
   xmlns:svg="http://www.w3.org/2000/svg"><defs
   id="defs45">
	
	
	
	
</defs><sodipodi:namedview
   id="namedview43"
   pagecolor="#505050"
   bordercolor="#ffffff"
   borderopacity="1"
   inkscape:pageshadow="0"
   inkscape:pageopacity="0"
   inkscape:pagecheckerboard="1"
   showgrid="false"
   inkscape:zoom="6.254584"
   inkscape:cx="23.262938"
   inkscape:cy="36.693088"
   inkscape:window-width="1440"
   inkscape:window-height="881"
   inkscape:window-x="-4"
   inkscape:window-y="-4"
   inkscape:window-maximized="1"
   inkscape:current-layer="Layer_1"
   height="64px"
   inkscape:snap-page="true" />
<path
   style="fill:#aac148;fill-opacity:1;stroke:#aac148;stroke-width:0.286239;stroke-linecap:round;stroke-linejoin:round;stroke-opacity:1;paint-order:fill markers stroke"
   d="M 2.5615443,49.904245 H 61.43854 c 1.535957,0 2.681484,-1.414877 2.366049,-2.918203 -1.947568,-9.282145 -6.490143,-15.983251 -14.509119,-20.5021 l 5.033221,-9.081493 c 0.340624,-0.61484 -1.248605,-2.510912 -1.863445,-2.851536 -0.616272,-0.341483 -1.389975,-0.118503 -1.730599,0.496338 l -5.07129,9.149904 c -4.153609,-1.927531 -8.78266,-3.004075 -13.663315,-3.004075 -4.880941,0 -9.509992,1.076544 -13.663601,3.004075 l -5.07129,-9.150191 c -0.34091,-0.615126 -1.115758,-0.836961 -1.730312,-0.496337 -0.614841,0.340624 -2.0924586,1.524583 -1.7518347,2.139424 l 5.0332197,9.081493 C 6.7972492,30.29068 2.1430634,37.703611 0.19549572,46.986042 -0.12022549,48.489368 1.0253015,49.904245 2.5615443,49.904245 Z"
   id="path8"
   sodipodi:nodetypes="ssccccccsccccccs" />
<g
   id="g12"
   transform="matrix(0.28623863,0,0,0.28623863,-27.056998,0.14251659)"
   style="fill:#aac148;fill-opacity:1;stroke:#aac148;stroke-linecap:round;stroke-linejoin:round;stroke-opacity:1;paint-order:fill markers stroke">
</g>
<g
   id="g14"
   transform="matrix(0.28623863,0,0,0.28623863,-27.056998,0.14251659)"
   style="fill:#aac148;fill-opacity:1;stroke:#aac148;stroke-linecap:round;stroke-linejoin:round;stroke-opacity:1;paint-order:fill markers stroke">
</g>
<g
   id="g16"
   transform="matrix(0.28623863,0,0,0.28623863,-27.056998,0.14251659)"
   style="fill:#aac148;fill-opacity:1;stroke:#aac148;stroke-linecap:round;stroke-linejoin:round;stroke-opacity:1;paint-order:fill markers stroke">
</g>
<g
   id="g18"
   transform="matrix(0.28623863,0,0,0.28623863,-27.056998,0.14251659)"
   style="fill:#aac148;fill-opacity:1;stroke:#aac148;stroke-linecap:round;stroke-linejoin:round;stroke-opacity:1;paint-order:fill markers stroke">
</g>
<g
   id="g20"
   transform="matrix(0.28623863,0,0,0.28623863,-27.056998,0.14251659)"
   style="fill:#aac148;fill-opacity:1;stroke:#aac148;stroke-linecap:round;stroke-linejoin:round;stroke-opacity:1;paint-order:fill markers stroke">
</g>
<g
   id="g22"
   transform="matrix(0.28623863,0,0,0.28623863,-27.056998,0.14251659)"
   style="fill:#aac148;fill-opacity:1;stroke:#aac148;stroke-linecap:round;stroke-linejoin:round;stroke-opacity:1;paint-order:fill markers stroke">
</g>
<g
   id="g24"
   transform="matrix(0.28623863,0,0,0.28623863,-27.056998,0.14251659)"
   style="fill:#aac148;fill-opacity:1;stroke:#aac148;stroke-linecap:round;stroke-linejoin:round;stroke-opacity:1;paint-order:fill markers stroke">
</g>
<g
   id="g26"
   transform="matrix(0.28623863,0,0,0.28623863,-27.056998,0.14251659)"
   style="fill:#aac148;fill-opacity:1;stroke:#aac148;stroke-linecap:round;stroke-linejoin:round;stroke-opacity:1;paint-order:fill markers stroke">
</g>
<g
   id="g28"
   transform="matrix(0.28623863,0,0,0.28623863,-27.056998,0.14251659)"
   style="fill:#aac148;fill-opacity:1;stroke:#aac148;stroke-linecap:round;stroke-linejoin:round;stroke-opacity:1;paint-order:fill markers stroke">
</g>
<g
   id="g30"
   transform="matrix(0.28623863,0,0,0.28623863,-27.056998,0.14251659)"
   style="fill:#aac148;fill-opacity:1;stroke:#aac148;stroke-linecap:round;stroke-linejoin:round;stroke-opacity:1;paint-order:fill markers stroke">
</g>
<g
   id="g32"
   transform="matrix(0.28623863,0,0,0.28623863,-27.056998,0.14251659)"
   style="fill:#aac148;fill-opacity:1;stroke:#aac148;stroke-linecap:round;stroke-linejoin:round;stroke-opacity:1;paint-order:fill markers stroke">
</g>
<g
   id="g34"
   transform="matrix(0.28623863,0,0,0.28623863,-27.056998,0.14251659)"
   style="fill:#aac148;fill-opacity:1;stroke:#aac148;stroke-linecap:round;stroke-linejoin:round;stroke-opacity:1;paint-order:fill markers stroke">
</g>
<g
   id="g36"
   transform="matrix(0.28623863,0,0,0.28623863,-27.056998,0.14251659)"
   style="fill:#aac148;fill-opacity:1;stroke:#aac148;stroke-linecap:round;stroke-linejoin:round;stroke-opacity:1;paint-order:fill markers stroke">
</g>
<g
   id="g38"
   transform="matrix(0.28623863,0,0,0.28623863,-27.056998,0.14251659)"
   style="fill:#aac148;fill-opacity:1;stroke:#aac148;stroke-linecap:round;stroke-linejoin:round;stroke-opacity:1;paint-order:fill markers stroke">
</g>
<g
   id="g40"
   transform="matrix(0.28623863,0,0,0.28623863,-27.056998,0.14251659)"
   style="fill:#aac148;fill-opacity:1;stroke:#aac148;stroke-linecap:round;stroke-linejoin:round;stroke-opacity:1;paint-order:fill markers stroke">
</g>
<circle
   style="fill:#ffffff;fill-opacity:1;stroke:none;stroke-width:0.325989;stroke-linecap:round;stroke-linejoin:round;stroke-dashoffset:90.7465;stroke-opacity:1;paint-order:fill markers stroke"
   id="path18621-3"
   cx="46.177731"
   cy="37.362648"
   r="5.8443384" /><circle
   style="fill:#ffffff;fill-opacity:1;stroke:none;stroke-width:0.325989;stroke-linecap:round;stroke-linejoin:round;stroke-dashoffset:90.7465;stroke-opacity:1;paint-order:fill markers stroke"
   id="path18621-3-6"
   cx="18.591455"
   cy="37.384995"
   r="5.8443384" /></svg>
