<?xml version="1.0" encoding="UTF-8" standalone="no"?>
<!-- Created with Inkscape (http://www.inkscape.org/) -->

<svg
   version="1.1"
   id="svg2"
   width="64"
   height="61.419086"
   viewBox="0 0 64 61.419085"
   sodipodi:docname="cs-default-applications.svg"
   inkscape:version="1.1.2 (0a00cf5339, 2022-02-04, custom)"
   xmlns:inkscape="http://www.inkscape.org/namespaces/inkscape"
   xmlns:sodipodi="http://sodipodi.sourceforge.net/DTD/sodipodi-0.dtd"
   xmlns="http://www.w3.org/2000/svg"
   xmlns:svg="http://www.w3.org/2000/svg">
  <defs
     id="defs6" />
  <sodipodi:namedview
     id="namedview4"
     pagecolor="#505050"
     bordercolor="#ffffff"
     borderopacity="1"
     inkscape:pageshadow="0"
     inkscape:pageopacity="0"
     inkscape:pagecheckerboard="1"
     showgrid="false"
     inkscape:zoom="8"
     inkscape:cx="65.3125"
     inkscape:cy="38.8125"
     inkscape:window-width="1440"
     inkscape:window-height="881"
     inkscape:window-x="-4"
     inkscape:window-y="-4"
     inkscape:window-maximized="0"
     inkscape:current-layer="g8"
     inkscape:snap-bbox="false"
     inkscape:snap-bbox-edge-midpoints="false"
     inkscape:snap-bbox-midpoints="false"
     inkscape:object-nodes="false"
     inkscape:bbox-nodes="false"
     inkscape:bbox-paths="false"
     inkscape:object-paths="false"
     inkscape:snap-intersection-paths="false"
     inkscape:snap-smooth-nodes="false"
     inkscape:snap-midpoints="false"
     inkscape:snap-page="true"
     showguides="false" />
  <g
     inkscape:groupmode="layer"
     inkscape:label="Image"
     id="g8"
     transform="translate(-59.644654,-0.41511932)">
    <path
       sodipodi:type="star"
       style="fill:#4caf50;fill-opacity:1;stroke:#4caf50;stroke-width:6;stroke-linecap:round;stroke-linejoin:round;stroke-dashoffset:90.7465;stroke-opacity:1;paint-order:normal"
       id="path869"
       inkscape:flatsided="false"
       sodipodi:sides="5"
       sodipodi:cx="55.083572"
       sodipodi:cy="-62.746922"
       sodipodi:r1="43.890667"
       sodipodi:r2="21.728142"
       sodipodi:arg1="-0.70526062"
       sodipodi:arg2="-0.094581804"
       inkscape:rounded="0.1"
       inkscape:randomized="0"
       d="m 88.503798,-91.198269 c 1.912732,2.168075 -12.011424,23.516666 -11.789198,26.399323 0.227421,2.950063 17.260519,22.497306 15.75523,25.044597 -1.470895,2.489089 -26.077413,-4.156492 -28.750312,-3.054353 -2.735399,1.12791 -16.062415,23.367779 -18.950193,22.72332 -2.821796,-0.629734 -4.105305,-26.085521 -5.979472,-28.287018 -1.917991,-2.252976 -27.187638,-8.055224 -27.467093,-11.000813 -0.273071,-2.878285 23.540195,-11.965246 25.054794,-14.427985 1.550016,-2.520326 -0.740469,-28.346182 1.974596,-29.522192 2.653029,-1.14915 18.653945,18.690587 21.464186,19.370029 2.875954,0.695328 26.730003,-9.46368 28.687462,-7.244908 z"
       transform="matrix(0.66510674,0.26144469,-0.26144469,0.66510674,38.760063,61.253628)" />
    <g
       id="g6147"
       transform="matrix(0.57733255,0,0,0.57733255,73.015799,12.713858)">
      <rect
         style="fill:#ffffff;stroke-width:2.06508"
         width="24.78087"
         height="8.2602901"
         x="32.354561"
         y="40.671909"
         rx="2.0650725"
         ry="2.0650725"
         id="rect10" />
      <rect
         style="fill:#ffffff;fill-opacity:1;stroke-width:2.06508"
         width="25.286814"
         height="8.4296255"
         x="-28.370464"
         y="39.241665"
         rx="2.1063738"
         ry="2.1063738"
         transform="matrix(0.72685813,-0.68678763,0.72685813,0.68678763,0,0)"
         id="rect14" />
      <rect
         style="fill:#ffffff;stroke-width:2.06508"
         width="25.286814"
         height="8.4296255"
         x="22.390671"
         y="-11.519473"
         rx="2.1063738"
         ry="2.1063738"
         transform="matrix(0.72685813,0.68678763,0.72685813,-0.68678763,0,0)"
         id="rect18" />
    </g>
  </g>
</svg>
