<?xml version="1.0" encoding="UTF-8" standalone="no"?>
<!-- Created with Inkscape (http://www.inkscape.org/) -->

<svg
   version="1.1"
   id="svg2"
   width="64.000504"
   height="64"
   viewBox="0 0 64.000508 63.999994"
   sodipodi:docname="org.xfce.workspaces.svg"
   inkscape:version="1.1.2 (0a00cf5339, 2022-02-04, custom)"
   xmlns:inkscape="http://www.inkscape.org/namespaces/inkscape"
   xmlns:sodipodi="http://sodipodi.sourceforge.net/DTD/sodipodi-0.dtd"
   xmlns="http://www.w3.org/2000/svg"
   xmlns:svg="http://www.w3.org/2000/svg">
  <defs
     id="defs6" />
  <sodipodi:namedview
     id="namedview4"
     pagecolor="#505050"
     bordercolor="#ffffff"
     borderopacity="1"
     inkscape:pageshadow="0"
     inkscape:pageopacity="0"
     inkscape:pagecheckerboard="1"
     showgrid="false"
     inkscape:zoom="2"
     inkscape:cx="-31"
     inkscape:cy="-5.25"
     inkscape:window-width="1440"
     inkscape:window-height="881"
     inkscape:window-x="-4"
     inkscape:window-y="-4"
     inkscape:window-maximized="1"
     inkscape:current-layer="g8"
     inkscape:snap-bbox="false"
     inkscape:snap-bbox-edge-midpoints="true"
     inkscape:snap-bbox-midpoints="true"
     inkscape:object-nodes="true"
     inkscape:bbox-nodes="true"
     inkscape:bbox-paths="true"
     inkscape:object-paths="false"
     inkscape:snap-intersection-paths="false"
     inkscape:snap-smooth-nodes="false"
     inkscape:snap-midpoints="false"
     inkscape:snap-page="false"
     showguides="true"
     inkscape:snap-object-midpoints="false"
     inkscape:snap-others="true"
     inkscape:guide-bbox="true"
     inkscape:snap-center="true" />
  <g
     inkscape:groupmode="layer"
     inkscape:label="Image"
     id="g8"
     transform="translate(-1.2851449,-0.78288817)">
    <path
       id="rect1002-8"
       style="fill:#dddddd;fill-opacity:1;stroke:#dddddd;stroke-width:8.08553;stroke-linecap:round;stroke-linejoin:round;stroke-opacity:1"
       d="m 10.547594,36.593908 h 45.511101 c 2.872027,0 5.184171,2.312714 5.184171,5.185457 v 13.774787 c 0,2.872747 -2.312144,5.18546 -5.184171,5.18546 H 10.547594 c -2.8720305,0 -5.1841702,-2.312713 -5.1841702,-5.18546 V 41.779365 c 0,-2.872743 2.3121397,-5.185457 5.1841702,-5.185457 z" />
    <path
       id="rect1002-8-9"
       style="fill:#cccccc;fill-opacity:1;stroke:#cccccc;stroke-width:8.08553;stroke-linecap:round;stroke-linejoin:round;stroke-opacity:1"
       d="m 10.54761,4.8345799 h 45.5111 c 2.872028,0 5.184172,2.3127138 5.184172,5.1854571 v 13.418019 c 0,2.872744 -2.312144,5.185458 -5.184172,5.185458 h -45.5111 c -2.8720297,0 -5.1841695,-2.312714 -5.1841695,-5.185458 V 10.020037 c 0,-2.8727433 2.3121398,-5.1854571 5.1841695,-5.1854571 z" />
    <path
       style="font-variation-settings:'wght' 800;fill:#356ad1;fill-opacity:1;stroke:none;stroke-width:2.99868;stroke-linecap:round;stroke-linejoin:round;stroke-opacity:1"
       d="M 33.486192,41.688698 25.008277,32.710583 33.303133,32.6582 Z"
       id="path17851-6-9"
       sodipodi:nodetypes="cccc" />
    <path
       style="font-variation-settings:'wght' 800;fill:#aaaaaa;fill-opacity:1;stroke:none;stroke-width:2.99868;stroke-linecap:round;stroke-linejoin:round;stroke-opacity:1"
       d="m 33.339139,23.732471 -8.330862,8.978112 8.294856,-0.05238 z"
       id="path17851-5"
       sodipodi:nodetypes="cccc" />
    <path
       id="rect1002-8-2"
       style="fill:#aaaaaa;fill-opacity:1;stroke:#aaaaaa;stroke-width:8.08553;stroke-linecap:round;stroke-linejoin:round;stroke-opacity:1"
       d="M 29.303321,10.020037 V 23.42964 c 0,2.872743 -2.31214,5.185456 -5.18417,5.185456 h -13.57155 c -2.8720299,0 -5.1841701,-2.312713 -5.1841701,-5.185456 V 10.020037 c 0,-2.8727433 2.3121402,-5.1854571 5.1841701,-5.1854571 h 13.57155 c 2.87203,0 5.18417,2.3127138 5.18417,5.1854571 z" />
    <path
       id="rect1002-8-2-4"
       style="fill:#356ad1;fill-opacity:1;stroke:#356ad1;stroke-width:8.08553;stroke-linecap:round;stroke-linejoin:round;stroke-opacity:1"
       d="m 29.335408,41.779365 v 13.774787 c 0,2.872747 -2.31214,5.18546 -5.18417,5.18546 H 10.54758 c -2.87203,0 -5.18417,-2.312713 -5.18417,-5.18546 V 41.779365 c 0,-2.872743 2.31214,-5.185457 5.18417,-5.185457 h 13.603658 c 2.93711,0 5.18417,2.312714 5.18417,5.185457 z"
       sodipodi:nodetypes="sssssssss" />
    <path
       style="font-variation-settings:'wght' 800;fill:#dddddd;fill-opacity:1;stroke:none;stroke-width:2.99868;stroke-linecap:round;stroke-linejoin:round;stroke-opacity:1"
       d="m 65.283051,41.606281 -8.330863,-8.978114 8.294855,-0.05238 z"
       id="path17851-6"
       sodipodi:nodetypes="cccc" />
    <path
       style="font-variation-settings:'wght' 800;fill:#cccccc;fill-opacity:1;stroke:none;stroke-width:2.99868;stroke-linecap:round;stroke-linejoin:round;stroke-opacity:1"
       d="m 65.283051,23.650053 -8.330863,8.978114 8.294855,-0.05238 z"
       id="path17851"
       sodipodi:nodetypes="cccc" />
    <path
       style="font-variation-settings:'wght' 800;fill:#356ad1;fill-opacity:1;stroke:none;stroke-width:2.99868;stroke-linecap:round;stroke-linejoin:round;stroke-opacity:1"
       d="m 1.2851449,41.576652 8.330862,-8.978113 -8.2948573,-0.05238 z"
       id="path17851-6-0"
       sodipodi:nodetypes="cccc" />
    <path
       style="font-variation-settings:'wght' 800;fill:#aaaaaa;fill-opacity:1;stroke:none;stroke-width:2.99868;stroke-linecap:round;stroke-linejoin:round;stroke-opacity:1"
       d="m 1.2851449,23.620427 8.330862,8.978112 -8.2948573,-0.05238 z"
       id="path17851-4"
       sodipodi:nodetypes="cccc" />
    <path
       style="font-variation-settings:'wght' 800;fill:#aaaaaa;fill-opacity:1;stroke:none;stroke-width:2.99868;stroke-linecap:round;stroke-linejoin:round;stroke-opacity:1"
       d="m 33.476451,9.7086246 -9.391912,-8.91613943 9.355907,-0.009597 z"
       id="path17851-7"
       sodipodi:nodetypes="cccc" />
    <path
       style="font-variation-settings:'wght' 800;fill:#356ad1;fill-opacity:1;stroke:none;stroke-width:2.99868;stroke-linecap:round;stroke-linejoin:round;stroke-opacity:1"
       d="m 24.43568,64.782888 9.040287,-9.27964 -0.104097,9.27964 z"
       id="path17851-7-1"
       sodipodi:nodetypes="cccc" />
  </g>
</svg>
