<?xml version="1.0" encoding="UTF-8" standalone="no"?>
<svg
   version="1.1"
   viewBox="0 0 59.529999 64"
   id="svg6"
   width="59.529999"
   height="64"
   xmlns="http://www.w3.org/2000/svg"
   xmlns:svg="http://www.w3.org/2000/svg">
  <defs
     id="defs10" />
  <path
     d="m 18.62,38 c 0,1.54 0.23,2.94 0.7,4.2 0.5,1.24 1.15,2.35 1.98,3.32 0.83,0.97 1.8,1.8 2.94,2.5 1.1,0.7 2.3,1.28 3.58,1.73 1.27,0.46 2.6,0.8 3.95,1.02 1.37,0.22 2.7,0.33 4.05,0.33 1.7,0 3.28,-0.13 4.78,-0.4 1.5,-0.28 2.96,-0.65 4.4,-1.12 1.44,-0.47 2.83,-1.03 4.22,-1.67 1.4,-0.64 2.82,-1.34 4.28,-2.12 v 13.56 c -1.63,0.8 -3.23,1.47 -4.83,2.05 -1.6,0.56 -3.2,1.05 -4.83,1.44 -1.63,0.4 -3.28,0.7 -4.97,0.88 -1.69,0.18 -3.42,0.28 -5.22,0.28 -2.4,0 -4.72,-0.28 -6.95,-0.83 -2.23,-0.55 -4.32,-1.34 -6.28,-2.38 -1.96,-1.04 -3.75,-2.3 -5.38,-3.78 -1.64,-1.48 -3.03,-3.15 -4.2,-5 C 9.67,50.16 8.77,48.13 8.12,45.95 7.49,43.77 7.17,41.45 7.17,38.99 c 0,-2.63 0.36,-5.13 1.08,-7.52 0.73,-2.4 1.76,-4.58 3.12,-6.58 1.35,-2 3,-3.78 4.95,-5.33 1.95,-1.55 4.14,-2.82 6.58,-3.8 -1.33,1.33 -2.37,2.9 -3.1,4.73 -0.75,1.82 -1.22,3.65 -1.43,5.48 h 22.78 c 0,-2.3 -0.23,-4.3 -0.7,-6.02 -0.47,-1.72 -1.22,-3.15 -2.27,-4.28 -1.04,-1.14 -2.38,-2 -4.03,-2.56 -1.65,-0.57 -3.64,-0.86 -5.97,-0.86 -2.75,0 -5.5,0.4 -8.25,1.23 -2.75,0.8 -5.36,1.95 -7.84,3.4 -2.48,1.47 -4.76,3.2 -6.84,5.18 -2.08,2 -3.83,4.15 -5.25,6.48 0.3,-2.7 0.9,-5.3 1.73,-7.77 C 2.56,18.3 3.66,16 4.98,13.87 6.3,11.77 7.85,9.85 9.62,8.13 11.39,6.41 13.35,4.93 15.52,3.73 17.69,2.53 19.99,1.56 22.49,0.91 24.99,0.34 27.65,0 30.45,0 c 1.64,0 3.27,0.15 4.9,0.44 1.63,0.3 3.22,0.7 4.77,1.22 3.08,1.06 5.83,2.54 8.25,4.42 2.42,1.9 4.45,4.06 6.1,6.53 1.65,2.47 2.9,5.2 3.76,8.17 0.86,2.97 1.3,6.06 1.3,9.27 V 38 Z"
     fill="#0078d7"
     id="path4"
     style="stroke:#0078d7;stroke-opacity:1;stroke-linejoin:round;stroke-linecap:round" />
</svg>
