<?xml version="1.0" encoding="UTF-8" standalone="no"?>
<!-- Created with Inkscape (http://www.inkscape.org/) -->

<svg
   version="1.1"
   id="svg2"
   width="31.725885"
   height="32"
   viewBox="0 0 31.725887 31.999997"
   sodipodi:docname="accessories-calculator.svg"
   inkscape:version="1.1.2 (0a00cf5339, 2022-02-04, custom)"
   xmlns:inkscape="http://www.inkscape.org/namespaces/inkscape"
   xmlns:sodipodi="http://sodipodi.sourceforge.net/DTD/sodipodi-0.dtd"
   xmlns="http://www.w3.org/2000/svg"
   xmlns:svg="http://www.w3.org/2000/svg">
  <defs
     id="defs6" />
  <sodipodi:namedview
     id="namedview4"
     pagecolor="#505050"
     bordercolor="#ffffff"
     borderopacity="1"
     inkscape:pageshadow="0"
     inkscape:pageopacity="0"
     inkscape:pagecheckerboard="1"
     showgrid="false"
     inkscape:zoom="2.8284271"
     inkscape:cx="18.73833"
     inkscape:cy="34.471455"
     inkscape:window-width="1440"
     inkscape:window-height="881"
     inkscape:window-x="-4"
     inkscape:window-y="-4"
     inkscape:window-maximized="1"
     inkscape:current-layer="g8"
     inkscape:snap-bbox="false"
     inkscape:snap-bbox-edge-midpoints="true"
     inkscape:snap-bbox-midpoints="true"
     inkscape:object-nodes="true"
     inkscape:bbox-nodes="true"
     inkscape:bbox-paths="true"
     inkscape:object-paths="false"
     inkscape:snap-intersection-paths="false"
     inkscape:snap-smooth-nodes="false"
     inkscape:snap-midpoints="false"
     inkscape:snap-page="false"
     showguides="false"
     inkscape:snap-object-midpoints="false"
     inkscape:snap-others="true"
     inkscape:guide-bbox="true"
     inkscape:snap-center="true">
    <sodipodi:guide
       position="64.072069,-45.858638"
       orientation="0,-1"
       id="guide1975" />
    <sodipodi:guide
       position="64.072049,-55.088485"
       orientation="1,0"
       id="guide2318" />
    <sodipodi:guide
       position="64.07205,-45.858639"
       orientation="0,-1"
       id="guide55342" />
  </sodipodi:namedview>
  <g
     inkscape:groupmode="layer"
     inkscape:label="Image"
     id="g8"
     transform="translate(-1.2851449,-0.78288777)">
    <path
       id="rect1002-8"
       style="fill:#808080;stroke:#808080;stroke-width:3.74778;stroke-linecap:round;stroke-linejoin:round"
       d="M 5.5789762,17.379827 H 26.676743 c 1.331398,0 2.403248,1.071848 2.403248,2.403247 v 6.384049 c 0,1.3314 -1.07185,2.403248 -2.403248,2.403248 H 5.5789762 c -1.3313988,0 -2.4032469,-1.071848 -2.4032469,-2.403248 v -6.384049 c 0,-1.331399 1.0718481,-2.403247 2.4032469,-2.403247 z" />
    <path
       id="rect1002-8-9"
       style="fill:#333333;stroke:#333333;stroke-width:3.74778;stroke-linecap:round;stroke-linejoin:round"
       d="M 5.5789839,2.660681 H 26.676751 c 1.331397,0 2.403247,1.071848 2.403247,2.4032467 v 6.2187013 c 0,1.331399 -1.07185,2.403247 -2.403247,2.403247 H 5.5789839 c -1.3313988,0 -2.4032468,-1.071848 -2.4032468,-2.403247 V 5.0639277 c 0,-1.3313987 1.071848,-2.4032467 2.4032468,-2.4032467 z" />
    <path
       style="font-variation-settings:'wght' 800;fill:#666666;fill-opacity:1;stroke:none;stroke-width:1.38994;stroke-linecap:round;stroke-linejoin:round;stroke-opacity:1"
       d="m 16.212716,19.741053 -3.930142,-4.160987 3.845281,-0.02428 z"
       id="path17851-6-9"
       sodipodi:nodetypes="cccc" />
    <path
       style="font-variation-settings:'wght' 800;fill:#4d4d4d;fill-opacity:1;stroke:none;stroke-width:1.38994;stroke-linecap:round;stroke-linejoin:round;stroke-opacity:1"
       d="m 16.144546,11.419078 -3.861972,4.160988 3.845281,-0.02428 z"
       id="path17851-5"
       sodipodi:nodetypes="cccc" />
    <path
       id="rect1002-8-2"
       style="fill:#4d4d4d;stroke:#4d4d4d;stroke-width:3.74778;stroke-linecap:round;stroke-linejoin:round"
       d="m 14.273645,5.0639277 v 6.2148013 c 0,1.331398 -1.071848,2.403246 -2.403246,2.403246 H 5.5789797 c -1.3313988,0 -2.4032471,-1.071848 -2.4032471,-2.403246 V 5.0639277 c 0,-1.3313987 1.0718483,-2.4032467 2.4032471,-2.4032467 h 6.2914193 c 1.331398,0 2.403246,1.071848 2.403246,2.4032467 z" />
    <path
       id="rect1002-8-2-4"
       style="fill:#666666;stroke:#666666;stroke-width:3.74778;stroke-linecap:round;stroke-linejoin:round"
       d="m 14.28852,19.783074 v 6.384049 c 0,1.3314 -1.071848,2.403248 -2.403247,2.403248 H 5.5789699 c -1.3313988,0 -2.403247,-1.071848 -2.403247,-2.403248 v -6.384049 c 0,-1.331399 1.0718482,-2.403247 2.403247,-2.403247 h 6.3063031 c 1.331399,0 2.403247,1.071848 2.403247,2.403247 z" />
    <path
       style="font-variation-settings:'wght' 800;fill:#808080;fill-opacity:1;stroke:none;stroke-width:1.38994;stroke-linecap:round;stroke-linejoin:round;stroke-opacity:1"
       d="m 30.952916,19.702857 -3.861973,-4.160988 3.84528,-0.02427 z"
       id="path17851-6"
       sodipodi:nodetypes="cccc" />
    <path
       style="font-variation-settings:'wght' 800;fill:#333333;fill-opacity:1;stroke:none;stroke-width:1.38994;stroke-linecap:round;stroke-linejoin:round;stroke-opacity:1"
       d="m 30.952916,11.380882 -3.861973,4.160987 3.84528,-0.02427 z"
       id="path17851"
       sodipodi:nodetypes="cccc" />
    <path
       style="font-variation-settings:'wght' 800;fill:#666666;fill-opacity:1;stroke:none;stroke-width:1.38994;stroke-linecap:round;stroke-linejoin:round;stroke-opacity:1"
       d="M 1.2851449,19.689125 5.1471166,15.528138 1.3018358,15.503863 Z"
       id="path17851-6-0"
       sodipodi:nodetypes="cccc" />
    <path
       style="font-variation-settings:'wght' 800;fill:#4d4d4d;fill-opacity:1;stroke:none;stroke-width:1.38994;stroke-linecap:round;stroke-linejoin:round;stroke-opacity:1"
       d="m 1.2851449,11.367151 3.8619717,4.160987 -3.8452808,-0.02427 z"
       id="path17851-4"
       sodipodi:nodetypes="cccc" />
    <path
       style="font-variation-settings:'wght' 800;fill:#4d4d4d;fill-opacity:1;stroke:none;stroke-width:1.38994;stroke-linecap:round;stroke-linejoin:round;stroke-opacity:1"
       d="m 16.2082,4.9196007 -4.353847,-4.13226493 4.337156,-0.004448 z"
       id="path17851-7"
       sodipodi:nodetypes="cccc" />
    <path
       style="font-variation-settings:'wght' 800;fill:#666666;fill-opacity:1;stroke:none;stroke-width:1.38994;stroke-linecap:round;stroke-linejoin:round;stroke-opacity:1"
       d="m 12.017133,30.444263 4.190843,-4.300732 -0.04825,4.300732 z"
       id="path17851-7-1"
       sodipodi:nodetypes="cccc" />
    <g
       aria-label="+"
       id="text60480"
       style="font-weight:bold;font-size:89.0438px;line-height:1.25;font-family:Comfortaa;-inkscape-font-specification:'Comfortaa, Bold';fill:#ffffff;stroke-width:2.2261"
       transform="matrix(0.23165654,0,0,0.23165654,0.98743268,0.60152661)">
      <path
         d="m 33.355174,53.735679 c -2.599012,0.181526 -4.809172,-2.215979 -4.541234,-4.779488 0,-3.897872 0,-7.795743 0,-11.693615 -4.137104,-0.01374 -8.275718,0.0276 -12.411871,-0.02087 -3.240746,-0.121825 -5.019829,-4.068921 -3.574274,-6.77985 0.947552,-1.984437 3.232724,-2.53826 5.245545,-2.370791 3.5802,0 7.1604,0 10.7406,0 0.01365,-4.130182 -0.02747,-8.261608 0.02087,-12.391002 0.179672,-3.454903 4.843564,-5.407157 7.403157,-3.059489 1.811056,1.292066 1.69705,3.577681 1.658441,5.543778 0,3.302238 0,6.604475 0,9.906713 4.130182,0.01365 8.261608,-0.02747 12.391001,0.02087 3.284828,0.20075 5.437927,4.444613 3.369751,7.113764 -1.095062,1.684023 -3.128814,2.19842 -5.020152,2.036877 -3.5802,0 -7.1604,0 -10.7406,0 -0.01374,4.137104 0.0276,8.275718 -0.02087,12.411871 -0.143346,2.295299 -2.214706,4.174534 -4.520364,4.061232 z"
         id="path77701" />
    </g>
    <g
       aria-label="×"
       id="text60480-6"
       style="font-weight:bold;font-size:89.0438px;line-height:1.25;font-family:Comfortaa;-inkscape-font-specification:'Comfortaa, Bold';fill:#ffffff;stroke-width:2.2261"
       transform="matrix(0.23165654,0,0,0.23165654,0.98743268,0.60152661)">
      <path
         d="m 20.208768,114.34503 c -2.299355,0.13556 -4.456676,-1.73353 -4.521756,-4.06123 -0.229749,-1.67995 0.59442,-3.2767 1.866648,-4.32509 3.140812,-3.14081 6.281625,-6.281627 9.422437,-9.422439 -3.397285,-3.393895 -6.851169,-6.737065 -10.212907,-10.162819 -1.82575,-2.088315 -1.307283,-5.770961 1.240352,-7.035156 2.073877,-1.140549 4.707018,-0.325075 6.136484,1.45629 3.082408,3.110177 6.164816,6.220355 9.247224,9.330532 3.443661,-3.423551 6.848187,-6.888603 10.316559,-10.285951 2.106743,-1.823135 5.727261,-1.117115 6.97046,1.389918 1.135973,1.988169 0.31044,4.515675 -1.382372,5.902737 -3.134816,3.134816 -6.269633,6.269633 -9.404449,9.404449 3.424338,3.472119 6.884136,6.910919 10.28595,10.404209 1.994339,2.24507 0.946527,6.31493 -1.984703,7.16594 -1.854458,0.63401 -4.015327,0.036 -5.236894,-1.5054 -3.188183,-3.18818 -6.376367,-6.37637 -9.564551,-9.56455 -3.4657,3.4465 -6.894068,6.93265 -10.383341,10.35412 -0.774375,0.65189 -1.790408,0.96452 -2.795141,0.95444 z"
         id="path77704" />
    </g>
    <g
       aria-label="-"
       id="text60480-6-3-5"
       style="font-weight:bold;font-size:89.0438px;line-height:1.25;font-family:Comfortaa;-inkscape-font-specification:'Comfortaa, Bold';fill:#ffffff;stroke-width:2.2261"
       transform="matrix(0.23165654,0,0,0.23165654,0.98743268,0.60152661)">
      <path
         d="m 86.535804,36.884939 c -2.077426,0.09175 -4.175862,-1.398084 -4.46332,-3.51723 -0.383873,-1.915242 0.458524,-4.065745 2.258095,-4.954452 1.447228,-0.771929 3.114352,-0.453974 4.68322,-0.521741 5.873596,0.0035 11.747381,-0.0069 17.620861,0.0052 2.39694,0.0057 4.39099,2.294648 4.20888,4.657756 0.0745,2.19849 -1.76306,4.228114 -3.97236,4.310972 -4.3691,0.04494 -8.740387,0.0069 -13.11034,0.01948 -2.408345,0 -4.816691,0 -7.225036,0 z"
         id="path77707" />
    </g>
    <path
       id="path71455"
       style="fill:#8fa876;stroke-width:1.63183;stroke-linecap:round;stroke-linejoin:round"
       d="M 33.011031,22.9751 A 9.6873506,9.8077866 0 0 1 23.32368,32.782888 9.6873506,9.8077866 0 0 1 13.636329,22.9751 9.6873506,9.8077866 0 0 1 23.32368,13.167313 9.6873506,9.8077866 0 0 1 33.011031,22.9751 Z" />
    <g
       aria-label="="
       id="text60480-6-3"
       style="font-weight:bold;font-size:89.0438px;line-height:1.25;font-family:Comfortaa;-inkscape-font-specification:'Comfortaa, Bold';fill:#ffffff;stroke-width:2.2261"
       transform="matrix(0.23165654,0,0,0.23165654,0.98743268,0.60152661)">
      <path
         d="m 83.196664,91.193643 c -2.38151,0.159142 -4.480167,-1.938484 -4.44732,-4.298798 -0.272907,-2.570969 2.042637,-5.020395 4.640723,-4.783669 10.001921,0.01385 20.005433,-0.02774 30.006353,0.02087 2.77929,0.188187 4.78588,3.272227 3.89428,5.901933 -0.5592,2.126998 -2.81465,3.392767 -4.93362,3.159664 -9.72014,0 -19.440277,0 -29.160416,0 z m 0,19.856767 c -2.381509,0.15914 -4.480167,-1.93848 -4.44732,-4.29879 -0.272908,-2.57097 2.042635,-5.02041 4.640723,-4.78368 10.001921,0.0139 20.005433,-0.0277 30.006353,0.0209 2.8352,0.18667 4.87166,3.40879 3.82646,6.05429 -0.70091,2.02127 -2.86759,3.25329 -4.9625,3.00731 -9.68791,0 -19.375811,0 -29.063716,0 z"
         id="path77711" />
    </g>
  </g>
</svg>
