<?xml version="1.0" encoding="UTF-8" standalone="no"?>
<!-- Generator: Adobe Illustrator 19.0.0, SVG Export Plug-In . SVG Version: 6.00 Build 0)  -->

<svg
   version="1.1"
   id="Layer_1"
   x="0px"
   y="0px"
   viewBox="0 0 64.000003 35.798978"
   xml:space="preserve"
   sodipodi:docname="android-file-transfer.svg"
   width="64"
   height="35.798977"
   inkscape:version="1.1.2 (0a00cf5339, 2022-02-04, custom)"
   xmlns:inkscape="http://www.inkscape.org/namespaces/inkscape"
   xmlns:sodipodi="http://sodipodi.sourceforge.net/DTD/sodipodi-0.dtd"
   xmlns="http://www.w3.org/2000/svg"
   xmlns:svg="http://www.w3.org/2000/svg"><defs
   id="defs45">
	
	
	
	
</defs><sodipodi:namedview
   id="namedview43"
   pagecolor="#505050"
   bordercolor="#ffffff"
   borderopacity="1"
   inkscape:pageshadow="0"
   inkscape:pageopacity="0"
   inkscape:pagecheckerboard="1"
   showgrid="false"
   inkscape:zoom="1.1056647"
   inkscape:cx="70.998017"
   inkscape:cy="-137.02165"
   inkscape:window-width="1440"
   inkscape:window-height="881"
   inkscape:window-x="-4"
   inkscape:window-y="-4"
   inkscape:window-maximized="1"
   inkscape:current-layer="Layer_1" />
<path
   style="fill:#aac148;fill-opacity:1;stroke:#aac148;stroke-width:0.286239;stroke-linecap:round;stroke-linejoin:round;stroke-opacity:1;paint-order:fill markers stroke"
   d="M 2.5615443,35.655856 H 61.43854 c 1.535957,0 2.681484,-1.414877 2.366049,-2.918203 C 61.857021,23.455508 57.314446,16.754402 49.29547,12.235553 L 54.328691,3.1540605 C 54.669315,2.5392199 53.080086,0.64314797 52.465246,0.302524 51.848974,-0.0389587 51.075271,0.1840212 50.734647,0.79886179 L 45.663357,9.9487657 C 41.509748,8.0212348 36.880697,6.9446913 32.000042,6.9446913 c -4.880941,0 -9.509992,1.0765435 -13.663601,3.0040744 L 13.265151,0.79857555 C 12.924241,0.18344872 12.149393,-0.03838622 11.534839,0.30223776 10.919998,0.64286173 9.4423804,1.8268216 9.7830043,2.4416622 L 14.816224,11.523155 C 6.7972492,16.042291 2.1430634,23.455222 0.19549572,32.737653 -0.12022549,34.240979 1.0253015,35.655856 2.5615443,35.655856 Z"
   id="path8"
   sodipodi:nodetypes="ssccccccsccccccs" />
<g
   id="g12"
   transform="matrix(0.28623863,0,0,0.28623863,-27.056998,0.14251659)"
   style="fill:#aac148;fill-opacity:1;stroke:#aac148;stroke-linecap:round;stroke-linejoin:round;stroke-opacity:1;paint-order:fill markers stroke">
</g>
<g
   id="g14"
   transform="matrix(0.28623863,0,0,0.28623863,-27.056998,0.14251659)"
   style="fill:#aac148;fill-opacity:1;stroke:#aac148;stroke-linecap:round;stroke-linejoin:round;stroke-opacity:1;paint-order:fill markers stroke">
</g>
<g
   id="g16"
   transform="matrix(0.28623863,0,0,0.28623863,-27.056998,0.14251659)"
   style="fill:#aac148;fill-opacity:1;stroke:#aac148;stroke-linecap:round;stroke-linejoin:round;stroke-opacity:1;paint-order:fill markers stroke">
</g>
<g
   id="g18"
   transform="matrix(0.28623863,0,0,0.28623863,-27.056998,0.14251659)"
   style="fill:#aac148;fill-opacity:1;stroke:#aac148;stroke-linecap:round;stroke-linejoin:round;stroke-opacity:1;paint-order:fill markers stroke">
</g>
<g
   id="g20"
   transform="matrix(0.28623863,0,0,0.28623863,-27.056998,0.14251659)"
   style="fill:#aac148;fill-opacity:1;stroke:#aac148;stroke-linecap:round;stroke-linejoin:round;stroke-opacity:1;paint-order:fill markers stroke">
</g>
<g
   id="g22"
   transform="matrix(0.28623863,0,0,0.28623863,-27.056998,0.14251659)"
   style="fill:#aac148;fill-opacity:1;stroke:#aac148;stroke-linecap:round;stroke-linejoin:round;stroke-opacity:1;paint-order:fill markers stroke">
</g>
<g
   id="g24"
   transform="matrix(0.28623863,0,0,0.28623863,-27.056998,0.14251659)"
   style="fill:#aac148;fill-opacity:1;stroke:#aac148;stroke-linecap:round;stroke-linejoin:round;stroke-opacity:1;paint-order:fill markers stroke">
</g>
<g
   id="g26"
   transform="matrix(0.28623863,0,0,0.28623863,-27.056998,0.14251659)"
   style="fill:#aac148;fill-opacity:1;stroke:#aac148;stroke-linecap:round;stroke-linejoin:round;stroke-opacity:1;paint-order:fill markers stroke">
</g>
<g
   id="g28"
   transform="matrix(0.28623863,0,0,0.28623863,-27.056998,0.14251659)"
   style="fill:#aac148;fill-opacity:1;stroke:#aac148;stroke-linecap:round;stroke-linejoin:round;stroke-opacity:1;paint-order:fill markers stroke">
</g>
<g
   id="g30"
   transform="matrix(0.28623863,0,0,0.28623863,-27.056998,0.14251659)"
   style="fill:#aac148;fill-opacity:1;stroke:#aac148;stroke-linecap:round;stroke-linejoin:round;stroke-opacity:1;paint-order:fill markers stroke">
</g>
<g
   id="g32"
   transform="matrix(0.28623863,0,0,0.28623863,-27.056998,0.14251659)"
   style="fill:#aac148;fill-opacity:1;stroke:#aac148;stroke-linecap:round;stroke-linejoin:round;stroke-opacity:1;paint-order:fill markers stroke">
</g>
<g
   id="g34"
   transform="matrix(0.28623863,0,0,0.28623863,-27.056998,0.14251659)"
   style="fill:#aac148;fill-opacity:1;stroke:#aac148;stroke-linecap:round;stroke-linejoin:round;stroke-opacity:1;paint-order:fill markers stroke">
</g>
<g
   id="g36"
   transform="matrix(0.28623863,0,0,0.28623863,-27.056998,0.14251659)"
   style="fill:#aac148;fill-opacity:1;stroke:#aac148;stroke-linecap:round;stroke-linejoin:round;stroke-opacity:1;paint-order:fill markers stroke">
</g>
<g
   id="g38"
   transform="matrix(0.28623863,0,0,0.28623863,-27.056998,0.14251659)"
   style="fill:#aac148;fill-opacity:1;stroke:#aac148;stroke-linecap:round;stroke-linejoin:round;stroke-opacity:1;paint-order:fill markers stroke">
</g>
<g
   id="g40"
   transform="matrix(0.28623863,0,0,0.28623863,-27.056998,0.14251659)"
   style="fill:#aac148;fill-opacity:1;stroke:#aac148;stroke-linecap:round;stroke-linejoin:round;stroke-opacity:1;paint-order:fill markers stroke">
</g>
<circle
   style="fill:#ffffff;fill-opacity:1;stroke:none;stroke-width:0.325989;stroke-linecap:round;stroke-linejoin:round;stroke-dashoffset:90.7465;stroke-opacity:1;paint-order:fill markers stroke"
   id="path18621-3"
   cx="46.177731"
   cy="23.114258"
   r="5.8443384" /><circle
   style="fill:#ffffff;fill-opacity:1;stroke:none;stroke-width:0.325989;stroke-linecap:round;stroke-linejoin:round;stroke-dashoffset:90.7465;stroke-opacity:1;paint-order:fill markers stroke"
   id="path18621-3-6"
   cx="18.591455"
   cy="23.136604"
   r="5.8443384" /></svg>
