<?xml version="1.0" encoding="UTF-8" standalone="no"?>
<!-- Created with Inkscape (http://www.inkscape.org/) -->

<svg
   version="1.1"
   id="svg2"
   width="64"
   height="64.021156"
   viewBox="0 0 63.999997 64.021155"
   sodipodi:docname="cs-desktop-effects.svg"
   inkscape:version="1.1.2 (0a00cf5339, 2022-02-04, custom)"
   xmlns:inkscape="http://www.inkscape.org/namespaces/inkscape"
   xmlns:sodipodi="http://sodipodi.sourceforge.net/DTD/sodipodi-0.dtd"
   xmlns="http://www.w3.org/2000/svg"
   xmlns:svg="http://www.w3.org/2000/svg">
  <defs
     id="defs6" />
  <sodipodi:namedview
     id="namedview4"
     pagecolor="#505050"
     bordercolor="#ffffff"
     borderopacity="1"
     inkscape:pageshadow="0"
     inkscape:pageopacity="0"
     inkscape:pagecheckerboard="1"
     showgrid="false"
     inkscape:zoom="4"
     inkscape:cx="-9.0000001"
     inkscape:cy="10.875"
     inkscape:window-width="1440"
     inkscape:window-height="881"
     inkscape:window-x="-4"
     inkscape:window-y="-4"
     inkscape:window-maximized="0"
     inkscape:current-layer="g8"
     inkscape:snap-object-midpoints="true"
     inkscape:object-nodes="true" />
  <g
     inkscape:groupmode="layer"
     inkscape:label="Image"
     id="g8"
     transform="translate(-10.137388,-4.2054491)">
    <rect
       style="opacity:1;fill:#1a1a1a;fill-opacity:1;stroke:#2f2f2f;stroke-width:5.2536;stroke-linecap:round;stroke-linejoin:round;stroke-miterlimit:4;stroke-dasharray:none;stroke-opacity:1"
       id="rect1002"
       width="58.746403"
       height="58.767555"
       x="12.764188"
       y="6.8322492"
       ry="4.4736257" />
    <rect
       style="opacity:1;fill:#2f2f2f;fill-opacity:1;stroke:#2f2f2f;stroke-width:0.787105;stroke-linecap:round;stroke-linejoin:round;stroke-opacity:1;paint-order:stroke fill markers"
       id="rect1261"
       width="58.840622"
       height="11.427224"
       x="12.369702"
       y="6.4377685"
       rx="0" />
    <circle
       style="opacity:1;fill:#ff0000;fill-opacity:1;stroke:#ff0000;stroke-width:1.11797;stroke-linecap:round;stroke-linejoin:round;stroke-miterlimit:4;stroke-dasharray:none;stroke-opacity:1;paint-order:stroke fill markers"
       id="path14578"
       cx="65.431618"
       cy="11.555174"
       r="3.3688276" />
    <path
       style="opacity:1;fill:#ffffff;stroke:#ffffff;stroke-width:0.670785;stroke-linecap:round;stroke-linejoin:round;stroke-miterlimit:4;stroke-dasharray:none;stroke-opacity:1"
       d="M 67.345195,13.618266 63.518046,9.4920812"
       id="path14632"
       sodipodi:nodetypes="cc" />
    <path
       style="opacity:1;fill:#ffffff;stroke:#ffffff;stroke-width:0.670785;stroke-linecap:round;stroke-linejoin:round;stroke-miterlimit:4;stroke-dasharray:none;stroke-opacity:1"
       d="M 63.518041,13.618263 67.34519,9.4920782"
       id="path14632-9"
       sodipodi:nodetypes="cc" />
    <path
       style="opacity:1;fill:#ffffff;stroke:#ffffff;stroke-width:0.62931;stroke-linecap:round;stroke-linejoin:round;stroke-miterlimit:4;stroke-dasharray:none;stroke-opacity:1"
       d="m 46.278649,14.794715 5.279683,0.03148"
       id="path14632-9-2"
       sodipodi:nodetypes="cc" />
    <rect
       style="opacity:1;fill:none;stroke:#ffffff;stroke-width:0.51344;stroke-linecap:round;stroke-linejoin:round;stroke-miterlimit:4;stroke-dasharray:none;stroke-opacity:1"
       id="rect1002-6"
       width="5.3582864"
       height="5.3517609"
       x="54.060493"
       y="9.567771" />
    <path
       style="opacity:1;fill:#ffce00;stroke:#2e2e2e;stroke-width:6.6;stroke-linecap:round;stroke-linejoin:round;stroke-miterlimit:4;stroke-dasharray:none;stroke-dashoffset:90.7465;stroke-opacity:1;paint-order:stroke fill markers"
       d="M 24.41289,53.954402 43.879669,34.487623"
       id="path2132" />
    <path
       style="fill:#ffce00;stroke:#ffffff;stroke-width:6.6;stroke-linecap:round;stroke-linejoin:round;stroke-miterlimit:4;stroke-dasharray:none;stroke-dashoffset:90.7465;paint-order:stroke fill markers"
       d="m 42.137389,36.216028 4.67444,-4.58889"
       id="path2132-2"
       sodipodi:nodetypes="cc" />
    <path
       sodipodi:type="star"
       style="opacity:1;fill:#ffd42a;fill-opacity:1;stroke:none;stroke-width:6.6;stroke-linecap:round;stroke-linejoin:round;stroke-miterlimit:4;stroke-dasharray:none;stroke-dashoffset:90.7465;stroke-opacity:1;paint-order:stroke fill markers"
       id="path5815"
       inkscape:flatsided="false"
       sodipodi:sides="4"
       sodipodi:cx="21.209023"
       sodipodi:cy="-47.188324"
       sodipodi:r1="16.146746"
       sodipodi:r2="7.6026583"
       sodipodi:arg1="1.6197479"
       sodipodi:arg2="2.4375584"
       inkscape:rounded="0.16"
       inkscape:randomized="0"
       d="m 20.41893,-31.06092 c -1.957197,-0.159608 -3.685998,-9.751399 -5.004935,-11.206218 -1.268719,-1.399427 -10.4859069,-3.828602 -10.3323762,-5.711279 0.1596079,-1.957197 9.7513992,-3.685997 11.2062182,-5.004935 1.399427,-1.268719 3.828602,-10.485906 5.711278,-10.332376 1.957197,0.159608 3.685998,9.751399 5.004935,11.206219 1.268719,1.399426 10.485907,3.828601 10.332376,5.711278 -0.159608,1.957197 -9.751399,3.685997 -11.206218,5.004935 -1.399427,1.268719 -3.828602,10.485906 -5.711278,10.332376 z"
       transform="matrix(0.30221115,0.07215219,-0.07215219,0.30221115,49.903969,48.796892)"
       inkscape:transform-center-x="0.16221452"
       inkscape:transform-center-y="0.36397897" />
    <path
       sodipodi:type="star"
       style="opacity:1;fill:#ffd42a;fill-opacity:1;stroke:none;stroke-width:6.6;stroke-linecap:round;stroke-linejoin:round;stroke-miterlimit:4;stroke-dasharray:none;stroke-dashoffset:90.7465;stroke-opacity:1;paint-order:stroke fill markers"
       id="path5815-6"
       inkscape:flatsided="false"
       sodipodi:sides="4"
       sodipodi:cx="21.209023"
       sodipodi:cy="-47.188324"
       sodipodi:r1="16.146746"
       sodipodi:r2="7.6026583"
       sodipodi:arg1="1.6197479"
       sodipodi:arg2="2.4375584"
       inkscape:rounded="0.16"
       inkscape:randomized="0"
       transform="matrix(0.29289598,0.10367961,-0.10367961,0.29289598,50.217454,59.187931)"
       inkscape:transform-center-x="0.19976406"
       inkscape:transform-center-y="0.34480199"
       d="m 20.41893,-31.06092 c -1.957197,-0.159608 -3.685998,-9.751399 -5.004935,-11.206218 -1.268719,-1.399427 -10.4859069,-3.828602 -10.3323762,-5.711279 0.1596079,-1.957197 9.7513992,-3.685997 11.2062182,-5.004935 1.399427,-1.268719 3.828602,-10.485906 5.711278,-10.332376 1.957197,0.159608 3.685998,9.751399 5.004935,11.206219 1.268719,1.399426 10.485907,3.828601 10.332376,5.711278 -0.159608,1.957197 -9.751399,3.685997 -11.206218,5.004935 -1.399427,1.268719 -3.828602,10.485906 -5.711278,10.332376 z" />
    <path
       sodipodi:type="star"
       style="opacity:1;fill:#ffd42a;fill-opacity:1;stroke:none;stroke-width:6.6;stroke-linecap:round;stroke-linejoin:round;stroke-miterlimit:4;stroke-dasharray:none;stroke-dashoffset:90.7465;stroke-opacity:1;paint-order:stroke fill markers"
       id="path5815-6-4"
       inkscape:flatsided="false"
       sodipodi:sides="4"
       sodipodi:cx="21.209023"
       sodipodi:cy="-47.188324"
       sodipodi:r1="16.146746"
       sodipodi:r2="7.6026583"
       sodipodi:arg1="1.6197479"
       sodipodi:arg2="2.4375584"
       inkscape:rounded="0.16"
       inkscape:randomized="0"
       transform="matrix(0.05398736,0.30597857,-0.30597857,0.05398736,34.615941,39.120114)"
       inkscape:transform-center-x="0.39846849"
       inkscape:transform-center-y="-0.0040814421"
       d="m 20.41893,-31.06092 c -1.957197,-0.159608 -3.685998,-9.751399 -5.004935,-11.206218 -1.268719,-1.399427 -10.4859069,-3.828602 -10.3323762,-5.711279 0.1596079,-1.957197 9.7513992,-3.685997 11.2062182,-5.004935 1.399427,-1.268719 3.828602,-10.485906 5.711278,-10.332376 1.957197,0.159608 3.685998,9.751399 5.004935,11.206219 1.268719,1.399426 10.485907,3.828601 10.332376,5.711278 -0.159608,1.957197 -9.751399,3.685997 -11.206218,5.004935 -1.399427,1.268719 -3.828602,10.485906 -5.711278,10.332376 z" />
    <path
       sodipodi:type="star"
       style="opacity:1;fill:#ffd42a;fill-opacity:1;stroke:none;stroke-width:6.6;stroke-linecap:round;stroke-linejoin:round;stroke-miterlimit:4;stroke-dasharray:none;stroke-dashoffset:90.7465;stroke-opacity:1;paint-order:stroke fill markers"
       id="path5815-6-4-9"
       inkscape:flatsided="false"
       sodipodi:sides="4"
       sodipodi:cx="21.209023"
       sodipodi:cy="-47.188324"
       sodipodi:r1="16.146746"
       sodipodi:r2="7.6026583"
       sodipodi:arg1="1.6197479"
       sodipodi:arg2="2.4375584"
       inkscape:rounded="0.16"
       inkscape:randomized="0"
       transform="matrix(-0.09593828,0.29552219,-0.29552219,-0.09593828,13.74335,20.204228)"
       inkscape:transform-center-x="0.34993781"
       inkscape:transform-center-y="-0.19062336"
       d="m 20.41893,-31.06092 c -1.957197,-0.159608 -3.685998,-9.751399 -5.004935,-11.206218 -1.268719,-1.399427 -10.4859069,-3.828602 -10.3323762,-5.711279 0.1596079,-1.957197 9.7513992,-3.685997 11.2062182,-5.004935 1.399427,-1.268719 3.828602,-10.485906 5.711278,-10.332376 1.957197,0.159608 3.685998,9.751399 5.004935,11.206219 1.268719,1.399426 10.485907,3.828601 10.332376,5.711278 -0.159608,1.957197 -9.751399,3.685997 -11.206218,5.004935 -1.399427,1.268719 -3.828602,10.485906 -5.711278,10.332376 z" />
    <path
       sodipodi:type="star"
       style="opacity:1;fill:#ffd42a;fill-opacity:1;stroke:none;stroke-width:6.6;stroke-linecap:round;stroke-linejoin:round;stroke-miterlimit:4;stroke-dasharray:none;stroke-dashoffset:90.7465;stroke-opacity:1;paint-order:stroke fill markers"
       id="path5815-6-4-9-5"
       inkscape:flatsided="false"
       sodipodi:sides="4"
       sodipodi:cx="21.209023"
       sodipodi:cy="-47.188324"
       sodipodi:r1="16.146746"
       sodipodi:r2="7.6026583"
       sodipodi:arg1="1.6197479"
       sodipodi:arg2="2.4375584"
       inkscape:rounded="0.16"
       inkscape:randomized="0"
       transform="matrix(-0.23818511,-0.19951283,0.19951283,-0.23818511,49.449535,18.854935)"
       inkscape:transform-center-x="-0.30767905"
       inkscape:transform-center-y="-0.25323475"
       d="m 20.41893,-31.06092 c -1.957197,-0.159608 -3.685998,-9.751399 -5.004935,-11.206218 -1.268719,-1.399427 -10.4859069,-3.828602 -10.3323762,-5.711279 0.1596079,-1.957197 9.7513992,-3.685997 11.2062182,-5.004935 1.399427,-1.268719 3.828602,-10.485906 5.711278,-10.332376 1.957197,0.159608 3.685998,9.751399 5.004935,11.206219 1.268719,1.399426 10.485907,3.828601 10.332376,5.711278 -0.159608,1.957197 -9.751399,3.685997 -11.206218,5.004935 -1.399427,1.268719 -3.828602,10.485906 -5.711278,10.332376 z" />
  </g>
</svg>
