<?xml version="1.0" encoding="UTF-8" standalone="no"?>
<!-- Created with Inkscape (http://www.inkscape.org/) -->

<svg
   width="64"
   height="64"
   viewBox="0 0 64 64"
   version="1.1"
   id="svg5"
   xml:space="preserve"
   sodipodi:docname="heroic.svg"
   inkscape:version="1.2 (dc2aedaf03, 2022-05-15)"
   xmlns:inkscape="http://www.inkscape.org/namespaces/inkscape"
   xmlns:sodipodi="http://sodipodi.sourceforge.net/DTD/sodipodi-0.dtd"
   xmlns="http://www.w3.org/2000/svg"
   xmlns:svg="http://www.w3.org/2000/svg"><sodipodi:namedview
     id="namedview7"
     pagecolor="#505050"
     bordercolor="#ffffff"
     borderopacity="1"
     inkscape:showpageshadow="0"
     inkscape:pageopacity="0"
     inkscape:pagecheckerboard="1"
     inkscape:deskcolor="#505050"
     inkscape:document-units="px"
     showgrid="false"
     inkscape:zoom="4.9445096"
     inkscape:cx="7.5841697"
     inkscape:cy="26.999644"
     inkscape:window-width="1440"
     inkscape:window-height="881"
     inkscape:window-x="-4"
     inkscape:window-y="-4"
     inkscape:window-maximized="1"
     inkscape:current-layer="layer1" /><defs
     id="defs2" /><g
     inkscape:label="Layer 1"
     inkscape:groupmode="layer"
     id="layer1"
     transform="translate(-890.07764,-731.87403)"><g
       inkscape:label="Layer 1"
       id="layer1-3"
       transform="matrix(0.93501523,0,0,0.93501523,26.469615,577.58149)"
       style="fill:#090b1c;fill-opacity:1;stroke:#f79805;stroke-width:4;stroke-dasharray:none;stroke-opacity:1"><path
         style="opacity:1;fill:#090b1c;fill-opacity:1;stroke:#f79805;stroke-width:4;stroke-linecap:round;stroke-linejoin:round;stroke-dasharray:none;stroke-dashoffset:90.7465;stroke-opacity:1;paint-order:stroke fill markers"
         d="m 958.49641,231.46422 c -21.82895,-19.56094 -24.22952,-36.75794 -25.65385,-53.83616 9.27141,-7.55818 25.97789,-10.61199 25.97789,-10.61199 0,0 18.95057,5.41889 25.21947,10.49414 -0.47344,18.42522 -4.00118,36.6831 -25.54351,53.95401 z"
         id="path1435"
         sodipodi:nodetypes="ccccc" /></g><g
       id="g4108"
       transform="matrix(1.035979,0,0,1.035979,-28.244203,-31.532203)"><path
         id="path4043"
         style="fill:#f79805;fill-opacity:1;fill-rule:evenodd;stroke:#f79904;stroke-width:1;stroke-linecap:round;stroke-linejoin:round;stroke-dasharray:none;stroke-dashoffset:90.7465;stroke-opacity:1"
         d="m 918.0957,743.13143 c -1.37643,1.96799 -2.26148,3.68125 -3.39062,5.52149 0.49846,8.28338 0.98794,16.48562 1.49219,24.89453 -0.0803,2.01502 1.05664,3.54169 1.97461,5.10937 1.03957,-1.25201 2.09328,-2.81873 2.23242,-5.18554 l 1.27539,-25.02735 c -1.15827,-1.75402 -1.91617,-3.32346 -3.58399,-5.3125 z"
         sodipodi:nodetypes="ccccccc" /><path
         style="fill:#f79805;fill-opacity:1;fill-rule:evenodd;stroke:#f79904;stroke-width:1;stroke-linecap:round;stroke-linejoin:round;stroke-dasharray:none;stroke-dashoffset:90.7465;stroke-opacity:1"
         d="m 918.44278,782.3229 c -1.03958,1.25201 -2.09321,2.81885 -2.23235,5.18567 0.009,1.09027 4.66732,0.69294 4.20708,-0.076 0.0803,-2.01502 -1.05676,-3.54199 -1.97473,-5.10967 z"
         id="path4037"
         sodipodi:nodetypes="cccc" /><path
         style="fill:#f79805;fill-opacity:1;fill-rule:evenodd;stroke:#f79904;stroke-width:1;stroke-linecap:round;stroke-linejoin:round;stroke-dasharray:none;stroke-dashoffset:90.7465;stroke-opacity:1"
         d="m 920.00994,780.46144 c 1.25201,1.03958 2.81885,2.09321 5.18567,2.23235 1.09027,-0.009 0.69294,-4.66732 -0.076,-4.20708 -2.01502,-0.0803 -3.54199,1.05676 -5.10967,1.97473 z"
         id="path4039"
         sodipodi:nodetypes="cccc" /><path
         style="fill:#f79805;fill-opacity:1;fill-rule:evenodd;stroke:#f79904;stroke-width:1;stroke-linecap:round;stroke-linejoin:round;stroke-dasharray:none;stroke-dashoffset:90.7465;stroke-opacity:1"
         d="m 916.87449,780.72557 c -1.25201,-1.03958 -2.81885,-2.09321 -5.18567,-2.23235 -1.09027,0.009 -0.69294,4.66732 0.076,4.20708 2.01502,0.0803 3.54199,-1.05676 5.10967,-1.97473 z"
         id="path4041"
         sodipodi:nodetypes="cccc" /></g></g></svg>
