<?xml version="1.0" encoding="UTF-8" standalone="no"?>
<svg
   width="64"
   height="64"
   version="1"
   id="svg16"
   sodipodi:docname="libreoffice-base.svg"
   inkscape:version="1.2 (dc2aedaf03, 2022-05-15)"
   xml:space="preserve"
   xmlns:inkscape="http://www.inkscape.org/namespaces/inkscape"
   xmlns:sodipodi="http://sodipodi.sourceforge.net/DTD/sodipodi-0.dtd"
   xmlns:xlink="http://www.w3.org/1999/xlink"
   xmlns="http://www.w3.org/2000/svg"
   xmlns:svg="http://www.w3.org/2000/svg"><defs
     id="defs20"><linearGradient
       id="a"
       gradientUnits="userSpaceOnUse"
       x1="117.00146"
       x2="12.00143"
       xlink:href="#b"
       y1="127.8783"
       y2="0.0766"
       gradientTransform="matrix(0.52728954,0,0,0.52728954,58.510268,47.549921)" /><linearGradient
       id="b"><stop
         offset="0"
         stop-color="#8e03a3"
         id="stop5069" /><stop
         offset="1"
         stop-color="#c254d2"
         id="stop5071" /></linearGradient><radialGradient
       id="c"
       cx="518.85358"
       cy="730.48431"
       gradientTransform="matrix(0.53006756,0,7.9093431e-8,0.14920727,-189.37368,-2.7077497)"
       gradientUnits="userSpaceOnUse"
       r="22.889727"><stop
         offset="0"
         stop-color="#dc85e9"
         id="stop5074" /><stop
         offset="1"
         stop-color="#f2cbf8"
         id="stop5076" /></radialGradient><linearGradient
       id="h"
       gradientTransform="matrix(-2,0,0,2,860.00054,-2063.5036)"
       gradientUnits="userSpaceOnUse"
       x1="386.63177"
       x2="410.49988"
       y1="1068.9539"
       y2="1068.9539"><stop
         offset="0"
         stop-color="#e196fb"
         id="stop5097" /><stop
         offset=".13010512"
         stop-color="#f4c7fa"
         id="stop5099" /><stop
         offset=".31360075"
         stop-color="#e091f3"
         id="stop5101" /><stop
         offset=".44078669"
         stop-color="#d764e9"
         id="stop5103" /><stop
         offset=".68364757"
         stop-color="#e7adf0"
         id="stop5105" /><stop
         offset=".75620717"
         stop-color="#e6a9f8"
         id="stop5107" /><stop
         offset=".88021636"
         stop-color="#e595f2"
         id="stop5109" /><stop
         offset="1"
         stop-color="#f2cbf8"
         id="stop5111" /></linearGradient><linearGradient
       id="d"
       gradientUnits="userSpaceOnUse"
       x1="38.000729"
       x2="88.000732"
       y1="79.980797"
       y2="79.980797"
       gradientTransform="matrix(0.52728954,0,0,0.52728954,52.435433,71.221276)"><stop
         offset="0"
         stop-color="#9207a7"
         id="stop5079" /><stop
         offset=".27254906"
         stop-color="#cd6cc4"
         id="stop5081" /><stop
         offset=".50966245"
         stop-color="#ad3cbe"
         id="stop5083" /><stop
         offset=".83376038"
         stop-color="#bc2ad2"
         id="stop5085" /><stop
         offset="1"
         stop-color="#950ba8"
         id="stop5087" /></linearGradient><linearGradient
       id="e"
       gradientTransform="matrix(0.52728954,0,0,0.52729481,-557.63831,687.43572)"
       gradientUnits="userSpaceOnUse"
       x1="1273.0009"
       x2="1169.0009"
       xlink:href="#b"
       y1="-1040.6349"
       y2="-1168.6337" /><linearGradient
       id="f"
       gradientUnits="userSpaceOnUse"
       x1="108.00134"
       x2="20.001341"
       y1="122"
       y2="6"
       gradientTransform="matrix(0.52728954,0,0,0.52728954,-10.12459,71.85888)"><stop
         offset="0"
         stop-color="#e6e6e6"
         id="stop5091" /><stop
         offset="1"
         stop-color="#fff"
         id="stop5093" /></linearGradient><linearGradient
       id="g"
       gradientTransform="matrix(4.2181792,0,0,4.2171456,-408.39845,-4046.2601)"
       gradientUnits="userSpaceOnUse"
       x1="122.75008"
       x2="111.74973"
       xlink:href="#b"
       y1="991.62115"
       y2="977.11713" /></defs><sodipodi:namedview
     id="namedview18"
     pagecolor="#505050"
     bordercolor="#ffffff"
     borderopacity="1"
     inkscape:pageshadow="0"
     inkscape:pageopacity="0"
     inkscape:pagecheckerboard="1"
     showgrid="false"
     inkscape:zoom="4"
     inkscape:cx="52.875"
     inkscape:cy="26.125"
     inkscape:window-width="1440"
     inkscape:window-height="881"
     inkscape:window-x="-4"
     inkscape:window-y="-4"
     inkscape:window-maximized="1"
     inkscape:current-layer="svg16"
     inkscape:snap-nodes="false"
     inkscape:showpageshadow="0"
     inkscape:deskcolor="#505050" /><path
     fill="#e4e4e4"
     d="m 9.8883754,0 c -1.7728,0 -3.2,1.4272 -3.2,3.2 v 57.6 c 0,1.7728 1.4272,3.2 3.2,3.2 H 54.688375 c 1.7728,0 3.2,-1.4272 3.2,-3.2 V 19.2 l -17.6,-1.6 -1.6,-17.6 z"
     id="path4-5"
     style="fill:#ba47cb;fill-opacity:1;stroke-width:1.6" /><path
     fill="#fafafa"
     d="m 38.688375,0 v 16 c 0,1.76736 1.432688,3.2 3.2,3.2 h 16 z"
     id="path10-3"
     style="fill:#8e03a3;fill-opacity:1;stroke-width:1.6" /><path
     style="fill:#ffffff;fill-opacity:1;fill-rule:evenodd;stroke:#3177c5;stroke-width:0.0204324;stroke-linecap:round;stroke-linejoin:round;stroke-dashoffset:90.7465"
     d="m 31.056283,36.822427 c -0.839176,-0.02768 -2.286313,0.35359 -2.998164,0.295398 -4.868221,-0.398033 -9.17722,-2.160344 -10.326925,-3.418303 -0.380805,-0.416663 -0.290875,-0.596374 0.04213,-1.102066 1.106597,-1.680454 5.462302,-2.910522 10.552253,-3.404405 5.579105,-0.541348 12.75867,0.196295 16.486822,1.451391 1.305773,0.439594 2.084966,1.451596 2.584299,1.949153 0.363724,0.362428 0.193577,0.948846 0.07004,1.228283 -0.40449,0.914418 -2.412452,2.032949 -5.561467,2.650391 -1.71725,0.336711 -4.103986,0.636078 -6.278651,0.755242 -1.409344,0.04678 -3.160942,-0.400112 -4.570275,-0.40508 z"
     id="path2413"
     sodipodi:nodetypes="cssssssssccc" /><path
     d="m 32.463247,28.633654 c -4.22558,0 -8.056355,0.461082 -10.869824,1.223095 -1.406615,0.381036 -2.542217,0.816366 -3.393123,1.361228 -0.850761,0.544791 -1.518973,1.255671 -1.518973,2.170017 -0.03915,5.532251 1.2e-4,11.161722 1.2e-4,16.728824 v 0.315633 c 0,0.881458 0.624908,1.583311 1.479597,2.130556 0.854497,0.547257 2.022544,0.99906 3.432499,1.380923 2.820042,0.763723 6.639898,1.223093 10.869835,1.223093 4.229925,0 8.049842,-0.45937 10.869819,-1.223093 1.409967,-0.381863 2.577954,-0.833666 3.432499,-1.380923 0.854689,-0.547245 1.479585,-1.249098 1.479585,-2.130556 V 33.387994 c 0,-0.854055 -0.831571,-1.720356 -1.518842,-2.170017 -0.850845,-0.544862 -1.986376,-0.980192 -3.393122,-1.361228 -2.813465,-0.762013 -6.64424,-1.223095 -10.869819,-1.223095 z m 0,1.302003 c 4.14193,0 7.903901,0.460519 10.57388,1.183646 1.335021,0.361594 2.394936,0.786065 3.077478,1.223107 0.68247,0.437089 0.887696,0.826841 0.887696,1.045584 0,0.21873 -0.205226,0.608482 -0.887696,1.045512 -0.682542,0.437101 -1.742457,0.861572 -3.077478,1.223106 -2.669979,0.723187 -6.43195,1.183635 -10.57388,1.183635 -4.141871,0 -7.903902,-0.460448 -10.573885,-1.183635 -1.335022,-0.361534 -2.394996,-0.786005 -3.077478,-1.223106 -0.68253,-0.43703 -0.887768,-0.826782 -0.887696,-1.045512 0,-0.218743 0.205166,-0.608495 0.887696,-1.045584 0.682482,-0.437042 1.742456,-0.861513 3.077478,-1.223107 2.669983,-0.723127 6.432014,-1.183646 10.573885,-1.183646 z m -14.519365,5.425065 c 0.08692,0.06309 0.164197,0.138194 0.256418,0.197276 0.850906,0.544791 1.986448,0.980192 3.393123,1.361157 2.813469,0.761952 6.644244,1.223106 10.869824,1.223106 4.225579,0 8.056354,-0.461154 10.86983,-1.223106 1.406675,-0.380965 2.542277,-0.816366 3.393111,-1.361157 0.09219,-0.05938 0.169501,-0.134327 0.256419,-0.197276 v 3.393122 0.315633 c 0,0.25163 -0.228764,0.630714 -0.90745,1.065278 -0.678699,0.434575 -1.725983,0.862387 -3.057724,1.223106 -2.663538,0.721356 -6.416674,1.183635 -10.554186,1.183635 -4.137513,0 -7.890577,-0.462279 -10.554191,-1.183635 -1.331742,-0.360719 -2.379026,-0.788531 -3.057712,-1.223106 -0.678687,-0.434564 -0.907462,-0.813648 -0.907462,-1.065278 v -0.315633 z m 0,5.681495 c 0.07399,0.05244 0.138876,0.107868 0.21703,0.157816 0.854497,0.547257 2.022556,0.99906 3.432511,1.380923 2.82003,0.763712 6.639886,1.223094 10.869824,1.223094 4.229937,0 8.049853,-0.459382 10.86983,-1.223094 1.409955,-0.381863 2.577942,-0.833666 3.432499,-1.380923 0.07818,-0.0498 0.143055,-0.105115 0.217031,-0.157816 v 3.393106 0.315644 c 0,0.251618 -0.228764,0.630703 -0.90745,1.065278 -0.678699,0.434564 -1.725983,0.862387 -3.057724,1.223095 -2.663538,0.721367 -6.416674,1.183646 -10.554186,1.183646 -4.137513,0 -7.890577,-0.462279 -10.554191,-1.183646 -1.331742,-0.360708 -2.379026,-0.788531 -3.057712,-1.223095 -0.678687,-0.434575 -0.907462,-0.81366 -0.907462,-1.065278 v -0.315644 z m 0,5.68149 c 0.07399,0.05244 0.138876,0.107869 0.21703,0.157817 0.854497,0.547257 2.022556,0.99906 3.432511,1.38091 2.82003,0.763725 6.639886,1.223107 10.869824,1.223107 4.229937,0 8.049853,-0.45937 10.86983,-1.223107 1.409955,-0.38185 2.577942,-0.833653 3.432499,-1.38091 0.07818,-0.04992 0.143055,-0.105116 0.217031,-0.157817 v 3.393111 0.315633 c 0,0.251629 -0.228764,0.630714 -0.90745,1.065278 -0.678699,0.434575 -1.725983,0.862386 -3.057724,1.223106 -2.663538,0.721355 -6.416674,1.183646 -10.554186,1.183646 -4.137513,0 -7.890577,-0.462291 -10.554191,-1.183646 -1.331742,-0.36072 -2.379026,-0.788531 -3.057712,-1.223106 -0.678687,-0.434564 -0.907462,-0.813649 -0.907462,-1.065278 v -0.315633 z"
     fill="url(#a)"
     id="path5139"
     style="fill:#ffffff;fill-opacity:1;stroke:#ffffff;stroke-width:1.10981;stroke-dasharray:none" /></svg>
