<?xml version="1.0" encoding="UTF-8" standalone="no"?>
<!-- Created with Inkscape (http://www.inkscape.org/) -->

<svg
   version="1.1"
   id="svg2"
   width="64"
   height="64.228645"
   viewBox="0 0 63.999999 64.228645"
   sodipodi:docname="librewolf.svg"
   inkscape:version="1.1.2 (0a00cf5339, 2022-02-04, custom)"
   xmlns:inkscape="http://www.inkscape.org/namespaces/inkscape"
   xmlns:sodipodi="http://sodipodi.sourceforge.net/DTD/sodipodi-0.dtd"
   xmlns="http://www.w3.org/2000/svg"
   xmlns:svg="http://www.w3.org/2000/svg">
  <defs
     id="defs6" />
  <sodipodi:namedview
     id="namedview4"
     pagecolor="#505050"
     bordercolor="#ffffff"
     borderopacity="1"
     inkscape:pageshadow="0"
     inkscape:pageopacity="0"
     inkscape:pagecheckerboard="1"
     showgrid="false"
     inkscape:zoom="2.8284271"
     inkscape:cx="-27.400388"
     inkscape:cy="12.551145"
     inkscape:window-width="1440"
     inkscape:window-height="881"
     inkscape:window-x="-4"
     inkscape:window-y="-4"
     inkscape:window-maximized="1"
     inkscape:current-layer="g8" />
  <g
     inkscape:groupmode="layer"
     inkscape:label="Image"
     id="g8"
     transform="translate(-46.132186,-7.8767574)">
    <circle
       style="font-variation-settings:'wght' 100;fill:#00acff;fill-opacity:0.996078;stroke:#00acff;stroke-width:4.49808;stroke-linecap:round;stroke-linejoin:round;stroke-dashoffset:90.7465;stroke-opacity:1;paint-order:stroke fill markers"
       id="path7767"
       cx="78.132187"
       cy="39.876759"
       r="29.750961" />
    <path
       id="path2750"
       style="fill:#ffffff;stroke-width:0.433477"
       d="m 94.851653,18.990717 c -2.629938,0.92669 -4.532832,3.214285 -6.813891,4.769114 -2.264687,1.725726 -4.76479,3.595981 -7.771788,3.422188 -3.330896,0.772298 -5.939859,3.411336 -9.405129,3.846 -1.877666,0.607514 -6.432813,0.257566 -5.828712,3.21374 0.772924,1.487467 2.051455,2.615997 3.114973,3.889669 -1.546745,3.309587 -4.0382,5.971429 -6.165184,8.938833 -1.722577,2.174139 -2.996749,4.752109 -4.092909,6.745128 -1.175827,2.137866 -3.407687,3.994599 -4.827219,5.949875 9.173571,11.609154 21.317579,13.622347 30.995734,11.557159 0.450275,-2.265497 0.467095,-5.0408 0.637022,-7.343133 0.211346,-2.86357 1.177358,-5.652001 2.857202,-7.999786 1.396324,-2.933101 0.690048,-6.327504 1.416547,-9.430467 0.749788,-4.359284 3.386164,-8.136123 6.058301,-11.553401 1.743813,-2.110754 4.825881,-3.720949 4.783491,-6.804645 -0.189167,-0.984033 -1.279309,-1.809775 -2.26173,-1.948604 -0.08271,-0.0117 -0.179894,0.02717 -0.245071,-0.02014 -0.549003,-0.398578 -1.100502,-0.755463 -0.951044,0.322366 0.0066,0.049 -0.07114,0.06971 -0.104034,0.108846 -0.100399,0.119639 -0.183114,0.266176 -0.243467,0.442087 -0.824668,-3.895125 1.671288,-5.709699 -1.15313,-8.104828 z m -12.539505,9.514477 c 2.402546,-0.143671 -2.98584,4.276097 -2.96524,1.588691 0.0052,-0.754249 1.712875,-1.513799 2.96524,-1.588691 z"
       sodipodi:nodetypes="cssssccsccsssccsccscccsss" />
  </g>
</svg>
