<?xml version="1.0" encoding="UTF-8" standalone="no"?>
<svg
   id="svg30"
   width="64.000061"
   height="64"
   version="1.1"
   viewBox="0 0 64.000061 64"
   sodipodi:docname="lutris.svg"
   inkscape:version="1.2 (dc2aedaf03, 2022-05-15)"
   xml:space="preserve"
   xmlns:inkscape="http://www.inkscape.org/namespaces/inkscape"
   xmlns:sodipodi="http://sodipodi.sourceforge.net/DTD/sodipodi-0.dtd"
   xmlns:xlink="http://www.w3.org/1999/xlink"
   xmlns="http://www.w3.org/2000/svg"
   xmlns:svg="http://www.w3.org/2000/svg"><sodipodi:namedview
     id="namedview35"
     pagecolor="#505050"
     bordercolor="#ffffff"
     borderopacity="1"
     inkscape:showpageshadow="0"
     inkscape:pageopacity="0"
     inkscape:pagecheckerboard="1"
     inkscape:deskcolor="#505050"
     showgrid="false"
     inkscape:zoom="7.375"
     inkscape:cx="27.728814"
     inkscape:cy="33.423729"
     inkscape:window-width="1440"
     inkscape:window-height="881"
     inkscape:window-x="-4"
     inkscape:window-y="-4"
     inkscape:window-maximized="1"
     inkscape:current-layer="svg30" /><metadata
     id="metadata36" /><defs
     id="defs34"><linearGradient
       id="linearGradient4520"><stop
         id="stop4522"
         offset="0"
         style="stop-color:#794d3b;stop-opacity:1" /><stop
         id="stop4524"
         offset="1"
         style="stop-color:#5e3c2e;stop-opacity:1" /></linearGradient><linearGradient
       id="linearGradient4214"><stop
         id="stop4216"
         offset="0"
         style="stop-color:#e5dfdd;stop-opacity:1" /><stop
         id="stop4218"
         offset="1"
         style="stop-color:#fff;stop-opacity:1" /></linearGradient><linearGradient
       id="linearGradient4146"><stop
         id="stop4148"
         offset="0"
         style="stop-color:#ffba00;stop-opacity:1" /><stop
         id="stop4150"
         offset="1"
         style="stop-color:#ff7f02;stop-opacity:1" /></linearGradient><radialGradient
       id="radialGradient4354-0"
       cx="365.896"
       cy="-121.309"
       r="77.056999"
       fx="365.896"
       fy="-121.309"
       gradientTransform="matrix(1.2677782,0.01426727,-0.01587862,1.4102951,-99.301495,42.058005)"
       gradientUnits="userSpaceOnUse"
       xlink:href="#linearGradient4146" /><linearGradient
       id="linearGradient4468"
       x1="369.23901"
       x2="423.44199"
       y1="-117.549"
       y2="-171.752"
       gradientTransform="translate(0,564.66572)"
       gradientUnits="userSpaceOnUse"
       xlink:href="#linearGradient4214" /><radialGradient
       id="radialGradient4475"
       cx="365.896"
       cy="-121.309"
       r="77.056999"
       fx="365.896"
       fy="-121.309"
       gradientTransform="matrix(1.2677782,0.01426727,-0.01587862,1.4102951,-99.301495,606.72372)"
       gradientUnits="userSpaceOnUse"
       xlink:href="#linearGradient4146" /><linearGradient
       id="linearGradient4526"
       x1="332.25"
       x2="332.25"
       y1="369.85699"
       y2="522.875"
       gradientUnits="userSpaceOnUse"
       xlink:href="#linearGradient4520"
       gradientTransform="matrix(1.1717564,0,0,1.1837458,-302.01057,-387.69552)" /><radialGradient
       id="radialGradient4544-0"
       cx="365.896"
       cy="-121.309"
       r="77.056999"
       fx="365.896"
       fy="-121.309"
       gradientTransform="matrix(1.4855272,0.01688882,-0.01860587,1.6694309,-417.41887,331.56677)"
       gradientUnits="userSpaceOnUse"
       xlink:href="#linearGradient4146" /><linearGradient
       id="linearGradient4550-5"
       x1="369.23901"
       x2="369.23901"
       y1="-117.549"
       y2="-183.117"
       gradientTransform="matrix(1.1717564,0,0,1.1837458,-301.06171,281.78078)"
       gradientUnits="userSpaceOnUse"
       xlink:href="#linearGradient4214" /><radialGradient
       id="radialGradient4544-0-6-4"
       cx="365.896"
       cy="-121.309"
       r="77.056999"
       fx="365.896"
       fy="-121.309"
       gradientTransform="matrix(1.2677782,0.01426727,-0.01587862,1.4102951,-99.301495,606.72372)"
       gradientUnits="userSpaceOnUse"
       xlink:href="#linearGradient4146" /><linearGradient
       id="linearGradient1049"
       x1="332.25"
       x2="332.25"
       y1="369.85699"
       y2="522.875"
       gradientUnits="userSpaceOnUse"
       xlink:href="#linearGradient4520"
       gradientTransform="matrix(1.1717564,0,0,1.1837458,-301.06171,-386.63989)" /><linearGradient
       id="linearGradient1051"
       x1="332.25"
       x2="332.25"
       y1="369.85699"
       y2="522.875"
       gradientUnits="userSpaceOnUse"
       xlink:href="#linearGradient4520"
       gradientTransform="matrix(1.1717564,0,0,1.1837458,-301.06171,-386.63989)" /></defs><path
     style="fill:#ff9c01;fill-opacity:1;stroke:none;stroke-width:0.306253"
     id="path2996-71-2"
     d="m 48.613712,12.216819 -0.0675,2.447275 C -5.7558,13.299338 0.43671693,58.417804 47.970468,58.988756 c 7.662467,-4.9799 12.737811,-13.691457 12.737811,-23.603321 0,-9.631634 -4.792683,-18.126534 -12.094567,-23.168608 z"
     sodipodi:nodetypes="cccscc" /><path
     id="path3970-2-2"
     style="fill:#794d3b;fill-opacity:1;stroke:none;stroke-width:0.306253"
     d="M 31.3202,0 C 14.022902,0 0,14.215282 0,31.749923 c 0,17.534652 14.087204,32.232826 31.3202,32.234769 11.242776,0.338745 21.672198,-4.967905 25.109905,-13.613796 -1.268425,0.59337 -2.663837,2.022413 -3.715836,2.957906 -1.983571,1.763892 -4.135754,2.121387 -6.871433,3.565869 -5.302678,2.7999 -11.037776,2.427866 -16.387906,1.236278 -4.348722,-0.968556 -9.118277,-3.124191 -11.677833,-6.572618 -2.559555,-3.448425 -4.06212,-11.637788 -4.06212,-11.637788 l 3.224042,-14.97065 13.606987,-8.955628 18.05595,-1.439779 0.04867,-1.755208 5.091846,3.810073 c 0.6893,0.780641 1.341251,1.596068 1.942335,2.451185 h 4.349589 c -0.143481,-0.333159 -0.310098,-0.653284 -0.464414,-0.980372 l 2.216115,0.379023 1.027191,-1.350238 -0.485203,-2.402345 c 0,0 0.360867,-4.027628 -0.451739,-5.6293826 C 61.063735,7.4754664 60.476974,6.7891844 56.323632,4.5009629 52.170295,2.2127413 48.468613,3.494135 48.468613,3.494135 c 0,0 -0.812533,-0.6865459 -1.218841,-1.1441919 C 46.843471,1.8923001 46.481964,1.4805028 45.849936,1.5262676 45.365587,1.5613385 44.861136,2.5507971 44.64884,3.0174308 40.604169,1.0850863 36.088136,0 31.3202,0 Z" /><path
     style="fill:#d3c9ca;fill-opacity:1;stroke:#d3c9ca;stroke-width:0.416055;stroke-linejoin:round;stroke-dasharray:none;stroke-opacity:1"
     id="path3004-7-2"
     d="m 43.067492,9.5100664 c -6.065441,0.03138 -9.597746,0.7440806 -15.891625,3.4681136 -7.984734,3.765388 -16.001553,10.815806 -16.046698,22.339423 -0.05261,13.42951 10.741819,24.314789 23.989654,24.314789 6.845718,0 16.737446,-4.654597 21.107415,-9.316901 -4.702992,3.992144 -14.973757,7.37631 -18.633205,7.377019 -11.432388,0 -20.777692,-8.621542 -20.777692,-20.210804 0,-7.322443 3.540597,-12.716967 9.309357,-16.212685 2.010495,-1.218308 6.279652,-2.603951 12.202323,-1.69892 3.003608,0.458976 5.46377,1.11582 9.257488,2.342083 4.402942,1.423184 6.855531,3.411265 10.243085,3.806392 3.858068,0.450007 7.93385,-3.235463 4.924025,-8.967873 0,0 -0.54553,0.551858 -1.001564,0.829234 -0.456033,0.277375 -1.092769,-0.08899 -2.916906,-0.7362 -1.824136,-0.647205 -2.098895,-1.39034 -4.652684,-3.147046 -2.55379,-1.756707 -2.552648,-3.69602 -10.031603,-4.1583096 -0.350574,-0.02168 -0.713221,-0.03206 -1.08137,-0.02831 z"
     sodipodi:nodetypes="ccssccssssscsssscc" /><ellipse
     style="fill:#333333;fill-opacity:1;stroke:none;stroke-width:0.13338"
     id="path3026-6-2"
     cx="53.474857"
     cy="13.682869"
     rx="2.3655865"
     ry="2.3980465" /><ellipse
     style="fill:#333333;fill-opacity:1;stroke:none;stroke-width:0.077115"
     id="path3026-4-1-7"
     cx="62.225399"
     cy="15.368292"
     rx="1.2262784"
     ry="1.5463456" /><path
     style="fill:#794d3b;fill-opacity:1;stroke:none;stroke-width:0.306253"
     id="path3889-4-8"
     d="m 21.9551,15.215783 c -1.54133,0.38049 -5.297405,1.305203 -7.528983,4.375366 -2.143251,2.948636 -1.969319,6.386555 -2.017071,7.302046 0.620656,-1.012813 2.319788,-0.869164 3.491221,-0.685456 2.762127,0.433168 5.594527,1.178561 7.365392,4.062289 0.14926,0.218113 0.255239,0.47005 0.421558,0.67635 0.818897,1.015761 1.703926,1.276278 2.59553,1.317817 1.905244,0.05623 2.804837,-1.385441 2.889714,-3.324099 0.0023,-0.152078 5.19e-4,-0.07923 -0.01,-0.212369 -0.06295,-1.349932 -2.107133,-6.499547 -5.478912,-6.658009 -0.03758,-0.0012 -0.07565,-9.38e-4 -0.112899,-0.0033 -1.870346,-0.115847 -3.323957,-1.73085 -3.26947,-3.65851 0.187781,-1.248855 0.762912,-2.236458 1.891483,-3.037917 z" /><path
     style="fill:#333333;fill-opacity:1;stroke:none;stroke-width:0.306253"
     id="path3950-2-5"
     d="m 59.947379,17.89896 c -0.741799,0.919247 0.57542,3.179579 1.658905,3.133815 1.083482,-0.04576 1.93826,-1.152439 1.893123,-2.113497 -0.443121,-2.811831 -2.776996,-1.980746 -3.552028,-1.020318 z"
     sodipodi:nodetypes="asca" /></svg>
