<?xml version="1.0" encoding="UTF-8" standalone="no"?>
<!-- Generator: Adobe Illustrator 18.1.1, SVG Export Plug-In . SVG Version: 6.00 Build 0)  -->

<svg
   version="1.1"
   id="Layer_1"
   x="0px"
   y="0px"
   viewBox="0 0 59.999994 60.000006"
   enable-background="new 0 0 960 560"
   xml:space="preserve"
   inkscape:version="1.2.1 (9c6d41e410, 2022-07-14, custom)"
   sodipodi:docname="micro.svg"
   width="64"
   height="64"
   xmlns:inkscape="http://www.inkscape.org/namespaces/inkscape"
   xmlns:sodipodi="http://sodipodi.sourceforge.net/DTD/sodipodi-0.dtd"
   xmlns="http://www.w3.org/2000/svg"
   xmlns:svg="http://www.w3.org/2000/svg"
   xmlns:rdf="http://www.w3.org/1999/02/22-rdf-syntax-ns#"
   xmlns:cc="http://creativecommons.org/ns#"
   xmlns:dc="http://purl.org/dc/elements/1.1/"><metadata
     id="metadata9"><rdf:RDF><cc:Work
         rdf:about=""><dc:format>image/svg+xml</dc:format><dc:type
           rdf:resource="http://purl.org/dc/dcmitype/StillImage" /></cc:Work></rdf:RDF></metadata><defs
     id="defs7"><style
       id="current-color-scheme"
       type="text/css">
   .ColorScheme-Text { color:#dfdfdf; } .ColorScheme-Highlight { color:#4285f4; } .ColorScheme-NeutralText { color:#ff9800; } .ColorScheme-PositiveText { color:#4caf50; } .ColorScheme-NegativeText { color:#f44336; }
  </style></defs><sodipodi:namedview
     pagecolor="#ffffff"
     bordercolor="#666666"
     borderopacity="1"
     objecttolerance="10"
     gridtolerance="10"
     guidetolerance="10"
     inkscape:pageopacity="0"
     inkscape:pageshadow="2"
     inkscape:window-width="1426"
     inkscape:window-height="868"
     id="namedview5"
     showgrid="false"
     fit-margin-top="0"
     fit-margin-left="0"
     fit-margin-right="0"
     fit-margin-bottom="0"
     inkscape:zoom="256"
     inkscape:cx="48.521484"
     inkscape:cy="30.210938"
     inkscape:window-x="6"
     inkscape:window-y="6"
     inkscape:window-maximized="0"
     inkscape:current-layer="Layer_1"
     inkscape:showpageshadow="0"
     inkscape:pagecheckerboard="1"
     inkscape:deskcolor="#d1d1d1" /><path
     id="path2060"
     style="fill:#ffffff;fill-opacity:1;stroke:#ffffff;stroke-width:0.891226;stroke-linecap:round;stroke-linejoin:round"
     d="M 57.592097,29.999999 A 27.592096,28.181968 0 0 1 29.999995,58.181969 27.592096,28.181968 0 0 1 2.4079049,29.999999 27.592096,28.181968 0 0 1 29.999995,1.8180296 27.592096,28.181968 0 0 1 57.592097,29.999999 Z" /><path
     d="M 29.991263,0.29051992 C 18.311194,0.12805821 7.0461262,7.6356615 2.6221074,18.433588 -1.9966501,29.041247 0.39255863,42.218369 8.4896002,50.493728 16.280335,58.879283 29.115496,61.937754 39.862524,58.024584 51.002195,54.240496 59.214848,43.295999 59.655826,31.526145 60.395378,20.084502 53.765126,8.6473713 43.51423,3.5402025 39.349753,1.399995 34.67232,0.28339143 29.991263,0.29051992 Z M 45.127417,32.676443 c -0.59449,2.890962 -3.390189,5.30065 -6.483185,4.387115 -2.878475,-0.850174 -1.8574,-6.401435 -2.270645,-6.49582 -1.076445,2.64015 -3.29542,5.241067 -5.986735,6.326217 -1.366032,0.550791 -2.853753,0.711078 -4.375524,0.287782 -3.228498,-0.898038 -3.016594,-5.242288 -2.983959,-7.614146 -2.541046,5.250011 -3.221772,11.599925 -2.249676,16.81083 0.764522,4.060576 -3.991089,2.49486 -3.439471,-1.216194 1.26725,-8.525529 2.718046,-23.691992 6.848543,-31.152128 1.451538,-3.465269 4.993462,-0.881058 3.720996,2.368521 -1.476099,3.76961 -2.178242,6.853357 -2.581114,10.901307 -0.332803,3.34394 2.846856,5.489205 5.286638,3.491527 5.679799,-3.647065 5.566035,-17.117616 8.881102,-18.275301 3.824825,-0.205714 1.755693,4.732383 1.077532,6.755974 -0.954648,2.848617 -1.498476,4.965588 -2.262198,7.857228 -0.834493,3.159586 1.927335,7.136296 4.538172,5.09123 1.414485,-1.107963 1.322608,-4.940255 2.559434,-5.516696 0.09884,1.407395 0.0046,4.608858 -0.27991,5.992554 z"
     id="path3"
     inkscape:connector-curvature="0"
     style="fill:#3841b4;stroke:#3841b6;stroke-width:0.575625;stroke-linecap:round;stroke-linejoin:round;stroke-dasharray:none;stroke-opacity:1;fill-opacity:1"
     sodipodi:nodetypes="cccccccsscssccscssccssscs" /></svg>
