<?xml version="1.0" encoding="UTF-8" standalone="no"?>
<!-- Created with Inkscape (http://www.inkscape.org/) -->

<svg
   width="64"
   height="64.020134"
   viewBox="0 0 64 64.020134"
   version="1.1"
   id="svg5"
   xml:space="preserve"
   inkscape:version="1.2 (dc2aedaf03, 2022-05-15)"
   sodipodi:docname="openarena-server.svg"
   xmlns:inkscape="http://www.inkscape.org/namespaces/inkscape"
   xmlns:sodipodi="http://sodipodi.sourceforge.net/DTD/sodipodi-0.dtd"
   xmlns="http://www.w3.org/2000/svg"
   xmlns:svg="http://www.w3.org/2000/svg"><sodipodi:namedview
     id="namedview7"
     pagecolor="#505050"
     bordercolor="#ffffff"
     borderopacity="1"
     inkscape:showpageshadow="0"
     inkscape:pageopacity="0"
     inkscape:pagecheckerboard="1"
     inkscape:deskcolor="#505050"
     inkscape:document-units="px"
     showgrid="false"
     inkscape:zoom="4.9445096"
     inkscape:cx="30.033312"
     inkscape:cy="24.370465"
     inkscape:window-width="1440"
     inkscape:window-height="871"
     inkscape:window-x="0"
     inkscape:window-y="0"
     inkscape:window-maximized="1"
     inkscape:current-layer="layer1" /><defs
     id="defs2" /><g
     inkscape:label="Layer 1"
     inkscape:groupmode="layer"
     id="layer1"
     transform="translate(-123.59322,-997.65096)"><rect
       style="fill:#b13716;fill-opacity:1;stroke:#b13716;stroke-width:8.08908;stroke-linecap:round;stroke-linejoin:round;stroke-miterlimit:4;stroke-dasharray:none;stroke-opacity:1"
       id="rect1002"
       width="55.910919"
       height="55.931053"
       x="127.63776"
       y="1001.6955"
       ry="5.1870904" /><path
       id="path6085"
       style="fill:#ffffff;stroke:#ffffff;stroke-width:0.87663;stroke-linecap:round;stroke-linejoin:round;stroke-dasharray:none"
       d="m 155.72408,1009.0885 -1.68164,5.5312 c -14.703,0.3199 -26.4043,5.0259 -26.4043,10.8379 0,4.9277 8.43003,9.0543 19.94336,10.4023 l -3.66992,12.0665 c 0,0 -0.82237,1.1937 -2.16602,1.791 h 7.0918 c 0,0 -1.57233,-0.8457 -2.2168,-1.6192 l 3.39063,-11.959 0.96484,-3.4043 c 1.58066,-5.5852 3.16506,-11.1693 4.74805,-16.7539 l 4.52734,15.9551 1.1875,4.1797 3.38868,11.9414 c -0.64466,0.7733 -2.2168,1.6191 -2.2168,1.6191 h 7.0918 c -1.34366,-0.597 -2.16602,-1.791 -2.16602,-1.791 l -3.67188,-12.0566 c 11.37933,-1.3798 19.6836,-5.4806 19.6836,-10.3711 0,-5.7761 -11.56148,-10.4562 -26.13672,-10.8281 z m -1.84766,6.0742 -5.05078,16.6074 c -11.86166,-0.8779 -21.2033,-3.9542 -20.14258,-7.7598 1.19457,-4.2857 11.24464,-8.5133 25.19336,-8.8476 z m 3.70118,0.014 c 13.84551,0.4078 24.14311,4.8828 24.92578,8.8339 0.76134,3.8437 -8.22544,6.8564 -19.87696,7.7461 z"
       sodipodi:nodetypes="ccscccccccccccccccscccccccccc" /><path
       style="fill:#ffffff;fill-rule:evenodd;stroke:#ffffff;stroke-width:1.3;stroke-linecap:round;stroke-linejoin:round;stroke-dasharray:none;stroke-dashoffset:90.7465"
       d="m 155.79659,1039.0135 -2.15325,-4.3121 2.15325,-4.9691 2.15325,4.9691 z"
       id="path462" /></g></svg>
