<?xml version="1.0" encoding="UTF-8" standalone="no"?>
<!-- Created with Inkscape (http://www.inkscape.org/) -->

<svg
   width="64"
   height="64.020134"
   viewBox="0 0 64 64.020134"
   version="1.1"
   id="svg5"
   xml:space="preserve"
   sodipodi:docname="openarena-server.svg"
   inkscape:version="1.2 (dc2aedaf03, 2022-05-15)"
   xmlns:inkscape="http://www.inkscape.org/namespaces/inkscape"
   xmlns:sodipodi="http://sodipodi.sourceforge.net/DTD/sodipodi-0.dtd"
   xmlns="http://www.w3.org/2000/svg"
   xmlns:svg="http://www.w3.org/2000/svg"><sodipodi:namedview
     id="namedview7"
     pagecolor="#505050"
     bordercolor="#ffffff"
     borderopacity="1"
     inkscape:showpageshadow="0"
     inkscape:pageopacity="0"
     inkscape:pagecheckerboard="1"
     inkscape:deskcolor="#505050"
     inkscape:document-units="px"
     showgrid="false"
     inkscape:zoom="9.8890193"
     inkscape:cx="24.724393"
     inkscape:cy="31.600707"
     inkscape:window-width="1440"
     inkscape:window-height="881"
     inkscape:window-x="-4"
     inkscape:window-y="-4"
     inkscape:window-maximized="1"
     inkscape:current-layer="layer1" /><defs
     id="defs2" /><g
     inkscape:label="Layer 1"
     inkscape:groupmode="layer"
     id="layer1"
     transform="translate(-123.59322,-997.65096)"><rect
       style="fill:#b13716;fill-opacity:1;stroke:#b13716;stroke-width:8.08908;stroke-linecap:round;stroke-linejoin:round;stroke-miterlimit:4;stroke-dasharray:none;stroke-opacity:1"
       id="rect1002"
       width="55.910919"
       height="55.931053"
       x="127.63776"
       y="1001.6955"
       ry="5.1870904" /><g
       id="g6097"
       transform="matrix(0.19335901,0,0,0.19335901,124.69387,1006.5452)"
       style="fill:#ffffff;stroke:#ffffff;stroke-width:4.53369;stroke-linecap:round;stroke-linejoin:round;stroke-dasharray:none"><polygon
         stroke="#000000"
         points="160.232,108.905 171.368,134.604 160.232,156.905 149.096,134.604 "
         id="polygon6083"
         style="fill:#ffffff;stroke:#ffffff;stroke-width:4.53369;stroke-linecap:round;stroke-linejoin:round;stroke-dasharray:none" /><path
         stroke="#000000"
         d="m 196.093,223.061 h 36.675 c -6.949,-3.088 -11.195,-9.266 -11.195,-9.266 L 160.479,13.155 99.386,214.012 c 0,0 -4.247,6.177 -11.196,9.266 h 36.675 c 0,0 -8.133,-4.373 -11.466,-8.373 l 47.08,-166.108 47.081,165.892 c -3.334,3.999 -11.467,8.372 -11.467,8.372 z"
         id="path6085"
         style="fill:#ffffff;stroke:#ffffff;stroke-width:4.53369;stroke-linecap:round;stroke-linejoin:round;stroke-dasharray:none" /><path
         stroke="#000000"
         d="m 159.803,41.445 c -79.848,0 -144.578,25.235 -144.578,56.364 0,27.275 49.692,50.023 115.705,55.239 l 6.145,-21.681 C 69.945,128.203 14.779,111.32 20.631,90.325 27.066,67.238 82.941,44.238 159.803,44.238 c 76.863,0 134.93,24.667 139.173,46.087 4.205,21.229 -48.878,37.722 -115.079,40.987 l 6.137,21.623 c 65.333,-5.419 114.347,-28.039 114.347,-55.126 0,-31.128 -64.73,-56.364 -144.578,-56.364 z"
         id="path6087"
         style="fill:#ffffff;stroke:#ffffff;stroke-width:4.53369;stroke-linecap:round;stroke-linejoin:round;stroke-dasharray:none" /></g></g></svg>
