<?xml version="1.0" encoding="UTF-8" standalone="no"?>
<svg
   width="63.935448"
   height="64.099998"
   version="1.1"
   id="svg10"
   sodipodi:docname="org.xfce.about.svg"
   inkscape:version="1.1.2 (0a00cf5339, 2022-02-04, custom)"
   xmlns:inkscape="http://www.inkscape.org/namespaces/inkscape"
   xmlns:sodipodi="http://sodipodi.sourceforge.net/DTD/sodipodi-0.dtd"
   xmlns="http://www.w3.org/2000/svg"
   xmlns:svg="http://www.w3.org/2000/svg">
  <defs
     id="defs14" />
  <sodipodi:namedview
     id="namedview12"
     pagecolor="#505050"
     bordercolor="#ffffff"
     borderopacity="1"
     inkscape:pageshadow="0"
     inkscape:pageopacity="0"
     inkscape:pagecheckerboard="1"
     showgrid="false"
     inkscape:snap-global="false"
     inkscape:zoom="9.0480245"
     inkscape:cx="15.196687"
     inkscape:cy="9.1180124"
     inkscape:window-width="1440"
     inkscape:window-height="881"
     inkscape:window-x="-4"
     inkscape:window-y="-4"
     inkscape:window-maximized="1"
     inkscape:current-layer="svg10" />
  <path
     d="M 63.932645,32.045605 C 64.030991,43.187069 57.823098,54.086691 48.211932,59.665759 38.684731,65.417456 26.148065,65.587581 16.479535,60.095156 6.7195574,54.782947 0.2184483,44.050115 0.01892577,32.916991 -0.37970362,21.775531 5.5481938,10.692442 15.024683,4.8631889 c 9.377558,-5.9960418 21.897598,-6.4889015 31.715771,-1.248411 9.89299,5.0586911 16.668444,15.6197301 17.150622,26.7445131 0.02957,0.562579 0.04437,1.125822 0.04437,1.689567 z"
     fill="#0044aa"
     id="path2"
     style="stroke-width:0.0832643" />
  <path
     d="m 22.706301,17.743504 c -1.041673,2.811217 1.609483,6.532268 0.620681,8.631298 -2.467428,-1.359324 -2.213868,-5.639948 -4.746143,-7.457942 -2.868967,-2.445952 -5.582474,2.086523 -4.708731,4.755969 1.066614,3.144796 0.925285,6.031902 -0.526906,9.064948 -1.326825,5.187954 -2.274557,11.383309 0.951889,16.07006 3.21065,4.032111 9.011768,3.540917 13.509339,2.519339 6.387214,-1.632858 12.312202,-4.731786 18.006908,-7.995001 2.377643,-1.667884 5.711332,-3.470867 5.794468,-6.744922 -0.753117,-4.664235 -5.70967,-6.685711 -9.635276,-8.065052 -3.824182,-1.360992 -7.827103,-2.249139 -11.888218,-2.411759 -0.331207,-3.638486 0.704398,-8.948196 -3.199844,-10.916298 -1.752472,-0.396957 -3.901495,0.640967 -4.173345,2.555197 z"
     fill="#ffffff"
     id="path4"
     style="stroke-width:0.0832643" />
  <path
     d="m 38.834372,23.54774 c -0.765003,3.17565 3.078589,3.438735 3.108397,0.09032 0.03315,-3.723057 2.503102,-7.773915 0.94191,-11.166481 -0.958624,-2.083151 -2.64201,4.01877 -3.115046,5.692491 -0.327178,1.896218 -0.792604,3.748079 -0.935261,5.383679 z"
     fill="#ffffff"
     id="path6"
     sodipodi:nodetypes="csscc"
     style="stroke-width:0.0832643" />
  <path
     d="m 44.312929,24.131499 c -1.794401,2.504653 1.075396,5.401268 2.350207,2.173252 1.518607,-3.845341 4.277371,-7.338089 4.761939,-11.433343 0.334169,-2.824194 -3.391051,1.920568 -3.94057,3.104766 -1.200148,2.096835 -1.975951,4.486449 -3.171576,6.155325 z"
     fill="#ffffff"
     id="path8"
     sodipodi:nodetypes="ssscs"
     style="stroke-width:0.0832643" />
</svg>
