<?xml version="1.0" encoding="UTF-8" standalone="no"?>
<svg
   width="64"
   height="64"
   version="1"
   id="svg16"
   sodipodi:docname="preferences-desktop-filetype-association.svg"
   inkscape:version="1.1.2 (0a00cf5339, 2022-02-04, custom)"
   xmlns:inkscape="http://www.inkscape.org/namespaces/inkscape"
   xmlns:sodipodi="http://sodipodi.sourceforge.net/DTD/sodipodi-0.dtd"
   xmlns="http://www.w3.org/2000/svg"
   xmlns:svg="http://www.w3.org/2000/svg">
  <defs
     id="defs20" />
  <sodipodi:namedview
     id="namedview18"
     pagecolor="#505050"
     bordercolor="#ffffff"
     borderopacity="1"
     inkscape:pageshadow="0"
     inkscape:pageopacity="0"
     inkscape:pagecheckerboard="1"
     showgrid="false"
     inkscape:zoom="5.1200001"
     inkscape:cx="29.980468"
     inkscape:cy="18.652343"
     inkscape:window-width="1440"
     inkscape:window-height="881"
     inkscape:window-x="-4"
     inkscape:window-y="-4"
     inkscape:window-maximized="1"
     inkscape:current-layer="svg16"
     inkscape:snap-nodes="false"
     height="64px" />
  <path
     fill="#e4e4e4"
     d="m 30.615996,9.2491029 c -1.232983,0 -2.225601,0.9926181 -2.225601,2.2256011 v 40.060813 c 0,1.232983 0.992618,2.225601 2.225601,2.225601 H 61.774399 C 63.007382,53.761118 64,52.7685 64,51.535517 V 22.602708 L 51.759203,21.489907 50.646402,9.2491029 Z"
     id="path21969"
     style="fill:#a262f0;fill-opacity:1;stroke-width:1.1128" />
  <path
     fill="#fafafa"
     d="M 50.646402,9.2491029 V 20.377107 c 0,1.229199 0.996437,2.225601 2.225601,2.225601 H 64 Z"
     id="path21971"
     style="fill:#9158d6;fill-opacity:1;stroke-width:1.1128" />
  <path
     fill="#e4e4e4"
     d="m 16.577325,9.2491029 c -1.232983,0 -2.225601,0.9926181 -2.225601,2.2256011 v 40.060813 c 0,1.232983 0.992618,2.225601 2.225601,2.225601 h 31.158408 c 1.232982,0 2.2256,-0.992618 2.2256,-2.225601 V 22.602708 L 37.720532,21.489907 36.607731,9.2491029 Z"
     id="path12835"
     style="fill:#5294e2;fill-opacity:1;stroke-width:1.1128" />
  <path
     fill="#fafafa"
     d="M 36.607731,9.2491029 V 20.377107 c 0,1.229199 0.996435,2.225601 2.225601,2.225601 h 11.128001 z"
     id="path12837"
     style="fill:#4882c6;fill-opacity:1;stroke-width:1.1128" />
  <path
     fill="#e4e4e4"
     d="M 2.2256008,9.2491029 C 0.99261794,9.2491029 0,10.241721 0,11.474704 v 40.060813 c 0,1.232983 0.99261794,2.225601 2.2256008,2.225601 H 33.384011 c 1.232983,0 2.225601,-0.992618 2.225601,-2.225601 V 22.602708 L 23.368808,21.489907 22.256008,9.2491029 Z"
     id="path4"
     style="fill:#69a016;fill-opacity:1;stroke-width:1.1128" />
  <path
     fill="#fafafa"
     d="M 22.256008,9.2491029 V 20.377107 c 0,1.229199 0.996434,2.225601 2.2256,2.225601 h 11.128004 z"
     id="path10"
     style="fill:#588612;fill-opacity:1;stroke-width:1.1128" />
</svg>
