<?xml version="1.0" encoding="UTF-8" standalone="no"?>
<!-- Created with Inkscape (http://www.inkscape.org/) -->

<svg
   width="64"
   height="41.817867"
   viewBox="0 0 64 41.817867"
   version="1.1"
   id="svg5"
   inkscape:version="1.1.2 (0a00cf5339, 2022-02-04, custom)"
   sodipodi:docname="preferences-desktop-gaming.svg"
   xmlns:inkscape="http://www.inkscape.org/namespaces/inkscape"
   xmlns:sodipodi="http://sodipodi.sourceforge.net/DTD/sodipodi-0.dtd"
   xmlns="http://www.w3.org/2000/svg"
   xmlns:svg="http://www.w3.org/2000/svg">
  <sodipodi:namedview
     id="namedview7"
     pagecolor="#505050"
     bordercolor="#ffffff"
     borderopacity="1"
     inkscape:pageshadow="0"
     inkscape:pageopacity="0"
     inkscape:pagecheckerboard="1"
     inkscape:document-units="px"
     showgrid="false"
     inkscape:snap-object-midpoints="true"
     inkscape:zoom="3.5354574"
     inkscape:cx="5.2327034"
     inkscape:cy="-11.738227"
     inkscape:window-width="1440"
     inkscape:window-height="881"
     inkscape:window-x="-4"
     inkscape:window-y="-4"
     inkscape:window-maximized="1"
     inkscape:current-layer="layer1" />
  <defs
     id="defs2" />
  <g
     inkscape:label="Layer 1"
     inkscape:groupmode="layer"
     id="layer1"
     transform="translate(337.80953,199.35057)">
    <path
       id="path933"
       style="font-variation-settings:'wght' 100;fill:#1a1a1a;stroke:#ffffff;stroke-width:0.98562;stroke-linecap:round;stroke-linejoin:round;stroke-miterlimit:4;stroke-dasharray:none;stroke-dashoffset:90.7465;paint-order:stroke fill markers"
       d="m -327.42893,-195.41237 c -3.62974,4.85425 -14.36739,25.37274 -7.78171,34.82128 2.73209,3.09256 4.37424,2.98801 5.9065,1.79158 3.19519,-2.49492 6.84641,-10.0256 12.81421,-10.48392 7.12067,0.16855 14.24004,0.0768 21.36079,0 5.9678,0.45832 9.61902,7.989 12.81421,10.48392 1.53226,1.19643 3.1744,1.30098 5.9065,-1.79158 6.58569,-9.44854 -4.15196,-29.96703 -7.78171,-34.82128 -3.40332,-3.47177 -9.49716,-4.8248 -13.12834,-1.67011 -5.66071,0.0204 -11.32139,0.0104 -16.98211,0 -3.96757,-2.90423 -10.37987,-1.76787 -13.12834,1.67011 z"
       sodipodi:nodetypes="ccsccsccccc" />
    <circle
       style="font-variation-settings:'wght' 100;fill:#0f0f0f;fill-opacity:1;stroke:#1a1a1a;stroke-width:0.0912362;stroke-linecap:round;stroke-linejoin:round;stroke-dashoffset:90.7465;paint-order:stroke fill markers"
       id="path5079"
       cx="-315.12921"
       cy="-177.97598"
       r="5.6835365" />
    <circle
       style="font-variation-settings:'wght' 100;fill:#0d0d0d;fill-opacity:1;stroke:#1a1a1a;stroke-width:0.0318364;stroke-linecap:round;stroke-linejoin:round;stroke-dashoffset:90.7465;paint-order:stroke fill markers"
       id="path5079-5"
       cx="-312.82281"
       cy="-190.32416"
       r="1.9832404" />
    <path
       id="rect1002"
       style="fill:#4d4d4d;stroke:#4d4d4d;stroke-width:0.738018;stroke-linecap:round;stroke-linejoin:round"
       d="m -316.00414,-182.18532 c -0.26218,0 -0.47329,0.21111 -0.47329,0.47328 0.18342,2.55344 0.009,2.38782 -2.38782,2.38782 -0.26218,0 -0.47328,0.21111 -0.47328,0.4733 v 1.74988 c 0,0.26217 0.2111,0.47328 0.47328,0.47328 2.55344,-0.18341 2.38782,-0.009 2.38782,2.38783 0,0.26218 0.21111,0.47329 0.47329,0.47329 h 1.74989 c 0.26217,0 0.47328,-0.21111 0.47328,-0.47329 -0.18341,-2.55343 -0.009,-2.38783 2.38782,-2.38783 0.26219,0 0.47329,-0.21111 0.47329,-0.47328 v -1.74988 c 0,-0.26219 -0.2111,-0.4733 -0.47329,-0.4733 -2.55343,0.18342 -2.38782,0.009 -2.38782,-2.38782 0,-0.26217 -0.21111,-0.47328 -0.47328,-0.47328 z"
       sodipodi:nodetypes="sccssccssccssccss" />
    <circle
       style="font-variation-settings:'wght' 100;fill:#4d4d4d;stroke:#4d4d4d;stroke-width:0.0912362;stroke-linecap:round;stroke-linejoin:round;stroke-dashoffset:90.7465;paint-order:stroke fill markers"
       id="path6769"
       cx="-298.63391"
       cy="-176.59972"
       r="4.2282152" />
    <circle
       style="font-variation-settings:'wght' 100;fill:#4d4d4d;stroke:#4d4d4d;stroke-width:0.0876803;stroke-linecap:round;stroke-linejoin:round;stroke-dashoffset:90.7465;paint-order:stroke fill markers"
       id="path6769-2"
       cx="-322.67807"
       cy="-188.58089"
       r="4.0634193" />
    <circle
       style="font-variation-settings:'wght' 100;fill:#8fa876;fill-opacity:1;stroke:#8fa876;stroke-width:0.0912362;stroke-linecap:round;stroke-linejoin:round;stroke-dashoffset:90.7465;stroke-opacity:1;paint-order:stroke fill markers"
       id="path6945"
       cx="-289.92902"
       cy="-184.41222"
       r="2.1952057" />
    <circle
       style="font-variation-settings:'wght' 100;fill:#b53a31;fill-opacity:1;stroke:#b53a31;stroke-width:0.0912362;stroke-linecap:round;stroke-linejoin:round;stroke-dashoffset:90.7465;stroke-opacity:1;paint-order:stroke fill markers"
       id="path6945-6"
       cx="-285.53079"
       cy="-188.66437"
       r="2.1952057" />
    <circle
       style="font-variation-settings:'wght' 100;fill:#df7713;fill-opacity:1;stroke:#df7713;stroke-width:0.0912362;stroke-linecap:round;stroke-linejoin:round;stroke-dashoffset:90.7465;stroke-opacity:1;paint-order:stroke fill markers"
       id="path6945-64"
       cx="-289.9332"
       cy="-193.09094"
       r="2.1952057" />
    <circle
       style="font-variation-settings:'wght' 100;fill:#596eb5;fill-opacity:1;stroke:#596eb5;stroke-width:0.0912362;stroke-linecap:round;stroke-linejoin:round;stroke-dashoffset:90.7465;stroke-opacity:1;paint-order:stroke fill markers"
       id="path6945-9"
       cx="-294.29816"
       cy="-188.82387"
       r="2.1952057" />
    <circle
       style="font-variation-settings:'wght' 100;fill:#cccccc;fill-opacity:1;stroke:#cccccc;stroke-width:0.125966;stroke-linecap:round;stroke-linejoin:round;stroke-dashoffset:90.7465;stroke-opacity:1;paint-order:stroke fill markers"
       id="circle46609"
       cx="-306.80743"
       cy="-190.21663"
       r="3.0308378" />
    <circle
       style="font-variation-settings:'wght' 100;fill:#0d0d0d;fill-opacity:1;stroke:#1a1a1a;stroke-width:0.0318364;stroke-linecap:round;stroke-linejoin:round;stroke-dashoffset:90.7465;paint-order:stroke fill markers"
       id="circle60085"
       cx="-300.89087"
       cy="-190.32416"
       r="1.9832404" />
  </g>
</svg>
