<?xml version="1.0" encoding="UTF-8" standalone="no"?>
<!-- Created with Inkscape (http://www.inkscape.org/) -->

<svg
   version="1.1"
   id="svg2"
   width="64"
   height="64"
   viewBox="0 0 64.000002 64"
   sodipodi:docname="preferences-system-splash.svg"
   xml:space="preserve"
   inkscape:version="1.2.1 (9c6d41e410, 2022-07-14)"
   xmlns:inkscape="http://www.inkscape.org/namespaces/inkscape"
   xmlns:sodipodi="http://sodipodi.sourceforge.net/DTD/sodipodi-0.dtd"
   xmlns="http://www.w3.org/2000/svg"
   xmlns:svg="http://www.w3.org/2000/svg"><defs
     id="defs6" /><sodipodi:namedview
     id="namedview4"
     pagecolor="#505050"
     bordercolor="#ffffff"
     borderopacity="1"
     inkscape:showpageshadow="0"
     inkscape:pageopacity="0"
     inkscape:pagecheckerboard="1"
     inkscape:deskcolor="#505050"
     showgrid="false"
     inkscape:zoom="5.2149125"
     inkscape:cx="21.860386"
     inkscape:cy="13.902438"
     inkscape:window-width="1440"
     inkscape:window-height="869"
     inkscape:window-x="0"
     inkscape:window-y="0"
     inkscape:window-maximized="1"
     inkscape:current-layer="g8" /><g
     inkscape:groupmode="layer"
     inkscape:label="Image"
     id="g8"
     transform="translate(-188.74574,3.0025253e-5)"><g
       inkscape:label="Capa 1"
       id="layer1"
       transform="translate(-192.42571,-496.66884)"><rect
         style="fill:#1a1a1a;stroke:none;stroke-width:34.238;stroke-linecap:round;stroke-linejoin:round"
         id="rect1152"
         width="57.722279"
         height="42.967239"
         x="384.4407"
         y="501.62964"
         rx="0"
         ry="0" /><path
         inkscape:connector-curvature="0"
         style="fill:#b3b3b3;stroke-width:3.27008;stroke-opacity:0.550265"
         id="rect4254"
         d="m 404.84139,544.39116 v 8.91836 2.54812 2.54812 h 16.35038 v -2.54812 -2.54812 -8.91836 z" /><rect
         width="60.729919"
         x="382.80649"
         y="500.03302"
         height="45.865971"
         style="fill:none;fill-opacity:1;stroke:#333333;stroke-width:3.27008;stroke-opacity:1"
         id="rect4173"
         ry="0.76379269" /><path
         style="fill:#333333;stroke:#333333;stroke-width:3.50364;stroke-linecap:round;stroke-linejoin:miter;stroke-miterlimit:4;stroke-dasharray:none;stroke-opacity:1"
         d="m 398.79927,557.18782 h 28.4346"
         id="path11485" /></g><g
       id="g3089"
       transform="matrix(0.46741271,0,0,0.46741271,146.64836,4.1572103)"><g
         aria-label="OS"
         id="text309"
         style="font-size:46.8662px;font-family:Comfortaa;-inkscape-font-specification:'Comfortaa, Normal';fill:#ffffff;stroke:#c6c6c6;stroke-width:5.23437;stroke-linecap:round;stroke-linejoin:round"><path
           d="m 142.74128,55.235134 q -5.34275,0 -9.60757,-2.437043 -4.26482,-2.437042 -6.70187,-6.701866 -2.39017,-4.31169 -2.39017,-9.654437 0,-5.342747 2.39017,-9.607571 2.43705,-4.264824 6.70187,-6.701867 4.26482,-2.437042 9.60757,-2.437042 5.29588,0 9.56071,2.437042 4.31169,2.437043 6.70186,6.701867 2.43705,4.264824 2.43705,9.607571 0,5.342747 -2.43705,9.654437 -2.39017,4.264824 -6.70186,6.701866 -4.26483,2.437043 -9.56071,2.437043 z m 0,-3.468099 q 4.26483,0 7.68606,-2.015246 3.4681,-2.015247 5.43648,-5.483346 1.96838,-3.514965 1.96838,-7.826655 0,-4.264824 -1.96838,-7.732923 -1.96838,-3.514965 -5.43648,-5.530212 -3.42123,-2.015246 -7.68606,-2.015246 -4.31169,0 -7.77979,2.015246 -3.42123,2.015247 -5.38961,5.530212 -1.96838,3.468099 -1.96838,7.732923 0,4.31169 1.96838,7.826655 1.96838,3.468099 5.38961,5.483346 3.4681,2.015246 7.77979,2.015246 z"
           id="path3030" /><path
           d="m 180.23422,55.235134 q -4.45229,0 -7.92039,-1.874648 -3.42123,-1.921514 -4.92095,-5.155282 -0.18747,-0.328063 -0.18747,-0.749859 0,-0.656127 0.46867,-1.077923 0.51552,-0.468662 1.35912,-0.468662 0.56239,0 1.03105,0.328064 0.51553,0.281197 0.74986,0.843591 1.07792,2.108979 3.56183,3.421233 2.53078,1.265387 5.85828,1.265387 3.84303,0 6.18634,-1.827782 2.34331,-1.874648 2.34331,-5.202148 0,-2.95257 -2.20272,-4.967817 -2.15584,-2.015247 -6.5144,-2.577641 -5.43648,-0.656127 -8.57651,-3.374366 -3.09317,-2.765106 -3.09317,-6.748733 0,-2.811972 1.49972,-4.920951 1.54658,-2.155845 4.21796,-3.280634 2.71823,-1.171655 6.13947,-1.171655 3.70243,0 6.5144,1.640317 2.81197,1.640317 4.40542,4.264824 0.32807,0.515528 0.32807,1.124789 0,0.890458 -0.8436,1.405986 -0.37493,0.187465 -0.84359,0.187465 -0.51553,0 -0.98419,-0.234331 -0.42179,-0.281197 -0.70299,-0.749859 -2.62451,-4.124226 -7.92039,-4.171092 -3.79616,0 -5.99887,1.593451 -2.20271,1.59345 -2.20271,4.546021 0,5.483345 8.85771,6.655 5.81141,0.843592 8.67024,3.561831 2.85884,2.71824 2.85884,7.170529 0,3.280634 -1.59345,5.67081 -1.59345,2.390176 -4.35855,3.655564 -2.76511,1.218521 -6.18634,1.218521 z"
           id="path3032" /></g><path
         style="fill:#000000;fill-opacity:0;stroke:#545454;stroke-width:9;stroke-linecap:round;stroke-linejoin:round;stroke-dasharray:none;stroke-opacity:1"
         d="m 145.18104,75.528573 h 55.55845"
         id="path1072" /><path
         style="fill:#c6c6c6;fill-opacity:1;stroke:#c6c6c6;stroke-width:9;stroke-linecap:round;stroke-linejoin:round;stroke-dasharray:none;stroke-opacity:1"
         d="m 117.40182,75.528573 h 55.55844"
         id="path516" /></g></g></svg>
