<?xml version="1.0" encoding="UTF-8" standalone="no"?>
<svg
   width="63.999996"
   height="64"
   version="1.1"
   id="svg12"
   sodipodi:docname="QtProject-designer..svg"
   inkscape:version="1.2.1 (9c6d41e410, 2022-07-14, custom)"
   inkscape:export-filename="../../../vid/ilumos/qt.png"
   inkscape:export-xdpi="1498.5001"
   inkscape:export-ydpi="1498.5001"
   xml:space="preserve"
   xmlns:inkscape="http://www.inkscape.org/namespaces/inkscape"
   xmlns:sodipodi="http://sodipodi.sourceforge.net/DTD/sodipodi-0.dtd"
   xmlns:xlink="http://www.w3.org/1999/xlink"
   xmlns="http://www.w3.org/2000/svg"
   xmlns:svg="http://www.w3.org/2000/svg"><defs
     id="defs16"><linearGradient
       id="a"
       y1="16.333"
       x1="14.556"
       y2="5.667"
       x2=".333"
       gradientUnits="userSpaceOnUse"
       gradientTransform="matrix(1.13274 0 0 1.14985-19.481 18.15)"><stop
         stop-color="#197cf1"
         id="stop236" /><stop
         offset="1"
         stop-color="#20bcfa"
         id="stop238" /></linearGradient><linearGradient
       id="b"
       y1="37.956"
       x1="-2.994"
       y2="-.883"
       x2="-41.26"
       gradientUnits="userSpaceOnUse"
       gradientTransform="translate(0,-1.022)"><stop
         stop-color="#34495e"
         id="stop241" /><stop
         offset="1"
         stop-color="#1c7865"
         id="stop243" /></linearGradient><linearGradient
       id="c"
       y1="9.178"
       x1="-14.65"
       y2="17.522"
       x2="-6.43"
       gradientUnits="userSpaceOnUse"
       gradientTransform="translate(1.01-1.022)"><stop
         id="stop246" /><stop
         offset="1"
         stop-opacity="0"
         id="stop248" /></linearGradient><linearGradient
       xlink:href="#c"
       id="d"
       y1="9.268"
       x1="-28.756"
       y2="27.436"
       x2="-10.858"
       gradientUnits="userSpaceOnUse"
       gradientTransform="translate(0,-1.022)" /><linearGradient
       id="e"
       y1="-.883"
       x1="-41.26"
       y2="37.956"
       x2="-2.994"
       gradientUnits="userSpaceOnUse"
       gradientTransform="translate(-1.01,-1.022)"><stop
         stop-color="#66b036"
         id="stop252" /><stop
         offset="1"
         stop-color="#239161"
         id="stop254" /></linearGradient></defs><sodipodi:namedview
     id="namedview14"
     pagecolor="#505050"
     bordercolor="#ffffff"
     borderopacity="1"
     inkscape:pageshadow="0"
     inkscape:pageopacity="0"
     inkscape:pagecheckerboard="1"
     showgrid="false"
     inkscape:snap-object-midpoints="true"
     inkscape:snap-page="false"
     inkscape:zoom="13.458333"
     inkscape:cx="47.554179"
     inkscape:cy="39.975232"
     inkscape:window-width="1426"
     inkscape:window-height="868"
     inkscape:window-x="6"
     inkscape:window-y="6"
     inkscape:window-maximized="1"
     inkscape:current-layer="g8"
     inkscape:showpageshadow="0"
     inkscape:deskcolor="#505050" /><path
     style="opacity:1;fill:#41cd52;fill-opacity:1;stroke:#41cd52;stroke-width:1.37266;stroke-linecap:round;stroke-linejoin:round;stroke-miterlimit:4;stroke-dasharray:none;stroke-opacity:1"
     d="m 9.6084242,8.7226766 50.3450138,0.043902 c 0,0 3.265576,0.3552055 3.272668,3.1005249 l 0.08756,33.894431 -10.421451,8.84679 -48.774125,0.02542 c 0,0 -3.3747555,0.557676 -3.37900032,-2.187645 l -0.0527597,-34.12518 z"
     id="path4"
     sodipodi:nodetypes="ccscccscc" /><g
     aria-label="Qt"
     id="text2681"
     style="font-size:30.233px;line-height:1.25;fill:#ffffff;stroke-width:0.755823"
     transform="matrix(1.3043408,0,0,1.3043408,0.50347693,-0.13815086)"><path
       d="m 27.519612,24.169584 q 0,3.01149 -0.974306,5.240583 -0.974306,2.214331 -2.701484,3.557692 l 3.572454,2.804819 -2.819581,2.494813 -4.576285,-3.675789 q -0.782396,0.13286 -1.623842,0.13286 -2.67196,0 -4.768193,-1.284312 -2.096233,-1.284312 -3.247686,-3.661028 -1.1514518,-2.391477 -1.166214,-5.491541 v -1.062879 q 0,-3.173874 1.13669,-5.580114 1.151452,-2.421002 3.232923,-3.705314 2.096234,-1.299074 4.782955,-1.299074 2.686722,0 4.768193,1.299074 2.096234,1.284312 3.232923,3.705314 1.151453,2.40624 1.151453,5.565352 z m -4.487711,-0.974306 q 0,-3.380545 -1.210501,-5.137248 -1.210501,-1.756703 -3.454357,-1.756703 -2.229093,0 -3.439594,1.741941 -1.210501,1.727178 -1.225263,5.078199 v 1.048117 q 0,3.291972 1.210501,5.107723 1.210501,1.815752 3.483881,1.815752 2.229093,0 3.424832,-1.741941 1.195739,-1.756702 1.210501,-5.107723 z"
       style="font-weight:bold;font-family:Roboto;-inkscape-font-specification:'Roboto, Bold';stroke:#ffffff;stroke-opacity:1;stroke-width:0.7666708;stroke-dasharray:none;stroke-linejoin:round;stroke-linecap:round"
       id="path21783" /><path
       d="m 35.594538,14.529863 v 3.926747 h 2.731009 v 3.129587 h -2.731009 v 7.971592 q 0,0.885733 0.339531,1.26955 0.339531,0.383817 1.299074,0.383817 0.708586,0 1.254788,-0.103335 v 3.232923 q -1.254788,0.383818 -2.583386,0.383818 -4.487711,0 -4.576284,-4.531998 V 21.586197 H 28.995832 V 18.45661 h 2.332429 v -3.926747 z"
       style="font-weight:bold;font-family:Roboto;-inkscape-font-specification:'Roboto, Bold';stroke:#ffffff;stroke-opacity:1;stroke-width:0.7666708;stroke-dasharray:none;stroke-linejoin:round;stroke-linecap:round"
       id="path21785" /></g><g
     inkscape:label="Image"
     id="g8"
     transform="translate(72.40453,0.28938946)"><g
       inkscape:label="Layer 1"
       id="layer1"
       transform="translate(-99.766592,-35.279543)"><g
         id="g424"
         transform="rotate(46.827743,110.77121,-7.4488722)"><path
           fill="#ffffff"
           d="m 152.65538,93.616195 3.98589,5.373959 3.78366,-6.073263 0.20448,-22.967122 -7.76925,0.699697 z"
           id="path6039"
           sodipodi:nodetypes="cccccc"
           style="fill:#1b92f4;fill-opacity:1;stroke-width:2.49687" /><path
           d="m 154.49208,64.935265 c -0.98711,-0.148912 -1.52043,0.476186 -1.66382,1.464874 l 0.0587,2.389198 -0.0521,2.608004 7.7693,-0.699628 c 0.17968,-6.370166 0.77277,-4.703989 -6.11205,-5.762482 z"
           style="fill:#1b90f4;fill-opacity:1;stroke-width:2.49687"
           id="path25163-6"
           sodipodi:nodetypes="ccccccc" /><path
           style="fill:#1c96f5;fill-opacity:1;stroke:none;stroke-width:1.23669;stroke-linecap:round;stroke-linejoin:round;stroke-dashoffset:90.7465;stroke-opacity:1;paint-order:stroke fill markers"
           d="m 156.64127,98.990154 -1.97419,-2.661691 c 1.56523,-0.507601 2.07187,-0.684164 3.49701,0.232197 z"
           id="path63505"
           sodipodi:nodetypes="cccc" /></g></g></g></svg>
