<?xml version="1.0" encoding="UTF-8" standalone="no"?>
<!-- Created with Inkscape (http://www.inkscape.org/) -->

<svg
   version="1.1"
   id="svg2"
   width="64"
   height="64"
   viewBox="0 0 64 63.999993"
   sodipodi:docname="skullgirls.svg"
   inkscape:export-filename="/home/itszariep/.icons/ilustraciones/16/apps/folder.png"
   inkscape:export-xdpi="435.14099"
   inkscape:export-ydpi="435.14099"
   inkscape:version="1.1.2 (0a00cf5339, 2022-02-04, custom)"
   xmlns:inkscape="http://www.inkscape.org/namespaces/inkscape"
   xmlns:sodipodi="http://sodipodi.sourceforge.net/DTD/sodipodi-0.dtd"
   xmlns="http://www.w3.org/2000/svg"
   xmlns:svg="http://www.w3.org/2000/svg">
  <defs
     id="defs6" />
  <sodipodi:namedview
     id="namedview4"
     pagecolor="#505050"
     bordercolor="#ffffff"
     borderopacity="1"
     inkscape:pageshadow="0"
     inkscape:pageopacity="0"
     inkscape:pagecheckerboard="1"
     showgrid="false"
     inkscape:snap-global="false"
     inkscape:snap-others="false"
     inkscape:object-nodes="false"
     inkscape:snap-nodes="false"
     inkscape:snap-page="false"
     inkscape:snap-object-midpoints="false"
     inkscape:snap-center="false"
     inkscape:object-paths="false"
     inkscape:snap-intersection-paths="false"
     inkscape:snap-midpoints="false"
     inkscape:snap-bbox="true"
     inkscape:bbox-nodes="true"
     inkscape:bbox-paths="true"
     inkscape:snap-bbox-edge-midpoints="true"
     inkscape:snap-bbox-midpoints="true"
     inkscape:zoom="7.1373591"
     inkscape:cx="29.913025"
     inkscape:cy="23.74828"
     inkscape:window-width="1440"
     inkscape:window-height="881"
     inkscape:window-x="-4"
     inkscape:window-y="-4"
     inkscape:window-maximized="1"
     inkscape:current-layer="g8" />
  <g
     inkscape:groupmode="layer"
     inkscape:label="Image"
     id="g8"
     transform="translate(-17.538715,-22.159819)">
    <path
       style="fill:#d63638;fill-opacity:1;stroke:#000000;stroke-width:1.27496;stroke-miterlimit:4;stroke-dasharray:none;stroke-opacity:1;stroke-linejoin:round;stroke-linecap:round"
       d="M 44.339788,78.611713 C 35.52545,71.913835 26.562322,64.727374 21.107528,54.887789 17.905766,49.065315 16.79807,41.49837 20.524083,35.628483 c 4.106004,-7.216506 13.96681,-10.191966 21.3815,-6.470054 3.234578,1.529316 5.934024,4.138161 7.604365,7.29939 3.57876,-7.163037 12.689836,-10.755757 20.189347,-7.983447 7.816535,2.527513 12.708944,11.37861 10.776964,19.342973 -2.019868,9.473723 -9.149131,16.71507 -16.076237,23.00057 -4.748564,4.190063 -9.922945,7.857327 -14.889253,11.778682 -1.723661,-1.328295 -3.447321,-2.656589 -5.170981,-3.984884 z"
       id="path110929" />
    <path
       style="font-variation-settings:'wght' 100;fill:#ffffff;fill-opacity:1;stroke:#000000;stroke-width:3.12464;stroke-linecap:round;stroke-linejoin:round;stroke-miterlimit:4;stroke-dasharray:none;stroke-dashoffset:90.7465;stroke-opacity:0.996078;paint-order:stroke fill markers"
       d="M 40.030746,70.054252 C 37.664714,68.560794 33.098131,68.111322 35.746168,64.239086 3.5515151,28.084033 93.700029,24.487707 64.087053,62.796518 c 0.04156,2.10931 1.542618,4.637203 -3.086073,5.407077 l -2.092316,2.295982 c 0.81485,1.757782 -2.765584,5.00102 -4.152964,7.769083 -4.455561,5.945417 -11.361926,-1.193064 -14.724954,-8.214408 z"
       id="path20662"
       sodipodi:nodetypes="ccccccc" />
    <path
       style="font-variation-settings:'wght' 100;fill:none;fill-opacity:1;stroke:#1a1a1a;stroke-width:1.53248;stroke-linecap:round;stroke-linejoin:round;stroke-dashoffset:90.7465;stroke-opacity:1;paint-order:stroke fill markers"
       d="m 40.782815,70.220094 c 0,0 11.793427,-0.767809 18.323602,-0.121786"
       id="path22323" />
    <path
       style="font-variation-settings:'wght' 100;fill:none;fill-opacity:1;stroke:#1a1a1a;stroke-width:1.53248;stroke-linecap:round;stroke-linejoin:round;stroke-dashoffset:90.7465;stroke-opacity:1;paint-order:stroke fill markers"
       d="m 43.542372,67.355624 1.536163,3.117795 -0.756015,2.782638"
       id="path22325" />
    <path
       style="font-variation-settings:'wght' 100;fill:#1a1a1a;fill-opacity:1;stroke:#1a1a1a;stroke-width:1.53248;stroke-linecap:round;stroke-linejoin:round;stroke-dashoffset:90.7465;stroke-opacity:1;paint-order:stroke fill markers"
       d="m 49.791186,65.814454 c 0.04855,0.339016 0.01164,8.020084 0.01164,8.020084"
       id="path22327" />
    <path
       style="font-variation-settings:'wght' 100;fill:none;fill-opacity:1;stroke:#1a1a1a;stroke-width:1.53248;stroke-linecap:round;stroke-linejoin:round;stroke-dashoffset:90.7465;stroke-opacity:1;paint-order:stroke fill markers"
       d="m 56.106375,66.441284 -1.230961,3.652704 0.317809,2.964965"
       id="path22329" />
    <path
       style="font-variation-settings:'wght' 100;fill:#1a1a1a;fill-opacity:1;stroke:none;stroke-width:1.53248;stroke-linecap:round;stroke-linejoin:round;stroke-miterlimit:4;stroke-dasharray:none;stroke-dashoffset:90.7465;stroke-opacity:1;paint-order:stroke fill markers"
       d="m 34.460007,53.782318 c -0.997942,3.916972 3.042297,5.061062 6.337878,9.197431 2.034033,0.879031 3.258171,0.04293 4.425894,-0.943094 0.47217,-0.398697 1.523124,-7.923744 0.549602,-8.206428 -0.869269,-0.252409 -6.093783,-3.398008 -7.994574,-5.759115 -1.310065,2.179511 -2.22191,4.489813 -1.619992,7.297306 -0.569325,-0.371513 -1.139471,-0.700532 -1.698808,-1.5861 z"
       id="path22331"
       sodipodi:nodetypes="ccssccc" />
    <path
       style="font-variation-settings:'wght' 100;fill:#1a1a1a;fill-opacity:1;stroke:none;stroke-width:1.53248;stroke-linecap:round;stroke-linejoin:round;stroke-miterlimit:4;stroke-dasharray:none;stroke-dashoffset:90.7465;stroke-opacity:1;paint-order:stroke fill markers"
       d="m 64.838428,53.862658 c 0.997941,3.916972 -3.042296,5.061064 -6.337879,9.197431 -2.034031,0.879029 -3.258171,0.04292 -4.425894,-0.943094 -0.472168,-0.398699 -1.523125,-7.923744 -0.549602,-8.206424 0.869271,-0.252413 6.093785,-3.398012 7.994572,-5.759118 1.310068,2.179509 2.221911,4.489815 1.619993,7.297309 0.569324,-0.371514 1.139471,-0.700532 1.69881,-1.586104 z"
       id="path23932"
       sodipodi:nodetypes="ccssccc" />
  </g>
</svg>
