<?xml version="1.0" encoding="UTF-8" standalone="no"?>
<!-- Created with Inkscape (http://www.inkscape.org/) -->

<svg
   width="63.999989"
   height="64"
   viewBox="0 0 63.999989 64"
   version="1.1"
   id="svg5"
   xmlns="http://www.w3.org/2000/svg"
   xmlns:svg="http://www.w3.org/2000/svg">
  <defs
     id="defs2" />
  <g
     id="layer1"
     transform="translate(-956.04956,-750.3216)">
    <path
       style="font-variation-settings:'wght' 100;fill:#9cff9c;fill-opacity:1;stroke:#5082ee;stroke-width:13.9445;stroke-linecap:round;stroke-linejoin:round;stroke-miterlimit:4;stroke-dasharray:none;stroke-dashoffset:90.7465;stroke-opacity:1;paint-order:stroke fill markers"
       d="m 1013.0773,776.16474 -11.54,25.64267"
       id="path48020" />
    <path
       style="fill:#02aced;fill-opacity:1;stroke:#02aced;stroke-width:1.24604;stroke-linecap:round;stroke-linejoin:round;stroke-miterlimit:4;stroke-dasharray:none;stroke-opacity:1"
       d="m 1001.3012,787.79244 -0.019,0.0317 4.6192,8.21139 c 1.6645,1.77682 3.3137,1.17067 5.0803,0.14234 l -3.7006,8.54736 c -2.0829,4.67983 -8.80728,4.88059 -11.32035,0.41699 -3.79681,-5.85969 -6.53202,-10.85677 -7.92561,-14.99052 -3.93926,-11.68492 0.79909,-16.20318 6.75705,-11.72739 2.08421,1.56572 4.46574,5.70292 6.50941,9.36817 z"
       id="path925" />
    <path
       style="fill:#17d8fc;fill-opacity:1;stroke-width:1.4469"
       d="m 983.74088,774.00686 c -2.91952,3.81749 -5.20414,8.62633 -7.27161,12.31117 l 0.0226,0.0367 c -6.32044,14.44952 -6.39467,12.76377 -7.85779,18.48382 10.5778,14.51294 19.17024,-14.92709 25.23257,-22.73291 2.9411,-4.24852 7.01425,-7.84518 10.31435,-10.88191 1.7017,-2.58628 -2.584,-4.44473 -4.36315,-4.82393 -6.3232,-0.52041 -12.21055,3.2735 -16.07698,7.60701 z"
       id="path931" />
    <path
       style="font-variation-settings:'wght' 100;fill:#0099ec;fill-opacity:1;stroke:#02aced;stroke-width:13.9445;stroke-linecap:round;stroke-linejoin:round;stroke-miterlimit:4;stroke-dasharray:none;stroke-dashoffset:90.7465;stroke-opacity:1;paint-order:stroke fill markers"
       d="m 963.02181,776.30977 11.53995,25.64266"
       id="path35209" />
    <path
       style="font-variation-settings:'wght' 100;fill:#17d8fc;fill-opacity:1;stroke:#17d8fc;stroke-width:1.24604;stroke-linecap:round;stroke-linejoin:round;stroke-miterlimit:4;stroke-dasharray:none;stroke-dashoffset:90.7465;stroke-opacity:1;paint-order:stroke fill markers"
       d="m 975.9428,776.534 c -3.42388,-2.34891 -4.25906,-5.40584 -2.35665,-9.21148 1.92705,-3.06462 4.64486,0.48612 4.03994,2.32172 z"
       id="path52701" />
    <path
       style="font-variation-settings:'wght' 100;fill:#17d8fc;fill-opacity:1;stroke:#17d8fc;stroke-width:1.24604;stroke-linecap:round;stroke-linejoin:round;stroke-miterlimit:4;stroke-dasharray:none;stroke-dashoffset:90.7465;stroke-opacity:1;paint-order:stroke fill markers"
       d="m 981.3601,770.94509 c 2.09459,-2.79754 5.0572,-5.56617 9.78712,-6.38797 4.98195,-0.86559 3.80626,-13.15128 -7.46003,-6.31117 -4.35919,2.6466 -4.23513,8.42045 -2.32709,12.69914 z"
       id="path60740" />
    <path
       id="path69826"
       style="font-variation-settings:'wght' 100;fill:#17d8fc;stroke:#17d8fc;stroke-width:1.24604;stroke-linecap:round;stroke-linejoin:round;stroke-dashoffset:90.7465;paint-order:stroke fill markers"
       d="m 1004.0337,758.01725 a 2.5770339,2.5770339 0 0 1 -2.577,2.57704 2.5770339,2.5770339 0 0 1 -2.57706,-2.57704 2.5770339,2.5770339 0 0 1 2.57706,-2.57703 2.5770339,2.5770339 0 0 1 2.577,2.57703 z" />
    <path
       style="fill:#a6f3fc;stroke-width:0.12443"
       d="m 986.16926,774.6533 c 0.15293,-1.93726 1.02567,-3.55321 2.42327,-4.92642 3.10134,-2.11455 7.3175,-3.8742 11.23646,-3.32959 1.72171,0.23926 3.40661,1.06408 4.45791,2.48872 0.7979,0.84589 0.3772,2.05094 -0.6082,2.80203 -1.8291,1.6944 -3.649,3.41007 -5.48156,5.13725 -2.14075,0.67408 -3.57751,1.56328 -5.29625,-0.097 -0.57948,-0.60803 -1.07558,0.22703 -1.63872,0.48551 -3.05474,1.40214 -5.16668,-0.24819 -5.09291,-2.56048 z"
       id="path155221" />
  </g>
</svg>
