<?xml version="1.0" encoding="UTF-8" standalone="no"?>
<!-- Created with Inkscape (http://www.inkscape.org/) -->

<svg
   width="32"
   version="1.1"
   height="30.270815"
   id="svg71"
   sodipodi:docname="video-display.svg"
   inkscape:version="1.1.2 (0a00cf5339, 2022-02-04, custom)"
   xmlns:inkscape="http://www.inkscape.org/namespaces/inkscape"
   xmlns:sodipodi="http://sodipodi.sourceforge.net/DTD/sodipodi-0.dtd"
   xmlns="http://www.w3.org/2000/svg"
   xmlns:svg="http://www.w3.org/2000/svg">
  <sodipodi:namedview
     id="namedview73"
     pagecolor="#505050"
     bordercolor="#ffffff"
     borderopacity="1"
     inkscape:pageshadow="0"
     inkscape:pageopacity="0"
     inkscape:pagecheckerboard="1"
     showgrid="false"
     inkscape:snap-object-midpoints="false"
     inkscape:snap-bbox="true"
     inkscape:snap-bbox-edge-midpoints="false"
     inkscape:zoom="0.50000002"
     inkscape:cx="15.999999"
     inkscape:cy="-84.999996"
     inkscape:window-width="1440"
     inkscape:window-height="881"
     inkscape:window-x="-4"
     inkscape:window-y="-4"
     inkscape:window-maximized="1"
     inkscape:current-layer="layer1" />
  <defs
     id="defs5455" />
  <metadata
     id="metadata5458" />
  <g
     inkscape:label="Capa 1"
     inkscape:groupmode="layer"
     id="layer1"
     transform="translate(-381.17146,-498.398)">
    <rect
       style="fill:#1a1a1a;stroke:none;stroke-width:17.119;stroke-linecap:round;stroke-linejoin:round"
       id="rect1152"
       width="28.861139"
       height="21.48362"
       x="382.80609"
       y="500.01382"
       rx="0"
       ry="0" />
    <path
       inkscape:connector-curvature="0"
       style="fill:#b3b3b3;stroke-width:1.63504;stroke-opacity:0.550265"
       id="rect4254"
       d="m 393.00642,521.39457 v 4.45918 1.27406 1.27406 h 8.17519 v -1.27406 -1.27406 -4.45918 z" />
    <rect
       width="30.36496"
       x="381.98898"
       y="499.21552"
       height="22.932985"
       style="fill:none;fill-opacity:1;stroke:#333333;stroke-width:1.63504;stroke-opacity:1"
       id="rect4173"
       ry="0.38189635" />
    <path
       style="fill:#333333;stroke:#333333;stroke-width:1.75182;stroke-linecap:round;stroke-linejoin:miter;stroke-miterlimit:4;stroke-dasharray:none;stroke-opacity:1"
       d="m 389.98536,527.7929 h 14.2173"
       id="path11485" />
    <path
       style="fill:#cccccc;stroke-width:0.0233641;paint-order:stroke fill markers"
       d="m 403.12105,518.15919 c -0.11286,0.0349 -0.18754,0.009 -0.58198,-0.19929 -0.17824,-0.0943 -0.37857,-0.19866 -0.44517,-0.23197 -0.0666,-0.0333 -0.3118,-0.15971 -0.54488,-0.28089 -0.56929,-0.29596 -0.52824,-0.28141 -0.63294,-0.22411 -0.22464,0.12296 -0.73111,0.34019 -1.03911,0.44569 -0.33381,0.11433 -0.33837,0.11675 -0.35626,0.18911 -0.01,0.0403 -0.101,0.33221 -0.20229,0.64866 -0.10131,0.31645 -0.2415,0.75736 -0.31156,0.97978 -0.07,0.22243 -0.14368,0.42076 -0.16362,0.44075 -0.02,0.02 -0.072,0.0482 -0.11567,0.0627 -0.0964,0.032 -2.23477,0.0443 -2.37761,0.0136 -0.16217,-0.0349 -0.20997,-0.10225 -0.31751,-0.44794 -0.0522,-0.16793 -0.15284,-0.48548 -0.22357,-0.70568 -0.0707,-0.2202 -0.1755,-0.54986 -0.23284,-0.7326 l -0.10424,-0.33224 -0.22849,-0.0754 c -0.35852,-0.11839 -0.63313,-0.22982 -0.9429,-0.3826 -0.1574,-0.0776 -0.29154,-0.14114 -0.29809,-0.14113 -0.0123,-4e-5 -0.81853,0.41466 -1.53423,0.78916 -0.23536,0.12316 -0.44183,0.21671 -0.48115,0.21804 -0.0379,0.001 -0.10947,-0.0219 -0.15911,-0.0515 -0.12358,-0.0736 -1.60343,-1.55056 -1.66988,-1.66651 -0.0775,-0.13525 -0.0663,-0.20336 0.0779,-0.47747 0.0726,-0.1378 0.22817,-0.43667 0.34585,-0.66416 0.11768,-0.22749 0.27734,-0.53604 0.35482,-0.68566 0.0774,-0.14962 0.14898,-0.29067 0.15891,-0.31345 0.0121,-0.0279 -0.0234,-0.1244 -0.10857,-0.29451 -0.17682,-0.35343 -0.26456,-0.56346 -0.37986,-0.90938 l -0.0997,-0.29913 -0.38194,-0.12038 c -0.21005,-0.0662 -0.57346,-0.18148 -0.80756,-0.25616 -0.2341,-0.0747 -0.52972,-0.16727 -0.65694,-0.20577 -0.25197,-0.0763 -0.34954,-0.14576 -0.37433,-0.26669 -0.0279,-0.13588 -0.0221,-2.29859 0.007,-2.38919 0.0365,-0.11639 0.0813,-0.16198 0.19326,-0.19678 0.25098,-0.0782 0.87794,-0.2782 1.36555,-0.43571 0.30236,-0.0977 0.57271,-0.18201 0.6008,-0.18743 0.0435,-0.008 0.0591,-0.0369 0.1054,-0.19189 0.0759,-0.25451 0.25501,-0.69688 0.41005,-1.01304 0.0721,-0.1471 0.12878,-0.27953 0.12587,-0.29428 -0.003,-0.0148 -0.0644,-0.14023 -0.13665,-0.27888 -0.0722,-0.13866 -0.19216,-0.36976 -0.26649,-0.51357 -0.0743,-0.14381 -0.22726,-0.43711 -0.33983,-0.65176 -0.24975,-0.47628 -0.27209,-0.53797 -0.23514,-0.64911 0.0263,-0.0791 0.10145,-0.15949 0.85405,-0.91365 0.75257,-0.75415 0.83281,-0.82945 0.91185,-0.85593 0.11196,-0.0374 0.17708,-0.014 0.64929,0.23409 0.21438,0.11264 0.41494,0.21678 0.44571,0.23144 0.0307,0.0146 0.27229,0.13799 0.53673,0.27408 l 0.48079,0.24745 0.15802,-0.0822 c 0.27058,-0.1408 0.73199,-0.33578 1.0291,-0.43486 0.23598,-0.0787 0.28641,-0.10326 0.29421,-0.14323 0.005,-0.0265 0.085,-0.28469 0.17748,-0.57368 0.0924,-0.28899 0.23642,-0.7409 0.31995,-1.00424 0.0835,-0.26334 0.16816,-0.49512 0.18806,-0.51505 0.0199,-0.02 0.0781,-0.0496 0.12937,-0.0657 0.0905,-0.0286 2.25323,-0.0389 2.38917,-0.0113 0.13118,0.0266 0.18984,0.11888 0.30076,0.47313 0.0568,0.18155 0.15748,0.49914 0.2236,0.70576 0.0661,0.20661 0.16715,0.52513 0.2245,0.70781 l 0.10426,0.33214 0.29958,0.0992 c 0.35475,0.11744 0.56854,0.20615 0.9107,0.3779 l 0.25271,0.12685 0.3131,-0.16006 c 0.28863,-0.14754 0.76658,-0.39519 1.38882,-0.7196 0.27039,-0.14097 0.35476,-0.15749 0.47072,-0.0921 0.11095,0.0626 1.63036,1.58307 1.68738,1.68861 0.065,0.12029 0.0528,0.19517 -0.07,0.42976 -0.0606,0.11588 -0.15849,0.30366 -0.21743,0.4173 -0.059,0.11365 -0.15427,0.29702 -0.21184,0.4075 -0.20578,0.39493 -0.4614,0.90112 -0.46139,0.91365 10e-6,0.007 0.0563,0.12431 0.12508,0.26066 0.17015,0.33727 0.25971,0.5521 0.37742,0.90522 l 0.0998,0.29924 0.23307,0.071 c 0.12819,0.039 0.44699,0.1394 0.70844,0.22304 0.26146,0.0836 0.62406,0.19844 0.80579,0.2551 0.38693,0.12063 0.45188,0.16761 0.47877,0.34632 0.009,0.0616 0.0159,0.60662 0.0145,1.21103 -0.002,0.94942 -0.009,1.11176 -0.0535,1.19321 l -0.0511,0.0943 -0.29024,0.0932 c -0.15964,0.0512 -0.58307,0.18713 -0.94096,0.302 -0.35789,0.11486 -0.70646,0.22504 -0.77459,0.24485 l -0.12389,0.036 -0.0957,0.28952 c -0.0981,0.29691 -0.28459,0.74128 -0.42854,1.02119 l -0.0811,0.15772 0.13434,0.26426 c 0.17628,0.34679 0.36951,0.71945 0.6214,1.19846 0.24874,0.47302 0.27208,0.53753 0.23489,0.64937 -0.0263,0.0791 -0.10149,0.15954 -0.85426,0.91393 -0.77022,0.77186 -0.83131,0.82901 -0.91341,0.8544 z m -2.44859,-4.87818 c 0.29136,-0.37453 0.52186,-0.79778 0.65849,-1.20919 0.25703,-0.77395 0.27449,-1.64925 0.0484,-2.42614 -0.30293,-1.04091 -1.0758,-1.96937 -2.04907,-2.46158 -1.40496,-0.71052 -3.07563,-0.54682 -4.31757,0.42306 -1.48536,1.15997 -1.96751,3.20504 -1.15905,4.91612 0.18903,0.40008 0.45103,0.76409 0.80221,1.11454 0.48305,0.48205 0.93918,0.76511 1.57379,0.97664 0.47,0.15666 0.82989,0.20974 1.36291,0.20103 1.20906,-0.0198 2.33972,-0.58312 3.07988,-1.53448 z"
       id="path1756" />
  </g>
</svg>
